%TF.GenerationSoftware,KiCad,Pcbnew,(6.0.6-0)*%
%TF.CreationDate,2023-05-13T23:48:37+01:00*%
%TF.ProjectId,ouroboros,6f75726f-626f-4726-9f73-2e6b69636164,r02*%
%TF.SameCoordinates,Original*%
%TF.FileFunction,Legend,Bot*%
%TF.FilePolarity,Positive*%
%FSLAX46Y46*%
G04 Gerber Fmt 4.6, Leading zero omitted, Abs format (unit mm)*
G04 Created by KiCad (PCBNEW (6.0.6-0)) date 2023-05-13 23:48:37*
%MOMM*%
%LPD*%
G01*
G04 APERTURE LIST*
%ADD10C,0.300000*%
%ADD11C,0.150000*%
%ADD12C,0.120000*%
%ADD13C,1.000000*%
G04 APERTURE END LIST*
D10*
X208560571Y-39331214D02*
X208632000Y-39402642D01*
X208846285Y-39474071D01*
X208989142Y-39474071D01*
X209203428Y-39402642D01*
X209346285Y-39259785D01*
X209417714Y-39116928D01*
X209489142Y-38831214D01*
X209489142Y-38616928D01*
X209417714Y-38331214D01*
X209346285Y-38188357D01*
X209203428Y-38045500D01*
X208989142Y-37974071D01*
X208846285Y-37974071D01*
X208632000Y-38045500D01*
X208560571Y-38116928D01*
X207060571Y-39474071D02*
X207560571Y-38759785D01*
X207917714Y-39474071D02*
X207917714Y-37974071D01*
X207346285Y-37974071D01*
X207203428Y-38045500D01*
X207132000Y-38116928D01*
X207060571Y-38259785D01*
X207060571Y-38474071D01*
X207132000Y-38616928D01*
X207203428Y-38688357D01*
X207346285Y-38759785D01*
X207917714Y-38759785D01*
X206417714Y-38688357D02*
X205917714Y-38688357D01*
X205703428Y-39474071D02*
X206417714Y-39474071D01*
X206417714Y-37974071D01*
X205703428Y-37974071D01*
X205132000Y-39045500D02*
X204417714Y-39045500D01*
X205274857Y-39474071D02*
X204774857Y-37974071D01*
X204274857Y-39474071D01*
X203989142Y-37974071D02*
X203132000Y-37974071D01*
X203560571Y-39474071D02*
X203560571Y-37974071D01*
X202632000Y-39474071D02*
X202632000Y-37974071D01*
X201632000Y-37974071D02*
X201346285Y-37974071D01*
X201203428Y-38045500D01*
X201060571Y-38188357D01*
X200989142Y-38474071D01*
X200989142Y-38974071D01*
X201060571Y-39259785D01*
X201203428Y-39402642D01*
X201346285Y-39474071D01*
X201632000Y-39474071D01*
X201774857Y-39402642D01*
X201917714Y-39259785D01*
X201989142Y-38974071D01*
X201989142Y-38474071D01*
X201917714Y-38188357D01*
X201774857Y-38045500D01*
X201632000Y-37974071D01*
X200346285Y-39474071D02*
X200346285Y-37974071D01*
X199489142Y-39474071D01*
X199489142Y-37974071D01*
X197632000Y-39474071D02*
X197632000Y-37974071D01*
X196989142Y-39402642D02*
X196774857Y-39474071D01*
X196417714Y-39474071D01*
X196274857Y-39402642D01*
X196203428Y-39331214D01*
X196132000Y-39188357D01*
X196132000Y-39045500D01*
X196203428Y-38902642D01*
X196274857Y-38831214D01*
X196417714Y-38759785D01*
X196703428Y-38688357D01*
X196846285Y-38616928D01*
X196917714Y-38545500D01*
X196989142Y-38402642D01*
X196989142Y-38259785D01*
X196917714Y-38116928D01*
X196846285Y-38045500D01*
X196703428Y-37974071D01*
X196346285Y-37974071D01*
X196132000Y-38045500D01*
X194346285Y-39474071D02*
X194346285Y-37974071D01*
X193489142Y-39474071D01*
X193489142Y-37974071D01*
X192489142Y-37974071D02*
X192203428Y-37974071D01*
X192060571Y-38045500D01*
X191917714Y-38188357D01*
X191846285Y-38474071D01*
X191846285Y-38974071D01*
X191917714Y-39259785D01*
X192060571Y-39402642D01*
X192203428Y-39474071D01*
X192489142Y-39474071D01*
X192632000Y-39402642D01*
X192774857Y-39259785D01*
X192846285Y-38974071D01*
X192846285Y-38474071D01*
X192774857Y-38188357D01*
X192632000Y-38045500D01*
X192489142Y-37974071D01*
X191417714Y-37974071D02*
X190560571Y-37974071D01*
X190989142Y-39474071D02*
X190989142Y-37974071D01*
X188989142Y-39045500D02*
X188274857Y-39045500D01*
X189132000Y-39474071D02*
X188632000Y-37974071D01*
X188132000Y-39474071D01*
X211167714Y-40389071D02*
X210310571Y-40389071D01*
X210739142Y-41889071D02*
X210739142Y-40389071D01*
X209810571Y-41889071D02*
X209810571Y-40389071D01*
X209810571Y-41103357D02*
X208953428Y-41103357D01*
X208953428Y-41889071D02*
X208953428Y-40389071D01*
X208239142Y-41889071D02*
X208239142Y-40389071D01*
X207524857Y-41889071D02*
X207524857Y-40389071D01*
X206667714Y-41889071D01*
X206667714Y-40389071D01*
X205167714Y-40460500D02*
X205310571Y-40389071D01*
X205524857Y-40389071D01*
X205739142Y-40460500D01*
X205882000Y-40603357D01*
X205953428Y-40746214D01*
X206024857Y-41031928D01*
X206024857Y-41246214D01*
X205953428Y-41531928D01*
X205882000Y-41674785D01*
X205739142Y-41817642D01*
X205524857Y-41889071D01*
X205382000Y-41889071D01*
X205167714Y-41817642D01*
X205096285Y-41746214D01*
X205096285Y-41246214D01*
X205382000Y-41246214D01*
X203524857Y-40389071D02*
X202667714Y-40389071D01*
X203096285Y-41889071D02*
X203096285Y-40389071D01*
X202167714Y-41889071D02*
X202167714Y-40389071D01*
X202167714Y-41103357D02*
X201310571Y-41103357D01*
X201310571Y-41889071D02*
X201310571Y-40389071D01*
X200667714Y-41460500D02*
X199953428Y-41460500D01*
X200810571Y-41889071D02*
X200310571Y-40389071D01*
X199810571Y-41889071D01*
X199524857Y-40389071D02*
X198667714Y-40389071D01*
X199096285Y-41889071D02*
X199096285Y-40389071D01*
X196239142Y-40460500D02*
X196382000Y-40389071D01*
X196596285Y-40389071D01*
X196810571Y-40460500D01*
X196953428Y-40603357D01*
X197024857Y-40746214D01*
X197096285Y-41031928D01*
X197096285Y-41246214D01*
X197024857Y-41531928D01*
X196953428Y-41674785D01*
X196810571Y-41817642D01*
X196596285Y-41889071D01*
X196453428Y-41889071D01*
X196239142Y-41817642D01*
X196167714Y-41746214D01*
X196167714Y-41246214D01*
X196453428Y-41246214D01*
X195239142Y-40389071D02*
X194953428Y-40389071D01*
X194810571Y-40460500D01*
X194667714Y-40603357D01*
X194596285Y-40889071D01*
X194596285Y-41389071D01*
X194667714Y-41674785D01*
X194810571Y-41817642D01*
X194953428Y-41889071D01*
X195239142Y-41889071D01*
X195382000Y-41817642D01*
X195524857Y-41674785D01*
X195596285Y-41389071D01*
X195596285Y-40889071D01*
X195524857Y-40603357D01*
X195382000Y-40460500D01*
X195239142Y-40389071D01*
X193953428Y-41889071D02*
X193953428Y-40389071D01*
X193596285Y-40389071D01*
X193382000Y-40460500D01*
X193239142Y-40603357D01*
X193167714Y-40746214D01*
X193096285Y-41031928D01*
X193096285Y-41246214D01*
X193167714Y-41531928D01*
X193239142Y-41674785D01*
X193382000Y-41817642D01*
X193596285Y-41889071D01*
X193953428Y-41889071D01*
X192524857Y-41817642D02*
X192310571Y-41889071D01*
X191953428Y-41889071D01*
X191810571Y-41817642D01*
X191739142Y-41746214D01*
X191667714Y-41603357D01*
X191667714Y-41460500D01*
X191739142Y-41317642D01*
X191810571Y-41246214D01*
X191953428Y-41174785D01*
X192239142Y-41103357D01*
X192382000Y-41031928D01*
X192453428Y-40960500D01*
X192524857Y-40817642D01*
X192524857Y-40674785D01*
X192453428Y-40531928D01*
X192382000Y-40460500D01*
X192239142Y-40389071D01*
X191882000Y-40389071D01*
X191667714Y-40460500D01*
X189882000Y-41889071D02*
X189882000Y-40389071D01*
X189524857Y-40389071D01*
X189310571Y-40460500D01*
X189167714Y-40603357D01*
X189096285Y-40746214D01*
X189024857Y-41031928D01*
X189024857Y-41246214D01*
X189096285Y-41531928D01*
X189167714Y-41674785D01*
X189310571Y-41817642D01*
X189524857Y-41889071D01*
X189882000Y-41889071D01*
X188096285Y-40389071D02*
X187810571Y-40389071D01*
X187667714Y-40460500D01*
X187524857Y-40603357D01*
X187453428Y-40889071D01*
X187453428Y-41389071D01*
X187524857Y-41674785D01*
X187667714Y-41817642D01*
X187810571Y-41889071D01*
X188096285Y-41889071D01*
X188239142Y-41817642D01*
X188382000Y-41674785D01*
X188453428Y-41389071D01*
X188453428Y-40889071D01*
X188382000Y-40603357D01*
X188239142Y-40460500D01*
X188096285Y-40389071D01*
X186739142Y-41817642D02*
X186739142Y-41889071D01*
X186810571Y-42031928D01*
X186882000Y-42103357D01*
X207953428Y-44304071D02*
X207953428Y-42804071D01*
X207453428Y-42804071D02*
X206596285Y-42804071D01*
X207024857Y-44304071D02*
X207024857Y-42804071D01*
X204953428Y-44304071D02*
X204953428Y-42804071D01*
X204310571Y-44232642D02*
X204096285Y-44304071D01*
X203739142Y-44304071D01*
X203596285Y-44232642D01*
X203524857Y-44161214D01*
X203453428Y-44018357D01*
X203453428Y-43875500D01*
X203524857Y-43732642D01*
X203596285Y-43661214D01*
X203739142Y-43589785D01*
X204024857Y-43518357D01*
X204167714Y-43446928D01*
X204239142Y-43375500D01*
X204310571Y-43232642D01*
X204310571Y-43089785D01*
X204239142Y-42946928D01*
X204167714Y-42875500D01*
X204024857Y-42804071D01*
X203667714Y-42804071D01*
X203453428Y-42875500D01*
X201739142Y-44232642D02*
X201524857Y-44304071D01*
X201167714Y-44304071D01*
X201024857Y-44232642D01*
X200953428Y-44161214D01*
X200882000Y-44018357D01*
X200882000Y-43875500D01*
X200953428Y-43732642D01*
X201024857Y-43661214D01*
X201167714Y-43589785D01*
X201453428Y-43518357D01*
X201596285Y-43446928D01*
X201667714Y-43375500D01*
X201739142Y-43232642D01*
X201739142Y-43089785D01*
X201667714Y-42946928D01*
X201596285Y-42875500D01*
X201453428Y-42804071D01*
X201096285Y-42804071D01*
X200882000Y-42875500D01*
X199953428Y-42804071D02*
X199667714Y-42804071D01*
X199524857Y-42875500D01*
X199382000Y-43018357D01*
X199310571Y-43304071D01*
X199310571Y-43804071D01*
X199382000Y-44089785D01*
X199524857Y-44232642D01*
X199667714Y-44304071D01*
X199953428Y-44304071D01*
X200096285Y-44232642D01*
X200239142Y-44089785D01*
X200310571Y-43804071D01*
X200310571Y-43304071D01*
X200239142Y-43018357D01*
X200096285Y-42875500D01*
X199953428Y-42804071D01*
X198667714Y-44304071D02*
X198667714Y-42804071D01*
X198167714Y-43875500D01*
X197667714Y-42804071D01*
X197667714Y-44304071D01*
X196953428Y-43518357D02*
X196453428Y-43518357D01*
X196239142Y-44304071D02*
X196953428Y-44304071D01*
X196953428Y-42804071D01*
X196239142Y-42804071D01*
X195810571Y-42804071D02*
X194953428Y-42804071D01*
X195382000Y-44304071D02*
X195382000Y-42804071D01*
X194453428Y-44304071D02*
X194453428Y-42804071D01*
X194453428Y-43518357D02*
X193596285Y-43518357D01*
X193596285Y-44304071D02*
X193596285Y-42804071D01*
X192882000Y-44304071D02*
X192882000Y-42804071D01*
X192167714Y-44304071D02*
X192167714Y-42804071D01*
X191310571Y-44304071D01*
X191310571Y-42804071D01*
X189810571Y-42875500D02*
X189953428Y-42804071D01*
X190167714Y-42804071D01*
X190382000Y-42875500D01*
X190524857Y-43018357D01*
X190596285Y-43161214D01*
X190667714Y-43446928D01*
X190667714Y-43661214D01*
X190596285Y-43946928D01*
X190524857Y-44089785D01*
X190382000Y-44232642D01*
X190167714Y-44304071D01*
X190024857Y-44304071D01*
X189810571Y-44232642D01*
X189739142Y-44161214D01*
X189739142Y-43661214D01*
X190024857Y-43661214D01*
X207203428Y-45219071D02*
X206346285Y-45219071D01*
X206774857Y-46719071D02*
X206774857Y-45219071D01*
X205846285Y-46719071D02*
X205846285Y-45219071D01*
X205846285Y-45933357D02*
X204989142Y-45933357D01*
X204989142Y-46719071D02*
X204989142Y-45219071D01*
X204346285Y-46290500D02*
X203632000Y-46290500D01*
X204489142Y-46719071D02*
X203989142Y-45219071D01*
X203489142Y-46719071D01*
X203203428Y-45219071D02*
X202346285Y-45219071D01*
X202774857Y-46719071D02*
X202774857Y-45219071D01*
X200917714Y-45219071D02*
X200060571Y-45219071D01*
X200489142Y-46719071D02*
X200489142Y-45219071D01*
X199560571Y-46719071D02*
X199560571Y-45219071D01*
X199560571Y-45933357D02*
X198703428Y-45933357D01*
X198703428Y-46719071D02*
X198703428Y-45219071D01*
X197989142Y-45933357D02*
X197489142Y-45933357D01*
X197274857Y-46719071D02*
X197989142Y-46719071D01*
X197989142Y-45219071D01*
X197274857Y-45219071D01*
X196346285Y-46004785D02*
X196346285Y-46719071D01*
X196846285Y-45219071D02*
X196346285Y-46004785D01*
X195846285Y-45219071D01*
X194274857Y-46290500D02*
X193560571Y-46290500D01*
X194417714Y-46719071D02*
X193917714Y-45219071D01*
X193417714Y-46719071D01*
X192060571Y-46719071D02*
X192560571Y-46004785D01*
X192917714Y-46719071D02*
X192917714Y-45219071D01*
X192346285Y-45219071D01*
X192203428Y-45290500D01*
X192132000Y-45361928D01*
X192060571Y-45504785D01*
X192060571Y-45719071D01*
X192132000Y-45861928D01*
X192203428Y-45933357D01*
X192346285Y-46004785D01*
X192917714Y-46004785D01*
X191417714Y-45933357D02*
X190917714Y-45933357D01*
X190703428Y-46719071D02*
X191417714Y-46719071D01*
X191417714Y-45219071D01*
X190703428Y-45219071D01*
D11*
X327738952Y-83186380D02*
X327548476Y-83186380D01*
X327453238Y-83234000D01*
X327358000Y-83329238D01*
X327310380Y-83519714D01*
X327310380Y-83853047D01*
X327358000Y-84043523D01*
X327453238Y-84138761D01*
X327548476Y-84186380D01*
X327738952Y-84186380D01*
X327834190Y-84138761D01*
X327929428Y-84043523D01*
X327977047Y-83853047D01*
X327977047Y-83519714D01*
X327929428Y-83329238D01*
X327834190Y-83234000D01*
X327738952Y-83186380D01*
X326453238Y-83519714D02*
X326453238Y-84186380D01*
X326881809Y-83519714D02*
X326881809Y-84043523D01*
X326834190Y-84138761D01*
X326738952Y-84186380D01*
X326596095Y-84186380D01*
X326500857Y-84138761D01*
X326453238Y-84091142D01*
X325977047Y-84186380D02*
X325977047Y-83519714D01*
X325977047Y-83710190D02*
X325929428Y-83614952D01*
X325881809Y-83567333D01*
X325786571Y-83519714D01*
X325691333Y-83519714D01*
X325215142Y-84186380D02*
X325310380Y-84138761D01*
X325358000Y-84091142D01*
X325405619Y-83995904D01*
X325405619Y-83710190D01*
X325358000Y-83614952D01*
X325310380Y-83567333D01*
X325215142Y-83519714D01*
X325072285Y-83519714D01*
X324977047Y-83567333D01*
X324929428Y-83614952D01*
X324881809Y-83710190D01*
X324881809Y-83995904D01*
X324929428Y-84091142D01*
X324977047Y-84138761D01*
X325072285Y-84186380D01*
X325215142Y-84186380D01*
X324453238Y-84186380D02*
X324453238Y-83186380D01*
X324453238Y-83567333D02*
X324358000Y-83519714D01*
X324167523Y-83519714D01*
X324072285Y-83567333D01*
X324024666Y-83614952D01*
X323977047Y-83710190D01*
X323977047Y-83995904D01*
X324024666Y-84091142D01*
X324072285Y-84138761D01*
X324167523Y-84186380D01*
X324358000Y-84186380D01*
X324453238Y-84138761D01*
X323405619Y-84186380D02*
X323500857Y-84138761D01*
X323548476Y-84091142D01*
X323596095Y-83995904D01*
X323596095Y-83710190D01*
X323548476Y-83614952D01*
X323500857Y-83567333D01*
X323405619Y-83519714D01*
X323262761Y-83519714D01*
X323167523Y-83567333D01*
X323119904Y-83614952D01*
X323072285Y-83710190D01*
X323072285Y-83995904D01*
X323119904Y-84091142D01*
X323167523Y-84138761D01*
X323262761Y-84186380D01*
X323405619Y-84186380D01*
X322643714Y-84186380D02*
X322643714Y-83519714D01*
X322643714Y-83710190D02*
X322596095Y-83614952D01*
X322548476Y-83567333D01*
X322453238Y-83519714D01*
X322358000Y-83519714D01*
X321881809Y-84186380D02*
X321977047Y-84138761D01*
X322024666Y-84091142D01*
X322072285Y-83995904D01*
X322072285Y-83710190D01*
X322024666Y-83614952D01*
X321977047Y-83567333D01*
X321881809Y-83519714D01*
X321738952Y-83519714D01*
X321643714Y-83567333D01*
X321596095Y-83614952D01*
X321548476Y-83710190D01*
X321548476Y-83995904D01*
X321596095Y-84091142D01*
X321643714Y-84138761D01*
X321738952Y-84186380D01*
X321881809Y-84186380D01*
X321167523Y-84138761D02*
X321072285Y-84186380D01*
X320881809Y-84186380D01*
X320786571Y-84138761D01*
X320738952Y-84043523D01*
X320738952Y-83995904D01*
X320786571Y-83900666D01*
X320881809Y-83853047D01*
X321024666Y-83853047D01*
X321119904Y-83805428D01*
X321167523Y-83710190D01*
X321167523Y-83662571D01*
X321119904Y-83567333D01*
X321024666Y-83519714D01*
X320881809Y-83519714D01*
X320786571Y-83567333D01*
X325381809Y-85796380D02*
X325381809Y-85129714D01*
X325381809Y-85320190D02*
X325334190Y-85224952D01*
X325286571Y-85177333D01*
X325191333Y-85129714D01*
X325096095Y-85129714D01*
X324572285Y-84796380D02*
X324477047Y-84796380D01*
X324381809Y-84844000D01*
X324334190Y-84891619D01*
X324286571Y-84986857D01*
X324238952Y-85177333D01*
X324238952Y-85415428D01*
X324286571Y-85605904D01*
X324334190Y-85701142D01*
X324381809Y-85748761D01*
X324477047Y-85796380D01*
X324572285Y-85796380D01*
X324667523Y-85748761D01*
X324715142Y-85701142D01*
X324762761Y-85605904D01*
X324810380Y-85415428D01*
X324810380Y-85177333D01*
X324762761Y-84986857D01*
X324715142Y-84891619D01*
X324667523Y-84844000D01*
X324572285Y-84796380D01*
X323858000Y-84891619D02*
X323810380Y-84844000D01*
X323715142Y-84796380D01*
X323477047Y-84796380D01*
X323381809Y-84844000D01*
X323334190Y-84891619D01*
X323286571Y-84986857D01*
X323286571Y-85082095D01*
X323334190Y-85224952D01*
X323905619Y-85796380D01*
X323286571Y-85796380D01*
X328000857Y-87406380D02*
X328000857Y-86739714D01*
X328000857Y-86930190D02*
X327953238Y-86834952D01*
X327905619Y-86787333D01*
X327810380Y-86739714D01*
X327715142Y-86739714D01*
X326953238Y-86739714D02*
X326953238Y-87406380D01*
X327381809Y-86739714D02*
X327381809Y-87263523D01*
X327334190Y-87358761D01*
X327238952Y-87406380D01*
X327096095Y-87406380D01*
X327000857Y-87358761D01*
X326953238Y-87311142D01*
X326477047Y-87406380D02*
X326477047Y-86739714D01*
X326477047Y-86834952D02*
X326429428Y-86787333D01*
X326334190Y-86739714D01*
X326191333Y-86739714D01*
X326096095Y-86787333D01*
X326048476Y-86882571D01*
X326048476Y-87406380D01*
X326048476Y-86882571D02*
X326000857Y-86787333D01*
X325905619Y-86739714D01*
X325762761Y-86739714D01*
X325667523Y-86787333D01*
X325619904Y-86882571D01*
X325619904Y-87406380D01*
X325143714Y-87406380D02*
X325143714Y-86406380D01*
X325143714Y-86787333D02*
X325048476Y-86739714D01*
X324858000Y-86739714D01*
X324762761Y-86787333D01*
X324715142Y-86834952D01*
X324667523Y-86930190D01*
X324667523Y-87215904D01*
X324715142Y-87311142D01*
X324762761Y-87358761D01*
X324858000Y-87406380D01*
X325048476Y-87406380D01*
X325143714Y-87358761D01*
X324096095Y-87406380D02*
X324191333Y-87358761D01*
X324238952Y-87263523D01*
X324238952Y-86406380D01*
X323334190Y-87358761D02*
X323429428Y-87406380D01*
X323619904Y-87406380D01*
X323715142Y-87358761D01*
X323762761Y-87263523D01*
X323762761Y-86882571D01*
X323715142Y-86787333D01*
X323619904Y-86739714D01*
X323429428Y-86739714D01*
X323334190Y-86787333D01*
X323286571Y-86882571D01*
X323286571Y-86977809D01*
X323762761Y-87073047D01*
X322905619Y-87358761D02*
X322810380Y-87406380D01*
X322619904Y-87406380D01*
X322524666Y-87358761D01*
X322477047Y-87263523D01*
X322477047Y-87215904D01*
X322524666Y-87120666D01*
X322619904Y-87073047D01*
X322762761Y-87073047D01*
X322858000Y-87025428D01*
X322905619Y-86930190D01*
X322905619Y-86882571D01*
X322858000Y-86787333D01*
X322762761Y-86739714D01*
X322619904Y-86739714D01*
X322524666Y-86787333D01*
X321619904Y-87406380D02*
X321619904Y-86882571D01*
X321667523Y-86787333D01*
X321762761Y-86739714D01*
X321953238Y-86739714D01*
X322048476Y-86787333D01*
X321619904Y-87358761D02*
X321715142Y-87406380D01*
X321953238Y-87406380D01*
X322048476Y-87358761D01*
X322096095Y-87263523D01*
X322096095Y-87168285D01*
X322048476Y-87073047D01*
X321953238Y-87025428D01*
X321715142Y-87025428D01*
X321619904Y-86977809D01*
X321143714Y-86739714D02*
X321143714Y-87406380D01*
X321143714Y-86834952D02*
X321096095Y-86787333D01*
X321000857Y-86739714D01*
X320858000Y-86739714D01*
X320762761Y-86787333D01*
X320715142Y-86882571D01*
X320715142Y-87406380D01*
%TO.C,J44*%
X65982380Y-50290476D02*
X66696666Y-50290476D01*
X66839523Y-50242857D01*
X66934761Y-50147619D01*
X66982380Y-50004761D01*
X66982380Y-49909523D01*
X66315714Y-51195238D02*
X66982380Y-51195238D01*
X65934761Y-50957142D02*
X66649047Y-50719047D01*
X66649047Y-51338095D01*
X66315714Y-52147619D02*
X66982380Y-52147619D01*
X65934761Y-51909523D02*
X66649047Y-51671428D01*
X66649047Y-52290476D01*
%TO.C,J47*%
X51322380Y-109990476D02*
X52036666Y-109990476D01*
X52179523Y-109942857D01*
X52274761Y-109847619D01*
X52322380Y-109704761D01*
X52322380Y-109609523D01*
X51655714Y-110895238D02*
X52322380Y-110895238D01*
X51274761Y-110657142D02*
X51989047Y-110419047D01*
X51989047Y-111038095D01*
X51322380Y-111323809D02*
X51322380Y-111990476D01*
X52322380Y-111561904D01*
%TO.C,J43*%
X75582380Y-126590476D02*
X76296666Y-126590476D01*
X76439523Y-126542857D01*
X76534761Y-126447619D01*
X76582380Y-126304761D01*
X76582380Y-126209523D01*
X75915714Y-127495238D02*
X76582380Y-127495238D01*
X75534761Y-127257142D02*
X76249047Y-127019047D01*
X76249047Y-127638095D01*
X75582380Y-127923809D02*
X75582380Y-128542857D01*
X75963333Y-128209523D01*
X75963333Y-128352380D01*
X76010952Y-128447619D01*
X76058571Y-128495238D01*
X76153809Y-128542857D01*
X76391904Y-128542857D01*
X76487142Y-128495238D01*
X76534761Y-128447619D01*
X76582380Y-128352380D01*
X76582380Y-128066666D01*
X76534761Y-127971428D01*
X76487142Y-127923809D01*
%TO.C,RV22*%
X305926380Y-94940571D02*
X305450190Y-94607238D01*
X305926380Y-94369142D02*
X304926380Y-94369142D01*
X304926380Y-94750095D01*
X304974000Y-94845333D01*
X305021619Y-94892952D01*
X305116857Y-94940571D01*
X305259714Y-94940571D01*
X305354952Y-94892952D01*
X305402571Y-94845333D01*
X305450190Y-94750095D01*
X305450190Y-94369142D01*
X304926380Y-95226285D02*
X305926380Y-95559619D01*
X304926380Y-95892952D01*
X305021619Y-96178666D02*
X304974000Y-96226285D01*
X304926380Y-96321523D01*
X304926380Y-96559619D01*
X304974000Y-96654857D01*
X305021619Y-96702476D01*
X305116857Y-96750095D01*
X305212095Y-96750095D01*
X305354952Y-96702476D01*
X305926380Y-96131047D01*
X305926380Y-96750095D01*
X305021619Y-97131047D02*
X304974000Y-97178666D01*
X304926380Y-97273904D01*
X304926380Y-97512000D01*
X304974000Y-97607238D01*
X305021619Y-97654857D01*
X305116857Y-97702476D01*
X305212095Y-97702476D01*
X305354952Y-97654857D01*
X305926380Y-97083428D01*
X305926380Y-97702476D01*
%TO.C,TP2*%
X321055904Y-76208000D02*
X321151142Y-76160380D01*
X321294000Y-76160380D01*
X321436857Y-76208000D01*
X321532095Y-76303238D01*
X321579714Y-76398476D01*
X321627333Y-76588952D01*
X321627333Y-76731809D01*
X321579714Y-76922285D01*
X321532095Y-77017523D01*
X321436857Y-77112761D01*
X321294000Y-77160380D01*
X321198761Y-77160380D01*
X321055904Y-77112761D01*
X321008285Y-77065142D01*
X321008285Y-76731809D01*
X321198761Y-76731809D01*
X320579714Y-77160380D02*
X320579714Y-76160380D01*
X320008285Y-77160380D01*
X320008285Y-76160380D01*
X319532095Y-77160380D02*
X319532095Y-76160380D01*
X319294000Y-76160380D01*
X319151142Y-76208000D01*
X319055904Y-76303238D01*
X319008285Y-76398476D01*
X318960666Y-76588952D01*
X318960666Y-76731809D01*
X319008285Y-76922285D01*
X319055904Y-77017523D01*
X319151142Y-77112761D01*
X319294000Y-77160380D01*
X319532095Y-77160380D01*
%TO.C,TP14*%
X191769904Y-55126000D02*
X191865142Y-55078380D01*
X192008000Y-55078380D01*
X192150857Y-55126000D01*
X192246095Y-55221238D01*
X192293714Y-55316476D01*
X192341333Y-55506952D01*
X192341333Y-55649809D01*
X192293714Y-55840285D01*
X192246095Y-55935523D01*
X192150857Y-56030761D01*
X192008000Y-56078380D01*
X191912761Y-56078380D01*
X191769904Y-56030761D01*
X191722285Y-55983142D01*
X191722285Y-55649809D01*
X191912761Y-55649809D01*
X191293714Y-56078380D02*
X191293714Y-55078380D01*
X190722285Y-56078380D01*
X190722285Y-55078380D01*
X190246095Y-56078380D02*
X190246095Y-55078380D01*
X190008000Y-55078380D01*
X189865142Y-55126000D01*
X189769904Y-55221238D01*
X189722285Y-55316476D01*
X189674666Y-55506952D01*
X189674666Y-55649809D01*
X189722285Y-55840285D01*
X189769904Y-55935523D01*
X189865142Y-56030761D01*
X190008000Y-56078380D01*
X190246095Y-56078380D01*
%TO.C,J40*%
X158702380Y-126590476D02*
X159416666Y-126590476D01*
X159559523Y-126542857D01*
X159654761Y-126447619D01*
X159702380Y-126304761D01*
X159702380Y-126209523D01*
X159035714Y-127495238D02*
X159702380Y-127495238D01*
X158654761Y-127257142D02*
X159369047Y-127019047D01*
X159369047Y-127638095D01*
X158702380Y-128209523D02*
X158702380Y-128304761D01*
X158750000Y-128400000D01*
X158797619Y-128447619D01*
X158892857Y-128495238D01*
X159083333Y-128542857D01*
X159321428Y-128542857D01*
X159511904Y-128495238D01*
X159607142Y-128447619D01*
X159654761Y-128400000D01*
X159702380Y-128304761D01*
X159702380Y-128209523D01*
X159654761Y-128114285D01*
X159607142Y-128066666D01*
X159511904Y-128019047D01*
X159321428Y-127971428D01*
X159083333Y-127971428D01*
X158892857Y-128019047D01*
X158797619Y-128066666D01*
X158750000Y-128114285D01*
X158702380Y-128209523D01*
%TO.C,J45*%
X54782380Y-110090476D02*
X55496666Y-110090476D01*
X55639523Y-110042857D01*
X55734761Y-109947619D01*
X55782380Y-109804761D01*
X55782380Y-109709523D01*
X55115714Y-110995238D02*
X55782380Y-110995238D01*
X54734761Y-110757142D02*
X55449047Y-110519047D01*
X55449047Y-111138095D01*
X54782380Y-111995238D02*
X54782380Y-111519047D01*
X55258571Y-111471428D01*
X55210952Y-111519047D01*
X55163333Y-111614285D01*
X55163333Y-111852380D01*
X55210952Y-111947619D01*
X55258571Y-111995238D01*
X55353809Y-112042857D01*
X55591904Y-112042857D01*
X55687142Y-111995238D01*
X55734761Y-111947619D01*
X55782380Y-111852380D01*
X55782380Y-111614285D01*
X55734761Y-111519047D01*
X55687142Y-111471428D01*
%TO.C,TP16*%
X92670095Y-38782380D02*
X92098666Y-38782380D01*
X92384380Y-39782380D02*
X92384380Y-38782380D01*
X91765333Y-39782380D02*
X91765333Y-38782380D01*
X91384380Y-38782380D01*
X91289142Y-38830000D01*
X91241523Y-38877619D01*
X91193904Y-38972857D01*
X91193904Y-39115714D01*
X91241523Y-39210952D01*
X91289142Y-39258571D01*
X91384380Y-39306190D01*
X91765333Y-39306190D01*
X90241523Y-39782380D02*
X90812952Y-39782380D01*
X90527238Y-39782380D02*
X90527238Y-38782380D01*
X90622476Y-38925238D01*
X90717714Y-39020476D01*
X90812952Y-39068095D01*
X89384380Y-38782380D02*
X89574857Y-38782380D01*
X89670095Y-38830000D01*
X89717714Y-38877619D01*
X89812952Y-39020476D01*
X89860571Y-39210952D01*
X89860571Y-39591904D01*
X89812952Y-39687142D01*
X89765333Y-39734761D01*
X89670095Y-39782380D01*
X89479619Y-39782380D01*
X89384380Y-39734761D01*
X89336761Y-39687142D01*
X89289142Y-39591904D01*
X89289142Y-39353809D01*
X89336761Y-39258571D01*
X89384380Y-39210952D01*
X89479619Y-39163333D01*
X89670095Y-39163333D01*
X89765333Y-39210952D01*
X89812952Y-39258571D01*
X89860571Y-39353809D01*
%TO.C,TP8*%
X248149904Y-105584380D02*
X247578476Y-105584380D01*
X247864190Y-106584380D02*
X247864190Y-105584380D01*
X247245142Y-106584380D02*
X247245142Y-105584380D01*
X246864190Y-105584380D01*
X246768952Y-105632000D01*
X246721333Y-105679619D01*
X246673714Y-105774857D01*
X246673714Y-105917714D01*
X246721333Y-106012952D01*
X246768952Y-106060571D01*
X246864190Y-106108190D01*
X247245142Y-106108190D01*
X246102285Y-106012952D02*
X246197523Y-105965333D01*
X246245142Y-105917714D01*
X246292761Y-105822476D01*
X246292761Y-105774857D01*
X246245142Y-105679619D01*
X246197523Y-105632000D01*
X246102285Y-105584380D01*
X245911809Y-105584380D01*
X245816571Y-105632000D01*
X245768952Y-105679619D01*
X245721333Y-105774857D01*
X245721333Y-105822476D01*
X245768952Y-105917714D01*
X245816571Y-105965333D01*
X245911809Y-106012952D01*
X246102285Y-106012952D01*
X246197523Y-106060571D01*
X246245142Y-106108190D01*
X246292761Y-106203428D01*
X246292761Y-106393904D01*
X246245142Y-106489142D01*
X246197523Y-106536761D01*
X246102285Y-106584380D01*
X245911809Y-106584380D01*
X245816571Y-106536761D01*
X245768952Y-106489142D01*
X245721333Y-106393904D01*
X245721333Y-106203428D01*
X245768952Y-106108190D01*
X245816571Y-106060571D01*
X245911809Y-106012952D01*
%TO.C,TP3*%
X313943904Y-120150000D02*
X314039142Y-120102380D01*
X314182000Y-120102380D01*
X314324857Y-120150000D01*
X314420095Y-120245238D01*
X314467714Y-120340476D01*
X314515333Y-120530952D01*
X314515333Y-120673809D01*
X314467714Y-120864285D01*
X314420095Y-120959523D01*
X314324857Y-121054761D01*
X314182000Y-121102380D01*
X314086761Y-121102380D01*
X313943904Y-121054761D01*
X313896285Y-121007142D01*
X313896285Y-120673809D01*
X314086761Y-120673809D01*
X313467714Y-121102380D02*
X313467714Y-120102380D01*
X312896285Y-121102380D01*
X312896285Y-120102380D01*
X312420095Y-121102380D02*
X312420095Y-120102380D01*
X312182000Y-120102380D01*
X312039142Y-120150000D01*
X311943904Y-120245238D01*
X311896285Y-120340476D01*
X311848666Y-120530952D01*
X311848666Y-120673809D01*
X311896285Y-120864285D01*
X311943904Y-120959523D01*
X312039142Y-121054761D01*
X312182000Y-121102380D01*
X312420095Y-121102380D01*
%TO.C,TP4*%
X311903904Y-43100380D02*
X311332476Y-43100380D01*
X311618190Y-44100380D02*
X311618190Y-43100380D01*
X310999142Y-44100380D02*
X310999142Y-43100380D01*
X310618190Y-43100380D01*
X310522952Y-43148000D01*
X310475333Y-43195619D01*
X310427714Y-43290857D01*
X310427714Y-43433714D01*
X310475333Y-43528952D01*
X310522952Y-43576571D01*
X310618190Y-43624190D01*
X310999142Y-43624190D01*
X309570571Y-43433714D02*
X309570571Y-44100380D01*
X309808666Y-43052761D02*
X310046761Y-43767047D01*
X309427714Y-43767047D01*
%TO.C,J36*%
X330810857Y-64460380D02*
X331144190Y-63984190D01*
X331382285Y-64460380D02*
X331382285Y-63460380D01*
X331001333Y-63460380D01*
X330906095Y-63508000D01*
X330858476Y-63555619D01*
X330810857Y-63650857D01*
X330810857Y-63793714D01*
X330858476Y-63888952D01*
X330906095Y-63936571D01*
X331001333Y-63984190D01*
X331382285Y-63984190D01*
X330382285Y-63936571D02*
X330048952Y-63936571D01*
X329906095Y-64460380D02*
X330382285Y-64460380D01*
X330382285Y-63460380D01*
X329906095Y-63460380D01*
X329477523Y-64460380D02*
X329477523Y-63460380D01*
X329239428Y-63460380D01*
X329096571Y-63508000D01*
X329001333Y-63603238D01*
X328953714Y-63698476D01*
X328906095Y-63888952D01*
X328906095Y-64031809D01*
X328953714Y-64222285D01*
X329001333Y-64317523D01*
X329096571Y-64412761D01*
X329239428Y-64460380D01*
X329477523Y-64460380D01*
X327239428Y-64460380D02*
X327715619Y-64460380D01*
X327715619Y-63460380D01*
X326906095Y-64460380D02*
X326906095Y-63460380D01*
X326429904Y-64460380D02*
X326429904Y-63460380D01*
X325858476Y-64460380D01*
X325858476Y-63460380D01*
X325382285Y-63936571D02*
X325048952Y-63936571D01*
X324906095Y-64460380D02*
X325382285Y-64460380D01*
X325382285Y-63460380D01*
X324906095Y-63460380D01*
%TO.C,TP15*%
X196556095Y-117776380D02*
X195984666Y-117776380D01*
X196270380Y-118776380D02*
X196270380Y-117776380D01*
X195651333Y-118776380D02*
X195651333Y-117776380D01*
X195270380Y-117776380D01*
X195175142Y-117824000D01*
X195127523Y-117871619D01*
X195079904Y-117966857D01*
X195079904Y-118109714D01*
X195127523Y-118204952D01*
X195175142Y-118252571D01*
X195270380Y-118300190D01*
X195651333Y-118300190D01*
X194127523Y-118776380D02*
X194698952Y-118776380D01*
X194413238Y-118776380D02*
X194413238Y-117776380D01*
X194508476Y-117919238D01*
X194603714Y-118014476D01*
X194698952Y-118062095D01*
X193222761Y-117776380D02*
X193698952Y-117776380D01*
X193746571Y-118252571D01*
X193698952Y-118204952D01*
X193603714Y-118157333D01*
X193365619Y-118157333D01*
X193270380Y-118204952D01*
X193222761Y-118252571D01*
X193175142Y-118347809D01*
X193175142Y-118585904D01*
X193222761Y-118681142D01*
X193270380Y-118728761D01*
X193365619Y-118776380D01*
X193603714Y-118776380D01*
X193698952Y-118728761D01*
X193746571Y-118681142D01*
%TO.C,TP5*%
X305299904Y-84756380D02*
X304728476Y-84756380D01*
X305014190Y-85756380D02*
X305014190Y-84756380D01*
X304395142Y-85756380D02*
X304395142Y-84756380D01*
X304014190Y-84756380D01*
X303918952Y-84804000D01*
X303871333Y-84851619D01*
X303823714Y-84946857D01*
X303823714Y-85089714D01*
X303871333Y-85184952D01*
X303918952Y-85232571D01*
X304014190Y-85280190D01*
X304395142Y-85280190D01*
X302918952Y-84756380D02*
X303395142Y-84756380D01*
X303442761Y-85232571D01*
X303395142Y-85184952D01*
X303299904Y-85137333D01*
X303061809Y-85137333D01*
X302966571Y-85184952D01*
X302918952Y-85232571D01*
X302871333Y-85327809D01*
X302871333Y-85565904D01*
X302918952Y-85661142D01*
X302966571Y-85708761D01*
X303061809Y-85756380D01*
X303299904Y-85756380D01*
X303395142Y-85708761D01*
X303442761Y-85661142D01*
%TO.C,J46*%
X51309523Y-107022380D02*
X51309523Y-107736666D01*
X51357142Y-107879523D01*
X51452380Y-107974761D01*
X51595238Y-108022380D01*
X51690476Y-108022380D01*
X50404761Y-107355714D02*
X50404761Y-108022380D01*
X50642857Y-106974761D02*
X50880952Y-107689047D01*
X50261904Y-107689047D01*
X49452380Y-107022380D02*
X49642857Y-107022380D01*
X49738095Y-107070000D01*
X49785714Y-107117619D01*
X49880952Y-107260476D01*
X49928571Y-107450952D01*
X49928571Y-107831904D01*
X49880952Y-107927142D01*
X49833333Y-107974761D01*
X49738095Y-108022380D01*
X49547619Y-108022380D01*
X49452380Y-107974761D01*
X49404761Y-107927142D01*
X49357142Y-107831904D01*
X49357142Y-107593809D01*
X49404761Y-107498571D01*
X49452380Y-107450952D01*
X49547619Y-107403333D01*
X49738095Y-107403333D01*
X49833333Y-107450952D01*
X49880952Y-107498571D01*
X49928571Y-107593809D01*
%TO.C,JP1*%
X238633333Y-55022380D02*
X238633333Y-55736666D01*
X238680952Y-55879523D01*
X238776190Y-55974761D01*
X238919047Y-56022380D01*
X239014285Y-56022380D01*
X238157142Y-56022380D02*
X238157142Y-55022380D01*
X237776190Y-55022380D01*
X237680952Y-55070000D01*
X237633333Y-55117619D01*
X237585714Y-55212857D01*
X237585714Y-55355714D01*
X237633333Y-55450952D01*
X237680952Y-55498571D01*
X237776190Y-55546190D01*
X238157142Y-55546190D01*
X236633333Y-56022380D02*
X237204761Y-56022380D01*
X236919047Y-56022380D02*
X236919047Y-55022380D01*
X237014285Y-55165238D01*
X237109523Y-55260476D01*
X237204761Y-55308095D01*
%TO.C,J37*%
X269244380Y-115268476D02*
X269958666Y-115268476D01*
X270101523Y-115220857D01*
X270196761Y-115125619D01*
X270244380Y-114982761D01*
X270244380Y-114887523D01*
X269244380Y-115649428D02*
X269244380Y-116268476D01*
X269625333Y-115935142D01*
X269625333Y-116078000D01*
X269672952Y-116173238D01*
X269720571Y-116220857D01*
X269815809Y-116268476D01*
X270053904Y-116268476D01*
X270149142Y-116220857D01*
X270196761Y-116173238D01*
X270244380Y-116078000D01*
X270244380Y-115792285D01*
X270196761Y-115697047D01*
X270149142Y-115649428D01*
X269244380Y-116601809D02*
X269244380Y-117268476D01*
X270244380Y-116839904D01*
%TO.C,J38*%
X252772523Y-121870380D02*
X252772523Y-122584666D01*
X252820142Y-122727523D01*
X252915380Y-122822761D01*
X253058238Y-122870380D01*
X253153476Y-122870380D01*
X252391571Y-121870380D02*
X251772523Y-121870380D01*
X252105857Y-122251333D01*
X251963000Y-122251333D01*
X251867761Y-122298952D01*
X251820142Y-122346571D01*
X251772523Y-122441809D01*
X251772523Y-122679904D01*
X251820142Y-122775142D01*
X251867761Y-122822761D01*
X251963000Y-122870380D01*
X252248714Y-122870380D01*
X252343952Y-122822761D01*
X252391571Y-122775142D01*
X251201095Y-122298952D02*
X251296333Y-122251333D01*
X251343952Y-122203714D01*
X251391571Y-122108476D01*
X251391571Y-122060857D01*
X251343952Y-121965619D01*
X251296333Y-121918000D01*
X251201095Y-121870380D01*
X251010619Y-121870380D01*
X250915380Y-121918000D01*
X250867761Y-121965619D01*
X250820142Y-122060857D01*
X250820142Y-122108476D01*
X250867761Y-122203714D01*
X250915380Y-122251333D01*
X251010619Y-122298952D01*
X251201095Y-122298952D01*
X251296333Y-122346571D01*
X251343952Y-122394190D01*
X251391571Y-122489428D01*
X251391571Y-122679904D01*
X251343952Y-122775142D01*
X251296333Y-122822761D01*
X251201095Y-122870380D01*
X251010619Y-122870380D01*
X250915380Y-122822761D01*
X250867761Y-122775142D01*
X250820142Y-122679904D01*
X250820142Y-122489428D01*
X250867761Y-122394190D01*
X250915380Y-122346571D01*
X251010619Y-122298952D01*
%TO.C,TP13*%
X227075904Y-137168000D02*
X227171142Y-137120380D01*
X227314000Y-137120380D01*
X227456857Y-137168000D01*
X227552095Y-137263238D01*
X227599714Y-137358476D01*
X227647333Y-137548952D01*
X227647333Y-137691809D01*
X227599714Y-137882285D01*
X227552095Y-137977523D01*
X227456857Y-138072761D01*
X227314000Y-138120380D01*
X227218761Y-138120380D01*
X227075904Y-138072761D01*
X227028285Y-138025142D01*
X227028285Y-137691809D01*
X227218761Y-137691809D01*
X226599714Y-138120380D02*
X226599714Y-137120380D01*
X226028285Y-138120380D01*
X226028285Y-137120380D01*
X225552095Y-138120380D02*
X225552095Y-137120380D01*
X225314000Y-137120380D01*
X225171142Y-137168000D01*
X225075904Y-137263238D01*
X225028285Y-137358476D01*
X224980666Y-137548952D01*
X224980666Y-137691809D01*
X225028285Y-137882285D01*
X225075904Y-137977523D01*
X225171142Y-138072761D01*
X225314000Y-138120380D01*
X225552095Y-138120380D01*
%TO.C,TP9*%
X244531904Y-51998380D02*
X243960476Y-51998380D01*
X244246190Y-52998380D02*
X244246190Y-51998380D01*
X243627142Y-52998380D02*
X243627142Y-51998380D01*
X243246190Y-51998380D01*
X243150952Y-52046000D01*
X243103333Y-52093619D01*
X243055714Y-52188857D01*
X243055714Y-52331714D01*
X243103333Y-52426952D01*
X243150952Y-52474571D01*
X243246190Y-52522190D01*
X243627142Y-52522190D01*
X242579523Y-52998380D02*
X242389047Y-52998380D01*
X242293809Y-52950761D01*
X242246190Y-52903142D01*
X242150952Y-52760285D01*
X242103333Y-52569809D01*
X242103333Y-52188857D01*
X242150952Y-52093619D01*
X242198571Y-52046000D01*
X242293809Y-51998380D01*
X242484285Y-51998380D01*
X242579523Y-52046000D01*
X242627142Y-52093619D01*
X242674761Y-52188857D01*
X242674761Y-52426952D01*
X242627142Y-52522190D01*
X242579523Y-52569809D01*
X242484285Y-52617428D01*
X242293809Y-52617428D01*
X242198571Y-52569809D01*
X242150952Y-52522190D01*
X242103333Y-52426952D01*
%TO.C,TP11*%
X231862095Y-45640380D02*
X231290666Y-45640380D01*
X231576380Y-46640380D02*
X231576380Y-45640380D01*
X230957333Y-46640380D02*
X230957333Y-45640380D01*
X230576380Y-45640380D01*
X230481142Y-45688000D01*
X230433523Y-45735619D01*
X230385904Y-45830857D01*
X230385904Y-45973714D01*
X230433523Y-46068952D01*
X230481142Y-46116571D01*
X230576380Y-46164190D01*
X230957333Y-46164190D01*
X229433523Y-46640380D02*
X230004952Y-46640380D01*
X229719238Y-46640380D02*
X229719238Y-45640380D01*
X229814476Y-45783238D01*
X229909714Y-45878476D01*
X230004952Y-45926095D01*
X228481142Y-46640380D02*
X229052571Y-46640380D01*
X228766857Y-46640380D02*
X228766857Y-45640380D01*
X228862095Y-45783238D01*
X228957333Y-45878476D01*
X229052571Y-45926095D01*
%TO.C,J41*%
X149312380Y-64234476D02*
X150026666Y-64234476D01*
X150169523Y-64186857D01*
X150264761Y-64091619D01*
X150312380Y-63948761D01*
X150312380Y-63853523D01*
X149645714Y-65139238D02*
X150312380Y-65139238D01*
X149264761Y-64901142D02*
X149979047Y-64663047D01*
X149979047Y-65282095D01*
X150312380Y-66186857D02*
X150312380Y-65615428D01*
X150312380Y-65901142D02*
X149312380Y-65901142D01*
X149455238Y-65805904D01*
X149550476Y-65710666D01*
X149598095Y-65615428D01*
%TO.C,TP10*%
X244308095Y-46402380D02*
X243736666Y-46402380D01*
X244022380Y-47402380D02*
X244022380Y-46402380D01*
X243403333Y-47402380D02*
X243403333Y-46402380D01*
X243022380Y-46402380D01*
X242927142Y-46450000D01*
X242879523Y-46497619D01*
X242831904Y-46592857D01*
X242831904Y-46735714D01*
X242879523Y-46830952D01*
X242927142Y-46878571D01*
X243022380Y-46926190D01*
X243403333Y-46926190D01*
X241879523Y-47402380D02*
X242450952Y-47402380D01*
X242165238Y-47402380D02*
X242165238Y-46402380D01*
X242260476Y-46545238D01*
X242355714Y-46640476D01*
X242450952Y-46688095D01*
X241260476Y-46402380D02*
X241165238Y-46402380D01*
X241070000Y-46450000D01*
X241022380Y-46497619D01*
X240974761Y-46592857D01*
X240927142Y-46783333D01*
X240927142Y-47021428D01*
X240974761Y-47211904D01*
X241022380Y-47307142D01*
X241070000Y-47354761D01*
X241165238Y-47402380D01*
X241260476Y-47402380D01*
X241355714Y-47354761D01*
X241403333Y-47307142D01*
X241450952Y-47211904D01*
X241498571Y-47021428D01*
X241498571Y-46783333D01*
X241450952Y-46592857D01*
X241403333Y-46497619D01*
X241355714Y-46450000D01*
X241260476Y-46402380D01*
%TO.C,J39*%
X249090380Y-49477476D02*
X249804666Y-49477476D01*
X249947523Y-49429857D01*
X250042761Y-49334619D01*
X250090380Y-49191761D01*
X250090380Y-49096523D01*
X249090380Y-49858428D02*
X249090380Y-50477476D01*
X249471333Y-50144142D01*
X249471333Y-50287000D01*
X249518952Y-50382238D01*
X249566571Y-50429857D01*
X249661809Y-50477476D01*
X249899904Y-50477476D01*
X249995142Y-50429857D01*
X250042761Y-50382238D01*
X250090380Y-50287000D01*
X250090380Y-50001285D01*
X250042761Y-49906047D01*
X249995142Y-49858428D01*
X250090380Y-50953666D02*
X250090380Y-51144142D01*
X250042761Y-51239380D01*
X249995142Y-51287000D01*
X249852285Y-51382238D01*
X249661809Y-51429857D01*
X249280857Y-51429857D01*
X249185619Y-51382238D01*
X249138000Y-51334619D01*
X249090380Y-51239380D01*
X249090380Y-51048904D01*
X249138000Y-50953666D01*
X249185619Y-50906047D01*
X249280857Y-50858428D01*
X249518952Y-50858428D01*
X249614190Y-50906047D01*
X249661809Y-50953666D01*
X249709428Y-51048904D01*
X249709428Y-51239380D01*
X249661809Y-51334619D01*
X249614190Y-51382238D01*
X249518952Y-51429857D01*
%TO.C,TP1*%
X327905904Y-73326380D02*
X327334476Y-73326380D01*
X327620190Y-74326380D02*
X327620190Y-73326380D01*
X327001142Y-74326380D02*
X327001142Y-73326380D01*
X326620190Y-73326380D01*
X326524952Y-73374000D01*
X326477333Y-73421619D01*
X326429714Y-73516857D01*
X326429714Y-73659714D01*
X326477333Y-73754952D01*
X326524952Y-73802571D01*
X326620190Y-73850190D01*
X327001142Y-73850190D01*
X325477333Y-74326380D02*
X326048761Y-74326380D01*
X325763047Y-74326380D02*
X325763047Y-73326380D01*
X325858285Y-73469238D01*
X325953523Y-73564476D01*
X326048761Y-73612095D01*
%TO.C,TP12*%
X225766095Y-128444380D02*
X225194666Y-128444380D01*
X225480380Y-129444380D02*
X225480380Y-128444380D01*
X224861333Y-129444380D02*
X224861333Y-128444380D01*
X224480380Y-128444380D01*
X224385142Y-128492000D01*
X224337523Y-128539619D01*
X224289904Y-128634857D01*
X224289904Y-128777714D01*
X224337523Y-128872952D01*
X224385142Y-128920571D01*
X224480380Y-128968190D01*
X224861333Y-128968190D01*
X223337523Y-129444380D02*
X223908952Y-129444380D01*
X223623238Y-129444380D02*
X223623238Y-128444380D01*
X223718476Y-128587238D01*
X223813714Y-128682476D01*
X223908952Y-128730095D01*
X222956571Y-128539619D02*
X222908952Y-128492000D01*
X222813714Y-128444380D01*
X222575619Y-128444380D01*
X222480380Y-128492000D01*
X222432761Y-128539619D01*
X222385142Y-128634857D01*
X222385142Y-128730095D01*
X222432761Y-128872952D01*
X223004190Y-129444380D01*
X222385142Y-129444380D01*
%TO.C,TP7*%
X264151904Y-128698380D02*
X263580476Y-128698380D01*
X263866190Y-129698380D02*
X263866190Y-128698380D01*
X263247142Y-129698380D02*
X263247142Y-128698380D01*
X262866190Y-128698380D01*
X262770952Y-128746000D01*
X262723333Y-128793619D01*
X262675714Y-128888857D01*
X262675714Y-129031714D01*
X262723333Y-129126952D01*
X262770952Y-129174571D01*
X262866190Y-129222190D01*
X263247142Y-129222190D01*
X262342380Y-128698380D02*
X261675714Y-128698380D01*
X262104285Y-129698380D01*
%TO.C,TP6*%
X293107904Y-95424380D02*
X292536476Y-95424380D01*
X292822190Y-96424380D02*
X292822190Y-95424380D01*
X292203142Y-96424380D02*
X292203142Y-95424380D01*
X291822190Y-95424380D01*
X291726952Y-95472000D01*
X291679333Y-95519619D01*
X291631714Y-95614857D01*
X291631714Y-95757714D01*
X291679333Y-95852952D01*
X291726952Y-95900571D01*
X291822190Y-95948190D01*
X292203142Y-95948190D01*
X290774571Y-95424380D02*
X290965047Y-95424380D01*
X291060285Y-95472000D01*
X291107904Y-95519619D01*
X291203142Y-95662476D01*
X291250761Y-95852952D01*
X291250761Y-96233904D01*
X291203142Y-96329142D01*
X291155523Y-96376761D01*
X291060285Y-96424380D01*
X290869809Y-96424380D01*
X290774571Y-96376761D01*
X290726952Y-96329142D01*
X290679333Y-96233904D01*
X290679333Y-95995809D01*
X290726952Y-95900571D01*
X290774571Y-95852952D01*
X290869809Y-95805333D01*
X291060285Y-95805333D01*
X291155523Y-95852952D01*
X291203142Y-95900571D01*
X291250761Y-95995809D01*
%TO.C,J42*%
X95409523Y-52322380D02*
X95409523Y-53036666D01*
X95457142Y-53179523D01*
X95552380Y-53274761D01*
X95695238Y-53322380D01*
X95790476Y-53322380D01*
X94504761Y-52655714D02*
X94504761Y-53322380D01*
X94742857Y-52274761D02*
X94980952Y-52989047D01*
X94361904Y-52989047D01*
X94028571Y-52417619D02*
X93980952Y-52370000D01*
X93885714Y-52322380D01*
X93647619Y-52322380D01*
X93552380Y-52370000D01*
X93504761Y-52417619D01*
X93457142Y-52512857D01*
X93457142Y-52608095D01*
X93504761Y-52750952D01*
X94076190Y-53322380D01*
X93457142Y-53322380D01*
D12*
%TO.C,J44*%
X78250000Y-49770000D02*
X78250000Y-52430000D01*
X70570000Y-49770000D02*
X78250000Y-49770000D01*
X67970000Y-51100000D02*
X67970000Y-52430000D01*
X70570000Y-49770000D02*
X70570000Y-52430000D01*
X70570000Y-52430000D02*
X78250000Y-52430000D01*
X67970000Y-52430000D02*
X69300000Y-52430000D01*
%TO.C,J47*%
X47830000Y-112130000D02*
X35070000Y-112130000D01*
X50430000Y-110800000D02*
X50430000Y-109470000D01*
X47830000Y-109470000D02*
X35070000Y-109470000D01*
X47830000Y-112130000D02*
X47830000Y-109470000D01*
X50430000Y-109470000D02*
X49100000Y-109470000D01*
X35070000Y-112130000D02*
X35070000Y-109470000D01*
%TO.C,J43*%
X80170000Y-126070000D02*
X80170000Y-128730000D01*
X92930000Y-126070000D02*
X92930000Y-128730000D01*
X80170000Y-128730000D02*
X92930000Y-128730000D01*
X77570000Y-128730000D02*
X78900000Y-128730000D01*
X77570000Y-127400000D02*
X77570000Y-128730000D01*
X80170000Y-126070000D02*
X92930000Y-126070000D01*
%TO.C,RV22*%
X304474000Y-97762000D02*
X304474000Y-94262000D01*
X301224000Y-95012000D02*
X301224000Y-97012000D01*
X295474000Y-98762000D02*
X295474000Y-93262000D01*
X302474000Y-99762000D02*
X296474000Y-99762000D01*
X296474000Y-92262000D02*
X302474000Y-92262000D01*
X301024000Y-96012000D02*
X301374000Y-96012000D01*
X301224000Y-95012000D02*
G75*
G03*
X301224000Y-97012000I0J-1000000D01*
G01*
%TO.C,TP2*%
X321794000Y-73914000D02*
G75*
G03*
X321794000Y-73914000I-1500000J0D01*
G01*
%TO.C,TP14*%
X192508000Y-52832000D02*
G75*
G03*
X192508000Y-52832000I-1500000J0D01*
G01*
%TO.C,J40*%
X160690000Y-127400000D02*
X160690000Y-128730000D01*
X163290000Y-128730000D02*
X181130000Y-128730000D01*
X163290000Y-126070000D02*
X181130000Y-126070000D01*
X160690000Y-128730000D02*
X162020000Y-128730000D01*
X163290000Y-126070000D02*
X163290000Y-128730000D01*
X181130000Y-126070000D02*
X181130000Y-128730000D01*
%TO.C,J45*%
X59370000Y-109570000D02*
X67050000Y-109570000D01*
X56770000Y-112230000D02*
X58100000Y-112230000D01*
X56770000Y-110900000D02*
X56770000Y-112230000D01*
X67050000Y-109570000D02*
X67050000Y-112230000D01*
X59370000Y-109570000D02*
X59370000Y-112230000D01*
X59370000Y-112230000D02*
X67050000Y-112230000D01*
%TO.C,TP16*%
X92432000Y-36830000D02*
G75*
G03*
X92432000Y-36830000I-1500000J0D01*
G01*
%TO.C,TP8*%
X248388000Y-103632000D02*
G75*
G03*
X248388000Y-103632000I-1500000J0D01*
G01*
%TO.C,TP3*%
X314682000Y-117856000D02*
G75*
G03*
X314682000Y-117856000I-1500000J0D01*
G01*
%TO.C,TP4*%
X312142000Y-41148000D02*
G75*
G03*
X312142000Y-41148000I-1500000J0D01*
G01*
%TO.C,J36*%
X332728000Y-61598000D02*
X332728000Y-41018000D01*
X323608000Y-61598000D02*
X332728000Y-61598000D01*
X324918000Y-49258000D02*
X324918000Y-49258000D01*
X324918000Y-60298000D02*
X331418000Y-60298000D01*
X323608000Y-41018000D02*
X323608000Y-61598000D01*
X324918000Y-53358000D02*
X324918000Y-60298000D01*
X324918000Y-42318000D02*
X324918000Y-49258000D01*
X331418000Y-42318000D02*
X324918000Y-42318000D01*
D13*
X323596000Y-62738000D02*
X332740000Y-62738000D01*
D12*
X323608000Y-53358000D02*
X324918000Y-53358000D01*
X332728000Y-41018000D02*
X323608000Y-41018000D01*
X324918000Y-49258000D02*
X323608000Y-49258000D01*
X331418000Y-60298000D02*
X331418000Y-42318000D01*
%TO.C,TP15*%
X196318000Y-115824000D02*
G75*
G03*
X196318000Y-115824000I-1500000J0D01*
G01*
%TO.C,TP5*%
X305538000Y-82804000D02*
G75*
G03*
X305538000Y-82804000I-1500000J0D01*
G01*
%TO.C,J46*%
X51830000Y-106130000D02*
X51830000Y-104800000D01*
X49170000Y-103530000D02*
X49170000Y-95850000D01*
X49170000Y-103530000D02*
X51830000Y-103530000D01*
X51830000Y-103530000D02*
X51830000Y-95850000D01*
X50500000Y-106130000D02*
X51830000Y-106130000D01*
X49170000Y-95850000D02*
X51830000Y-95850000D01*
%TO.C,JP1*%
X239130000Y-51970000D02*
X239130000Y-49370000D01*
X236470000Y-54570000D02*
X237800000Y-54570000D01*
X236470000Y-51970000D02*
X239130000Y-51970000D01*
X236470000Y-53240000D02*
X236470000Y-54570000D01*
X236470000Y-51970000D02*
X236470000Y-49370000D01*
X236470000Y-49370000D02*
X239130000Y-49370000D01*
%TO.C,J37*%
X266192000Y-114748000D02*
X261052000Y-114748000D01*
X261052000Y-117408000D02*
X261052000Y-114748000D01*
X266192000Y-117408000D02*
X266192000Y-114748000D01*
X268792000Y-117408000D02*
X268792000Y-116078000D01*
X267462000Y-117408000D02*
X268792000Y-117408000D01*
X266192000Y-117408000D02*
X261052000Y-117408000D01*
%TO.C,J38*%
X258886000Y-115824000D02*
X258886000Y-123504000D01*
X256286000Y-115824000D02*
X256286000Y-113224000D01*
X258886000Y-113224000D02*
X257556000Y-113224000D01*
X253686000Y-113224000D02*
X253686000Y-123504000D01*
X258886000Y-123504000D02*
X253686000Y-123504000D01*
X258886000Y-114554000D02*
X258886000Y-113224000D01*
X256286000Y-113224000D02*
X253686000Y-113224000D01*
X258886000Y-115824000D02*
X256286000Y-115824000D01*
%TO.C,TP13*%
X225020000Y-135890000D02*
G75*
G03*
X225020000Y-135890000I-1500000J0D01*
G01*
%TO.C,TP9*%
X244770000Y-50046000D02*
G75*
G03*
X244770000Y-50046000I-1500000J0D01*
G01*
%TO.C,TP11*%
X231624000Y-43688000D02*
G75*
G03*
X231624000Y-43688000I-1500000J0D01*
G01*
%TO.C,J41*%
X150970000Y-46090000D02*
X153630000Y-46090000D01*
X150970000Y-63930000D02*
X150970000Y-46090000D01*
X150970000Y-63930000D02*
X153630000Y-63930000D01*
X153630000Y-66530000D02*
X153630000Y-65200000D01*
X153630000Y-63930000D02*
X153630000Y-46090000D01*
X152300000Y-66530000D02*
X153630000Y-66530000D01*
%TO.C,TP10*%
X244070000Y-44450000D02*
G75*
G03*
X244070000Y-44450000I-1500000J0D01*
G01*
%TO.C,J39*%
X250638000Y-52887000D02*
X258378000Y-52887000D01*
X253238000Y-47687000D02*
X253238000Y-50287000D01*
X258378000Y-47687000D02*
X258378000Y-52887000D01*
X251968000Y-47687000D02*
X250638000Y-47687000D01*
X253238000Y-47687000D02*
X258378000Y-47687000D01*
X250638000Y-50287000D02*
X250638000Y-52887000D01*
X253238000Y-50287000D02*
X250638000Y-50287000D01*
X250638000Y-47687000D02*
X250638000Y-49017000D01*
%TO.C,TP1*%
X328144000Y-71374000D02*
G75*
G03*
X328144000Y-71374000I-1500000J0D01*
G01*
%TO.C,TP12*%
X225528000Y-126492000D02*
G75*
G03*
X225528000Y-126492000I-1500000J0D01*
G01*
%TO.C,TP7*%
X264390000Y-126746000D02*
G75*
G03*
X264390000Y-126746000I-1500000J0D01*
G01*
%TO.C,TP6*%
X293346000Y-93472000D02*
G75*
G03*
X293346000Y-93472000I-1500000J0D01*
G01*
%TO.C,J42*%
X93270000Y-48830000D02*
X93270000Y-41150000D01*
X94600000Y-51430000D02*
X95930000Y-51430000D01*
X95930000Y-48830000D02*
X95930000Y-41150000D01*
X93270000Y-41150000D02*
X95930000Y-41150000D01*
X93270000Y-48830000D02*
X95930000Y-48830000D01*
X95930000Y-51430000D02*
X95930000Y-50100000D01*
%TD*%
G36*
X331158121Y-79522002D02*
G01*
X331204614Y-79575658D01*
X331216000Y-79628000D01*
X331216000Y-82932000D01*
X331195998Y-83000121D01*
X331142342Y-83046614D01*
X331090000Y-83058000D01*
X317626000Y-83058000D01*
X317557879Y-83037998D01*
X317511386Y-82984342D01*
X317500000Y-82932000D01*
X317500000Y-79628000D01*
X317520002Y-79559879D01*
X317573658Y-79513386D01*
X317626000Y-79502000D01*
X331090000Y-79502000D01*
X331158121Y-79522002D01*
G37*
M02*
