M48
; DRILL file {KiCad (6.0.6-0)} date Saturday, 13 May 2023 at 23:48:41
; FORMAT={-:-/ absolute / metric / decimal}
; #@! TF.CreationDate,2023-05-13T23:48:41+01:00
; #@! TF.GenerationSoftware,Kicad,Pcbnew,(6.0.6-0)
; #@! TF.FileFunction,MixedPlating,1,2
FMAT,2
METRIC
; #@! TA.AperFunction,Plated,PTH,ViaDrill
T1C0.381
; #@! TA.AperFunction,Plated,PTH,ComponentDrill
T2C0.600
; #@! TA.AperFunction,Plated,PTH,ComponentDrill
T3C0.800
; #@! TA.AperFunction,Plated,PTH,ComponentDrill
T4C1.000
; #@! TA.AperFunction,Plated,PTH,ComponentDrill
T5C1.100
; #@! TA.AperFunction,Plated,PTH,ComponentDrill
T6C3.200
; #@! TA.AperFunction,NonPlated,NPTH,ComponentDrill
T7C0.500
%
G90
G05
T1
X188.722Y-120.396
X193.802Y-122.936
X221.996Y-114.554
X222.504Y-123.444
X235.204Y-62.992
X282.448Y-48.514
X291.084Y-55.372
X298.196Y-53.848
X298.196Y-57.658
T3
X34.29Y-70.866
X36.068Y-92.202
X44.45Y-70.866
X44.958Y-47.284
X44.958Y-52.284
X46.228Y-92.202
X48.26Y-69.85
X48.26Y-80.01
X48.514Y-49.276
X48.514Y-59.436
X49.501Y-37.084
X50.038Y-41.148
X50.038Y-43.688
X50.038Y-46.228
X50.8Y-62.23
X50.8Y-64.77
X50.8Y-67.31
X51.562Y-49.276
X51.562Y-59.436
X52.041Y-37.084
X53.34Y-73.406
X55.118Y-89.154
X63.5Y-73.406
X65.278Y-89.154
X68.58Y-37.084
X68.58Y-47.244
X69.342Y-56.134
X69.342Y-66.294
X71.628Y-37.084
X71.628Y-47.244
X72.136Y-116.586
X72.136Y-126.746
X72.39Y-56.134
X72.39Y-66.294
X72.39Y-69.088
X75.438Y-56.134
X75.438Y-66.294
X77.39Y-69.088
X78.486Y-56.134
X78.486Y-66.294
X81.534Y-56.134
X81.534Y-66.294
X84.582Y-56.388
X84.582Y-61.388
X87.63Y-56.134
X87.63Y-66.294
X91.44Y-58.674
X91.44Y-66.294
X93.98Y-58.674
X93.98Y-66.294
X94.06Y-55.118
X94.06Y-69.85
X96.52Y-58.674
X96.52Y-66.294
X99.06Y-55.118
X99.06Y-58.674
X99.06Y-66.294
X99.06Y-69.85
X101.092Y-131.826
X101.092Y-141.986
X101.346Y-72.898
X101.6Y-52.07
X101.6Y-55.118
X101.6Y-58.674
X101.6Y-66.294
X101.6Y-69.85
X104.14Y-58.674
X104.14Y-66.294
X106.6Y-69.85
X106.68Y-58.674
X106.68Y-66.294
X110.236Y-58.166
X110.236Y-68.326
X111.506Y-72.898
X111.506Y-75.692
X111.506Y-85.852
X111.76Y-52.07
X111.76Y-55.118
X113.284Y-58.166
X113.284Y-68.326
X114.554Y-75.692
X114.554Y-85.852
X124.206Y-107.696
X124.206Y-117.856
X127.0Y-126.238
X134.112Y-95.504
X134.112Y-105.664
X134.62Y-39.878
X134.62Y-50.038
X134.62Y-52.324
X134.62Y-62.484
X134.62Y-68.072
X134.62Y-78.232
X136.652Y-129.794
X137.16Y-95.504
X137.16Y-105.664
X137.16Y-126.238
X140.208Y-99.06
X140.208Y-104.06
X143.764Y-96.52
X143.764Y-99.06
X143.764Y-101.6
X143.764Y-104.14
X143.764Y-107.696
X144.272Y-113.538
X144.272Y-123.698
X146.812Y-129.794
X147.32Y-92.964
X148.764Y-107.696
X151.384Y-96.52
X151.384Y-99.06
X151.384Y-101.6
X151.384Y-104.14
X151.638Y-68.58
X151.638Y-78.74
X152.32Y-92.964
X154.94Y-96.52
X154.94Y-106.68
X157.226Y-109.474
X157.988Y-96.52
X157.988Y-101.52
X161.036Y-96.52
X161.036Y-106.68
X164.084Y-96.52
X164.084Y-106.68
X166.497Y-91.694
X166.624Y-77.724
X167.103Y-48.26
X167.386Y-109.474
X169.643Y-48.26
X169.672Y-109.474
X170.18Y-61.976
X171.958Y-48.26
X174.498Y-48.26
X176.657Y-91.694
X176.784Y-77.724
X177.321Y-48.26
X179.832Y-109.474
X179.861Y-48.26
X180.34Y-61.976
X186.182Y-60.706
X186.182Y-63.246
X186.182Y-65.786
X186.182Y-68.326
X186.182Y-70.866
X186.182Y-73.406
X186.182Y-75.946
X186.182Y-78.486
X186.182Y-83.82
X186.182Y-88.82
X186.944Y-125.222
X186.944Y-132.842
X186.944Y-135.128
X186.944Y-142.748
X187.198Y-94.488
X187.198Y-104.648
X189.484Y-125.222
X189.484Y-132.842
X189.484Y-135.128
X189.484Y-142.748
X189.738Y-83.82
X189.738Y-91.44
X190.246Y-94.488
X190.246Y-104.648
X192.278Y-83.82
X192.278Y-91.44
X193.04Y-120.142
X193.04Y-130.302
X193.04Y-132.588
X193.04Y-142.748
X193.802Y-60.706
X193.802Y-63.246
X193.802Y-65.786
X193.802Y-68.326
X193.802Y-70.866
X193.802Y-73.406
X193.802Y-75.946
X193.802Y-78.486
X194.31Y-94.488
X194.31Y-104.648
X194.818Y-83.82
X194.818Y-91.44
X196.088Y-120.142
X196.088Y-130.302
X196.088Y-132.588
X196.088Y-142.748
X197.358Y-57.658
X197.358Y-67.818
X197.358Y-83.82
X197.358Y-91.44
X197.358Y-94.742
X197.358Y-99.742
X197.358Y-102.362
X197.358Y-107.362
X197.866Y-70.612
X197.866Y-80.772
X199.136Y-122.254
X199.136Y-127.254
X199.136Y-129.874
X199.136Y-134.874
X199.136Y-137.494
X199.136Y-142.494
X202.682Y-127.254
X202.682Y-129.794
X202.682Y-132.334
X202.682Y-134.874
X202.682Y-137.414
X202.682Y-139.954
X202.682Y-142.494
X203.454Y-118.618
X203.454Y-121.666
X205.058Y-62.738
X205.058Y-66.294
X205.058Y-77.978
X205.058Y-82.042
X205.232Y-71.226
X207.772Y-71.226
X208.28Y-95.504
X208.28Y-97.504
X209.296Y-101.346
X209.296Y-104.394
X209.296Y-107.442
X210.058Y-62.738
X210.058Y-66.294
X210.058Y-77.978
X210.058Y-82.042
X210.302Y-127.254
X210.302Y-129.794
X210.302Y-132.334
X210.302Y-134.874
X210.302Y-137.414
X210.302Y-139.954
X210.302Y-142.494
X210.312Y-71.226
X213.01Y-89.127
X213.01Y-91.127
X213.36Y-63.5
X213.36Y-66.04
X213.36Y-68.58
X213.36Y-71.12
X213.36Y-73.66
X213.36Y-76.2
X213.36Y-78.74
X213.36Y-81.28
X213.614Y-118.618
X213.614Y-121.666
X213.868Y-130.128
X213.868Y-135.128
X213.868Y-137.748
X213.868Y-142.748
X215.382Y-85.1
X216.916Y-90.572
X216.916Y-125.302
X216.916Y-130.302
X216.916Y-132.842
X216.916Y-143.002
X219.456Y-90.572
X219.456Y-101.346
X219.456Y-104.394
X219.456Y-107.442
X219.964Y-120.142
X219.964Y-130.302
X219.964Y-132.842
X219.964Y-143.002
X220.382Y-85.1
X220.98Y-56.674
X220.98Y-58.674
X220.98Y-63.5
X220.98Y-66.04
X220.98Y-68.58
X220.98Y-71.12
X220.98Y-73.66
X220.98Y-76.2
X220.98Y-78.74
X220.98Y-81.28
X221.996Y-90.572
X222.758Y-140.208
X222.758Y-142.748
X223.854Y-111.76
X224.272Y-75.448
X224.282Y-117.856
X224.78Y-59.78
X224.78Y-64.78
X224.78Y-67.4
X224.78Y-72.4
X224.79Y-87.884
X224.79Y-90.932
X224.79Y-93.98
X225.034Y-78.242
X225.034Y-83.242
X225.044Y-97.028
X225.044Y-122.174
X226.314Y-38.64
X226.314Y-40.64
X226.314Y-100.584
X226.314Y-108.204
X226.314Y-114.808
X227.584Y-122.174
X228.082Y-60.208
X228.082Y-63.256
X228.082Y-66.304
X228.082Y-69.352
X228.082Y-72.4
X228.854Y-100.584
X228.854Y-108.204
X228.854Y-111.76
X229.098Y-78.242
X229.098Y-83.242
X230.044Y-97.028
X230.124Y-122.174
X230.378Y-140.208
X230.378Y-142.748
X231.394Y-100.584
X231.394Y-108.204
X231.474Y-111.76
X232.664Y-97.028
X232.664Y-140.208
X232.664Y-142.748
X233.162Y-78.242
X233.162Y-83.242
X233.172Y-131.064
X233.172Y-134.112
X233.172Y-137.16
X233.426Y-43.032
X233.934Y-100.584
X233.934Y-108.204
X234.432Y-75.448
X234.442Y-117.856
X234.95Y-87.884
X234.95Y-90.932
X234.95Y-93.98
X235.966Y-43.032
X236.474Y-100.584
X236.474Y-108.204
X236.474Y-111.76
X236.474Y-114.808
X237.236Y-81.788
X237.236Y-89.916
X237.236Y-92.964
X237.664Y-97.028
X238.242Y-60.208
X238.242Y-63.256
X238.242Y-66.304
X238.242Y-69.352
X238.242Y-72.4
X238.506Y-43.032
X238.76Y-117.856
X238.76Y-120.904
X238.76Y-123.952
X239.014Y-100.584
X239.014Y-108.204
X239.014Y-111.76
X239.014Y-114.808
X239.776Y-84.582
X239.776Y-87.122
X240.284Y-97.028
X240.284Y-140.208
X240.284Y-142.748
X241.036Y-67.31
X241.036Y-77.47
X241.554Y-59.944
X241.554Y-64.944
X241.554Y-100.584
X241.554Y-108.204
X243.332Y-131.064
X243.332Y-134.112
X243.332Y-137.16
X244.014Y-114.808
X245.284Y-97.028
X245.8Y-141.6
X246.888Y-56.388
X247.142Y-130.81
X247.142Y-133.35
X247.142Y-135.89
X247.142Y-138.43
X247.396Y-81.788
X247.396Y-84.582
X247.396Y-87.122
X247.396Y-89.916
X247.396Y-92.964
X248.666Y-66.04
X248.666Y-73.66
X248.92Y-117.856
X248.92Y-120.904
X248.92Y-123.952
X249.174Y-111.76
X249.428Y-62.484
X249.508Y-59.436
X250.444Y-93.98
X250.444Y-104.14
X250.8Y-141.6
X251.206Y-66.04
X251.206Y-73.66
X251.714Y-42.926
X253.492Y-93.98
X253.492Y-104.14
X253.746Y-66.04
X253.746Y-73.66
X253.746Y-76.962
X253.746Y-81.962
X254.254Y-42.926
X254.254Y-107.442
X254.254Y-110.49
X254.428Y-62.484
X254.508Y-59.436
X254.762Y-130.81
X254.762Y-133.35
X254.762Y-135.89
X254.762Y-138.43
X255.27Y-141.732
X255.604Y-89.662
X256.286Y-66.04
X256.286Y-73.66
X256.366Y-104.394
X256.794Y-42.926
X256.921Y-76.708
X256.921Y-86.868
X257.048Y-56.388
X257.048Y-59.436
X257.048Y-62.484
X258.059Y-93.208
X258.059Y-100.828
X258.318Y-125.81
X258.318Y-130.81
X258.318Y-133.43
X258.318Y-138.43
X258.826Y-66.04
X258.826Y-73.66
X259.969Y-76.708
X259.969Y-86.868
X260.35Y-40.386
X260.599Y-93.208
X260.599Y-100.828
X260.604Y-89.662
X260.858Y-55.372
X260.858Y-120.142
X260.858Y-122.682
X261.366Y-66.04
X261.366Y-73.66
X261.366Y-104.394
X262.123Y-44.186
X262.123Y-51.806
X262.89Y-133.604
X262.89Y-136.144
X262.89Y-138.684
X262.89Y-141.732
X263.139Y-93.208
X263.139Y-100.828
X263.144Y-76.708
X263.144Y-86.868
X263.224Y-89.662
X263.906Y-66.04
X263.906Y-73.66
X263.986Y-104.394
X264.414Y-107.442
X264.414Y-110.49
X264.663Y-44.186
X264.663Y-51.806
X265.679Y-93.208
X265.679Y-100.828
X265.858Y-55.372
X266.446Y-66.04
X266.446Y-73.66
X266.446Y-85.09
X266.7Y-107.442
X266.7Y-110.49
X266.7Y-131.572
X266.7Y-141.732
X267.203Y-44.186
X267.203Y-51.806
X267.208Y-59.436
X267.208Y-62.484
X267.97Y-40.386
X268.219Y-93.208
X268.219Y-100.828
X268.224Y-89.662
X268.478Y-120.142
X268.478Y-122.682
X268.986Y-104.394
X269.743Y-44.186
X269.743Y-51.806
X269.748Y-131.572
X269.748Y-141.732
X270.759Y-93.208
X270.759Y-100.828
X270.764Y-88.138
X271.606Y-104.394
X271.78Y-116.332
X271.78Y-119.38
X271.886Y-61.722
X271.886Y-64.262
X271.886Y-66.802
X272.283Y-44.186
X272.283Y-51.806
X272.796Y-135.128
X272.796Y-138.176
X272.796Y-141.224
X273.299Y-93.208
X273.299Y-100.828
X273.304Y-123.952
X273.304Y-131.572
X273.44Y-80.3
X274.823Y-44.186
X274.823Y-51.806
X275.844Y-62.484
X275.844Y-72.644
X275.844Y-123.952
X275.844Y-131.572
X276.606Y-85.09
X276.606Y-91.186
X276.606Y-101.346
X276.606Y-104.394
X276.86Y-107.442
X276.86Y-110.49
X277.363Y-44.186
X277.363Y-51.806
X278.384Y-123.952
X278.384Y-131.572
X278.892Y-65.024
X278.892Y-72.644
X279.654Y-93.218
X279.654Y-103.378
X280.924Y-88.138
X280.924Y-123.952
X280.924Y-131.572
X281.94Y-116.332
X281.94Y-119.38
X282.702Y-98.806
X282.702Y-108.966
X282.956Y-135.128
X282.956Y-138.176
X282.956Y-141.224
X283.464Y-123.952
X283.464Y-131.572
X283.6Y-80.3
X284.226Y-116.332
X284.226Y-119.38
X285.242Y-138.176
X286.004Y-123.952
X286.004Y-131.572
X286.004Y-135.128
X286.084Y-113.284
X286.512Y-99.928
X286.512Y-104.14
X287.02Y-42.672
X287.02Y-45.212
X287.02Y-47.752
X287.02Y-50.292
X287.02Y-52.832
X287.02Y-55.372
X287.02Y-57.912
X287.02Y-60.452
X287.02Y-62.992
X287.02Y-65.532
X287.02Y-68.834
X287.02Y-73.834
X288.544Y-123.952
X288.544Y-131.572
X289.052Y-99.928
X289.052Y-104.14
X291.004Y-135.128
X291.084Y-113.284
X291.084Y-123.952
X291.084Y-131.572
X291.592Y-99.928
X291.592Y-104.14
X294.386Y-116.332
X294.386Y-119.38
X294.64Y-42.672
X294.64Y-45.212
X294.64Y-47.752
X294.64Y-50.292
X294.64Y-52.832
X294.64Y-55.372
X294.64Y-57.912
X294.64Y-60.452
X294.64Y-62.992
X294.64Y-65.532
X294.72Y-142.494
X295.148Y-90.678
X295.148Y-101.346
X295.148Y-104.394
X295.148Y-107.442
X295.148Y-110.49
X295.402Y-138.176
X296.418Y-125.222
X296.418Y-135.382
X296.926Y-82.804
X296.926Y-85.344
X296.926Y-87.884
X297.942Y-116.84
X297.942Y-119.38
X299.466Y-132.414
X299.466Y-137.414
X299.72Y-142.494
X303.022Y-134.874
X303.022Y-137.414
X303.022Y-139.954
X303.022Y-142.494
X303.61Y-131.064
X305.308Y-90.678
X305.308Y-101.346
X305.308Y-104.394
X305.308Y-107.442
X305.308Y-110.49
X305.562Y-116.84
X305.562Y-119.38
X308.102Y-91.774
X308.102Y-96.774
X308.102Y-99.314
X308.102Y-104.314
X308.102Y-106.934
X308.102Y-111.934
X308.61Y-131.064
X310.642Y-134.874
X310.642Y-137.414
X310.642Y-139.954
X310.642Y-142.494
X311.658Y-95.758
X311.658Y-98.298
X311.658Y-100.838
X311.658Y-103.378
X311.658Y-105.918
X311.658Y-108.458
X311.658Y-110.998
X314.992Y-41.91
X315.018Y-69.246
X315.214Y-132.334
X315.214Y-142.494
X316.992Y-41.91
X316.992Y-123.19
X317.018Y-69.246
X318.516Y-133.858
X319.278Y-95.758
X319.278Y-98.298
X319.278Y-100.838
X319.278Y-103.378
X319.278Y-105.918
X319.278Y-108.458
X319.278Y-110.998
X322.326Y-94.234
X322.326Y-97.282
X322.326Y-103.378
X322.326Y-106.426
X322.326Y-109.474
X322.326Y-112.522
X322.326Y-142.494
X322.58Y-100.33
X323.382Y-136.906
X324.866Y-139.7
X327.152Y-123.19
X327.58Y-100.33
X328.382Y-136.906
X328.676Y-133.858
X331.47Y-131.144
X331.47Y-136.144
X332.486Y-94.234
X332.486Y-97.282
X332.486Y-103.378
X332.486Y-106.426
X332.486Y-109.474
X332.486Y-112.522
X332.486Y-139.7
X332.486Y-142.494
T4
X36.4Y-110.8
X37.5Y-67.5
X37.5Y-126.5
X38.94Y-110.8
X40.0Y-67.5
X40.0Y-126.5
X41.48Y-110.8
X42.5Y-67.5
X42.5Y-126.5
X44.02Y-110.8
X46.56Y-110.8
X49.1Y-110.8
X50.5Y-97.18
X50.5Y-99.72
X50.5Y-102.26
X50.5Y-104.8
X52.5Y-134.5
X52.5Y-137.0
X52.5Y-139.5
X57.5Y-47.5
X57.5Y-67.5
X57.5Y-126.5
X58.1Y-110.9
X60.0Y-47.5
X60.0Y-67.5
X60.0Y-126.5
X60.64Y-110.9
X62.5Y-47.5
X62.5Y-67.5
X62.5Y-126.5
X63.18Y-110.9
X65.72Y-110.9
X69.3Y-51.1
X71.84Y-51.1
X72.5Y-77.5
X72.5Y-80.0
X72.5Y-82.5
X74.38Y-51.1
X76.92Y-51.1
X77.5Y-106.5
X78.9Y-127.4
X79.5Y-47.5
X80.0Y-106.5
X81.44Y-127.4
X82.0Y-47.5
X82.5Y-106.5
X83.98Y-127.4
X84.5Y-47.5
X84.5Y-134.5
X84.5Y-137.0
X84.5Y-139.5
X86.52Y-127.4
X89.06Y-127.4
X90.932Y-36.83
X91.6Y-127.4
X94.6Y-42.48
X94.6Y-45.02
X94.6Y-47.56
X94.6Y-50.1
X97.5Y-106.5
X100.0Y-106.5
X100.5Y-47.5
X102.5Y-106.5
X103.0Y-47.5
X104.5Y-134.5
X104.5Y-137.0
X104.5Y-139.5
X105.5Y-47.5
X111.521Y-44.958
X114.061Y-44.958
X116.601Y-44.958
X122.5Y-47.5
X122.5Y-67.5
X122.5Y-87.5
X125.0Y-47.5
X125.0Y-67.5
X125.0Y-87.5
X127.5Y-47.5
X127.5Y-67.5
X127.5Y-87.5
X152.3Y-47.42
X152.3Y-49.96
X152.3Y-52.5
X152.3Y-55.04
X152.3Y-57.58
X152.3Y-60.12
X152.3Y-62.66
X152.3Y-65.2
X162.02Y-127.4
X162.5Y-115.5
X162.5Y-118.0
X162.5Y-120.5
X162.5Y-134.5
X162.5Y-137.0
X162.5Y-139.5
X164.56Y-127.4
X167.1Y-127.4
X167.5Y-115.5
X167.5Y-118.0
X167.5Y-120.5
X167.5Y-134.5
X167.5Y-137.0
X167.5Y-139.5
X169.64Y-127.4
X172.18Y-127.4
X174.72Y-127.4
X177.26Y-127.4
X179.8Y-127.4
X188.4Y-110.8
X190.94Y-110.8
X191.008Y-52.832
X193.48Y-110.8
X194.818Y-115.824
X196.02Y-110.8
X198.56Y-110.8
X201.1Y-110.8
X202.5Y-97.18
X202.5Y-99.72
X202.5Y-102.26
X202.5Y-104.8
X210.1Y-110.9
X212.64Y-110.9
X215.18Y-110.9
X217.72Y-110.9
X221.3Y-51.1
X223.52Y-135.89
X223.84Y-51.1
X224.028Y-126.492
X226.38Y-51.1
X228.92Y-51.1
X230.124Y-43.688
X230.9Y-127.4
X233.44Y-127.4
X235.98Y-127.4
X237.8Y-50.7
X237.8Y-53.24
X238.52Y-127.4
X241.06Y-127.4
X242.57Y-44.45
X243.27Y-50.046
X243.6Y-127.4
X246.6Y-42.48
X246.6Y-45.02
X246.6Y-47.56
X246.6Y-50.1
X246.888Y-103.632
X251.968Y-49.017
X251.968Y-51.557
X254.508Y-49.017
X254.508Y-51.557
X255.016Y-114.554
X255.016Y-117.094
X255.016Y-119.634
X255.016Y-122.174
X257.048Y-49.017
X257.048Y-51.557
X257.556Y-114.554
X257.556Y-117.094
X257.556Y-119.634
X257.556Y-122.174
X262.382Y-116.078
X262.89Y-126.746
X264.922Y-116.078
X267.462Y-116.078
X291.846Y-93.472
X304.038Y-82.804
X304.3Y-47.42
X304.3Y-49.96
X304.3Y-52.5
X304.3Y-55.04
X304.3Y-57.58
X304.3Y-60.12
X304.3Y-62.66
X304.3Y-65.2
X310.642Y-41.148
X313.182Y-117.856
X314.02Y-127.4
X316.56Y-127.4
X319.1Y-127.4
X320.294Y-73.914
X321.64Y-127.4
X324.18Y-127.4
X326.644Y-71.374
X326.72Y-127.4
X326.898Y-46.228
X326.898Y-48.768
X326.898Y-51.308
X326.898Y-53.848
X326.898Y-56.388
X329.26Y-127.4
X329.438Y-46.228
X329.438Y-48.768
X329.438Y-51.308
X329.438Y-53.848
X329.438Y-56.388
X331.8Y-127.4
T5
X37.632Y-47.538
X37.632Y-52.538
X40.132Y-50.038
X200.66Y-57.912
X200.66Y-68.072
X216.154Y-44.958
X226.314Y-44.958
X299.974Y-93.512
X299.974Y-98.512
X302.474Y-96.012
X321.056Y-41.91
X321.056Y-52.07
X321.056Y-56.388
X321.056Y-66.548
T6
X76.0Y-133.8
X133.8Y-91.2
X228.0Y-133.8
X285.8Y-91.2
T7
X182.25Y-51.75
X182.25Y-52.5
X182.25Y-53.25
X182.25Y-69.75
X182.25Y-70.5
X182.25Y-71.25
X182.25Y-87.75
X182.25Y-88.5
X182.25Y-89.25
X182.25Y-105.75
X182.25Y-106.5
X182.25Y-107.25
X182.25Y-123.75
X182.25Y-124.5
X182.25Y-125.25
X183.75Y-51.75
X183.75Y-52.5
X183.75Y-53.25
X183.75Y-69.75
X183.75Y-70.5
X183.75Y-71.25
X183.75Y-87.75
X183.75Y-88.5
X183.75Y-89.25
X183.75Y-105.75
X183.75Y-106.5
X183.75Y-107.25
X183.75Y-123.75
X183.75Y-124.5
X183.75Y-125.25
T2
G00X33.52Y-98.522
M15
G01X33.52Y-99.522
M16
G05
G00X33.52Y-136.5
M15
G01X33.52Y-137.5
M16
G05
G00X33.542Y-39.5
M15
G01X33.542Y-40.5
M16
G05
G00X36.62Y-98.522
M15
G01X36.62Y-99.522
M16
G05
G00X36.62Y-136.5
M15
G01X36.62Y-137.5
M16
G05
G00X36.642Y-39.5
M15
G01X36.642Y-40.5
M16
G05
G00X39.5Y-75.08
M15
G01X40.5Y-75.08
M16
G05
G00X39.5Y-83.38
M15
G01X40.5Y-83.38
M16
G05
G00X39.5Y-86.48
M15
G01X40.5Y-86.48
M16
G05
G00X44.92Y-98.522
M15
G01X44.92Y-99.522
M16
G05
G00X44.92Y-136.5
M15
G01X44.92Y-137.5
M16
G05
G00X44.942Y-39.5
M15
G01X44.942Y-40.5
M16
G05
G00X53.52Y-79.5
M15
G01X53.52Y-80.5
M16
G05
G00X56.62Y-79.5
M15
G01X56.62Y-80.5
M16
G05
G00X59.5Y-94.08
M15
G01X60.5Y-94.08
M16
G05
G00X59.5Y-102.38
M15
G01X60.5Y-102.38
M16
G05
G00X59.5Y-105.48
M15
G01X60.5Y-105.48
M16
G05
G00X64.92Y-79.5
M15
G01X64.92Y-80.5
M16
G05
G00X75.52Y-119.5
M15
G01X75.52Y-120.5
M16
G05
G00X78.62Y-119.5
M15
G01X78.62Y-120.5
M16
G05
G00X86.92Y-119.5
M15
G01X86.92Y-120.5
M16
G05
G00X90.52Y-119.5
M15
G01X90.52Y-120.5
M16
G05
G00X93.62Y-119.5
M15
G01X93.62Y-120.5
M16
G05
G00X95.08Y-80.5
M15
G01X95.08Y-79.5
M16
G05
G00X101.92Y-119.5
M15
G01X101.92Y-120.5
M16
G05
G00X103.38Y-80.5
M15
G01X103.38Y-79.5
M16
G05
G00X105.52Y-119.52
M15
G01X105.52Y-120.52
M16
G05
G00X106.48Y-80.5
M15
G01X106.48Y-79.5
M16
G05
G00X108.62Y-119.52
M15
G01X108.62Y-120.52
M16
G05
G00X115.08Y-99.5
M15
G01X115.08Y-98.5
M16
G05
G00X116.92Y-119.52
M15
G01X116.92Y-120.52
M16
G05
G00X123.38Y-99.5
M15
G01X123.38Y-98.5
M16
G05
G00X126.48Y-99.5
M15
G01X126.48Y-98.5
M16
G05
G00X128.52Y-117.5
M15
G01X128.52Y-118.5
M16
G05
G00X128.52Y-136.5
M15
G01X128.52Y-137.5
M16
G05
G00X131.62Y-117.5
M15
G01X131.62Y-118.5
M16
G05
G00X131.62Y-136.5
M15
G01X131.62Y-137.5
M16
G05
G00X139.08Y-40.5
M15
G01X139.08Y-39.5
M16
G05
G00X139.08Y-85.5
M15
G01X139.08Y-84.5
M16
G05
G00X139.92Y-117.5
M15
G01X139.92Y-118.5
M16
G05
G00X139.92Y-136.5
M15
G01X139.92Y-137.5
M16
G05
G00X143.5Y-50.08
M15
G01X144.5Y-50.08
M16
G05
G00X143.5Y-58.38
M15
G01X144.5Y-58.38
M16
G05
G00X143.5Y-61.48
M15
G01X144.5Y-61.48
M16
G05
G00X143.5Y-65.08
M15
G01X144.5Y-65.08
M16
G05
G00X143.5Y-73.38
M15
G01X144.5Y-73.38
M16
G05
G00X143.5Y-76.48
M15
G01X144.5Y-76.48
M16
G05
G00X147.38Y-40.5
M15
G01X147.38Y-39.5
M16
G05
G00X147.38Y-85.5
M15
G01X147.38Y-84.5
M16
G05
G00X150.48Y-40.5
M15
G01X150.48Y-39.5
M16
G05
G00X150.48Y-85.5
M15
G01X150.48Y-84.5
M16
G05
G00X153.52Y-39.5
M15
G01X153.52Y-40.5
M16
G05
G00X156.62Y-39.5
M15
G01X156.62Y-40.5
M16
G05
G00X159.5Y-50.08
M15
G01X160.5Y-50.08
M16
G05
G00X159.5Y-58.38
M15
G01X160.5Y-58.38
M16
G05
G00X159.5Y-61.48
M15
G01X160.5Y-61.48
M16
G05
G00X159.5Y-65.08
M15
G01X160.5Y-65.08
M16
G05
G00X159.5Y-73.38
M15
G01X160.5Y-73.38
M16
G05
G00X159.5Y-76.48
M15
G01X160.5Y-76.48
M16
G05
G00X159.5Y-80.08
M15
G01X160.5Y-80.08
M16
G05
G00X159.5Y-88.38
M15
G01X160.5Y-88.38
M16
G05
G00X159.5Y-91.48
M15
G01X160.5Y-91.48
M16
G05
G00X164.92Y-39.5
M15
G01X164.92Y-40.5
M16
G05
G00X168.52Y-39.5
M15
G01X168.52Y-40.5
M16
G05
G00X168.52Y-54.5
M15
G01X168.52Y-55.5
M16
G05
G00X168.52Y-69.5
M15
G01X168.52Y-70.5
M16
G05
G00X168.52Y-84.5
M15
G01X168.52Y-85.5
M16
G05
G00X168.52Y-101.5
M15
G01X168.52Y-102.5
M16
G05
G00X171.62Y-39.5
M15
G01X171.62Y-40.5
M16
G05
G00X171.62Y-54.5
M15
G01X171.62Y-55.5
M16
G05
G00X171.62Y-69.5
M15
G01X171.62Y-70.5
M16
G05
G00X171.62Y-84.5
M15
G01X171.62Y-85.5
M16
G05
G00X171.62Y-101.5
M15
G01X171.62Y-102.5
M16
G05
G00X179.92Y-39.5
M15
G01X179.92Y-40.5
M16
G05
G00X179.92Y-54.5
M15
G01X179.92Y-55.5
M16
G05
G00X179.92Y-69.5
M15
G01X179.92Y-70.5
M16
G05
G00X179.92Y-84.5
M15
G01X179.92Y-85.5
M16
G05
G00X179.92Y-101.5
M15
G01X179.92Y-102.5
M16
G05
T5
G00X35.2Y-60.35
M15
G01X35.2Y-59.65
M16
G05
G00X35.2Y-119.35
M15
G01X35.2Y-118.65
M16
G05
G00X44.8Y-60.35
M15
G01X44.8Y-59.65
M16
G05
G00X44.8Y-119.35
M15
G01X44.8Y-118.65
M16
G05
G00X55.2Y-40.35
M15
G01X55.2Y-39.65
M16
G05
G00X55.2Y-60.35
M15
G01X55.2Y-59.65
M16
G05
G00X55.2Y-119.35
M15
G01X55.2Y-118.65
M16
G05
G00X59.65Y-132.2
M15
G01X60.35Y-132.2
M16
G05
G00X59.65Y-141.8
M15
G01X60.35Y-141.8
M16
G05
G00X64.8Y-40.35
M15
G01X64.8Y-39.65
M16
G05
G00X64.8Y-60.35
M15
G01X64.8Y-59.65
M16
G05
G00X64.8Y-119.35
M15
G01X64.8Y-118.65
M16
G05
G00X75.2Y-99.35
M15
G01X75.2Y-98.65
M16
G05
G00X77.2Y-40.35
M15
G01X77.2Y-39.65
M16
G05
G00X79.65Y-75.2
M15
G01X80.35Y-75.2
M16
G05
G00X79.65Y-84.8
M15
G01X80.35Y-84.8
M16
G05
G00X84.8Y-99.35
M15
G01X84.8Y-98.65
M16
G05
G00X86.8Y-40.35
M15
G01X86.8Y-39.65
M16
G05
G00X91.65Y-132.2
M15
G01X92.35Y-132.2
M16
G05
G00X91.65Y-141.8
M15
G01X92.35Y-141.8
M16
G05
G00X95.2Y-99.35
M15
G01X95.2Y-98.65
M16
G05
G00X98.2Y-40.35
M15
G01X98.2Y-39.65
M16
G05
G00X104.8Y-99.35
M15
G01X104.8Y-98.65
M16
G05
G00X107.8Y-40.35
M15
G01X107.8Y-39.65
M16
G05
G00X111.65Y-132.2
M15
G01X112.35Y-132.2
M16
G05
G00X111.65Y-141.8
M15
G01X112.35Y-141.8
M16
G05
G00X120.2Y-40.35
M15
G01X120.2Y-39.65
M16
G05
G00X120.2Y-60.35
M15
G01X120.2Y-59.65
M16
G05
G00X120.2Y-80.35
M15
G01X120.2Y-79.65
M16
G05
G00X129.8Y-40.35
M15
G01X129.8Y-39.65
M16
G05
G00X129.8Y-60.35
M15
G01X129.8Y-59.65
M16
G05
G00X129.8Y-80.35
M15
G01X129.8Y-79.65
M16
G05
G00X155.35Y-113.2
M15
G01X154.65Y-113.2
M16
G05
G00X155.35Y-122.8
M15
G01X154.65Y-122.8
M16
G05
G00X155.35Y-132.2
M15
G01X154.65Y-132.2
M16
G05
G00X155.35Y-141.8
M15
G01X154.65Y-141.8
M16
G05
G00X174.65Y-113.2
M15
G01X175.35Y-113.2
M16
G05
G00X174.65Y-122.8
M15
G01X175.35Y-122.8
M16
G05
G00X174.65Y-132.2
M15
G01X175.35Y-132.2
M16
G05
G00X174.65Y-141.8
M15
G01X175.35Y-141.8
M16
G05
T0
M30
