%TF.GenerationSoftware,KiCad,Pcbnew,(6.0.6-0)*%
%TF.CreationDate,2022-10-25T16:41:22+01:00*%
%TF.ProjectId,strata,73747261-7461-42e6-9b69-6361645f7063,r01*%
%TF.SameCoordinates,Original*%
%TF.FileFunction,Soldermask,Top*%
%TF.FilePolarity,Negative*%
%FSLAX46Y46*%
G04 Gerber Fmt 4.6, Leading zero omitted, Abs format (unit mm)*
G04 Created by KiCad (PCBNEW (6.0.6-0)) date 2022-10-25 16:41:22*
%MOMM*%
%LPD*%
G01*
G04 APERTURE LIST*
G04 Aperture macros list*
%AMRoundRect*
0 Rectangle with rounded corners*
0 $1 Rounding radius*
0 $2 $3 $4 $5 $6 $7 $8 $9 X,Y pos of 4 corners*
0 Add a 4 corners polygon primitive as box body*
4,1,4,$2,$3,$4,$5,$6,$7,$8,$9,$2,$3,0*
0 Add four circle primitives for the rounded corners*
1,1,$1+$1,$2,$3*
1,1,$1+$1,$4,$5*
1,1,$1+$1,$6,$7*
1,1,$1+$1,$8,$9*
0 Add four rect primitives between the rounded corners*
20,1,$1+$1,$2,$3,$4,$5,0*
20,1,$1+$1,$4,$5,$6,$7,0*
20,1,$1+$1,$6,$7,$8,$9,0*
20,1,$1+$1,$8,$9,$2,$3,0*%
G04 Aperture macros list end*
%ADD10R,1.600000X1.600000*%
%ADD11O,1.600000X1.600000*%
%ADD12C,1.600000*%
%ADD13R,1.500000X1.500000*%
%ADD14C,1.500000*%
%ADD15O,2.200000X2.900000*%
%ADD16R,1.800000X1.800000*%
%ADD17C,1.800000*%
%ADD18R,2.200000X2.200000*%
%ADD19O,2.200000X2.200000*%
%ADD20O,2.300000X3.100000*%
%ADD21RoundRect,0.650000X-0.650000X0.650000X-0.650000X-0.650000X0.650000X-0.650000X0.650000X0.650000X0*%
%ADD22R,1.700000X1.700000*%
%ADD23O,1.700000X1.700000*%
%ADD24O,3.100000X2.300000*%
%ADD25RoundRect,0.650000X-0.650000X-0.650000X0.650000X-0.650000X0.650000X0.650000X-0.650000X0.650000X0*%
%ADD26C,0.500000*%
%ADD27RoundRect,0.650000X0.650000X-0.650000X0.650000X0.650000X-0.650000X0.650000X-0.650000X-0.650000X0*%
%ADD28O,2.900000X2.200000*%
%ADD29C,5.600000*%
%ADD30RoundRect,0.650000X0.650000X0.650000X-0.650000X0.650000X-0.650000X-0.650000X0.650000X-0.650000X0*%
%ADD31C,2.000000*%
%ADD32RoundRect,0.250000X-0.600000X-0.600000X0.600000X-0.600000X0.600000X0.600000X-0.600000X0.600000X0*%
%ADD33C,1.700000*%
G04 APERTURE END LIST*
D10*
%TO.C,U18*%
X311658000Y-103632000D03*
D11*
X311658000Y-106172000D03*
X311658000Y-108712000D03*
X311658000Y-111252000D03*
X311658000Y-113792000D03*
X311658000Y-116332000D03*
X311658000Y-118872000D03*
X319278000Y-118872000D03*
X319278000Y-116332000D03*
X319278000Y-113792000D03*
X319278000Y-111252000D03*
X319278000Y-108712000D03*
X319278000Y-106172000D03*
X319278000Y-103632000D03*
%TD*%
D10*
%TO.C,D26*%
X332740000Y-98806000D03*
D11*
X325120000Y-98806000D03*
%TD*%
D12*
%TO.C,C52*%
X51562000Y-44069000D03*
X51562000Y-39069000D03*
%TD*%
%TO.C,R66*%
X134112000Y-96266000D03*
D11*
X134112000Y-106426000D03*
%TD*%
D10*
%TO.C,D31*%
X310642000Y-49276000D03*
D11*
X318262000Y-49276000D03*
%TD*%
D12*
%TO.C,R1*%
X52070000Y-79502000D03*
D11*
X52070000Y-69342000D03*
%TD*%
D10*
%TO.C,U3*%
X210302000Y-142494000D03*
D11*
X210302000Y-139954000D03*
X210302000Y-137414000D03*
X210302000Y-134874000D03*
X210302000Y-132334000D03*
X210302000Y-129794000D03*
X210302000Y-127254000D03*
X202682000Y-127254000D03*
X202682000Y-129794000D03*
X202682000Y-132334000D03*
X202682000Y-134874000D03*
X202682000Y-137414000D03*
X202682000Y-139954000D03*
X202682000Y-142494000D03*
%TD*%
D12*
%TO.C,R34*%
X261874000Y-112522000D03*
D11*
X251714000Y-112522000D03*
%TD*%
D13*
%TO.C,Q5*%
X282194000Y-43434000D03*
D14*
X282194000Y-40894000D03*
X282194000Y-38354000D03*
%TD*%
D15*
%TO.C,RV2*%
X35200000Y-60000000D03*
X44800000Y-60000000D03*
D16*
X37500000Y-67500000D03*
D17*
X40000000Y-67500000D03*
X42500000Y-67500000D03*
%TD*%
D12*
%TO.C,R37*%
X270002000Y-85090000D03*
D11*
X270002000Y-95250000D03*
%TD*%
D12*
%TO.C,R101*%
X314960000Y-85344000D03*
D11*
X314960000Y-95504000D03*
%TD*%
D15*
%TO.C,RV11*%
X104800000Y-99000000D03*
X95200000Y-99000000D03*
D16*
X97500000Y-106500000D03*
D17*
X100000000Y-106500000D03*
X102500000Y-106500000D03*
%TD*%
D12*
%TO.C,R152*%
X197866000Y-80772000D03*
D11*
X197866000Y-70612000D03*
%TD*%
D12*
%TO.C,R32*%
X179832000Y-109474000D03*
D11*
X169672000Y-109474000D03*
%TD*%
D12*
%TO.C,R54*%
X255397000Y-81788000D03*
D11*
X255397000Y-91948000D03*
%TD*%
D12*
%TO.C,R104*%
X300482000Y-37338000D03*
D11*
X300482000Y-47498000D03*
%TD*%
D12*
%TO.C,R126*%
X332486000Y-117348000D03*
D11*
X322326000Y-117348000D03*
%TD*%
D18*
%TO.C,D3*%
X196342000Y-40132000D03*
D19*
X206502000Y-40132000D03*
%TD*%
D10*
%TO.C,U16*%
X286512000Y-37338000D03*
D11*
X286512000Y-39878000D03*
X286512000Y-42418000D03*
X286512000Y-44958000D03*
X286512000Y-47498000D03*
X286512000Y-50038000D03*
X286512000Y-52578000D03*
X286512000Y-55118000D03*
X294132000Y-55118000D03*
X294132000Y-52578000D03*
X294132000Y-50038000D03*
X294132000Y-47498000D03*
X294132000Y-44958000D03*
X294132000Y-42418000D03*
X294132000Y-39878000D03*
X294132000Y-37338000D03*
%TD*%
D20*
%TO.C,J26*%
X75520000Y-120000000D03*
D21*
X86920000Y-120000000D03*
X78620000Y-120000000D03*
%TD*%
D12*
%TO.C,C36*%
X262462000Y-109474000D03*
X267462000Y-109474000D03*
%TD*%
D15*
%TO.C,RV9*%
X84800000Y-80000000D03*
X75200000Y-80000000D03*
D16*
X77500000Y-87500000D03*
D17*
X80000000Y-87500000D03*
X82500000Y-87500000D03*
%TD*%
D12*
%TO.C,C72*%
X86948000Y-52324000D03*
X91948000Y-52324000D03*
%TD*%
D10*
%TO.C,D35*%
X325120000Y-62992000D03*
D11*
X332740000Y-62992000D03*
%TD*%
D10*
%TO.C,U9*%
X273812000Y-135890000D03*
D11*
X276352000Y-135890000D03*
X278892000Y-135890000D03*
X281432000Y-135890000D03*
X283972000Y-135890000D03*
X286512000Y-135890000D03*
X289052000Y-135890000D03*
X291592000Y-135890000D03*
X291592000Y-128270000D03*
X289052000Y-128270000D03*
X286512000Y-128270000D03*
X283972000Y-128270000D03*
X281432000Y-128270000D03*
X278892000Y-128270000D03*
X276352000Y-128270000D03*
X273812000Y-128270000D03*
%TD*%
D12*
%TO.C,R76*%
X266954000Y-43180000D03*
D11*
X277114000Y-43180000D03*
%TD*%
D12*
%TO.C,R2*%
X45720000Y-70612000D03*
D11*
X35560000Y-70612000D03*
%TD*%
D12*
%TO.C,R64*%
X295148000Y-128524000D03*
D11*
X295148000Y-138684000D03*
%TD*%
D12*
%TO.C,R134*%
X234696000Y-137414000D03*
D11*
X244856000Y-137414000D03*
%TD*%
D12*
%TO.C,R155*%
X137160000Y-106426000D03*
D11*
X137160000Y-96266000D03*
%TD*%
D12*
%TO.C,R160*%
X66802000Y-89916000D03*
D11*
X56642000Y-89916000D03*
%TD*%
D12*
%TO.C,R96*%
X292354000Y-71882000D03*
D11*
X302514000Y-71882000D03*
%TD*%
D12*
%TO.C,R154*%
X154940000Y-96266000D03*
D11*
X154940000Y-106426000D03*
%TD*%
D12*
%TO.C,R22*%
X226314000Y-67056000D03*
D11*
X236474000Y-67056000D03*
%TD*%
D22*
%TO.C,J53*%
X210900000Y-50800000D03*
D23*
X213440000Y-50800000D03*
X215980000Y-50800000D03*
X218520000Y-50800000D03*
%TD*%
D13*
%TO.C,Q14*%
X263504000Y-137160000D03*
D14*
X263504000Y-134620000D03*
X263504000Y-132080000D03*
%TD*%
D12*
%TO.C,R28*%
X212598000Y-123190000D03*
D11*
X202438000Y-123190000D03*
%TD*%
D12*
%TO.C,R139*%
X244348000Y-90932000D03*
D11*
X234188000Y-90932000D03*
%TD*%
D12*
%TO.C,C14*%
X203534000Y-78740000D03*
X208534000Y-78740000D03*
%TD*%
D10*
%TO.C,D18*%
X262128000Y-126492000D03*
D11*
X269748000Y-126492000D03*
%TD*%
D13*
%TO.C,U2*%
X201676000Y-48768000D03*
D14*
X201676000Y-46228000D03*
X201676000Y-43688000D03*
%TD*%
D12*
%TO.C,C29*%
X213868000Y-142494000D03*
X213868000Y-137494000D03*
%TD*%
D10*
%TO.C,U5*%
X211592000Y-64252000D03*
D11*
X211592000Y-66792000D03*
X211592000Y-69332000D03*
X211592000Y-71872000D03*
X211592000Y-74412000D03*
X211592000Y-76952000D03*
X211592000Y-79492000D03*
X211592000Y-82032000D03*
X219212000Y-82032000D03*
X219212000Y-79492000D03*
X219212000Y-76952000D03*
X219212000Y-74412000D03*
X219212000Y-71872000D03*
X219212000Y-69332000D03*
X219212000Y-66792000D03*
X219212000Y-64252000D03*
%TD*%
D12*
%TO.C,C70*%
X278130000Y-86440000D03*
X278130000Y-91440000D03*
%TD*%
%TO.C,R75*%
X243078000Y-47752000D03*
D11*
X253238000Y-47752000D03*
%TD*%
D10*
%TO.C,D5*%
X186944000Y-132842000D03*
D11*
X186944000Y-125222000D03*
%TD*%
D12*
%TO.C,R51*%
X281432000Y-105918000D03*
D11*
X281432000Y-116078000D03*
%TD*%
D12*
%TO.C,R173*%
X179861000Y-48260000D03*
D11*
X177321000Y-48260000D03*
%TD*%
D12*
%TO.C,C39*%
X252904000Y-67564000D03*
X247904000Y-67564000D03*
%TD*%
%TO.C,C5*%
X297434000Y-42338000D03*
X297434000Y-37338000D03*
%TD*%
%TO.C,R10*%
X190246000Y-94488000D03*
D11*
X190246000Y-104648000D03*
%TD*%
D12*
%TO.C,R132*%
X305308000Y-118364000D03*
D11*
X295148000Y-118364000D03*
%TD*%
D10*
%TO.C,D11*%
X240284000Y-140208000D03*
D11*
X232664000Y-140208000D03*
%TD*%
D12*
%TO.C,R36*%
X275082000Y-96266000D03*
D11*
X275082000Y-106426000D03*
%TD*%
D12*
%TO.C,C24*%
X223012000Y-68152000D03*
X223012000Y-73152000D03*
%TD*%
%TO.C,R14*%
X196088000Y-142748000D03*
D11*
X196088000Y-132588000D03*
%TD*%
D13*
%TO.C,Q15*%
X223774000Y-122174000D03*
D14*
X226314000Y-122174000D03*
X228854000Y-122174000D03*
%TD*%
D12*
%TO.C,C12*%
X199136000Y-129874000D03*
X199136000Y-134874000D03*
%TD*%
D10*
%TO.C,D37*%
X236728000Y-85598000D03*
D11*
X244348000Y-85598000D03*
%TD*%
D10*
%TO.C,U15*%
X321056000Y-77724000D03*
D11*
X321056000Y-80264000D03*
X321056000Y-82804000D03*
X321056000Y-85344000D03*
X321056000Y-87884000D03*
X321056000Y-90424000D03*
X321056000Y-92964000D03*
X321056000Y-95504000D03*
X328676000Y-95504000D03*
X328676000Y-92964000D03*
X328676000Y-90424000D03*
X328676000Y-87884000D03*
X328676000Y-85344000D03*
X328676000Y-82804000D03*
X328676000Y-80264000D03*
X328676000Y-77724000D03*
%TD*%
D12*
%TO.C,R147*%
X247650000Y-123952000D03*
D11*
X237490000Y-123952000D03*
%TD*%
D12*
%TO.C,R163*%
X66802000Y-92964000D03*
D11*
X66802000Y-103124000D03*
%TD*%
D12*
%TO.C,R113*%
X322326000Y-66040000D03*
D11*
X332486000Y-66040000D03*
%TD*%
D12*
%TO.C,R67*%
X243078000Y-38100000D03*
D11*
X253238000Y-38100000D03*
%TD*%
D24*
%TO.C,J19*%
X160000000Y-76480000D03*
D25*
X160000000Y-65080000D03*
X160000000Y-73380000D03*
%TD*%
D12*
%TO.C,R39*%
X274320000Y-112522000D03*
D11*
X264160000Y-112522000D03*
%TD*%
D12*
%TO.C,R162*%
X48768000Y-86360000D03*
D11*
X46228000Y-86360000D03*
%TD*%
D26*
%TO.C,mouse-bite-2mm-slot*%
X182250000Y-70500000D03*
X183750000Y-70500000D03*
X182250000Y-71250000D03*
X182250000Y-69750000D03*
X183750000Y-71250000D03*
X183750000Y-69750000D03*
%TD*%
D12*
%TO.C,R24*%
X203200000Y-118110000D03*
D11*
X213360000Y-118110000D03*
%TD*%
D12*
%TO.C,R157*%
X90932000Y-49530000D03*
D11*
X90932000Y-39370000D03*
%TD*%
D13*
%TO.C,Q13*%
X286620000Y-107802000D03*
D14*
X289160000Y-107802000D03*
X291700000Y-107802000D03*
%TD*%
D12*
%TO.C,R12*%
X197358000Y-67818000D03*
D11*
X197358000Y-57658000D03*
%TD*%
D12*
%TO.C,C59*%
X259080000Y-124032000D03*
X259080000Y-129032000D03*
%TD*%
%TO.C,R166*%
X176657000Y-91694000D03*
D11*
X166497000Y-91694000D03*
%TD*%
D12*
%TO.C,R169*%
X167103000Y-48260000D03*
D11*
X169643000Y-48260000D03*
%TD*%
D10*
%TO.C,D27*%
X299974000Y-66040000D03*
D11*
X292354000Y-66040000D03*
%TD*%
D10*
%TO.C,U17*%
X321310000Y-39624000D03*
D11*
X321310000Y-42164000D03*
X321310000Y-44704000D03*
X321310000Y-47244000D03*
X321310000Y-49784000D03*
X321310000Y-52324000D03*
X321310000Y-54864000D03*
X321310000Y-57404000D03*
X328930000Y-57404000D03*
X328930000Y-54864000D03*
X328930000Y-52324000D03*
X328930000Y-49784000D03*
X328930000Y-47244000D03*
X328930000Y-44704000D03*
X328930000Y-42164000D03*
X328930000Y-39624000D03*
%TD*%
D12*
%TO.C,R158*%
X69596000Y-36576000D03*
D11*
X69596000Y-46736000D03*
%TD*%
D24*
%TO.C,J2*%
X60000000Y-86480000D03*
D25*
X60000000Y-75080000D03*
X60000000Y-83380000D03*
%TD*%
D12*
%TO.C,R119*%
X68580000Y-65532000D03*
D11*
X68580000Y-55372000D03*
%TD*%
D12*
%TO.C,R144*%
X231902000Y-93980000D03*
D11*
X221742000Y-93980000D03*
%TD*%
D12*
%TO.C,C38*%
X252222000Y-82042000D03*
X252222000Y-87042000D03*
%TD*%
D10*
%TO.C,D30*%
X310642000Y-51816000D03*
D11*
X318262000Y-51816000D03*
%TD*%
D10*
%TO.C,D23*%
X332486000Y-74422000D03*
D11*
X324866000Y-74422000D03*
%TD*%
D12*
%TO.C,R136*%
X267208000Y-141986000D03*
D11*
X267208000Y-131826000D03*
%TD*%
D12*
%TO.C,R11*%
X193040000Y-132588000D03*
D11*
X193040000Y-142748000D03*
%TD*%
D12*
%TO.C,C1*%
X84154000Y-66548000D03*
X89154000Y-66548000D03*
%TD*%
%TO.C,R167*%
X151638000Y-78740000D03*
D11*
X151638000Y-68580000D03*
%TD*%
D12*
%TO.C,C40*%
X258826000Y-141478000D03*
X263826000Y-141478000D03*
%TD*%
D10*
%TO.C,D38*%
X244348000Y-88138000D03*
D11*
X236728000Y-88138000D03*
%TD*%
D12*
%TO.C,R141*%
X209296000Y-107442000D03*
D11*
X219456000Y-107442000D03*
%TD*%
D13*
%TO.C,Q10*%
X50292000Y-61468000D03*
D14*
X50292000Y-58928000D03*
X50292000Y-56388000D03*
%TD*%
D12*
%TO.C,R18*%
X239268000Y-82804000D03*
D11*
X239268000Y-72644000D03*
%TD*%
D20*
%TO.C,J25*%
X168520000Y-55000000D03*
D21*
X179920000Y-55000000D03*
X171620000Y-55000000D03*
%TD*%
D12*
%TO.C,C64*%
X235204000Y-111760000D03*
X230204000Y-111760000D03*
%TD*%
%TO.C,R107*%
X332232000Y-47498000D03*
D11*
X332232000Y-37338000D03*
%TD*%
D12*
%TO.C,R103*%
X308864000Y-85344000D03*
D11*
X308864000Y-95504000D03*
%TD*%
D12*
%TO.C,R16*%
X226314000Y-60960000D03*
D11*
X236474000Y-60960000D03*
%TD*%
D24*
%TO.C,J24*%
X160000000Y-61480000D03*
D25*
X160000000Y-50080000D03*
X160000000Y-58380000D03*
%TD*%
D12*
%TO.C,R49*%
X272542000Y-124968000D03*
D11*
X282702000Y-124968000D03*
%TD*%
D20*
%TO.C,J48*%
X150480000Y-85000000D03*
D27*
X139080000Y-85000000D03*
X147380000Y-85000000D03*
%TD*%
D10*
%TO.C,U11*%
X229108000Y-38100000D03*
D11*
X229108000Y-40640000D03*
X229108000Y-43180000D03*
X229108000Y-45720000D03*
X229108000Y-48260000D03*
X229108000Y-50800000D03*
X229108000Y-53340000D03*
X236728000Y-53340000D03*
X236728000Y-50800000D03*
X236728000Y-48260000D03*
X236728000Y-45720000D03*
X236728000Y-43180000D03*
X236728000Y-40640000D03*
X236728000Y-38100000D03*
%TD*%
D24*
%TO.C,J22*%
X144000000Y-61480000D03*
D25*
X144000000Y-50080000D03*
X144000000Y-58380000D03*
%TD*%
D13*
%TO.C,Q4*%
X312420000Y-83058000D03*
D14*
X312420000Y-80518000D03*
X312420000Y-77978000D03*
%TD*%
D12*
%TO.C,R170*%
X180340000Y-61976000D03*
D11*
X170180000Y-61976000D03*
%TD*%
D18*
%TO.C,D4*%
X196596000Y-53848000D03*
D19*
X196596000Y-43688000D03*
%TD*%
D12*
%TO.C,R117*%
X41910000Y-50038000D03*
D11*
X52070000Y-50038000D03*
%TD*%
D12*
%TO.C,C58*%
X247904000Y-141986000D03*
X252904000Y-141986000D03*
%TD*%
D10*
%TO.C,U10*%
X264922000Y-71120000D03*
D11*
X262382000Y-71120000D03*
X259842000Y-71120000D03*
X257302000Y-71120000D03*
X254762000Y-71120000D03*
X252222000Y-71120000D03*
X249682000Y-71120000D03*
X247142000Y-71120000D03*
X247142000Y-78740000D03*
X249682000Y-78740000D03*
X252222000Y-78740000D03*
X254762000Y-78740000D03*
X257302000Y-78740000D03*
X259842000Y-78740000D03*
X262382000Y-78740000D03*
X264922000Y-78740000D03*
%TD*%
D13*
%TO.C,Q2*%
X299212000Y-87524000D03*
D14*
X296672000Y-87524000D03*
X294132000Y-87524000D03*
%TD*%
D12*
%TO.C,R125*%
X332486000Y-102108000D03*
D11*
X322326000Y-102108000D03*
%TD*%
D10*
%TO.C,U8*%
X299212000Y-131318000D03*
D11*
X299212000Y-133858000D03*
X299212000Y-136398000D03*
X299212000Y-138938000D03*
X306832000Y-138938000D03*
X306832000Y-136398000D03*
X306832000Y-133858000D03*
X306832000Y-131318000D03*
%TD*%
D24*
%TO.C,J17*%
X160000000Y-91480000D03*
D25*
X160000000Y-80080000D03*
X160000000Y-88380000D03*
%TD*%
D28*
%TO.C,RV20*%
X155000000Y-132200000D03*
X155000000Y-141800000D03*
D16*
X162500000Y-139500000D03*
D17*
X162500000Y-137000000D03*
X162500000Y-134500000D03*
%TD*%
D20*
%TO.C,J33*%
X128520000Y-137000000D03*
D21*
X139920000Y-137000000D03*
X131620000Y-137000000D03*
%TD*%
D24*
%TO.C,J49*%
X40000000Y-105502500D03*
D25*
X40000000Y-94102500D03*
X40000000Y-102402500D03*
%TD*%
D12*
%TO.C,R137*%
X209296000Y-101346000D03*
D11*
X219456000Y-101346000D03*
%TD*%
D12*
%TO.C,R33*%
X328200000Y-131100000D03*
D11*
X318040000Y-131100000D03*
%TD*%
D12*
%TO.C,R79*%
X265684000Y-58420000D03*
D11*
X255524000Y-58420000D03*
%TD*%
D26*
%TO.C,mouse-bite-2mm-slot*%
X182250000Y-106500000D03*
X183750000Y-105750000D03*
X182250000Y-105750000D03*
X182250000Y-107250000D03*
X183750000Y-106500000D03*
X183750000Y-107250000D03*
%TD*%
D12*
%TO.C,R118*%
X52070000Y-46990000D03*
D11*
X41910000Y-46990000D03*
%TD*%
D13*
%TO.C,Q16*%
X218694000Y-97028000D03*
D14*
X216154000Y-97028000D03*
X213614000Y-97028000D03*
%TD*%
D12*
%TO.C,R55*%
X258445000Y-91948000D03*
D11*
X258445000Y-81788000D03*
%TD*%
D10*
%TO.C,D16*%
X299212000Y-124968000D03*
D11*
X306832000Y-124968000D03*
%TD*%
D12*
%TO.C,R93*%
X302768000Y-95504000D03*
D11*
X302768000Y-85344000D03*
%TD*%
D12*
%TO.C,R105*%
X282956000Y-45974000D03*
D11*
X282956000Y-56134000D03*
%TD*%
D12*
%TO.C,R98*%
X332232000Y-96266000D03*
D11*
X332232000Y-86106000D03*
%TD*%
D15*
%TO.C,RV3*%
X77200000Y-40000000D03*
X86800000Y-40000000D03*
D16*
X79500000Y-47500000D03*
D17*
X82000000Y-47500000D03*
X84500000Y-47500000D03*
%TD*%
D13*
%TO.C,Q1*%
X203708000Y-71734000D03*
D14*
X206248000Y-71734000D03*
X208788000Y-71734000D03*
%TD*%
D10*
%TO.C,D15*%
X310134000Y-124206000D03*
D11*
X310134000Y-131826000D03*
%TD*%
D12*
%TO.C,R89*%
X292354000Y-77978000D03*
D11*
X302514000Y-77978000D03*
%TD*%
D12*
%TO.C,R50*%
X243840000Y-69088000D03*
D11*
X243840000Y-79248000D03*
%TD*%
D10*
%TO.C,D20*%
X292354000Y-83820000D03*
D11*
X299974000Y-83820000D03*
%TD*%
D12*
%TO.C,R3*%
X77724000Y-65532000D03*
D11*
X77724000Y-55372000D03*
%TD*%
D12*
%TO.C,R61*%
X296418000Y-142494000D03*
D11*
X286258000Y-142494000D03*
%TD*%
D12*
%TO.C,R171*%
X68326000Y-117094000D03*
D11*
X68326000Y-127254000D03*
%TD*%
D12*
%TO.C,R72*%
X277114000Y-52324000D03*
D11*
X266954000Y-52324000D03*
%TD*%
D13*
%TO.C,Q3*%
X317500000Y-73914000D03*
D14*
X314960000Y-73914000D03*
X312420000Y-73914000D03*
%TD*%
D22*
%TO.C,J8*%
X201100000Y-110800000D03*
D23*
X198560000Y-110800000D03*
X196020000Y-110800000D03*
X193480000Y-110800000D03*
X190940000Y-110800000D03*
X188400000Y-110800000D03*
%TD*%
D15*
%TO.C,RV1*%
X64800000Y-60000000D03*
X55200000Y-60000000D03*
D16*
X57500000Y-67500000D03*
D17*
X60000000Y-67500000D03*
X62500000Y-67500000D03*
%TD*%
D12*
%TO.C,C8*%
X199136000Y-142494000D03*
X199136000Y-137494000D03*
%TD*%
%TO.C,C48*%
X240284000Y-38688000D03*
X240284000Y-43688000D03*
%TD*%
D10*
%TO.C,D7*%
X186944000Y-142748000D03*
D11*
X186944000Y-135128000D03*
%TD*%
D12*
%TO.C,C60*%
X223854000Y-97028000D03*
X228854000Y-97028000D03*
%TD*%
%TO.C,R21*%
X226314000Y-70104000D03*
D11*
X236474000Y-70104000D03*
%TD*%
D12*
%TO.C,R25*%
X219964000Y-132842000D03*
D11*
X219964000Y-143002000D03*
%TD*%
D10*
%TO.C,D13*%
X230378000Y-140208000D03*
D11*
X222758000Y-140208000D03*
%TD*%
D12*
%TO.C,R140*%
X247142000Y-83566000D03*
D11*
X247142000Y-93726000D03*
%TD*%
D24*
%TO.C,J3*%
X40000000Y-86480000D03*
D25*
X40000000Y-75080000D03*
X40000000Y-83380000D03*
%TD*%
D12*
%TO.C,R57*%
X261493000Y-91948000D03*
D11*
X261493000Y-81788000D03*
%TD*%
D18*
%TO.C,D1*%
X206248000Y-43688000D03*
D19*
X206248000Y-53848000D03*
%TD*%
D13*
%TO.C,Q8*%
X312420000Y-37338000D03*
D14*
X314960000Y-37338000D03*
X317500000Y-37338000D03*
%TD*%
D10*
%TO.C,D36*%
X315722000Y-57658000D03*
D11*
X308102000Y-57658000D03*
%TD*%
D12*
%TO.C,R148*%
X247650000Y-120904000D03*
D11*
X237490000Y-120904000D03*
%TD*%
D12*
%TO.C,R120*%
X71628000Y-55372000D03*
D11*
X71628000Y-65532000D03*
%TD*%
D20*
%TO.C,J16*%
X126480000Y-99000000D03*
D27*
X115080000Y-99000000D03*
X123380000Y-99000000D03*
%TD*%
D15*
%TO.C,RV6*%
X55200000Y-119000000D03*
X64800000Y-119000000D03*
D16*
X57500000Y-126500000D03*
D17*
X60000000Y-126500000D03*
X62500000Y-126500000D03*
%TD*%
D12*
%TO.C,R27*%
X216916000Y-143002000D03*
D11*
X216916000Y-132842000D03*
%TD*%
D24*
%TO.C,J21*%
X144000000Y-76480000D03*
D25*
X144000000Y-65080000D03*
X144000000Y-73380000D03*
%TD*%
D10*
%TO.C,U14*%
X289296000Y-91440000D03*
D11*
X289296000Y-88900000D03*
X289296000Y-86360000D03*
X289296000Y-83820000D03*
X289296000Y-81280000D03*
X289296000Y-78740000D03*
X289296000Y-76200000D03*
X289296000Y-73660000D03*
X281676000Y-73660000D03*
X281676000Y-76200000D03*
X281676000Y-78740000D03*
X281676000Y-81280000D03*
X281676000Y-83820000D03*
X281676000Y-86360000D03*
X281676000Y-88900000D03*
X281676000Y-91440000D03*
%TD*%
D12*
%TO.C,R121*%
X332486000Y-105156000D03*
D11*
X322326000Y-105156000D03*
%TD*%
D12*
%TO.C,C53*%
X308102000Y-114808000D03*
X308102000Y-119808000D03*
%TD*%
D18*
%TO.C,D2*%
X206248000Y-36576000D03*
D19*
X196088000Y-36576000D03*
%TD*%
D12*
%TO.C,R85*%
X302514000Y-68834000D03*
D11*
X292354000Y-68834000D03*
%TD*%
D13*
%TO.C,Q6*%
X303276000Y-39730000D03*
D14*
X305816000Y-39730000D03*
X308356000Y-39730000D03*
%TD*%
D22*
%TO.C,J13*%
X304300000Y-65200000D03*
D23*
X304300000Y-62660000D03*
X304300000Y-60120000D03*
X304300000Y-57580000D03*
X304300000Y-55040000D03*
X304300000Y-52500000D03*
X304300000Y-49960000D03*
X304300000Y-47420000D03*
%TD*%
D12*
%TO.C,C65*%
X231400000Y-97028000D03*
X236400000Y-97028000D03*
%TD*%
D20*
%TO.C,J20*%
X168520000Y-70000000D03*
D21*
X179920000Y-70000000D03*
X171620000Y-70000000D03*
%TD*%
D10*
%TO.C,U1*%
X91948000Y-55626000D03*
D11*
X89408000Y-55626000D03*
X86868000Y-55626000D03*
X84328000Y-55626000D03*
X84328000Y-63246000D03*
X86868000Y-63246000D03*
X89408000Y-63246000D03*
X91948000Y-63246000D03*
%TD*%
D10*
%TO.C,D6*%
X189484000Y-125222000D03*
D11*
X189484000Y-132842000D03*
%TD*%
D10*
%TO.C,D17*%
X262128000Y-123952000D03*
D11*
X269748000Y-123952000D03*
%TD*%
D12*
%TO.C,R30*%
X213360000Y-115062000D03*
D11*
X203200000Y-115062000D03*
%TD*%
D12*
%TO.C,R4*%
X48768000Y-75184000D03*
D11*
X48768000Y-65024000D03*
%TD*%
D12*
%TO.C,R7*%
X134620000Y-74930000D03*
D11*
X134620000Y-64770000D03*
%TD*%
D12*
%TO.C,R53*%
X247904000Y-99568000D03*
D11*
X247904000Y-109728000D03*
%TD*%
D10*
%TO.C,D29*%
X332486000Y-68834000D03*
D11*
X324866000Y-68834000D03*
%TD*%
D10*
%TO.C,D24*%
X317754000Y-87884000D03*
D11*
X317754000Y-95504000D03*
%TD*%
D29*
%TO.C,H3*%
X228000000Y-133800000D03*
%TD*%
D12*
%TO.C,R74*%
X243078000Y-56896000D03*
D11*
X253238000Y-56896000D03*
%TD*%
D12*
%TO.C,C35*%
X259080000Y-94742000D03*
X254080000Y-94742000D03*
%TD*%
%TO.C,R150*%
X225044000Y-114808000D03*
D11*
X235204000Y-114808000D03*
%TD*%
D12*
%TO.C,C11*%
X213868000Y-134874000D03*
X213868000Y-129874000D03*
%TD*%
%TO.C,R142*%
X219456000Y-104394000D03*
D11*
X209296000Y-104394000D03*
%TD*%
D13*
%TO.C,Q9*%
X35306000Y-51562000D03*
D14*
X35306000Y-49022000D03*
X35306000Y-46482000D03*
%TD*%
D15*
%TO.C,RV14*%
X129800000Y-40000000D03*
X120200000Y-40000000D03*
D16*
X122500000Y-47500000D03*
D17*
X125000000Y-47500000D03*
X127500000Y-47500000D03*
%TD*%
D12*
%TO.C,R127*%
X319024000Y-123444000D03*
D11*
X329184000Y-123444000D03*
%TD*%
D10*
%TO.C,D14*%
X317246000Y-139700000D03*
D11*
X324866000Y-139700000D03*
%TD*%
D12*
%TO.C,C43*%
X306832000Y-127762000D03*
X301832000Y-127762000D03*
%TD*%
%TO.C,R46*%
X295148000Y-124968000D03*
D11*
X284988000Y-124968000D03*
%TD*%
D12*
%TO.C,C18*%
X203534000Y-82804000D03*
X208534000Y-82804000D03*
%TD*%
%TO.C,C61*%
X244268000Y-97028000D03*
X239268000Y-97028000D03*
%TD*%
%TO.C,R43*%
X274320000Y-115570000D03*
D11*
X264160000Y-115570000D03*
%TD*%
D22*
%TO.C,J11*%
X210100000Y-110900000D03*
D23*
X212640000Y-110900000D03*
X215180000Y-110900000D03*
X217720000Y-110900000D03*
%TD*%
D12*
%TO.C,R123*%
X305308000Y-115316000D03*
D11*
X295148000Y-115316000D03*
%TD*%
D12*
%TO.C,R115*%
X308102000Y-54610000D03*
D11*
X318262000Y-54610000D03*
%TD*%
D12*
%TO.C,R41*%
X312928000Y-132080000D03*
D11*
X312928000Y-142240000D03*
%TD*%
D12*
%TO.C,C9*%
X203748000Y-66294000D03*
X208748000Y-66294000D03*
%TD*%
%TO.C,R116*%
X41910000Y-53086000D03*
D11*
X52070000Y-53086000D03*
%TD*%
D22*
%TO.C,J10*%
X225400000Y-50800000D03*
D23*
X222860000Y-50800000D03*
%TD*%
D15*
%TO.C,RV12*%
X120200000Y-80000000D03*
X129800000Y-80000000D03*
D16*
X122500000Y-87500000D03*
D17*
X125000000Y-87500000D03*
X127500000Y-87500000D03*
%TD*%
D22*
%TO.C,J34*%
X230900000Y-127600000D03*
D23*
X233440000Y-127600000D03*
X235980000Y-127600000D03*
X238520000Y-127600000D03*
X241060000Y-127600000D03*
X243600000Y-127600000D03*
%TD*%
D13*
%TO.C,Q11*%
X299720000Y-92710000D03*
D14*
X297180000Y-92710000D03*
X294640000Y-92710000D03*
%TD*%
D12*
%TO.C,R23*%
X187198000Y-104648000D03*
D11*
X187198000Y-94488000D03*
%TD*%
D12*
%TO.C,C20*%
X218614000Y-85852000D03*
X213614000Y-85852000D03*
%TD*%
%TO.C,C31*%
X331470000Y-131144000D03*
X331470000Y-136144000D03*
%TD*%
%TO.C,C62*%
X242744000Y-111760000D03*
X237744000Y-111760000D03*
%TD*%
%TO.C,C21*%
X223012000Y-65532000D03*
X223012000Y-60532000D03*
%TD*%
D10*
%TO.C,C73*%
X51900000Y-139900000D03*
D12*
X49900000Y-139900000D03*
%TD*%
%TO.C,C27*%
X227330000Y-83994000D03*
X227330000Y-78994000D03*
%TD*%
%TO.C,C51*%
X39116000Y-53300000D03*
X39116000Y-48300000D03*
%TD*%
%TO.C,R165*%
X51562000Y-36195000D03*
D11*
X49022000Y-36195000D03*
%TD*%
D20*
%TO.C,J18*%
X168520000Y-85000000D03*
D21*
X179920000Y-85000000D03*
X171620000Y-85000000D03*
%TD*%
D20*
%TO.C,J51*%
X90520000Y-120000000D03*
D21*
X101920000Y-120000000D03*
X93620000Y-120000000D03*
%TD*%
D15*
%TO.C,RV13*%
X120200000Y-60000000D03*
X129800000Y-60000000D03*
D16*
X122500000Y-67500000D03*
D17*
X125000000Y-67500000D03*
X127500000Y-67500000D03*
%TD*%
D12*
%TO.C,R88*%
X278638000Y-68326000D03*
D11*
X268478000Y-68326000D03*
%TD*%
D12*
%TO.C,C19*%
X199136000Y-122254000D03*
X199136000Y-127254000D03*
%TD*%
%TO.C,C66*%
X140208000Y-99060000D03*
X140208000Y-104060000D03*
%TD*%
%TO.C,R122*%
X332486000Y-114300000D03*
D11*
X322326000Y-114300000D03*
%TD*%
D12*
%TO.C,C47*%
X225552000Y-44958000D03*
X225552000Y-39958000D03*
%TD*%
%TO.C,C41*%
X291846000Y-118872000D03*
X286846000Y-118872000D03*
%TD*%
%TO.C,C44*%
X304212000Y-142494000D03*
X299212000Y-142494000D03*
%TD*%
%TO.C,R128*%
X332486000Y-111252000D03*
D11*
X322326000Y-111252000D03*
%TD*%
D10*
%TO.C,U19*%
X255524000Y-138430000D03*
D11*
X255524000Y-135890000D03*
X255524000Y-133350000D03*
X255524000Y-130810000D03*
X247904000Y-130810000D03*
X247904000Y-133350000D03*
X247904000Y-135890000D03*
X247904000Y-138430000D03*
%TD*%
D12*
%TO.C,R110*%
X306578000Y-43434000D03*
D11*
X316738000Y-43434000D03*
%TD*%
D12*
%TO.C,C25*%
X239776000Y-70278000D03*
X239776000Y-65278000D03*
%TD*%
%TO.C,C56*%
X327580000Y-108204000D03*
X322580000Y-108204000D03*
%TD*%
%TO.C,R17*%
X226314000Y-64008000D03*
D11*
X236474000Y-64008000D03*
%TD*%
D12*
%TO.C,R56*%
X264541000Y-91948000D03*
D11*
X264541000Y-81788000D03*
%TD*%
D12*
%TO.C,C3*%
X95504000Y-63246000D03*
X95504000Y-58246000D03*
%TD*%
%TO.C,C49*%
X292608000Y-63246000D03*
X297608000Y-63246000D03*
%TD*%
%TO.C,C16*%
X197358000Y-94742000D03*
X197358000Y-99742000D03*
%TD*%
%TO.C,C46*%
X267208000Y-37084000D03*
X272208000Y-37084000D03*
%TD*%
%TO.C,R42*%
X284988000Y-121920000D03*
D11*
X295148000Y-121920000D03*
%TD*%
D12*
%TO.C,R129*%
X295148000Y-112268000D03*
D11*
X305308000Y-112268000D03*
%TD*%
D12*
%TO.C,R124*%
X322326000Y-120396000D03*
D11*
X332486000Y-120396000D03*
%TD*%
D10*
%TO.C,U20*%
X225044000Y-108204000D03*
D11*
X227584000Y-108204000D03*
X230124000Y-108204000D03*
X232664000Y-108204000D03*
X235204000Y-108204000D03*
X237744000Y-108204000D03*
X240284000Y-108204000D03*
X240284000Y-100584000D03*
X237744000Y-100584000D03*
X235204000Y-100584000D03*
X232664000Y-100584000D03*
X230124000Y-100584000D03*
X227584000Y-100584000D03*
X225044000Y-100584000D03*
%TD*%
D10*
%TO.C,D22*%
X278638000Y-77216000D03*
D11*
X271018000Y-77216000D03*
%TD*%
D12*
%TO.C,R168*%
X179832000Y-77724000D03*
D11*
X169672000Y-77724000D03*
%TD*%
D12*
%TO.C,C26*%
X231394000Y-83994000D03*
X231394000Y-78994000D03*
%TD*%
D15*
%TO.C,RV8*%
X98200000Y-40000000D03*
X107800000Y-40000000D03*
D16*
X100500000Y-47500000D03*
D17*
X103000000Y-47500000D03*
X105500000Y-47500000D03*
%TD*%
D15*
%TO.C,RV10*%
X84800000Y-99000000D03*
X75200000Y-99000000D03*
D16*
X77500000Y-106500000D03*
D17*
X80000000Y-106500000D03*
X82500000Y-106500000D03*
%TD*%
D12*
%TO.C,R130*%
X295148000Y-98552000D03*
D11*
X305308000Y-98552000D03*
%TD*%
D12*
%TO.C,R38*%
X332486000Y-142494000D03*
D11*
X322326000Y-142494000D03*
%TD*%
D28*
%TO.C,RV5*%
X60000000Y-141800000D03*
X60000000Y-132200000D03*
D16*
X67500000Y-139500000D03*
D17*
X67500000Y-137000000D03*
X67500000Y-134500000D03*
%TD*%
D12*
%TO.C,R73*%
X255524000Y-61468000D03*
D11*
X265684000Y-61468000D03*
%TD*%
D12*
%TO.C,C17*%
X186182000Y-88820000D03*
X186182000Y-83820000D03*
%TD*%
D28*
%TO.C,RV19*%
X155000000Y-122800000D03*
X155000000Y-113200000D03*
D16*
X147500000Y-115500000D03*
D17*
X147500000Y-118000000D03*
X147500000Y-120500000D03*
%TD*%
D12*
%TO.C,R40*%
X291846000Y-100330000D03*
D11*
X281686000Y-100330000D03*
%TD*%
D12*
%TO.C,R60*%
X283972000Y-142494000D03*
D11*
X273812000Y-142494000D03*
%TD*%
D12*
%TO.C,R86*%
X278638000Y-65278000D03*
D11*
X268478000Y-65278000D03*
%TD*%
D10*
%TO.C,D21*%
X281686000Y-94488000D03*
D11*
X289306000Y-94488000D03*
%TD*%
D12*
%TO.C,C33*%
X270082000Y-109474000D03*
X275082000Y-109474000D03*
%TD*%
D10*
%TO.C,U6*%
X186182000Y-60706000D03*
D11*
X186182000Y-63246000D03*
X186182000Y-65786000D03*
X186182000Y-68326000D03*
X186182000Y-70866000D03*
X186182000Y-73406000D03*
X186182000Y-75946000D03*
X186182000Y-78486000D03*
X193802000Y-78486000D03*
X193802000Y-75946000D03*
X193802000Y-73406000D03*
X193802000Y-70866000D03*
X193802000Y-68326000D03*
X193802000Y-65786000D03*
X193802000Y-63246000D03*
X193802000Y-60706000D03*
%TD*%
D20*
%TO.C,J31*%
X128520000Y-118000000D03*
D21*
X139920000Y-118000000D03*
X131620000Y-118000000D03*
%TD*%
D12*
%TO.C,R20*%
X226314000Y-73152000D03*
D11*
X236474000Y-73152000D03*
%TD*%
D12*
%TO.C,R143*%
X221742000Y-90932000D03*
D11*
X231902000Y-90932000D03*
%TD*%
D12*
%TO.C,R94*%
X305816000Y-85344000D03*
D11*
X305816000Y-95504000D03*
%TD*%
D12*
%TO.C,R69*%
X243078000Y-41656000D03*
D11*
X253238000Y-41656000D03*
%TD*%
D10*
%TO.C,U4*%
X197358000Y-83820000D03*
D11*
X194818000Y-83820000D03*
X192278000Y-83820000D03*
X189738000Y-83820000D03*
X189738000Y-91440000D03*
X192278000Y-91440000D03*
X194818000Y-91440000D03*
X197358000Y-91440000D03*
%TD*%
D15*
%TO.C,RV7*%
X55200000Y-40000000D03*
X64800000Y-40000000D03*
D16*
X57500000Y-47500000D03*
D17*
X60000000Y-47500000D03*
X62500000Y-47500000D03*
%TD*%
D12*
%TO.C,R146*%
X247650000Y-114808000D03*
D11*
X237490000Y-114808000D03*
%TD*%
D12*
%TO.C,C57*%
X259080000Y-131652000D03*
X259080000Y-136652000D03*
%TD*%
%TO.C,R151*%
X222758000Y-117856000D03*
D11*
X232918000Y-117856000D03*
%TD*%
D12*
%TO.C,R44*%
X282702000Y-118872000D03*
D11*
X272542000Y-118872000D03*
%TD*%
D12*
%TO.C,R159*%
X72644000Y-46736000D03*
D11*
X72644000Y-36576000D03*
%TD*%
D12*
%TO.C,R19*%
X222504000Y-76200000D03*
D11*
X232664000Y-76200000D03*
%TD*%
D20*
%TO.C,J1*%
X33520000Y-137000000D03*
D21*
X44920000Y-137000000D03*
X36620000Y-137000000D03*
%TD*%
D12*
%TO.C,R47*%
X265684000Y-67564000D03*
D11*
X255524000Y-67564000D03*
%TD*%
D12*
%TO.C,R109*%
X297434000Y-59944000D03*
D11*
X297434000Y-49784000D03*
%TD*%
D12*
%TO.C,R48*%
X278130000Y-98298000D03*
D11*
X278130000Y-108458000D03*
%TD*%
D12*
%TO.C,R82*%
X243078000Y-50800000D03*
D11*
X253238000Y-50800000D03*
%TD*%
D10*
%TO.C,D34*%
X310642000Y-40640000D03*
D11*
X318262000Y-40640000D03*
%TD*%
D12*
%TO.C,C71*%
X332232000Y-82724000D03*
X332232000Y-77724000D03*
%TD*%
D10*
%TO.C,U21*%
X151384000Y-104140000D03*
D11*
X151384000Y-101600000D03*
X151384000Y-99060000D03*
X151384000Y-96520000D03*
X143764000Y-96520000D03*
X143764000Y-99060000D03*
X143764000Y-101600000D03*
X143764000Y-104140000D03*
%TD*%
D12*
%TO.C,R80*%
X253238000Y-59944000D03*
D11*
X243078000Y-59944000D03*
%TD*%
D29*
%TO.C,H1*%
X76000000Y-133800000D03*
%TD*%
D12*
%TO.C,R52*%
X272542000Y-121920000D03*
D11*
X282702000Y-121920000D03*
%TD*%
D12*
%TO.C,R26*%
X194310000Y-94488000D03*
D11*
X194310000Y-104648000D03*
%TD*%
D12*
%TO.C,R35*%
X261874000Y-115570000D03*
D11*
X251714000Y-115570000D03*
%TD*%
D28*
%TO.C,RV18*%
X175000000Y-113200000D03*
X175000000Y-122800000D03*
D16*
X167500000Y-115500000D03*
D17*
X167500000Y-118000000D03*
X167500000Y-120500000D03*
%TD*%
D12*
%TO.C,R99*%
X311912000Y-70358000D03*
D11*
X311912000Y-60198000D03*
%TD*%
D10*
%TO.C,D28*%
X293624000Y-58420000D03*
D11*
X286004000Y-58420000D03*
%TD*%
D12*
%TO.C,R70*%
X277114000Y-46228000D03*
D11*
X266954000Y-46228000D03*
%TD*%
D12*
%TO.C,R102*%
X311912000Y-85344000D03*
D11*
X311912000Y-95504000D03*
%TD*%
D12*
%TO.C,C69*%
X329104000Y-36322000D03*
X324104000Y-36322000D03*
%TD*%
%TO.C,C68*%
X153336000Y-92964000D03*
X148336000Y-92964000D03*
%TD*%
%TO.C,R97*%
X278638000Y-74422000D03*
D11*
X268478000Y-74422000D03*
%TD*%
D10*
%TO.C,D33*%
X332486000Y-49784000D03*
D11*
X332486000Y-57404000D03*
%TD*%
D12*
%TO.C,R106*%
X279908000Y-56134000D03*
D11*
X279908000Y-45974000D03*
%TD*%
D12*
%TO.C,R164*%
X46990000Y-104169000D03*
D11*
X46990000Y-101629000D03*
%TD*%
D12*
%TO.C,R63*%
X270256000Y-131826000D03*
D11*
X270256000Y-141986000D03*
%TD*%
D12*
%TO.C,R59*%
X250952000Y-99568000D03*
D11*
X250952000Y-109728000D03*
%TD*%
D12*
%TO.C,C54*%
X308102000Y-104648000D03*
X308102000Y-99648000D03*
%TD*%
%TO.C,R45*%
X255524000Y-64516000D03*
D11*
X265684000Y-64516000D03*
%TD*%
D12*
%TO.C,C42*%
X291512000Y-139446000D03*
X286512000Y-139446000D03*
%TD*%
D10*
%TO.C,U7*%
X256535000Y-105908000D03*
D11*
X259075000Y-105908000D03*
X261615000Y-105908000D03*
X264155000Y-105908000D03*
X266695000Y-105908000D03*
X269235000Y-105908000D03*
X271775000Y-105908000D03*
X271775000Y-98288000D03*
X269235000Y-98288000D03*
X266695000Y-98288000D03*
X264155000Y-98288000D03*
X261615000Y-98288000D03*
X259075000Y-98288000D03*
X256535000Y-98288000D03*
%TD*%
D24*
%TO.C,J50*%
X60000000Y-105480000D03*
D25*
X60000000Y-94080000D03*
X60000000Y-102380000D03*
%TD*%
D12*
%TO.C,R100*%
X308864000Y-60198000D03*
D11*
X308864000Y-70358000D03*
%TD*%
D12*
%TO.C,R95*%
X268478000Y-59182000D03*
D11*
X278638000Y-59182000D03*
%TD*%
D12*
%TO.C,R161*%
X52070000Y-92202000D03*
D11*
X52070000Y-82042000D03*
%TD*%
D12*
%TO.C,R138*%
X234442000Y-87884000D03*
D11*
X224282000Y-87884000D03*
%TD*%
D22*
%TO.C,J7*%
X202500000Y-104800000D03*
D23*
X202500000Y-102260000D03*
X202500000Y-99720000D03*
X202500000Y-97180000D03*
%TD*%
D12*
%TO.C,R71*%
X277114000Y-49276000D03*
D11*
X266954000Y-49276000D03*
%TD*%
D26*
%TO.C,mouse-bite-2mm-slot*%
X182250000Y-89250000D03*
X183750000Y-88500000D03*
X182250000Y-87750000D03*
X182250000Y-88500000D03*
X183750000Y-89250000D03*
X183750000Y-87750000D03*
%TD*%
D12*
%TO.C,C30*%
X216916000Y-125302000D03*
X216916000Y-130302000D03*
%TD*%
%TO.C,R91*%
X278638000Y-71374000D03*
D11*
X268478000Y-71374000D03*
%TD*%
D10*
%TO.C,U13*%
X281686000Y-62230000D03*
D11*
X281686000Y-64770000D03*
X281686000Y-67310000D03*
X281686000Y-69850000D03*
X289306000Y-69850000D03*
X289306000Y-67310000D03*
X289306000Y-64770000D03*
X289306000Y-62230000D03*
%TD*%
D12*
%TO.C,R68*%
X243078000Y-44704000D03*
D11*
X253238000Y-44704000D03*
%TD*%
D26*
%TO.C,mouse-bite-2mm-slot*%
X183750000Y-124500000D03*
X182250000Y-125250000D03*
X182250000Y-124500000D03*
X183750000Y-125250000D03*
X183750000Y-123750000D03*
X182250000Y-123750000D03*
%TD*%
D12*
%TO.C,R78*%
X277114000Y-55372000D03*
D11*
X266954000Y-55372000D03*
%TD*%
D12*
%TO.C,R13*%
X193040000Y-120142000D03*
D11*
X193040000Y-130302000D03*
%TD*%
D20*
%TO.C,J29*%
X105520000Y-120020000D03*
D21*
X116920000Y-120020000D03*
X108620000Y-120020000D03*
%TD*%
D10*
%TO.C,D25*%
X317754000Y-85598000D03*
D11*
X317754000Y-77978000D03*
%TD*%
D13*
%TO.C,Q7*%
X317754000Y-61976000D03*
D14*
X320294000Y-61976000D03*
X322834000Y-61976000D03*
%TD*%
D12*
%TO.C,R87*%
X302514000Y-74930000D03*
D11*
X292354000Y-74930000D03*
%TD*%
D12*
%TO.C,R81*%
X253238000Y-53848000D03*
D11*
X243078000Y-53848000D03*
%TD*%
D15*
%TO.C,RV4*%
X44800000Y-119000000D03*
X35200000Y-119000000D03*
D16*
X37500000Y-126500000D03*
D17*
X40000000Y-126500000D03*
X42500000Y-126500000D03*
%TD*%
D12*
%TO.C,C37*%
X261700000Y-94742000D03*
X266700000Y-94742000D03*
%TD*%
%TO.C,C67*%
X143764000Y-107696000D03*
X148764000Y-107696000D03*
%TD*%
%TO.C,R133*%
X234696000Y-134366000D03*
D11*
X244856000Y-134366000D03*
%TD*%
D12*
%TO.C,R8*%
X134620000Y-62484000D03*
D11*
X134620000Y-52324000D03*
%TD*%
D12*
%TO.C,R145*%
X234188000Y-93980000D03*
D11*
X244348000Y-93980000D03*
%TD*%
D12*
%TO.C,C34*%
X259842000Y-109474000D03*
X254842000Y-109474000D03*
%TD*%
%TO.C,R92*%
X292354000Y-81026000D03*
D11*
X302514000Y-81026000D03*
%TD*%
D28*
%TO.C,RV15*%
X112000000Y-132200000D03*
X112000000Y-141800000D03*
D16*
X104500000Y-134500000D03*
D17*
X104500000Y-137000000D03*
X104500000Y-139500000D03*
%TD*%
D26*
%TO.C,mouse-bite-2mm-slot*%
X183750000Y-51750000D03*
X182250000Y-53250000D03*
X183750000Y-52500000D03*
X183750000Y-53250000D03*
X182250000Y-51750000D03*
X182250000Y-52500000D03*
%TD*%
D12*
%TO.C,R112*%
X322326000Y-71628000D03*
D11*
X332486000Y-71628000D03*
%TD*%
D28*
%TO.C,RV16*%
X92000000Y-141800000D03*
X92000000Y-132200000D03*
D16*
X84500000Y-134500000D03*
D17*
X84500000Y-137000000D03*
X84500000Y-139500000D03*
%TD*%
D12*
%TO.C,R149*%
X237490000Y-117856000D03*
D11*
X247650000Y-117856000D03*
%TD*%
D12*
%TO.C,R9*%
X134620000Y-50038000D03*
D11*
X134620000Y-39878000D03*
%TD*%
D18*
%TO.C,D9*%
X200660000Y-57912000D03*
D19*
X200660000Y-68072000D03*
%TD*%
D12*
%TO.C,R108*%
X300482000Y-49784000D03*
D11*
X300482000Y-59944000D03*
%TD*%
D10*
%TO.C,D8*%
X189484000Y-135128000D03*
D11*
X189484000Y-142748000D03*
%TD*%
D12*
%TO.C,R31*%
X167386000Y-109474000D03*
D11*
X157226000Y-109474000D03*
%TD*%
D12*
%TO.C,R153*%
X161036000Y-96266000D03*
D11*
X161036000Y-106426000D03*
%TD*%
D12*
%TO.C,C10*%
X218106000Y-60960000D03*
X213106000Y-60960000D03*
%TD*%
D20*
%TO.C,J30*%
X168520000Y-40000000D03*
D21*
X179920000Y-40000000D03*
X171620000Y-40000000D03*
%TD*%
D12*
%TO.C,R135*%
X234696000Y-131318000D03*
D11*
X244856000Y-131318000D03*
%TD*%
D12*
%TO.C,R77*%
X277114000Y-40132000D03*
D11*
X266954000Y-40132000D03*
%TD*%
D20*
%TO.C,J4*%
X33542500Y-40000000D03*
D21*
X44942500Y-40000000D03*
X36642500Y-40000000D03*
%TD*%
D12*
%TO.C,R90*%
X281686000Y-97282000D03*
D11*
X291846000Y-97282000D03*
%TD*%
D13*
%TO.C,Q17*%
X48112000Y-83312000D03*
D14*
X48112000Y-80772000D03*
X48112000Y-78232000D03*
%TD*%
D20*
%TO.C,J27*%
X168520000Y-102000000D03*
D21*
X179920000Y-102000000D03*
X171620000Y-102000000D03*
%TD*%
D12*
%TO.C,R172*%
X174498000Y-48260000D03*
D11*
X171958000Y-48260000D03*
%TD*%
D12*
%TO.C,R111*%
X314960000Y-60198000D03*
D11*
X314960000Y-70358000D03*
%TD*%
D12*
%TO.C,C4*%
X80772000Y-60626000D03*
X80772000Y-55626000D03*
%TD*%
D10*
%TO.C,D10*%
X232664000Y-142748000D03*
D11*
X240284000Y-142748000D03*
%TD*%
D12*
%TO.C,R6*%
X98806000Y-63754000D03*
D11*
X98806000Y-53594000D03*
%TD*%
D12*
%TO.C,C55*%
X308102000Y-107188000D03*
X308102000Y-112188000D03*
%TD*%
D13*
%TO.C,Q12*%
X291700000Y-112014000D03*
D14*
X289160000Y-112014000D03*
X286620000Y-112014000D03*
%TD*%
D10*
%TO.C,U12*%
X256286000Y-39116000D03*
D11*
X256286000Y-41656000D03*
X256286000Y-44196000D03*
X256286000Y-46736000D03*
X256286000Y-49276000D03*
X256286000Y-51816000D03*
X256286000Y-54356000D03*
X263906000Y-54356000D03*
X263906000Y-51816000D03*
X263906000Y-49276000D03*
X263906000Y-46736000D03*
X263906000Y-44196000D03*
X263906000Y-41656000D03*
X263906000Y-39116000D03*
%TD*%
D12*
%TO.C,R5*%
X89154000Y-69850000D03*
D11*
X78994000Y-69850000D03*
%TD*%
D12*
%TO.C,C45*%
X231688000Y-56896000D03*
X236688000Y-56896000D03*
%TD*%
%TO.C,C50*%
X305308000Y-74676000D03*
X305308000Y-79676000D03*
%TD*%
%TO.C,C63*%
X227584000Y-111760000D03*
X222584000Y-111760000D03*
%TD*%
%TO.C,C23*%
X223266000Y-83994000D03*
X223266000Y-78994000D03*
%TD*%
D10*
%TO.C,D32*%
X325120000Y-60452000D03*
D11*
X332740000Y-60452000D03*
%TD*%
D22*
%TO.C,J39*%
X34798000Y-89916000D03*
D23*
X37338000Y-89916000D03*
X39878000Y-89916000D03*
%TD*%
D28*
%TO.C,RV17*%
X175000000Y-141800000D03*
X175000000Y-132200000D03*
D16*
X167500000Y-134500000D03*
D17*
X167500000Y-137000000D03*
X167500000Y-139500000D03*
%TD*%
D12*
%TO.C,R65*%
X74676000Y-65532000D03*
D11*
X74676000Y-55372000D03*
%TD*%
D12*
%TO.C,R62*%
X283972000Y-139446000D03*
D11*
X273812000Y-139446000D03*
%TD*%
D12*
%TO.C,R131*%
X295148000Y-109220000D03*
D11*
X305308000Y-109220000D03*
%TD*%
D12*
%TO.C,C2*%
X157988000Y-101266000D03*
X157988000Y-96266000D03*
%TD*%
%TO.C,R29*%
X219964000Y-130302000D03*
D11*
X219964000Y-120142000D03*
%TD*%
D24*
%TO.C,J14*%
X100000000Y-73520000D03*
D30*
X100000000Y-84920000D03*
X100000000Y-76620000D03*
%TD*%
D22*
%TO.C,J36*%
X314020000Y-127400000D03*
D23*
X316560000Y-127400000D03*
X319100000Y-127400000D03*
X321640000Y-127400000D03*
X324180000Y-127400000D03*
X326720000Y-127400000D03*
X329260000Y-127400000D03*
X331800000Y-127400000D03*
%TD*%
D20*
%TO.C,J23*%
X150480000Y-40000000D03*
D27*
X139080000Y-40000000D03*
X147380000Y-40000000D03*
%TD*%
D12*
%TO.C,R15*%
X196088000Y-130302000D03*
D11*
X196088000Y-120142000D03*
%TD*%
D12*
%TO.C,R58*%
X275082000Y-91694000D03*
D11*
X275082000Y-81534000D03*
%TD*%
D10*
%TO.C,D12*%
X222758000Y-142748000D03*
D11*
X230378000Y-142748000D03*
%TD*%
D12*
%TO.C,R114*%
X318262000Y-46482000D03*
D11*
X308102000Y-46482000D03*
%TD*%
D20*
%TO.C,J28*%
X153520000Y-40000000D03*
D21*
X164920000Y-40000000D03*
X156620000Y-40000000D03*
%TD*%
D12*
%TO.C,C32*%
X327232000Y-139446000D03*
X332232000Y-139446000D03*
%TD*%
D22*
%TO.C,J52*%
X58900000Y-50800000D03*
D23*
X61440000Y-50800000D03*
X63980000Y-50800000D03*
X66520000Y-50800000D03*
%TD*%
D22*
%TO.C,J6*%
X49100000Y-110800000D03*
D23*
X46560000Y-110800000D03*
X44020000Y-110800000D03*
X41480000Y-110800000D03*
X38940000Y-110800000D03*
X36400000Y-110800000D03*
%TD*%
D22*
%TO.C,J32*%
X78900000Y-127600000D03*
D23*
X81440000Y-127600000D03*
X83980000Y-127600000D03*
X86520000Y-127600000D03*
X89060000Y-127600000D03*
X91600000Y-127600000D03*
%TD*%
D31*
%TO.C,RV22*%
X299974000Y-106386000D03*
X302474000Y-103886000D03*
X299974000Y-101386000D03*
%TD*%
D10*
%TO.C,C7*%
X211074000Y-44672000D03*
D12*
X211074000Y-42672000D03*
%TD*%
D22*
%TO.C,J35*%
X162020000Y-127400000D03*
D23*
X164560000Y-127400000D03*
X167100000Y-127400000D03*
X169640000Y-127400000D03*
X172180000Y-127400000D03*
X174720000Y-127400000D03*
X177260000Y-127400000D03*
X179800000Y-127400000D03*
%TD*%
D10*
%TO.C,C15*%
X207430380Y-58928000D03*
D12*
X204930380Y-58928000D03*
%TD*%
D22*
%TO.C,J12*%
X58100000Y-110900000D03*
D23*
X60640000Y-110900000D03*
X63180000Y-110900000D03*
X65720000Y-110900000D03*
%TD*%
D32*
%TO.C,J37*%
X188214000Y-50800000D03*
D33*
X190754000Y-50800000D03*
X188214000Y-48260000D03*
X190754000Y-48260000D03*
X188214000Y-45720000D03*
X190754000Y-45720000D03*
X188214000Y-43180000D03*
X190754000Y-43180000D03*
X188214000Y-40640000D03*
X190754000Y-40640000D03*
%TD*%
D31*
%TO.C,RV21*%
X219456000Y-37592000D03*
X216956000Y-40092000D03*
X219456000Y-42592000D03*
%TD*%
D22*
%TO.C,J5*%
X50500000Y-104800000D03*
D23*
X50500000Y-102260000D03*
X50500000Y-99720000D03*
X50500000Y-97180000D03*
%TD*%
D22*
%TO.C,J41*%
X268224000Y-120650000D03*
D23*
X265684000Y-120650000D03*
X263144000Y-120650000D03*
%TD*%
D10*
%TO.C,C22*%
X215138000Y-91186000D03*
D12*
X217138000Y-91186000D03*
%TD*%
D22*
%TO.C,J38*%
X254259000Y-119136000D03*
D23*
X251719000Y-119136000D03*
X254259000Y-121676000D03*
X251719000Y-121676000D03*
X254259000Y-124216000D03*
X251719000Y-124216000D03*
X254259000Y-126756000D03*
X251719000Y-126756000D03*
%TD*%
D10*
%TO.C,C28*%
X208788000Y-91440000D03*
D12*
X208788000Y-93440000D03*
%TD*%
D10*
%TO.C,C13*%
X202377113Y-52578000D03*
D12*
X200377113Y-52578000D03*
%TD*%
D22*
%TO.C,J15*%
X152300000Y-65180000D03*
D23*
X152300000Y-62640000D03*
X152300000Y-60100000D03*
X152300000Y-57560000D03*
X152300000Y-55020000D03*
X152300000Y-52480000D03*
X152300000Y-49940000D03*
X152300000Y-47400000D03*
%TD*%
D10*
%TO.C,C6*%
X211074000Y-36576000D03*
D12*
X211074000Y-38576000D03*
%TD*%
D22*
%TO.C,J9*%
X73400000Y-50800000D03*
D23*
X70860000Y-50800000D03*
%TD*%
M02*
