M48
; DRILL file {KiCad (6.0.6-0)} date Tuesday, 25 October 2022 at 16:41:24
; FORMAT={-:-/ absolute / metric / decimal}
; #@! TF.CreationDate,2022-10-25T16:41:24+01:00
; #@! TF.GenerationSoftware,Kicad,Pcbnew,(6.0.6-0)
; #@! TF.FileFunction,MixedPlating,1,2
FMAT,2
METRIC
; #@! TA.AperFunction,Plated,PTH,ViaDrill
T1C0.381
; #@! TA.AperFunction,Plated,PTH,ComponentDrill
T2C0.600
; #@! TA.AperFunction,Plated,PTH,ComponentDrill
T3C0.800
; #@! TA.AperFunction,Plated,PTH,ComponentDrill
T4C1.000
; #@! TA.AperFunction,Plated,PTH,ComponentDrill
T5C1.100
; #@! TA.AperFunction,Plated,PTH,ComponentDrill
T6C3.200
; #@! TA.AperFunction,NonPlated,NPTH,ComponentDrill
T7C0.500
%
G90
G05
T1
X77.47Y-49.53
X80.01Y-51.054
X119.634Y-74.93
X125.1Y-70.3
X125.3Y-52.3
X137.668Y-74.422
X151.3Y-119.7
X156.8Y-116.7
X161.0Y-130.5
X163.83Y-77.978
X165.3Y-124.4
X188.6Y-116.8
X195.3Y-124.9
X196.7Y-139.8
X198.0Y-104.4
X216.0Y-86.0
X219.0Y-140.4
X226.7Y-140.4
X226.9Y-91.1
X227.838Y-102.87
X230.378Y-65.786
X231.9Y-52.9
X234.4Y-43.0
X236.8Y-142.2
X240.0Y-117.5
X256.794Y-94.996
X270.1Y-135.5
X278.3Y-140.5
X278.4Y-104.1
X287.782Y-58.928
X291.3Y-38.7
X313.9Y-46.6
T3
X35.306Y-46.482
X35.306Y-49.022
X35.306Y-51.562
X35.56Y-70.612
X39.116Y-48.3
X39.116Y-53.3
X41.91Y-46.99
X41.91Y-50.038
X41.91Y-53.086
X45.72Y-70.612
X46.228Y-86.36
X46.99Y-101.629
X46.99Y-104.169
X48.112Y-78.232
X48.112Y-80.772
X48.112Y-83.312
X48.768Y-65.024
X48.768Y-75.184
X48.768Y-86.36
X49.022Y-36.195
X49.9Y-139.9
X50.292Y-56.388
X50.292Y-58.928
X50.292Y-61.468
X51.562Y-36.195
X51.562Y-39.069
X51.562Y-44.069
X51.9Y-139.9
X52.07Y-46.99
X52.07Y-50.038
X52.07Y-53.086
X52.07Y-69.342
X52.07Y-79.502
X52.07Y-82.042
X52.07Y-92.202
X56.642Y-89.916
X66.802Y-89.916
X66.802Y-92.964
X66.802Y-103.124
X68.326Y-117.094
X68.326Y-127.254
X68.58Y-55.372
X68.58Y-65.532
X69.596Y-36.576
X69.596Y-46.736
X71.628Y-55.372
X71.628Y-65.532
X72.644Y-36.576
X72.644Y-46.736
X74.676Y-55.372
X74.676Y-65.532
X77.724Y-55.372
X77.724Y-65.532
X78.994Y-69.85
X80.772Y-55.626
X80.772Y-60.626
X84.154Y-66.548
X84.328Y-55.626
X84.328Y-63.246
X86.868Y-55.626
X86.868Y-63.246
X86.948Y-52.324
X89.154Y-66.548
X89.154Y-69.85
X89.408Y-55.626
X89.408Y-63.246
X90.932Y-39.37
X90.932Y-49.53
X91.948Y-52.324
X91.948Y-55.626
X91.948Y-63.246
X95.504Y-58.246
X95.504Y-63.246
X98.806Y-53.594
X98.806Y-63.754
X134.112Y-96.266
X134.112Y-106.426
X134.62Y-39.878
X134.62Y-50.038
X134.62Y-52.324
X134.62Y-62.484
X134.62Y-64.77
X134.62Y-74.93
X137.16Y-96.266
X137.16Y-106.426
X140.208Y-99.06
X140.208Y-104.06
X143.764Y-96.52
X143.764Y-99.06
X143.764Y-101.6
X143.764Y-104.14
X143.764Y-107.696
X148.336Y-92.964
X148.764Y-107.696
X151.384Y-96.52
X151.384Y-99.06
X151.384Y-101.6
X151.384Y-104.14
X151.638Y-68.58
X151.638Y-78.74
X153.336Y-92.964
X154.94Y-96.266
X154.94Y-106.426
X157.226Y-109.474
X157.988Y-96.266
X157.988Y-101.266
X161.036Y-96.266
X161.036Y-106.426
X166.497Y-91.694
X167.103Y-48.26
X167.386Y-109.474
X169.643Y-48.26
X169.672Y-77.724
X169.672Y-109.474
X170.18Y-61.976
X171.958Y-48.26
X174.498Y-48.26
X176.657Y-91.694
X177.321Y-48.26
X179.832Y-77.724
X179.832Y-109.474
X179.861Y-48.26
X180.34Y-61.976
X186.182Y-60.706
X186.182Y-63.246
X186.182Y-65.786
X186.182Y-68.326
X186.182Y-70.866
X186.182Y-73.406
X186.182Y-75.946
X186.182Y-78.486
X186.182Y-83.82
X186.182Y-88.82
X186.944Y-125.222
X186.944Y-132.842
X186.944Y-135.128
X186.944Y-142.748
X187.198Y-94.488
X187.198Y-104.648
X189.484Y-125.222
X189.484Y-132.842
X189.484Y-135.128
X189.484Y-142.748
X189.738Y-83.82
X189.738Y-91.44
X190.246Y-94.488
X190.246Y-104.648
X192.278Y-83.82
X192.278Y-91.44
X193.04Y-120.142
X193.04Y-130.302
X193.04Y-132.588
X193.04Y-142.748
X193.802Y-60.706
X193.802Y-63.246
X193.802Y-65.786
X193.802Y-68.326
X193.802Y-70.866
X193.802Y-73.406
X193.802Y-75.946
X193.802Y-78.486
X194.31Y-94.488
X194.31Y-104.648
X194.818Y-83.82
X194.818Y-91.44
X196.088Y-120.142
X196.088Y-130.302
X196.088Y-132.588
X196.088Y-142.748
X197.358Y-57.658
X197.358Y-67.818
X197.358Y-83.82
X197.358Y-91.44
X197.358Y-94.742
X197.358Y-99.742
X197.866Y-70.612
X197.866Y-80.772
X199.136Y-122.254
X199.136Y-127.254
X199.136Y-129.874
X199.136Y-134.874
X199.136Y-137.494
X199.136Y-142.494
X200.377Y-52.578
X201.676Y-43.688
X201.676Y-46.228
X201.676Y-48.768
X202.377Y-52.578
X202.438Y-123.19
X202.682Y-127.254
X202.682Y-129.794
X202.682Y-132.334
X202.682Y-134.874
X202.682Y-137.414
X202.682Y-139.954
X202.682Y-142.494
X203.2Y-115.062
X203.2Y-118.11
X203.534Y-78.74
X203.534Y-82.804
X203.708Y-71.734
X203.748Y-66.294
X204.93Y-58.928
X206.248Y-71.734
X207.43Y-58.928
X208.534Y-78.74
X208.534Y-82.804
X208.748Y-66.294
X208.788Y-71.734
X208.788Y-91.44
X208.788Y-93.44
X209.296Y-101.346
X209.296Y-104.394
X209.296Y-107.442
X210.302Y-127.254
X210.302Y-129.794
X210.302Y-132.334
X210.302Y-134.874
X210.302Y-137.414
X210.302Y-139.954
X210.302Y-142.494
X211.074Y-36.576
X211.074Y-38.576
X211.074Y-42.672
X211.074Y-44.672
X211.592Y-64.252
X211.592Y-66.792
X211.592Y-69.332
X211.592Y-71.872
X211.592Y-74.412
X211.592Y-76.952
X211.592Y-79.492
X211.592Y-82.032
X212.598Y-123.19
X213.106Y-60.96
X213.36Y-115.062
X213.36Y-118.11
X213.614Y-85.852
X213.614Y-97.028
X213.868Y-129.874
X213.868Y-134.874
X213.868Y-137.494
X213.868Y-142.494
X215.138Y-91.186
X216.154Y-97.028
X216.916Y-125.302
X216.916Y-130.302
X216.916Y-132.842
X216.916Y-143.002
X217.138Y-91.186
X218.106Y-60.96
X218.614Y-85.852
X218.694Y-97.028
X219.212Y-64.252
X219.212Y-66.792
X219.212Y-69.332
X219.212Y-71.872
X219.212Y-74.412
X219.212Y-76.952
X219.212Y-79.492
X219.212Y-82.032
X219.456Y-101.346
X219.456Y-104.394
X219.456Y-107.442
X219.964Y-120.142
X219.964Y-130.302
X219.964Y-132.842
X219.964Y-143.002
X221.742Y-90.932
X221.742Y-93.98
X222.504Y-76.2
X222.584Y-111.76
X222.758Y-117.856
X222.758Y-140.208
X222.758Y-142.748
X223.012Y-60.532
X223.012Y-65.532
X223.012Y-68.152
X223.012Y-73.152
X223.266Y-78.994
X223.266Y-83.994
X223.774Y-122.174
X223.854Y-97.028
X224.282Y-87.884
X225.044Y-100.584
X225.044Y-108.204
X225.044Y-114.808
X225.552Y-39.958
X225.552Y-44.958
X226.314Y-60.96
X226.314Y-64.008
X226.314Y-67.056
X226.314Y-70.104
X226.314Y-73.152
X226.314Y-122.174
X227.33Y-78.994
X227.33Y-83.994
X227.584Y-100.584
X227.584Y-108.204
X227.584Y-111.76
X228.854Y-97.028
X228.854Y-122.174
X229.108Y-38.1
X229.108Y-40.64
X229.108Y-43.18
X229.108Y-45.72
X229.108Y-48.26
X229.108Y-50.8
X229.108Y-53.34
X230.124Y-100.584
X230.124Y-108.204
X230.204Y-111.76
X230.378Y-140.208
X230.378Y-142.748
X231.394Y-78.994
X231.394Y-83.994
X231.4Y-97.028
X231.688Y-56.896
X231.902Y-90.932
X231.902Y-93.98
X232.664Y-76.2
X232.664Y-100.584
X232.664Y-108.204
X232.664Y-140.208
X232.664Y-142.748
X232.918Y-117.856
X234.188Y-90.932
X234.188Y-93.98
X234.442Y-87.884
X234.696Y-131.318
X234.696Y-134.366
X234.696Y-137.414
X235.204Y-100.584
X235.204Y-108.204
X235.204Y-111.76
X235.204Y-114.808
X236.4Y-97.028
X236.474Y-60.96
X236.474Y-64.008
X236.474Y-67.056
X236.474Y-70.104
X236.474Y-73.152
X236.688Y-56.896
X236.728Y-38.1
X236.728Y-40.64
X236.728Y-43.18
X236.728Y-45.72
X236.728Y-48.26
X236.728Y-50.8
X236.728Y-53.34
X236.728Y-85.598
X236.728Y-88.138
X237.49Y-114.808
X237.49Y-117.856
X237.49Y-120.904
X237.49Y-123.952
X237.744Y-100.584
X237.744Y-108.204
X237.744Y-111.76
X239.268Y-72.644
X239.268Y-82.804
X239.268Y-97.028
X239.776Y-65.278
X239.776Y-70.278
X240.284Y-38.688
X240.284Y-43.688
X240.284Y-100.584
X240.284Y-108.204
X240.284Y-140.208
X240.284Y-142.748
X242.744Y-111.76
X243.078Y-38.1
X243.078Y-41.656
X243.078Y-44.704
X243.078Y-47.752
X243.078Y-50.8
X243.078Y-53.848
X243.078Y-56.896
X243.078Y-59.944
X243.84Y-69.088
X243.84Y-79.248
X244.268Y-97.028
X244.348Y-85.598
X244.348Y-88.138
X244.348Y-90.932
X244.348Y-93.98
X244.856Y-131.318
X244.856Y-134.366
X244.856Y-137.414
X247.142Y-71.12
X247.142Y-78.74
X247.142Y-83.566
X247.142Y-93.726
X247.65Y-114.808
X247.65Y-117.856
X247.65Y-120.904
X247.65Y-123.952
X247.904Y-67.564
X247.904Y-99.568
X247.904Y-109.728
X247.904Y-130.81
X247.904Y-133.35
X247.904Y-135.89
X247.904Y-138.43
X247.904Y-141.986
X249.682Y-71.12
X249.682Y-78.74
X250.952Y-99.568
X250.952Y-109.728
X251.714Y-112.522
X251.714Y-115.57
X252.222Y-71.12
X252.222Y-78.74
X252.222Y-82.042
X252.222Y-87.042
X252.904Y-67.564
X252.904Y-141.986
X253.238Y-38.1
X253.238Y-41.656
X253.238Y-44.704
X253.238Y-47.752
X253.238Y-50.8
X253.238Y-53.848
X253.238Y-56.896
X253.238Y-59.944
X254.08Y-94.742
X254.762Y-71.12
X254.762Y-78.74
X254.842Y-109.474
X255.397Y-81.788
X255.397Y-91.948
X255.524Y-58.42
X255.524Y-61.468
X255.524Y-64.516
X255.524Y-67.564
X255.524Y-130.81
X255.524Y-133.35
X255.524Y-135.89
X255.524Y-138.43
X256.286Y-39.116
X256.286Y-41.656
X256.286Y-44.196
X256.286Y-46.736
X256.286Y-49.276
X256.286Y-51.816
X256.286Y-54.356
X256.535Y-98.288
X256.535Y-105.908
X257.302Y-71.12
X257.302Y-78.74
X258.445Y-81.788
X258.445Y-91.948
X258.826Y-141.478
X259.075Y-98.288
X259.075Y-105.908
X259.08Y-94.742
X259.08Y-124.032
X259.08Y-129.032
X259.08Y-131.652
X259.08Y-136.652
X259.842Y-71.12
X259.842Y-78.74
X259.842Y-109.474
X261.493Y-81.788
X261.493Y-91.948
X261.615Y-98.288
X261.615Y-105.908
X261.7Y-94.742
X261.874Y-112.522
X261.874Y-115.57
X262.128Y-123.952
X262.128Y-126.492
X262.382Y-71.12
X262.382Y-78.74
X262.462Y-109.474
X263.504Y-132.08
X263.504Y-134.62
X263.504Y-137.16
X263.826Y-141.478
X263.906Y-39.116
X263.906Y-41.656
X263.906Y-44.196
X263.906Y-46.736
X263.906Y-49.276
X263.906Y-51.816
X263.906Y-54.356
X264.155Y-98.288
X264.155Y-105.908
X264.16Y-112.522
X264.16Y-115.57
X264.541Y-81.788
X264.541Y-91.948
X264.922Y-71.12
X264.922Y-78.74
X265.684Y-58.42
X265.684Y-61.468
X265.684Y-64.516
X265.684Y-67.564
X266.695Y-98.288
X266.695Y-105.908
X266.7Y-94.742
X266.954Y-40.132
X266.954Y-43.18
X266.954Y-46.228
X266.954Y-49.276
X266.954Y-52.324
X266.954Y-55.372
X267.208Y-37.084
X267.208Y-131.826
X267.208Y-141.986
X267.462Y-109.474
X268.478Y-59.182
X268.478Y-65.278
X268.478Y-68.326
X268.478Y-71.374
X268.478Y-74.422
X269.235Y-98.288
X269.235Y-105.908
X269.748Y-123.952
X269.748Y-126.492
X270.002Y-85.09
X270.002Y-95.25
X270.082Y-109.474
X270.256Y-131.826
X270.256Y-141.986
X271.018Y-77.216
X271.775Y-98.288
X271.775Y-105.908
X272.208Y-37.084
X272.542Y-118.872
X272.542Y-121.92
X272.542Y-124.968
X273.812Y-128.27
X273.812Y-135.89
X273.812Y-139.446
X273.812Y-142.494
X274.32Y-112.522
X274.32Y-115.57
X275.082Y-81.534
X275.082Y-91.694
X275.082Y-96.266
X275.082Y-106.426
X275.082Y-109.474
X276.352Y-128.27
X276.352Y-135.89
X277.114Y-40.132
X277.114Y-43.18
X277.114Y-46.228
X277.114Y-49.276
X277.114Y-52.324
X277.114Y-55.372
X278.13Y-86.44
X278.13Y-91.44
X278.13Y-98.298
X278.13Y-108.458
X278.638Y-59.182
X278.638Y-65.278
X278.638Y-68.326
X278.638Y-71.374
X278.638Y-74.422
X278.638Y-77.216
X278.892Y-128.27
X278.892Y-135.89
X279.908Y-45.974
X279.908Y-56.134
X281.432Y-105.918
X281.432Y-116.078
X281.432Y-128.27
X281.432Y-135.89
X281.676Y-73.66
X281.676Y-76.2
X281.676Y-78.74
X281.676Y-81.28
X281.676Y-83.82
X281.676Y-86.36
X281.676Y-88.9
X281.676Y-91.44
X281.686Y-62.23
X281.686Y-64.77
X281.686Y-67.31
X281.686Y-69.85
X281.686Y-94.488
X281.686Y-97.282
X281.686Y-100.33
X282.194Y-38.354
X282.194Y-40.894
X282.194Y-43.434
X282.702Y-118.872
X282.702Y-121.92
X282.702Y-124.968
X282.956Y-45.974
X282.956Y-56.134
X283.972Y-128.27
X283.972Y-135.89
X283.972Y-139.446
X283.972Y-142.494
X284.988Y-121.92
X284.988Y-124.968
X286.004Y-58.42
X286.258Y-142.494
X286.512Y-37.338
X286.512Y-39.878
X286.512Y-42.418
X286.512Y-44.958
X286.512Y-47.498
X286.512Y-50.038
X286.512Y-52.578
X286.512Y-55.118
X286.512Y-128.27
X286.512Y-135.89
X286.512Y-139.446
X286.62Y-107.802
X286.62Y-112.014
X286.846Y-118.872
X289.052Y-128.27
X289.052Y-135.89
X289.16Y-107.802
X289.16Y-112.014
X289.296Y-73.66
X289.296Y-76.2
X289.296Y-78.74
X289.296Y-81.28
X289.296Y-83.82
X289.296Y-86.36
X289.296Y-88.9
X289.296Y-91.44
X289.306Y-62.23
X289.306Y-64.77
X289.306Y-67.31
X289.306Y-69.85
X289.306Y-94.488
X291.512Y-139.446
X291.592Y-128.27
X291.592Y-135.89
X291.7Y-107.802
X291.7Y-112.014
X291.846Y-97.282
X291.846Y-100.33
X291.846Y-118.872
X292.354Y-66.04
X292.354Y-68.834
X292.354Y-71.882
X292.354Y-74.93
X292.354Y-77.978
X292.354Y-81.026
X292.354Y-83.82
X292.608Y-63.246
X293.624Y-58.42
X294.132Y-37.338
X294.132Y-39.878
X294.132Y-42.418
X294.132Y-44.958
X294.132Y-47.498
X294.132Y-50.038
X294.132Y-52.578
X294.132Y-55.118
X294.132Y-87.524
X294.64Y-92.71
X295.148Y-98.552
X295.148Y-109.22
X295.148Y-112.268
X295.148Y-115.316
X295.148Y-118.364
X295.148Y-121.92
X295.148Y-124.968
X295.148Y-128.524
X295.148Y-138.684
X296.418Y-142.494
X296.672Y-87.524
X297.18Y-92.71
X297.434Y-37.338
X297.434Y-42.338
X297.434Y-49.784
X297.434Y-59.944
X297.608Y-63.246
X299.212Y-87.524
X299.212Y-124.968
X299.212Y-131.318
X299.212Y-133.858
X299.212Y-136.398
X299.212Y-138.938
X299.212Y-142.494
X299.72Y-92.71
X299.974Y-66.04
X299.974Y-83.82
X300.482Y-37.338
X300.482Y-47.498
X300.482Y-49.784
X300.482Y-59.944
X301.832Y-127.762
X302.514Y-68.834
X302.514Y-71.882
X302.514Y-74.93
X302.514Y-77.978
X302.514Y-81.026
X302.768Y-85.344
X302.768Y-95.504
X303.276Y-39.73
X304.212Y-142.494
X305.308Y-74.676
X305.308Y-79.676
X305.308Y-98.552
X305.308Y-109.22
X305.308Y-112.268
X305.308Y-115.316
X305.308Y-118.364
X305.816Y-39.73
X305.816Y-85.344
X305.816Y-95.504
X306.578Y-43.434
X306.832Y-124.968
X306.832Y-127.762
X306.832Y-131.318
X306.832Y-133.858
X306.832Y-136.398
X306.832Y-138.938
X308.102Y-46.482
X308.102Y-54.61
X308.102Y-57.658
X308.102Y-99.648
X308.102Y-104.648
X308.102Y-107.188
X308.102Y-112.188
X308.102Y-114.808
X308.102Y-119.808
X308.356Y-39.73
X308.864Y-60.198
X308.864Y-70.358
X308.864Y-85.344
X308.864Y-95.504
X310.134Y-124.206
X310.134Y-131.826
X310.642Y-40.64
X310.642Y-49.276
X310.642Y-51.816
X311.658Y-103.632
X311.658Y-106.172
X311.658Y-108.712
X311.658Y-111.252
X311.658Y-113.792
X311.658Y-116.332
X311.658Y-118.872
X311.912Y-60.198
X311.912Y-70.358
X311.912Y-85.344
X311.912Y-95.504
X312.42Y-37.338
X312.42Y-73.914
X312.42Y-77.978
X312.42Y-80.518
X312.42Y-83.058
X312.928Y-132.08
X312.928Y-142.24
X314.96Y-37.338
X314.96Y-60.198
X314.96Y-70.358
X314.96Y-73.914
X314.96Y-85.344
X314.96Y-95.504
X315.722Y-57.658
X316.738Y-43.434
X317.246Y-139.7
X317.5Y-37.338
X317.5Y-73.914
X317.754Y-61.976
X317.754Y-77.978
X317.754Y-85.598
X317.754Y-87.884
X317.754Y-95.504
X318.04Y-131.1
X318.262Y-40.64
X318.262Y-46.482
X318.262Y-49.276
X318.262Y-51.816
X318.262Y-54.61
X319.024Y-123.444
X319.278Y-103.632
X319.278Y-106.172
X319.278Y-108.712
X319.278Y-111.252
X319.278Y-113.792
X319.278Y-116.332
X319.278Y-118.872
X320.294Y-61.976
X321.056Y-77.724
X321.056Y-80.264
X321.056Y-82.804
X321.056Y-85.344
X321.056Y-87.884
X321.056Y-90.424
X321.056Y-92.964
X321.056Y-95.504
X321.31Y-39.624
X321.31Y-42.164
X321.31Y-44.704
X321.31Y-47.244
X321.31Y-49.784
X321.31Y-52.324
X321.31Y-54.864
X321.31Y-57.404
X322.326Y-66.04
X322.326Y-71.628
X322.326Y-102.108
X322.326Y-105.156
X322.326Y-111.252
X322.326Y-114.3
X322.326Y-117.348
X322.326Y-120.396
X322.326Y-142.494
X322.58Y-108.204
X322.834Y-61.976
X324.104Y-36.322
X324.866Y-68.834
X324.866Y-74.422
X324.866Y-139.7
X325.12Y-60.452
X325.12Y-62.992
X325.12Y-98.806
X327.232Y-139.446
X327.58Y-108.204
X328.2Y-131.1
X328.676Y-77.724
X328.676Y-80.264
X328.676Y-82.804
X328.676Y-85.344
X328.676Y-87.884
X328.676Y-90.424
X328.676Y-92.964
X328.676Y-95.504
X328.93Y-39.624
X328.93Y-42.164
X328.93Y-44.704
X328.93Y-47.244
X328.93Y-49.784
X328.93Y-52.324
X328.93Y-54.864
X328.93Y-57.404
X329.104Y-36.322
X329.184Y-123.444
X331.47Y-131.144
X331.47Y-136.144
X332.232Y-37.338
X332.232Y-47.498
X332.232Y-77.724
X332.232Y-82.724
X332.232Y-86.106
X332.232Y-96.266
X332.232Y-139.446
X332.486Y-49.784
X332.486Y-57.404
X332.486Y-66.04
X332.486Y-68.834
X332.486Y-71.628
X332.486Y-74.422
X332.486Y-102.108
X332.486Y-105.156
X332.486Y-111.252
X332.486Y-114.3
X332.486Y-117.348
X332.486Y-120.396
X332.486Y-142.494
X332.74Y-60.452
X332.74Y-62.992
X332.74Y-98.806
T4
X34.798Y-89.916
X36.4Y-110.8
X37.338Y-89.916
X37.5Y-67.5
X37.5Y-126.5
X38.94Y-110.8
X39.878Y-89.916
X40.0Y-67.5
X40.0Y-126.5
X41.48Y-110.8
X42.5Y-67.5
X42.5Y-126.5
X44.02Y-110.8
X46.56Y-110.8
X49.1Y-110.8
X50.5Y-97.18
X50.5Y-99.72
X50.5Y-102.26
X50.5Y-104.8
X57.5Y-47.5
X57.5Y-67.5
X57.5Y-126.5
X58.1Y-110.9
X58.9Y-50.8
X60.0Y-47.5
X60.0Y-67.5
X60.0Y-126.5
X60.64Y-110.9
X61.44Y-50.8
X62.5Y-47.5
X62.5Y-67.5
X62.5Y-126.5
X63.18Y-110.9
X63.98Y-50.8
X65.72Y-110.9
X66.52Y-50.8
X67.5Y-134.5
X67.5Y-137.0
X67.5Y-139.5
X70.86Y-50.8
X73.4Y-50.8
X77.5Y-87.5
X77.5Y-106.5
X78.9Y-127.6
X79.5Y-47.5
X80.0Y-87.5
X80.0Y-106.5
X81.44Y-127.6
X82.0Y-47.5
X82.5Y-87.5
X82.5Y-106.5
X83.98Y-127.6
X84.5Y-47.5
X84.5Y-134.5
X84.5Y-137.0
X84.5Y-139.5
X86.52Y-127.6
X89.06Y-127.6
X91.6Y-127.6
X97.5Y-106.5
X100.0Y-106.5
X100.5Y-47.5
X102.5Y-106.5
X103.0Y-47.5
X104.5Y-134.5
X104.5Y-137.0
X104.5Y-139.5
X105.5Y-47.5
X122.5Y-47.5
X122.5Y-67.5
X122.5Y-87.5
X125.0Y-47.5
X125.0Y-67.5
X125.0Y-87.5
X127.5Y-47.5
X127.5Y-67.5
X127.5Y-87.5
X147.5Y-115.5
X147.5Y-118.0
X147.5Y-120.5
X152.3Y-47.4
X152.3Y-49.94
X152.3Y-52.48
X152.3Y-55.02
X152.3Y-57.56
X152.3Y-60.1
X152.3Y-62.64
X152.3Y-65.18
X162.02Y-127.4
X162.5Y-134.5
X162.5Y-137.0
X162.5Y-139.5
X164.56Y-127.4
X167.1Y-127.4
X167.5Y-115.5
X167.5Y-118.0
X167.5Y-120.5
X167.5Y-134.5
X167.5Y-137.0
X167.5Y-139.5
X169.64Y-127.4
X172.18Y-127.4
X174.72Y-127.4
X177.26Y-127.4
X179.8Y-127.4
X188.214Y-40.64
X188.214Y-43.18
X188.214Y-45.72
X188.214Y-48.26
X188.214Y-50.8
X188.4Y-110.8
X190.754Y-40.64
X190.754Y-43.18
X190.754Y-45.72
X190.754Y-48.26
X190.754Y-50.8
X190.94Y-110.8
X193.48Y-110.8
X196.02Y-110.8
X198.56Y-110.8
X201.1Y-110.8
X202.5Y-97.18
X202.5Y-99.72
X202.5Y-102.26
X202.5Y-104.8
X210.1Y-110.9
X210.9Y-50.8
X212.64Y-110.9
X213.44Y-50.8
X215.18Y-110.9
X215.98Y-50.8
X217.72Y-110.9
X218.52Y-50.8
X222.86Y-50.8
X225.4Y-50.8
X230.9Y-127.6
X233.44Y-127.6
X235.98Y-127.6
X238.52Y-127.6
X241.06Y-127.6
X243.6Y-127.6
X251.719Y-119.136
X251.719Y-121.676
X251.719Y-124.216
X251.719Y-126.756
X254.259Y-119.136
X254.259Y-121.676
X254.259Y-124.216
X254.259Y-126.756
X263.144Y-120.65
X265.684Y-120.65
X268.224Y-120.65
X304.3Y-47.42
X304.3Y-49.96
X304.3Y-52.5
X304.3Y-55.04
X304.3Y-57.58
X304.3Y-60.12
X304.3Y-62.66
X304.3Y-65.2
X314.02Y-127.4
X316.56Y-127.4
X319.1Y-127.4
X321.64Y-127.4
X324.18Y-127.4
X326.72Y-127.4
X329.26Y-127.4
X331.8Y-127.4
T5
X196.088Y-36.576
X196.342Y-40.132
X196.596Y-43.688
X196.596Y-53.848
X200.66Y-57.912
X200.66Y-68.072
X206.248Y-36.576
X206.248Y-43.688
X206.248Y-53.848
X206.502Y-40.132
X216.956Y-40.092
X219.456Y-37.592
X219.456Y-42.592
X299.974Y-101.386
X299.974Y-106.386
X302.474Y-103.886
T6
X76.0Y-133.8
X228.0Y-133.8
T7
X182.25Y-51.75
X182.25Y-52.5
X182.25Y-53.25
X182.25Y-69.75
X182.25Y-70.5
X182.25Y-71.25
X182.25Y-87.75
X182.25Y-88.5
X182.25Y-89.25
X182.25Y-105.75
X182.25Y-106.5
X182.25Y-107.25
X182.25Y-123.75
X182.25Y-124.5
X182.25Y-125.25
X183.75Y-51.75
X183.75Y-52.5
X183.75Y-53.25
X183.75Y-69.75
X183.75Y-70.5
X183.75Y-71.25
X183.75Y-87.75
X183.75Y-88.5
X183.75Y-89.25
X183.75Y-105.75
X183.75Y-106.5
X183.75Y-107.25
X183.75Y-123.75
X183.75Y-124.5
X183.75Y-125.25
T2
G00X33.52Y-136.5
M15
G01X33.52Y-137.5
M16
G05
G00X33.542Y-39.5
M15
G01X33.542Y-40.5
M16
G05
G00X36.62Y-136.5
M15
G01X36.62Y-137.5
M16
G05
G00X36.642Y-39.5
M15
G01X36.642Y-40.5
M16
G05
G00X39.5Y-75.08
M15
G01X40.5Y-75.08
M16
G05
G00X39.5Y-83.38
M15
G01X40.5Y-83.38
M16
G05
G00X39.5Y-86.48
M15
G01X40.5Y-86.48
M16
G05
G00X39.5Y-94.102
M15
G01X40.5Y-94.102
M16
G05
G00X39.5Y-102.402
M15
G01X40.5Y-102.402
M16
G05
G00X39.5Y-105.502
M15
G01X40.5Y-105.502
M16
G05
G00X44.92Y-136.5
M15
G01X44.92Y-137.5
M16
G05
G00X44.942Y-39.5
M15
G01X44.942Y-40.5
M16
G05
G00X59.5Y-75.08
M15
G01X60.5Y-75.08
M16
G05
G00X59.5Y-83.38
M15
G01X60.5Y-83.38
M16
G05
G00X59.5Y-86.48
M15
G01X60.5Y-86.48
M16
G05
G00X59.5Y-94.08
M15
G01X60.5Y-94.08
M16
G05
G00X59.5Y-102.38
M15
G01X60.5Y-102.38
M16
G05
G00X59.5Y-105.48
M15
G01X60.5Y-105.48
M16
G05
G00X75.52Y-119.5
M15
G01X75.52Y-120.5
M16
G05
G00X78.62Y-119.5
M15
G01X78.62Y-120.5
M16
G05
G00X86.92Y-119.5
M15
G01X86.92Y-120.5
M16
G05
G00X90.52Y-119.5
M15
G01X90.52Y-120.5
M16
G05
G00X93.62Y-119.5
M15
G01X93.62Y-120.5
M16
G05
G00X100.5Y-73.52
M15
G01X99.5Y-73.52
M16
G05
G00X100.5Y-76.62
M15
G01X99.5Y-76.62
M16
G05
G00X100.5Y-84.92
M15
G01X99.5Y-84.92
M16
G05
G00X101.92Y-119.5
M15
G01X101.92Y-120.5
M16
G05
G00X105.52Y-119.52
M15
G01X105.52Y-120.52
M16
G05
G00X108.62Y-119.52
M15
G01X108.62Y-120.52
M16
G05
G00X115.08Y-99.5
M15
G01X115.08Y-98.5
M16
G05
G00X116.92Y-119.52
M15
G01X116.92Y-120.52
M16
G05
G00X123.38Y-99.5
M15
G01X123.38Y-98.5
M16
G05
G00X126.48Y-99.5
M15
G01X126.48Y-98.5
M16
G05
G00X128.52Y-117.5
M15
G01X128.52Y-118.5
M16
G05
G00X128.52Y-136.5
M15
G01X128.52Y-137.5
M16
G05
G00X131.62Y-117.5
M15
G01X131.62Y-118.5
M16
G05
G00X131.62Y-136.5
M15
G01X131.62Y-137.5
M16
G05
G00X139.08Y-40.5
M15
G01X139.08Y-39.5
M16
G05
G00X139.08Y-85.5
M15
G01X139.08Y-84.5
M16
G05
G00X139.92Y-117.5
M15
G01X139.92Y-118.5
M16
G05
G00X139.92Y-136.5
M15
G01X139.92Y-137.5
M16
G05
G00X143.5Y-50.08
M15
G01X144.5Y-50.08
M16
G05
G00X143.5Y-58.38
M15
G01X144.5Y-58.38
M16
G05
G00X143.5Y-61.48
M15
G01X144.5Y-61.48
M16
G05
G00X143.5Y-65.08
M15
G01X144.5Y-65.08
M16
G05
G00X143.5Y-73.38
M15
G01X144.5Y-73.38
M16
G05
G00X143.5Y-76.48
M15
G01X144.5Y-76.48
M16
G05
G00X147.38Y-40.5
M15
G01X147.38Y-39.5
M16
G05
G00X147.38Y-85.5
M15
G01X147.38Y-84.5
M16
G05
G00X150.48Y-40.5
M15
G01X150.48Y-39.5
M16
G05
G00X150.48Y-85.5
M15
G01X150.48Y-84.5
M16
G05
G00X153.52Y-39.5
M15
G01X153.52Y-40.5
M16
G05
G00X156.62Y-39.5
M15
G01X156.62Y-40.5
M16
G05
G00X159.5Y-50.08
M15
G01X160.5Y-50.08
M16
G05
G00X159.5Y-58.38
M15
G01X160.5Y-58.38
M16
G05
G00X159.5Y-61.48
M15
G01X160.5Y-61.48
M16
G05
G00X159.5Y-65.08
M15
G01X160.5Y-65.08
M16
G05
G00X159.5Y-73.38
M15
G01X160.5Y-73.38
M16
G05
G00X159.5Y-76.48
M15
G01X160.5Y-76.48
M16
G05
G00X159.5Y-80.08
M15
G01X160.5Y-80.08
M16
G05
G00X159.5Y-88.38
M15
G01X160.5Y-88.38
M16
G05
G00X159.5Y-91.48
M15
G01X160.5Y-91.48
M16
G05
G00X164.92Y-39.5
M15
G01X164.92Y-40.5
M16
G05
G00X168.52Y-39.5
M15
G01X168.52Y-40.5
M16
G05
G00X168.52Y-54.5
M15
G01X168.52Y-55.5
M16
G05
G00X168.52Y-69.5
M15
G01X168.52Y-70.5
M16
G05
G00X168.52Y-84.5
M15
G01X168.52Y-85.5
M16
G05
G00X168.52Y-101.5
M15
G01X168.52Y-102.5
M16
G05
G00X171.62Y-39.5
M15
G01X171.62Y-40.5
M16
G05
G00X171.62Y-54.5
M15
G01X171.62Y-55.5
M16
G05
G00X171.62Y-69.5
M15
G01X171.62Y-70.5
M16
G05
G00X171.62Y-84.5
M15
G01X171.62Y-85.5
M16
G05
G00X171.62Y-101.5
M15
G01X171.62Y-102.5
M16
G05
G00X179.92Y-39.5
M15
G01X179.92Y-40.5
M16
G05
G00X179.92Y-54.5
M15
G01X179.92Y-55.5
M16
G05
G00X179.92Y-69.5
M15
G01X179.92Y-70.5
M16
G05
G00X179.92Y-84.5
M15
G01X179.92Y-85.5
M16
G05
G00X179.92Y-101.5
M15
G01X179.92Y-102.5
M16
G05
T5
G00X35.2Y-60.35
M15
G01X35.2Y-59.65
M16
G05
G00X35.2Y-119.35
M15
G01X35.2Y-118.65
M16
G05
G00X44.8Y-60.35
M15
G01X44.8Y-59.65
M16
G05
G00X44.8Y-119.35
M15
G01X44.8Y-118.65
M16
G05
G00X55.2Y-40.35
M15
G01X55.2Y-39.65
M16
G05
G00X55.2Y-60.35
M15
G01X55.2Y-59.65
M16
G05
G00X55.2Y-119.35
M15
G01X55.2Y-118.65
M16
G05
G00X60.35Y-132.2
M15
G01X59.65Y-132.2
M16
G05
G00X60.35Y-141.8
M15
G01X59.65Y-141.8
M16
G05
G00X64.8Y-40.35
M15
G01X64.8Y-39.65
M16
G05
G00X64.8Y-60.35
M15
G01X64.8Y-59.65
M16
G05
G00X64.8Y-119.35
M15
G01X64.8Y-118.65
M16
G05
G00X75.2Y-80.35
M15
G01X75.2Y-79.65
M16
G05
G00X75.2Y-99.35
M15
G01X75.2Y-98.65
M16
G05
G00X77.2Y-40.35
M15
G01X77.2Y-39.65
M16
G05
G00X84.8Y-80.35
M15
G01X84.8Y-79.65
M16
G05
G00X84.8Y-99.35
M15
G01X84.8Y-98.65
M16
G05
G00X86.8Y-40.35
M15
G01X86.8Y-39.65
M16
G05
G00X91.65Y-132.2
M15
G01X92.35Y-132.2
M16
G05
G00X91.65Y-141.8
M15
G01X92.35Y-141.8
M16
G05
G00X95.2Y-99.35
M15
G01X95.2Y-98.65
M16
G05
G00X98.2Y-40.35
M15
G01X98.2Y-39.65
M16
G05
G00X104.8Y-99.35
M15
G01X104.8Y-98.65
M16
G05
G00X107.8Y-40.35
M15
G01X107.8Y-39.65
M16
G05
G00X111.65Y-132.2
M15
G01X112.35Y-132.2
M16
G05
G00X111.65Y-141.8
M15
G01X112.35Y-141.8
M16
G05
G00X120.2Y-40.35
M15
G01X120.2Y-39.65
M16
G05
G00X120.2Y-60.35
M15
G01X120.2Y-59.65
M16
G05
G00X120.2Y-80.35
M15
G01X120.2Y-79.65
M16
G05
G00X129.8Y-40.35
M15
G01X129.8Y-39.65
M16
G05
G00X129.8Y-60.35
M15
G01X129.8Y-59.65
M16
G05
G00X129.8Y-80.35
M15
G01X129.8Y-79.65
M16
G05
G00X154.65Y-113.2
M15
G01X155.35Y-113.2
M16
G05
G00X154.65Y-122.8
M15
G01X155.35Y-122.8
M16
G05
G00X155.35Y-132.2
M15
G01X154.65Y-132.2
M16
G05
G00X155.35Y-141.8
M15
G01X154.65Y-141.8
M16
G05
G00X174.65Y-113.2
M15
G01X175.35Y-113.2
M16
G05
G00X174.65Y-122.8
M15
G01X175.35Y-122.8
M16
G05
G00X174.65Y-132.2
M15
G01X175.35Y-132.2
M16
G05
G00X174.65Y-141.8
M15
G01X175.35Y-141.8
M16
G05
T0
M30
