%TF.GenerationSoftware,KiCad,Pcbnew,(6.0.6-0)*%
%TF.CreationDate,2022-11-11T14:24:23+00:00*%
%TF.ProjectId,strata,73747261-7461-42e6-9b69-6361645f7063,r01*%
%TF.SameCoordinates,Original*%
%TF.FileFunction,Legend,Bot*%
%TF.FilePolarity,Positive*%
%FSLAX46Y46*%
G04 Gerber Fmt 4.6, Leading zero omitted, Abs format (unit mm)*
G04 Created by KiCad (PCBNEW (6.0.6-0)) date 2022-11-11 14:24:23*
%MOMM*%
%LPD*%
G01*
G04 APERTURE LIST*
%ADD10C,0.150000*%
%ADD11C,0.120000*%
%ADD12C,1.000000*%
G04 APERTURE END LIST*
D10*
X326314285Y-133904761D02*
X326171428Y-133952380D01*
X325933333Y-133952380D01*
X325838095Y-133904761D01*
X325790476Y-133857142D01*
X325742857Y-133761904D01*
X325742857Y-133666666D01*
X325790476Y-133571428D01*
X325838095Y-133523809D01*
X325933333Y-133476190D01*
X326123809Y-133428571D01*
X326219047Y-133380952D01*
X326266666Y-133333333D01*
X326314285Y-133238095D01*
X326314285Y-133142857D01*
X326266666Y-133047619D01*
X326219047Y-133000000D01*
X326123809Y-132952380D01*
X325885714Y-132952380D01*
X325742857Y-133000000D01*
X325457142Y-133285714D02*
X325076190Y-133285714D01*
X325314285Y-132952380D02*
X325314285Y-133809523D01*
X325266666Y-133904761D01*
X325171428Y-133952380D01*
X325076190Y-133952380D01*
X324742857Y-133952380D02*
X324742857Y-133285714D01*
X324742857Y-133476190D02*
X324695238Y-133380952D01*
X324647619Y-133333333D01*
X324552380Y-133285714D01*
X324457142Y-133285714D01*
X323695238Y-133952380D02*
X323695238Y-133428571D01*
X323742857Y-133333333D01*
X323838095Y-133285714D01*
X324028571Y-133285714D01*
X324123809Y-133333333D01*
X323695238Y-133904761D02*
X323790476Y-133952380D01*
X324028571Y-133952380D01*
X324123809Y-133904761D01*
X324171428Y-133809523D01*
X324171428Y-133714285D01*
X324123809Y-133619047D01*
X324028571Y-133571428D01*
X323790476Y-133571428D01*
X323695238Y-133523809D01*
X323361904Y-133285714D02*
X322980952Y-133285714D01*
X323219047Y-132952380D02*
X323219047Y-133809523D01*
X323171428Y-133904761D01*
X323076190Y-133952380D01*
X322980952Y-133952380D01*
X322219047Y-133952380D02*
X322219047Y-133428571D01*
X322266666Y-133333333D01*
X322361904Y-133285714D01*
X322552380Y-133285714D01*
X322647619Y-133333333D01*
X322219047Y-133904761D02*
X322314285Y-133952380D01*
X322552380Y-133952380D01*
X322647619Y-133904761D01*
X322695238Y-133809523D01*
X322695238Y-133714285D01*
X322647619Y-133619047D01*
X322552380Y-133571428D01*
X322314285Y-133571428D01*
X322219047Y-133523809D01*
X320980952Y-133952380D02*
X320980952Y-133285714D01*
X320980952Y-133476190D02*
X320933333Y-133380952D01*
X320885714Y-133333333D01*
X320790476Y-133285714D01*
X320695238Y-133285714D01*
X320171428Y-132952380D02*
X320076190Y-132952380D01*
X319980952Y-133000000D01*
X319933333Y-133047619D01*
X319885714Y-133142857D01*
X319838095Y-133333333D01*
X319838095Y-133571428D01*
X319885714Y-133761904D01*
X319933333Y-133857142D01*
X319980952Y-133904761D01*
X320076190Y-133952380D01*
X320171428Y-133952380D01*
X320266666Y-133904761D01*
X320314285Y-133857142D01*
X320361904Y-133761904D01*
X320409523Y-133571428D01*
X320409523Y-133333333D01*
X320361904Y-133142857D01*
X320314285Y-133047619D01*
X320266666Y-133000000D01*
X320171428Y-132952380D01*
X318885714Y-133952380D02*
X319457142Y-133952380D01*
X319171428Y-133952380D02*
X319171428Y-132952380D01*
X319266666Y-133095238D01*
X319361904Y-133190476D01*
X319457142Y-133238095D01*
%TO.C,J52*%
X55582380Y-49990476D02*
X56296666Y-49990476D01*
X56439523Y-49942857D01*
X56534761Y-49847619D01*
X56582380Y-49704761D01*
X56582380Y-49609523D01*
X55582380Y-50942857D02*
X55582380Y-50466666D01*
X56058571Y-50419047D01*
X56010952Y-50466666D01*
X55963333Y-50561904D01*
X55963333Y-50800000D01*
X56010952Y-50895238D01*
X56058571Y-50942857D01*
X56153809Y-50990476D01*
X56391904Y-50990476D01*
X56487142Y-50942857D01*
X56534761Y-50895238D01*
X56582380Y-50800000D01*
X56582380Y-50561904D01*
X56534761Y-50466666D01*
X56487142Y-50419047D01*
X55677619Y-51371428D02*
X55630000Y-51419047D01*
X55582380Y-51514285D01*
X55582380Y-51752380D01*
X55630000Y-51847619D01*
X55677619Y-51895238D01*
X55772857Y-51942857D01*
X55868095Y-51942857D01*
X56010952Y-51895238D01*
X56582380Y-51323809D01*
X56582380Y-51942857D01*
%TO.C,J6*%
X51322380Y-110466666D02*
X52036666Y-110466666D01*
X52179523Y-110419047D01*
X52274761Y-110323809D01*
X52322380Y-110180952D01*
X52322380Y-110085714D01*
X51322380Y-111371428D02*
X51322380Y-111180952D01*
X51370000Y-111085714D01*
X51417619Y-111038095D01*
X51560476Y-110942857D01*
X51750952Y-110895238D01*
X52131904Y-110895238D01*
X52227142Y-110942857D01*
X52274761Y-110990476D01*
X52322380Y-111085714D01*
X52322380Y-111276190D01*
X52274761Y-111371428D01*
X52227142Y-111419047D01*
X52131904Y-111466666D01*
X51893809Y-111466666D01*
X51798571Y-111419047D01*
X51750952Y-111371428D01*
X51703333Y-111276190D01*
X51703333Y-111085714D01*
X51750952Y-110990476D01*
X51798571Y-110942857D01*
X51893809Y-110895238D01*
%TO.C,J32*%
X75582380Y-126790476D02*
X76296666Y-126790476D01*
X76439523Y-126742857D01*
X76534761Y-126647619D01*
X76582380Y-126504761D01*
X76582380Y-126409523D01*
X75582380Y-127171428D02*
X75582380Y-127790476D01*
X75963333Y-127457142D01*
X75963333Y-127600000D01*
X76010952Y-127695238D01*
X76058571Y-127742857D01*
X76153809Y-127790476D01*
X76391904Y-127790476D01*
X76487142Y-127742857D01*
X76534761Y-127695238D01*
X76582380Y-127600000D01*
X76582380Y-127314285D01*
X76534761Y-127219047D01*
X76487142Y-127171428D01*
X75677619Y-128171428D02*
X75630000Y-128219047D01*
X75582380Y-128314285D01*
X75582380Y-128552380D01*
X75630000Y-128647619D01*
X75677619Y-128695238D01*
X75772857Y-128742857D01*
X75868095Y-128742857D01*
X76010952Y-128695238D01*
X76582380Y-128123809D01*
X76582380Y-128742857D01*
%TO.C,RV22*%
X305926380Y-102814571D02*
X305450190Y-102481238D01*
X305926380Y-102243142D02*
X304926380Y-102243142D01*
X304926380Y-102624095D01*
X304974000Y-102719333D01*
X305021619Y-102766952D01*
X305116857Y-102814571D01*
X305259714Y-102814571D01*
X305354952Y-102766952D01*
X305402571Y-102719333D01*
X305450190Y-102624095D01*
X305450190Y-102243142D01*
X304926380Y-103100285D02*
X305926380Y-103433619D01*
X304926380Y-103766952D01*
X305021619Y-104052666D02*
X304974000Y-104100285D01*
X304926380Y-104195523D01*
X304926380Y-104433619D01*
X304974000Y-104528857D01*
X305021619Y-104576476D01*
X305116857Y-104624095D01*
X305212095Y-104624095D01*
X305354952Y-104576476D01*
X305926380Y-104005047D01*
X305926380Y-104624095D01*
X305021619Y-105005047D02*
X304974000Y-105052666D01*
X304926380Y-105147904D01*
X304926380Y-105386000D01*
X304974000Y-105481238D01*
X305021619Y-105528857D01*
X305116857Y-105576476D01*
X305212095Y-105576476D01*
X305354952Y-105528857D01*
X305926380Y-104957428D01*
X305926380Y-105576476D01*
%TO.C,C7*%
X215050666Y-45061142D02*
X215098285Y-45108761D01*
X215241142Y-45156380D01*
X215336380Y-45156380D01*
X215479238Y-45108761D01*
X215574476Y-45013523D01*
X215622095Y-44918285D01*
X215669714Y-44727809D01*
X215669714Y-44584952D01*
X215622095Y-44394476D01*
X215574476Y-44299238D01*
X215479238Y-44204000D01*
X215336380Y-44156380D01*
X215241142Y-44156380D01*
X215098285Y-44204000D01*
X215050666Y-44251619D01*
X214717333Y-44156380D02*
X214050666Y-44156380D01*
X214479238Y-45156380D01*
%TO.C,J35*%
X158702380Y-126590476D02*
X159416666Y-126590476D01*
X159559523Y-126542857D01*
X159654761Y-126447619D01*
X159702380Y-126304761D01*
X159702380Y-126209523D01*
X158702380Y-126971428D02*
X158702380Y-127590476D01*
X159083333Y-127257142D01*
X159083333Y-127400000D01*
X159130952Y-127495238D01*
X159178571Y-127542857D01*
X159273809Y-127590476D01*
X159511904Y-127590476D01*
X159607142Y-127542857D01*
X159654761Y-127495238D01*
X159702380Y-127400000D01*
X159702380Y-127114285D01*
X159654761Y-127019047D01*
X159607142Y-126971428D01*
X158702380Y-128495238D02*
X158702380Y-128019047D01*
X159178571Y-127971428D01*
X159130952Y-128019047D01*
X159083333Y-128114285D01*
X159083333Y-128352380D01*
X159130952Y-128447619D01*
X159178571Y-128495238D01*
X159273809Y-128542857D01*
X159511904Y-128542857D01*
X159607142Y-128495238D01*
X159654761Y-128447619D01*
X159702380Y-128352380D01*
X159702380Y-128114285D01*
X159654761Y-128019047D01*
X159607142Y-127971428D01*
%TO.C,C15*%
X205112857Y-63603142D02*
X205160476Y-63650761D01*
X205303333Y-63698380D01*
X205398571Y-63698380D01*
X205541428Y-63650761D01*
X205636666Y-63555523D01*
X205684285Y-63460285D01*
X205731904Y-63269809D01*
X205731904Y-63126952D01*
X205684285Y-62936476D01*
X205636666Y-62841238D01*
X205541428Y-62746000D01*
X205398571Y-62698380D01*
X205303333Y-62698380D01*
X205160476Y-62746000D01*
X205112857Y-62793619D01*
X204160476Y-63698380D02*
X204731904Y-63698380D01*
X204446190Y-63698380D02*
X204446190Y-62698380D01*
X204541428Y-62841238D01*
X204636666Y-62936476D01*
X204731904Y-62984095D01*
X203255714Y-62698380D02*
X203731904Y-62698380D01*
X203779523Y-63174571D01*
X203731904Y-63126952D01*
X203636666Y-63079333D01*
X203398571Y-63079333D01*
X203303333Y-63126952D01*
X203255714Y-63174571D01*
X203208095Y-63269809D01*
X203208095Y-63507904D01*
X203255714Y-63603142D01*
X203303333Y-63650761D01*
X203398571Y-63698380D01*
X203636666Y-63698380D01*
X203731904Y-63650761D01*
X203779523Y-63603142D01*
%TO.C,J12*%
X54782380Y-110090476D02*
X55496666Y-110090476D01*
X55639523Y-110042857D01*
X55734761Y-109947619D01*
X55782380Y-109804761D01*
X55782380Y-109709523D01*
X55782380Y-111090476D02*
X55782380Y-110519047D01*
X55782380Y-110804761D02*
X54782380Y-110804761D01*
X54925238Y-110709523D01*
X55020476Y-110614285D01*
X55068095Y-110519047D01*
X54877619Y-111471428D02*
X54830000Y-111519047D01*
X54782380Y-111614285D01*
X54782380Y-111852380D01*
X54830000Y-111947619D01*
X54877619Y-111995238D01*
X54972857Y-112042857D01*
X55068095Y-112042857D01*
X55210952Y-111995238D01*
X55782380Y-111423809D01*
X55782380Y-112042857D01*
%TO.C,J37*%
X192126857Y-58872380D02*
X192460190Y-58396190D01*
X192698285Y-58872380D02*
X192698285Y-57872380D01*
X192317333Y-57872380D01*
X192222095Y-57920000D01*
X192174476Y-57967619D01*
X192126857Y-58062857D01*
X192126857Y-58205714D01*
X192174476Y-58300952D01*
X192222095Y-58348571D01*
X192317333Y-58396190D01*
X192698285Y-58396190D01*
X191698285Y-58348571D02*
X191364952Y-58348571D01*
X191222095Y-58872380D02*
X191698285Y-58872380D01*
X191698285Y-57872380D01*
X191222095Y-57872380D01*
X190793523Y-58872380D02*
X190793523Y-57872380D01*
X190555428Y-57872380D01*
X190412571Y-57920000D01*
X190317333Y-58015238D01*
X190269714Y-58110476D01*
X190222095Y-58300952D01*
X190222095Y-58443809D01*
X190269714Y-58634285D01*
X190317333Y-58729523D01*
X190412571Y-58824761D01*
X190555428Y-58872380D01*
X190793523Y-58872380D01*
X188555428Y-58872380D02*
X189031619Y-58872380D01*
X189031619Y-57872380D01*
X188222095Y-58872380D02*
X188222095Y-57872380D01*
X187745904Y-58872380D02*
X187745904Y-57872380D01*
X187174476Y-58872380D01*
X187174476Y-57872380D01*
X186698285Y-58348571D02*
X186364952Y-58348571D01*
X186222095Y-58872380D02*
X186698285Y-58872380D01*
X186698285Y-57872380D01*
X186222095Y-57872380D01*
%TO.C,RV21*%
X221706380Y-39020571D02*
X221230190Y-38687238D01*
X221706380Y-38449142D02*
X220706380Y-38449142D01*
X220706380Y-38830095D01*
X220754000Y-38925333D01*
X220801619Y-38972952D01*
X220896857Y-39020571D01*
X221039714Y-39020571D01*
X221134952Y-38972952D01*
X221182571Y-38925333D01*
X221230190Y-38830095D01*
X221230190Y-38449142D01*
X220706380Y-39306285D02*
X221706380Y-39639619D01*
X220706380Y-39972952D01*
X220801619Y-40258666D02*
X220754000Y-40306285D01*
X220706380Y-40401523D01*
X220706380Y-40639619D01*
X220754000Y-40734857D01*
X220801619Y-40782476D01*
X220896857Y-40830095D01*
X220992095Y-40830095D01*
X221134952Y-40782476D01*
X221706380Y-40211047D01*
X221706380Y-40830095D01*
X221706380Y-41782476D02*
X221706380Y-41211047D01*
X221706380Y-41496761D02*
X220706380Y-41496761D01*
X220849238Y-41401523D01*
X220944476Y-41306285D01*
X220992095Y-41211047D01*
%TO.C,J5*%
X50833333Y-107022380D02*
X50833333Y-107736666D01*
X50880952Y-107879523D01*
X50976190Y-107974761D01*
X51119047Y-108022380D01*
X51214285Y-108022380D01*
X49880952Y-107022380D02*
X50357142Y-107022380D01*
X50404761Y-107498571D01*
X50357142Y-107450952D01*
X50261904Y-107403333D01*
X50023809Y-107403333D01*
X49928571Y-107450952D01*
X49880952Y-107498571D01*
X49833333Y-107593809D01*
X49833333Y-107831904D01*
X49880952Y-107927142D01*
X49928571Y-107974761D01*
X50023809Y-108022380D01*
X50261904Y-108022380D01*
X50357142Y-107974761D01*
X50404761Y-107927142D01*
%TO.C,J41*%
X270006380Y-119840476D02*
X270720666Y-119840476D01*
X270863523Y-119792857D01*
X270958761Y-119697619D01*
X271006380Y-119554761D01*
X271006380Y-119459523D01*
X270339714Y-120745238D02*
X271006380Y-120745238D01*
X269958761Y-120507142D02*
X270673047Y-120269047D01*
X270673047Y-120888095D01*
X271006380Y-121792857D02*
X271006380Y-121221428D01*
X271006380Y-121507142D02*
X270006380Y-121507142D01*
X270149238Y-121411904D01*
X270244476Y-121316666D01*
X270292095Y-121221428D01*
%TO.C,C22*%
X216780857Y-95293142D02*
X216828476Y-95340761D01*
X216971333Y-95388380D01*
X217066571Y-95388380D01*
X217209428Y-95340761D01*
X217304666Y-95245523D01*
X217352285Y-95150285D01*
X217399904Y-94959809D01*
X217399904Y-94816952D01*
X217352285Y-94626476D01*
X217304666Y-94531238D01*
X217209428Y-94436000D01*
X217066571Y-94388380D01*
X216971333Y-94388380D01*
X216828476Y-94436000D01*
X216780857Y-94483619D01*
X216399904Y-94483619D02*
X216352285Y-94436000D01*
X216257047Y-94388380D01*
X216018952Y-94388380D01*
X215923714Y-94436000D01*
X215876095Y-94483619D01*
X215828476Y-94578857D01*
X215828476Y-94674095D01*
X215876095Y-94816952D01*
X216447523Y-95388380D01*
X215828476Y-95388380D01*
X215447523Y-94483619D02*
X215399904Y-94436000D01*
X215304666Y-94388380D01*
X215066571Y-94388380D01*
X214971333Y-94436000D01*
X214923714Y-94483619D01*
X214876095Y-94578857D01*
X214876095Y-94674095D01*
X214923714Y-94816952D01*
X215495142Y-95388380D01*
X214876095Y-95388380D01*
%TO.C,J38*%
X249475523Y-126452380D02*
X249475523Y-127166666D01*
X249523142Y-127309523D01*
X249618380Y-127404761D01*
X249761238Y-127452380D01*
X249856476Y-127452380D01*
X249094571Y-126452380D02*
X248475523Y-126452380D01*
X248808857Y-126833333D01*
X248666000Y-126833333D01*
X248570761Y-126880952D01*
X248523142Y-126928571D01*
X248475523Y-127023809D01*
X248475523Y-127261904D01*
X248523142Y-127357142D01*
X248570761Y-127404761D01*
X248666000Y-127452380D01*
X248951714Y-127452380D01*
X249046952Y-127404761D01*
X249094571Y-127357142D01*
X247904095Y-126880952D02*
X247999333Y-126833333D01*
X248046952Y-126785714D01*
X248094571Y-126690476D01*
X248094571Y-126642857D01*
X248046952Y-126547619D01*
X247999333Y-126500000D01*
X247904095Y-126452380D01*
X247713619Y-126452380D01*
X247618380Y-126500000D01*
X247570761Y-126547619D01*
X247523142Y-126642857D01*
X247523142Y-126690476D01*
X247570761Y-126785714D01*
X247618380Y-126833333D01*
X247713619Y-126880952D01*
X247904095Y-126880952D01*
X247999333Y-126928571D01*
X248046952Y-126976190D01*
X248094571Y-127071428D01*
X248094571Y-127261904D01*
X248046952Y-127357142D01*
X247999333Y-127404761D01*
X247904095Y-127452380D01*
X247713619Y-127452380D01*
X247618380Y-127404761D01*
X247570761Y-127357142D01*
X247523142Y-127261904D01*
X247523142Y-127071428D01*
X247570761Y-126976190D01*
X247618380Y-126928571D01*
X247713619Y-126880952D01*
%TO.C,C28*%
X205395142Y-91797142D02*
X205442761Y-91749523D01*
X205490380Y-91606666D01*
X205490380Y-91511428D01*
X205442761Y-91368571D01*
X205347523Y-91273333D01*
X205252285Y-91225714D01*
X205061809Y-91178095D01*
X204918952Y-91178095D01*
X204728476Y-91225714D01*
X204633238Y-91273333D01*
X204538000Y-91368571D01*
X204490380Y-91511428D01*
X204490380Y-91606666D01*
X204538000Y-91749523D01*
X204585619Y-91797142D01*
X204585619Y-92178095D02*
X204538000Y-92225714D01*
X204490380Y-92320952D01*
X204490380Y-92559047D01*
X204538000Y-92654285D01*
X204585619Y-92701904D01*
X204680857Y-92749523D01*
X204776095Y-92749523D01*
X204918952Y-92701904D01*
X205490380Y-92130476D01*
X205490380Y-92749523D01*
X204918952Y-93320952D02*
X204871333Y-93225714D01*
X204823714Y-93178095D01*
X204728476Y-93130476D01*
X204680857Y-93130476D01*
X204585619Y-93178095D01*
X204538000Y-93225714D01*
X204490380Y-93320952D01*
X204490380Y-93511428D01*
X204538000Y-93606666D01*
X204585619Y-93654285D01*
X204680857Y-93701904D01*
X204728476Y-93701904D01*
X204823714Y-93654285D01*
X204871333Y-93606666D01*
X204918952Y-93511428D01*
X204918952Y-93320952D01*
X204966571Y-93225714D01*
X205014190Y-93178095D01*
X205109428Y-93130476D01*
X205299904Y-93130476D01*
X205395142Y-93178095D01*
X205442761Y-93225714D01*
X205490380Y-93320952D01*
X205490380Y-93511428D01*
X205442761Y-93606666D01*
X205395142Y-93654285D01*
X205299904Y-93701904D01*
X205109428Y-93701904D01*
X205014190Y-93654285D01*
X204966571Y-93606666D01*
X204918952Y-93511428D01*
%TO.C,C13*%
X200032857Y-56237142D02*
X200080476Y-56284761D01*
X200223333Y-56332380D01*
X200318571Y-56332380D01*
X200461428Y-56284761D01*
X200556666Y-56189523D01*
X200604285Y-56094285D01*
X200651904Y-55903809D01*
X200651904Y-55760952D01*
X200604285Y-55570476D01*
X200556666Y-55475238D01*
X200461428Y-55380000D01*
X200318571Y-55332380D01*
X200223333Y-55332380D01*
X200080476Y-55380000D01*
X200032857Y-55427619D01*
X199080476Y-56332380D02*
X199651904Y-56332380D01*
X199366190Y-56332380D02*
X199366190Y-55332380D01*
X199461428Y-55475238D01*
X199556666Y-55570476D01*
X199651904Y-55618095D01*
X198747142Y-55332380D02*
X198128095Y-55332380D01*
X198461428Y-55713333D01*
X198318571Y-55713333D01*
X198223333Y-55760952D01*
X198175714Y-55808571D01*
X198128095Y-55903809D01*
X198128095Y-56141904D01*
X198175714Y-56237142D01*
X198223333Y-56284761D01*
X198318571Y-56332380D01*
X198604285Y-56332380D01*
X198699523Y-56284761D01*
X198747142Y-56237142D01*
%TO.C,J15*%
X149312380Y-64214476D02*
X150026666Y-64214476D01*
X150169523Y-64166857D01*
X150264761Y-64071619D01*
X150312380Y-63928761D01*
X150312380Y-63833523D01*
X150312380Y-65214476D02*
X150312380Y-64643047D01*
X150312380Y-64928761D02*
X149312380Y-64928761D01*
X149455238Y-64833523D01*
X149550476Y-64738285D01*
X149598095Y-64643047D01*
X149312380Y-66119238D02*
X149312380Y-65643047D01*
X149788571Y-65595428D01*
X149740952Y-65643047D01*
X149693333Y-65738285D01*
X149693333Y-65976380D01*
X149740952Y-66071619D01*
X149788571Y-66119238D01*
X149883809Y-66166857D01*
X150121904Y-66166857D01*
X150217142Y-66119238D01*
X150264761Y-66071619D01*
X150312380Y-65976380D01*
X150312380Y-65738285D01*
X150264761Y-65643047D01*
X150217142Y-65595428D01*
%TO.C,C6*%
X214542666Y-35917142D02*
X214590285Y-35964761D01*
X214733142Y-36012380D01*
X214828380Y-36012380D01*
X214971238Y-35964761D01*
X215066476Y-35869523D01*
X215114095Y-35774285D01*
X215161714Y-35583809D01*
X215161714Y-35440952D01*
X215114095Y-35250476D01*
X215066476Y-35155238D01*
X214971238Y-35060000D01*
X214828380Y-35012380D01*
X214733142Y-35012380D01*
X214590285Y-35060000D01*
X214542666Y-35107619D01*
X213685523Y-35012380D02*
X213876000Y-35012380D01*
X213971238Y-35060000D01*
X214018857Y-35107619D01*
X214114095Y-35250476D01*
X214161714Y-35440952D01*
X214161714Y-35821904D01*
X214114095Y-35917142D01*
X214066476Y-35964761D01*
X213971238Y-36012380D01*
X213780761Y-36012380D01*
X213685523Y-35964761D01*
X213637904Y-35917142D01*
X213590285Y-35821904D01*
X213590285Y-35583809D01*
X213637904Y-35488571D01*
X213685523Y-35440952D01*
X213780761Y-35393333D01*
X213971238Y-35393333D01*
X214066476Y-35440952D01*
X214114095Y-35488571D01*
X214161714Y-35583809D01*
%TO.C,J9*%
X75622380Y-50466666D02*
X76336666Y-50466666D01*
X76479523Y-50419047D01*
X76574761Y-50323809D01*
X76622380Y-50180952D01*
X76622380Y-50085714D01*
X76622380Y-50990476D02*
X76622380Y-51180952D01*
X76574761Y-51276190D01*
X76527142Y-51323809D01*
X76384285Y-51419047D01*
X76193809Y-51466666D01*
X75812857Y-51466666D01*
X75717619Y-51419047D01*
X75670000Y-51371428D01*
X75622380Y-51276190D01*
X75622380Y-51085714D01*
X75670000Y-50990476D01*
X75717619Y-50942857D01*
X75812857Y-50895238D01*
X76050952Y-50895238D01*
X76146190Y-50942857D01*
X76193809Y-50990476D01*
X76241428Y-51085714D01*
X76241428Y-51276190D01*
X76193809Y-51371428D01*
X76146190Y-51419047D01*
X76050952Y-51466666D01*
D11*
%TO.C,J52*%
X67850000Y-49470000D02*
X67850000Y-52130000D01*
X60170000Y-49470000D02*
X67850000Y-49470000D01*
X57570000Y-50800000D02*
X57570000Y-52130000D01*
X60170000Y-49470000D02*
X60170000Y-52130000D01*
X60170000Y-52130000D02*
X67850000Y-52130000D01*
X57570000Y-52130000D02*
X58900000Y-52130000D01*
%TO.C,J6*%
X47830000Y-112130000D02*
X35070000Y-112130000D01*
X50430000Y-110800000D02*
X50430000Y-109470000D01*
X47830000Y-109470000D02*
X35070000Y-109470000D01*
X47830000Y-112130000D02*
X47830000Y-109470000D01*
X50430000Y-109470000D02*
X49100000Y-109470000D01*
X35070000Y-112130000D02*
X35070000Y-109470000D01*
%TO.C,J32*%
X80170000Y-126270000D02*
X80170000Y-128930000D01*
X92930000Y-126270000D02*
X92930000Y-128930000D01*
X80170000Y-128930000D02*
X92930000Y-128930000D01*
X77570000Y-128930000D02*
X78900000Y-128930000D01*
X77570000Y-127600000D02*
X77570000Y-128930000D01*
X80170000Y-126270000D02*
X92930000Y-126270000D01*
%TO.C,RV22*%
X304474000Y-105636000D02*
X304474000Y-102136000D01*
X301224000Y-102886000D02*
X301224000Y-104886000D01*
X295474000Y-106636000D02*
X295474000Y-101136000D01*
X302474000Y-107636000D02*
X296474000Y-107636000D01*
X296474000Y-100136000D02*
X302474000Y-100136000D01*
X301024000Y-103886000D02*
X301374000Y-103886000D01*
X301224000Y-102886000D02*
G75*
G03*
X301224000Y-104886000I0J-1000000D01*
G01*
%TO.C,C7*%
X210034000Y-43152000D02*
X208546000Y-43152000D01*
X212938000Y-41871000D02*
X212114000Y-41871000D01*
X213542000Y-42911000D02*
X212114000Y-42911000D01*
X210034000Y-43632000D02*
X208494000Y-43632000D01*
X212727000Y-41671000D02*
X212114000Y-41671000D01*
X210034000Y-42071000D02*
X209039000Y-42071000D01*
X210034000Y-42711000D02*
X208676000Y-42711000D01*
X213617000Y-43232000D02*
X212114000Y-43232000D01*
X210034000Y-42631000D02*
X208709000Y-42631000D01*
X213078000Y-42031000D02*
X212114000Y-42031000D01*
X213109000Y-42071000D02*
X212114000Y-42071000D01*
X212574000Y-41551000D02*
X209574000Y-41551000D01*
X211989000Y-41231000D02*
X210159000Y-41231000D01*
X210034000Y-42831000D02*
X208632000Y-42831000D01*
X213565000Y-42992000D02*
X212114000Y-42992000D01*
X212817000Y-41751000D02*
X212114000Y-41751000D01*
X212517000Y-41511000D02*
X209631000Y-41511000D01*
X213643000Y-43432000D02*
X212114000Y-43432000D01*
X210034000Y-42271000D02*
X208899000Y-42271000D01*
X210034000Y-42351000D02*
X208850000Y-42351000D01*
X213011000Y-41951000D02*
X212114000Y-41951000D01*
X213602000Y-43152000D02*
X212114000Y-43152000D01*
X210034000Y-41951000D02*
X209137000Y-41951000D01*
X210034000Y-41991000D02*
X209103000Y-41991000D01*
X213639000Y-43392000D02*
X212114000Y-43392000D01*
X213045000Y-41991000D02*
X212114000Y-41991000D01*
X210034000Y-42791000D02*
X208646000Y-42791000D01*
X212457000Y-41471000D02*
X209691000Y-41471000D01*
X212900000Y-41831000D02*
X212114000Y-41831000D01*
X213298000Y-42351000D02*
X212114000Y-42351000D01*
X210034000Y-42591000D02*
X208726000Y-42591000D01*
X210034000Y-42431000D02*
X208806000Y-42431000D01*
X213516000Y-42831000D02*
X212114000Y-42831000D01*
X213630000Y-43312000D02*
X212114000Y-43312000D01*
X210034000Y-42031000D02*
X209070000Y-42031000D01*
X212859000Y-41791000D02*
X212114000Y-41791000D01*
X212393000Y-41431000D02*
X209755000Y-41431000D01*
X210034000Y-42311000D02*
X208874000Y-42311000D01*
X211879000Y-41191000D02*
X210269000Y-41191000D01*
X213575000Y-43032000D02*
X212114000Y-43032000D01*
X213647000Y-43472000D02*
X212114000Y-43472000D01*
X210034000Y-41671000D02*
X209421000Y-41671000D01*
X213650000Y-43512000D02*
X212114000Y-43512000D01*
X210034000Y-42951000D02*
X208594000Y-42951000D01*
X212172000Y-41311000D02*
X209976000Y-41311000D01*
X213456000Y-42671000D02*
X212114000Y-42671000D01*
X212799000Y-46226775D02*
X212299000Y-46226775D01*
X213502000Y-42791000D02*
X212114000Y-42791000D01*
X210034000Y-43312000D02*
X208518000Y-43312000D01*
X213594000Y-43112000D02*
X212114000Y-43112000D01*
X210034000Y-41711000D02*
X209375000Y-41711000D01*
X210034000Y-43512000D02*
X208498000Y-43512000D01*
X210034000Y-41871000D02*
X209210000Y-41871000D01*
X213488000Y-42751000D02*
X212114000Y-42751000D01*
X213364000Y-42471000D02*
X212114000Y-42471000D01*
X210034000Y-41791000D02*
X209289000Y-41791000D01*
X210034000Y-43192000D02*
X208538000Y-43192000D01*
X210034000Y-42191000D02*
X208952000Y-42191000D01*
X210034000Y-42151000D02*
X208979000Y-42151000D01*
X210034000Y-42231000D02*
X208925000Y-42231000D01*
X213635000Y-43352000D02*
X212114000Y-43352000D01*
X210034000Y-43552000D02*
X208496000Y-43552000D01*
X211358000Y-41071000D02*
X210790000Y-41071000D01*
X213274000Y-42311000D02*
X212114000Y-42311000D01*
X210034000Y-42391000D02*
X208827000Y-42391000D01*
X212975000Y-41911000D02*
X212114000Y-41911000D01*
X213196000Y-42191000D02*
X212114000Y-42191000D01*
X210034000Y-43592000D02*
X208495000Y-43592000D01*
X213321000Y-42391000D02*
X212114000Y-42391000D01*
X212628000Y-41591000D02*
X209520000Y-41591000D01*
X211751000Y-41151000D02*
X210397000Y-41151000D01*
X213585000Y-43072000D02*
X212114000Y-43072000D01*
X210034000Y-43472000D02*
X208501000Y-43472000D01*
X212549000Y-46476775D02*
X212549000Y-45976775D01*
X213610000Y-43192000D02*
X212114000Y-43192000D01*
X210034000Y-41751000D02*
X209331000Y-41751000D01*
X213554000Y-42951000D02*
X212114000Y-42951000D01*
X210034000Y-43112000D02*
X208554000Y-43112000D01*
X210034000Y-42992000D02*
X208583000Y-42992000D01*
X213654000Y-43672000D02*
X212114000Y-43672000D01*
X210034000Y-43072000D02*
X208563000Y-43072000D01*
X210034000Y-43392000D02*
X208509000Y-43392000D01*
X210034000Y-43272000D02*
X208524000Y-43272000D01*
X213422000Y-42591000D02*
X212114000Y-42591000D01*
X210034000Y-43352000D02*
X208513000Y-43352000D01*
X213624000Y-43272000D02*
X212114000Y-43272000D01*
X210034000Y-42471000D02*
X208784000Y-42471000D01*
X212773000Y-41711000D02*
X212114000Y-41711000D01*
X210034000Y-42871000D02*
X208619000Y-42871000D01*
X212085000Y-41271000D02*
X210063000Y-41271000D01*
X210034000Y-42911000D02*
X208606000Y-42911000D01*
X210034000Y-43032000D02*
X208573000Y-43032000D01*
X213653000Y-43592000D02*
X212114000Y-43592000D01*
X212252000Y-41351000D02*
X209896000Y-41351000D01*
X210034000Y-42551000D02*
X208745000Y-42551000D01*
X213472000Y-42711000D02*
X212114000Y-42711000D01*
X213139000Y-42111000D02*
X212114000Y-42111000D01*
X210034000Y-41911000D02*
X209173000Y-41911000D01*
X210034000Y-43432000D02*
X208505000Y-43432000D01*
X213169000Y-42151000D02*
X212114000Y-42151000D01*
X210034000Y-43232000D02*
X208531000Y-43232000D01*
X213403000Y-42551000D02*
X212114000Y-42551000D01*
X213223000Y-42231000D02*
X212114000Y-42231000D01*
X212679000Y-41631000D02*
X209469000Y-41631000D01*
X213654000Y-43632000D02*
X212114000Y-43632000D01*
X212325000Y-41391000D02*
X209823000Y-41391000D01*
X213342000Y-42431000D02*
X212114000Y-42431000D01*
X210034000Y-41831000D02*
X209248000Y-41831000D01*
X210034000Y-42511000D02*
X208764000Y-42511000D01*
X213529000Y-42871000D02*
X212114000Y-42871000D01*
X213652000Y-43552000D02*
X212114000Y-43552000D01*
X213439000Y-42631000D02*
X212114000Y-42631000D01*
X210034000Y-43672000D02*
X208494000Y-43672000D01*
X213249000Y-42271000D02*
X212114000Y-42271000D01*
X210034000Y-42111000D02*
X209009000Y-42111000D01*
X213384000Y-42511000D02*
X212114000Y-42511000D01*
X211592000Y-41111000D02*
X210556000Y-41111000D01*
X210034000Y-42751000D02*
X208660000Y-42751000D01*
X210034000Y-42671000D02*
X208692000Y-42671000D01*
X213694000Y-43672000D02*
G75*
G03*
X213694000Y-43672000I-2620000J0D01*
G01*
%TO.C,J35*%
X160690000Y-127400000D02*
X160690000Y-128730000D01*
X163290000Y-128730000D02*
X181130000Y-128730000D01*
X163290000Y-126070000D02*
X181130000Y-126070000D01*
X160690000Y-128730000D02*
X162020000Y-128730000D01*
X163290000Y-126070000D02*
X163290000Y-128730000D01*
X181130000Y-126070000D02*
X181130000Y-128730000D01*
%TO.C,C15*%
X205379380Y-59968000D02*
X205379380Y-62059000D01*
X205059380Y-59968000D02*
X205059380Y-61961000D01*
X204539380Y-56138000D02*
X204539380Y-57888000D01*
X204219380Y-56350000D02*
X204219380Y-57888000D01*
X205419380Y-59968000D02*
X205419380Y-62069000D01*
X205580380Y-59968000D02*
X205580380Y-62103000D01*
X204979380Y-55926000D02*
X204979380Y-57888000D01*
X204499380Y-59968000D02*
X204499380Y-61694000D01*
X203299380Y-57419000D02*
X203299380Y-60437000D01*
X204139380Y-59968000D02*
X204139380Y-61444000D01*
X203619380Y-56933000D02*
X203619380Y-60923000D01*
X206100380Y-55698000D02*
X206100380Y-62158000D01*
X205259380Y-55830000D02*
X205259380Y-57888000D01*
X205099380Y-59968000D02*
X205099380Y-61975000D01*
X204099380Y-59968000D02*
X204099380Y-61412000D01*
X204179380Y-59968000D02*
X204179380Y-61476000D01*
X205379380Y-55797000D02*
X205379380Y-57888000D01*
X204339380Y-56264000D02*
X204339380Y-57888000D01*
X205620380Y-59968000D02*
X205620380Y-62110000D01*
X203939380Y-56585000D02*
X203939380Y-57888000D01*
X203899380Y-59968000D02*
X203899380Y-61233000D01*
X205740380Y-55727000D02*
X205740380Y-57888000D01*
X204259380Y-59968000D02*
X204259380Y-61535000D01*
X203899380Y-56623000D02*
X203899380Y-57888000D01*
X205299380Y-59968000D02*
X205299380Y-62038000D01*
X205219380Y-59968000D02*
X205219380Y-62014000D01*
X205339380Y-55807000D02*
X205339380Y-57888000D01*
X205820380Y-55717000D02*
X205820380Y-57888000D01*
X209680621Y-57089000D02*
X209050621Y-57089000D01*
X205259380Y-59968000D02*
X205259380Y-62026000D01*
X205299380Y-55818000D02*
X205299380Y-57888000D01*
X204019380Y-56512000D02*
X204019380Y-57888000D01*
X204859380Y-59968000D02*
X204859380Y-61880000D01*
X204779380Y-56012000D02*
X204779380Y-57888000D01*
X203139380Y-57763000D02*
X203139380Y-60093000D01*
X204779380Y-59968000D02*
X204779380Y-61844000D01*
X205660380Y-59968000D02*
X205660380Y-62117000D01*
X204699380Y-59968000D02*
X204699380Y-61804000D01*
X203179380Y-57666000D02*
X203179380Y-60190000D01*
X205820380Y-59968000D02*
X205820380Y-62139000D01*
X203259380Y-57496000D02*
X203259380Y-60360000D01*
X204139380Y-56412000D02*
X204139380Y-57888000D01*
X205459380Y-59968000D02*
X205459380Y-62078000D01*
X205540380Y-59968000D02*
X205540380Y-62095000D01*
X205019380Y-59968000D02*
X205019380Y-61946000D01*
X205940380Y-59968000D02*
X205940380Y-62150000D01*
X204659380Y-59968000D02*
X204659380Y-61784000D01*
X204579380Y-59968000D02*
X204579380Y-61740000D01*
X204339380Y-59968000D02*
X204339380Y-61592000D01*
X204939380Y-59968000D02*
X204939380Y-61914000D01*
X205500380Y-59968000D02*
X205500380Y-62087000D01*
X204059380Y-56478000D02*
X204059380Y-57888000D01*
X204499380Y-56162000D02*
X204499380Y-57888000D01*
X202979380Y-58295000D02*
X202979380Y-59561000D01*
X203379380Y-57278000D02*
X203379380Y-60578000D01*
X202939380Y-58526000D02*
X202939380Y-59330000D01*
X204299380Y-59968000D02*
X204299380Y-61564000D01*
X203219380Y-57578000D02*
X203219380Y-60278000D01*
X205860380Y-59968000D02*
X205860380Y-62143000D01*
X205620380Y-55746000D02*
X205620380Y-57888000D01*
X205740380Y-59968000D02*
X205740380Y-62129000D01*
X203779380Y-56746000D02*
X203779380Y-61110000D01*
X205900380Y-55710000D02*
X205900380Y-57888000D01*
X203939380Y-59968000D02*
X203939380Y-61271000D01*
X205139380Y-59968000D02*
X205139380Y-61989000D01*
X205339380Y-59968000D02*
X205339380Y-62049000D01*
X204619380Y-56094000D02*
X204619380Y-57888000D01*
X204579380Y-56116000D02*
X204579380Y-57888000D01*
X203979380Y-59968000D02*
X203979380Y-61308000D01*
X205139380Y-55867000D02*
X205139380Y-57888000D01*
X205580380Y-55753000D02*
X205580380Y-57888000D01*
X204899380Y-55958000D02*
X204899380Y-57888000D01*
X204539380Y-59968000D02*
X204539380Y-61718000D01*
X205059380Y-55895000D02*
X205059380Y-57888000D01*
X203539380Y-57038000D02*
X203539380Y-60818000D01*
X205700380Y-55733000D02*
X205700380Y-57888000D01*
X204379380Y-56238000D02*
X204379380Y-57888000D01*
X204699380Y-56052000D02*
X204699380Y-57888000D01*
X204619380Y-59968000D02*
X204619380Y-61762000D01*
X205179380Y-55854000D02*
X205179380Y-57888000D01*
X209365621Y-56774000D02*
X209365621Y-57404000D01*
X203859380Y-56663000D02*
X203859380Y-61193000D01*
X204459380Y-56186000D02*
X204459380Y-57888000D01*
X205099380Y-55881000D02*
X205099380Y-57888000D01*
X205179380Y-59968000D02*
X205179380Y-62002000D01*
X205780380Y-59968000D02*
X205780380Y-62134000D01*
X203699380Y-56836000D02*
X203699380Y-61020000D01*
X206140380Y-55698000D02*
X206140380Y-62158000D01*
X204819380Y-59968000D02*
X204819380Y-61862000D01*
X204259380Y-56321000D02*
X204259380Y-57888000D01*
X206180380Y-55698000D02*
X206180380Y-62158000D01*
X205980380Y-55704000D02*
X205980380Y-62152000D01*
X204459380Y-59968000D02*
X204459380Y-61670000D01*
X204659380Y-56072000D02*
X204659380Y-57888000D01*
X203419380Y-57214000D02*
X203419380Y-60642000D01*
X205419380Y-55787000D02*
X205419380Y-57888000D01*
X203979380Y-56548000D02*
X203979380Y-57888000D01*
X204019380Y-59968000D02*
X204019380Y-61344000D01*
X203499380Y-57094000D02*
X203499380Y-60762000D01*
X205660380Y-55739000D02*
X205660380Y-57888000D01*
X205940380Y-55706000D02*
X205940380Y-57888000D01*
X204939380Y-55942000D02*
X204939380Y-57888000D01*
X204419380Y-59968000D02*
X204419380Y-61644000D01*
X203339380Y-57347000D02*
X203339380Y-60509000D01*
X205219380Y-55842000D02*
X205219380Y-57888000D01*
X203659380Y-56884000D02*
X203659380Y-60972000D01*
X203019380Y-58126000D02*
X203019380Y-59730000D01*
X206060380Y-55700000D02*
X206060380Y-62156000D01*
X204099380Y-56444000D02*
X204099380Y-57888000D01*
X205900380Y-59968000D02*
X205900380Y-62146000D01*
X204179380Y-56380000D02*
X204179380Y-57888000D01*
X203739380Y-56791000D02*
X203739380Y-61065000D01*
X204859380Y-55976000D02*
X204859380Y-57888000D01*
X205700380Y-59968000D02*
X205700380Y-62123000D01*
X203579380Y-56984000D02*
X203579380Y-60872000D01*
X204379380Y-59968000D02*
X204379380Y-61618000D01*
X204419380Y-56212000D02*
X204419380Y-57888000D01*
X204899380Y-59968000D02*
X204899380Y-61898000D01*
X203099380Y-57869000D02*
X203099380Y-59987000D01*
X204739380Y-59968000D02*
X204739380Y-61824000D01*
X203819380Y-56704000D02*
X203819380Y-61152000D01*
X205459380Y-55778000D02*
X205459380Y-57888000D01*
X204059380Y-59968000D02*
X204059380Y-61378000D01*
X206020380Y-55701000D02*
X206020380Y-62155000D01*
X205500380Y-55769000D02*
X205500380Y-57888000D01*
X205019380Y-55910000D02*
X205019380Y-57888000D01*
X204979380Y-59968000D02*
X204979380Y-61930000D01*
X204219380Y-59968000D02*
X204219380Y-61506000D01*
X203059380Y-57988000D02*
X203059380Y-59868000D01*
X205860380Y-55713000D02*
X205860380Y-57888000D01*
X204819380Y-55994000D02*
X204819380Y-57888000D01*
X204299380Y-56292000D02*
X204299380Y-57888000D01*
X205780380Y-55722000D02*
X205780380Y-57888000D01*
X205540380Y-55761000D02*
X205540380Y-57888000D01*
X203459380Y-57152000D02*
X203459380Y-60704000D01*
X204739380Y-56032000D02*
X204739380Y-57888000D01*
X209450380Y-58928000D02*
G75*
G03*
X209450380Y-58928000I-3270000J0D01*
G01*
%TO.C,J12*%
X59370000Y-109570000D02*
X67050000Y-109570000D01*
X56770000Y-112230000D02*
X58100000Y-112230000D01*
X56770000Y-110900000D02*
X56770000Y-112230000D01*
X67050000Y-109570000D02*
X67050000Y-112230000D01*
X59370000Y-109570000D02*
X59370000Y-112230000D01*
X59370000Y-112230000D02*
X67050000Y-112230000D01*
%TO.C,J37*%
X194044000Y-56010000D02*
X194044000Y-35430000D01*
X184924000Y-56010000D02*
X194044000Y-56010000D01*
X186234000Y-43670000D02*
X186234000Y-43670000D01*
X186234000Y-54710000D02*
X192734000Y-54710000D01*
X184924000Y-35430000D02*
X184924000Y-56010000D01*
X186234000Y-47770000D02*
X186234000Y-54710000D01*
X186234000Y-36730000D02*
X186234000Y-43670000D01*
X192734000Y-36730000D02*
X186234000Y-36730000D01*
D12*
X184912000Y-57150000D02*
X194056000Y-57150000D01*
D11*
X184924000Y-47770000D02*
X186234000Y-47770000D01*
X194044000Y-35430000D02*
X184924000Y-35430000D01*
X186234000Y-43670000D02*
X184924000Y-43670000D01*
X192734000Y-54710000D02*
X192734000Y-36730000D01*
%TO.C,RV21*%
X223956000Y-37342000D02*
X223956000Y-42842000D01*
X218206000Y-41092000D02*
X218206000Y-39092000D01*
X222956000Y-43842000D02*
X216956000Y-43842000D01*
X218406000Y-40092000D02*
X218056000Y-40092000D01*
X214956000Y-38342000D02*
X214956000Y-41842000D01*
X216956000Y-36342000D02*
X222956000Y-36342000D01*
X218206000Y-41092000D02*
G75*
G03*
X218206000Y-39092000I0J1000000D01*
G01*
%TO.C,J5*%
X51830000Y-106130000D02*
X51830000Y-104800000D01*
X49170000Y-103530000D02*
X49170000Y-95850000D01*
X49170000Y-103530000D02*
X51830000Y-103530000D01*
X51830000Y-103530000D02*
X51830000Y-95850000D01*
X50500000Y-106130000D02*
X51830000Y-106130000D01*
X49170000Y-95850000D02*
X51830000Y-95850000D01*
%TO.C,J41*%
X266954000Y-119320000D02*
X261814000Y-119320000D01*
X261814000Y-121980000D02*
X261814000Y-119320000D01*
X266954000Y-121980000D02*
X266954000Y-119320000D01*
X269554000Y-121980000D02*
X269554000Y-120650000D01*
X268224000Y-121980000D02*
X269554000Y-121980000D01*
X266954000Y-121980000D02*
X261814000Y-121980000D01*
%TO.C,C22*%
X217939000Y-90146000D02*
X217939000Y-89322000D01*
X217779000Y-93190000D02*
X217779000Y-92226000D01*
X218619000Y-91991000D02*
X218619000Y-90381000D01*
X217299000Y-90146000D02*
X217299000Y-88876000D01*
X217179000Y-93551000D02*
X217179000Y-92226000D01*
X217139000Y-93568000D02*
X217139000Y-92226000D01*
X217579000Y-93335000D02*
X217579000Y-92226000D01*
X216658000Y-93714000D02*
X216658000Y-92226000D01*
X216538000Y-93736000D02*
X216538000Y-92226000D01*
X217659000Y-90146000D02*
X217659000Y-89091000D01*
X217899000Y-90146000D02*
X217899000Y-89285000D01*
X217299000Y-93496000D02*
X217299000Y-92226000D01*
X216778000Y-93687000D02*
X216778000Y-92226000D01*
X217539000Y-90146000D02*
X217539000Y-89011000D01*
X217819000Y-93157000D02*
X217819000Y-92226000D01*
X217099000Y-90146000D02*
X217099000Y-88788000D01*
X217059000Y-93600000D02*
X217059000Y-92226000D01*
X217019000Y-93614000D02*
X217019000Y-92226000D01*
X218699000Y-91704000D02*
X218699000Y-90668000D01*
X216979000Y-93628000D02*
X216979000Y-92226000D01*
X216578000Y-93729000D02*
X216578000Y-92226000D01*
X217699000Y-90146000D02*
X217699000Y-89121000D01*
X217419000Y-90146000D02*
X217419000Y-88939000D01*
X217339000Y-90146000D02*
X217339000Y-88896000D01*
X217619000Y-93308000D02*
X217619000Y-92226000D01*
X216258000Y-93764000D02*
X216258000Y-92226000D01*
X216899000Y-90146000D02*
X216899000Y-88718000D01*
X217499000Y-93386000D02*
X217499000Y-92226000D01*
X217139000Y-90146000D02*
X217139000Y-88804000D01*
X216178000Y-93766000D02*
X216178000Y-92226000D01*
X217459000Y-90146000D02*
X217459000Y-88962000D01*
X216738000Y-90146000D02*
X216738000Y-88675000D01*
X217499000Y-90146000D02*
X217499000Y-88986000D01*
X218339000Y-92569000D02*
X218339000Y-89803000D01*
X216378000Y-93755000D02*
X216378000Y-92226000D01*
X217339000Y-93476000D02*
X217339000Y-92226000D01*
X218299000Y-92629000D02*
X218299000Y-89743000D01*
X216258000Y-90146000D02*
X216258000Y-88608000D01*
X217059000Y-90146000D02*
X217059000Y-88772000D01*
X218739000Y-91470000D02*
X218739000Y-90902000D01*
X217939000Y-93050000D02*
X217939000Y-92226000D01*
X218219000Y-92740000D02*
X218219000Y-89632000D01*
X218179000Y-92791000D02*
X218179000Y-89581000D01*
X218139000Y-90146000D02*
X218139000Y-89533000D01*
X218459000Y-92364000D02*
X218459000Y-90008000D01*
X216458000Y-90146000D02*
X216458000Y-88625000D01*
X218379000Y-92505000D02*
X218379000Y-89867000D01*
X213333225Y-92661000D02*
X213833225Y-92661000D01*
X217219000Y-90146000D02*
X217219000Y-88838000D01*
X217419000Y-93433000D02*
X217419000Y-92226000D01*
X216178000Y-90146000D02*
X216178000Y-88606000D01*
X216778000Y-90146000D02*
X216778000Y-88685000D01*
X217219000Y-93534000D02*
X217219000Y-92226000D01*
X218579000Y-92101000D02*
X218579000Y-90271000D01*
X216578000Y-90146000D02*
X216578000Y-88643000D01*
X217819000Y-90146000D02*
X217819000Y-89215000D01*
X216698000Y-90146000D02*
X216698000Y-88666000D01*
X217019000Y-90146000D02*
X217019000Y-88758000D01*
X216818000Y-90146000D02*
X216818000Y-88695000D01*
X218099000Y-90146000D02*
X218099000Y-89487000D01*
X218099000Y-92885000D02*
X218099000Y-92226000D01*
X216939000Y-93641000D02*
X216939000Y-92226000D01*
X216338000Y-90146000D02*
X216338000Y-88613000D01*
X216138000Y-93766000D02*
X216138000Y-92226000D01*
X216298000Y-90146000D02*
X216298000Y-88610000D01*
X216979000Y-90146000D02*
X216979000Y-88744000D01*
X218059000Y-92929000D02*
X218059000Y-92226000D01*
X218019000Y-92971000D02*
X218019000Y-92226000D01*
X216218000Y-90146000D02*
X216218000Y-88607000D01*
X217379000Y-93454000D02*
X217379000Y-92226000D01*
X216618000Y-90146000D02*
X216618000Y-88650000D01*
X216538000Y-90146000D02*
X216538000Y-88636000D01*
X216738000Y-93697000D02*
X216738000Y-92226000D01*
X217859000Y-93123000D02*
X217859000Y-92226000D01*
X218059000Y-90146000D02*
X218059000Y-89443000D01*
X218659000Y-91863000D02*
X218659000Y-90509000D01*
X218539000Y-92197000D02*
X218539000Y-90175000D01*
X216939000Y-90146000D02*
X216939000Y-88731000D01*
X216298000Y-93762000D02*
X216298000Y-92226000D01*
X216218000Y-93765000D02*
X216218000Y-92226000D01*
X217259000Y-90146000D02*
X217259000Y-88857000D01*
X218499000Y-92284000D02*
X218499000Y-90088000D01*
X217739000Y-90146000D02*
X217739000Y-89151000D01*
X218259000Y-92686000D02*
X218259000Y-89686000D01*
X216899000Y-93654000D02*
X216899000Y-92226000D01*
X216338000Y-93759000D02*
X216338000Y-92226000D01*
X217179000Y-90146000D02*
X217179000Y-88821000D01*
X218139000Y-92839000D02*
X218139000Y-92226000D01*
X217379000Y-90146000D02*
X217379000Y-88918000D01*
X217699000Y-93251000D02*
X217699000Y-92226000D01*
X216378000Y-90146000D02*
X216378000Y-88617000D01*
X218419000Y-92437000D02*
X218419000Y-89935000D01*
X216498000Y-93742000D02*
X216498000Y-92226000D01*
X217099000Y-93584000D02*
X217099000Y-92226000D01*
X217859000Y-90146000D02*
X217859000Y-89249000D01*
X217619000Y-90146000D02*
X217619000Y-89064000D01*
X217259000Y-93515000D02*
X217259000Y-92226000D01*
X217979000Y-93012000D02*
X217979000Y-92226000D01*
X216418000Y-90146000D02*
X216418000Y-88621000D01*
X218019000Y-90146000D02*
X218019000Y-89401000D01*
X216658000Y-90146000D02*
X216658000Y-88658000D01*
X217459000Y-93410000D02*
X217459000Y-92226000D01*
X216859000Y-90146000D02*
X216859000Y-88706000D01*
X216458000Y-93747000D02*
X216458000Y-92226000D01*
X217899000Y-93087000D02*
X217899000Y-92226000D01*
X213583225Y-92911000D02*
X213583225Y-92411000D01*
X216859000Y-93666000D02*
X216859000Y-92226000D01*
X216698000Y-93706000D02*
X216698000Y-92226000D01*
X216498000Y-90146000D02*
X216498000Y-88630000D01*
X217579000Y-90146000D02*
X217579000Y-89037000D01*
X216618000Y-93722000D02*
X216618000Y-92226000D01*
X217979000Y-90146000D02*
X217979000Y-89360000D01*
X216418000Y-93751000D02*
X216418000Y-92226000D01*
X217659000Y-93281000D02*
X217659000Y-92226000D01*
X216138000Y-90146000D02*
X216138000Y-88606000D01*
X216818000Y-93677000D02*
X216818000Y-92226000D01*
X217539000Y-93361000D02*
X217539000Y-92226000D01*
X217739000Y-93221000D02*
X217739000Y-92226000D01*
X217779000Y-90146000D02*
X217779000Y-89182000D01*
X218758000Y-91186000D02*
G75*
G03*
X218758000Y-91186000I-2620000J0D01*
G01*
%TO.C,J38*%
X255589000Y-120406000D02*
X255589000Y-128086000D01*
X252989000Y-120406000D02*
X252989000Y-117806000D01*
X255589000Y-117806000D02*
X254259000Y-117806000D01*
X250389000Y-117806000D02*
X250389000Y-128086000D01*
X255589000Y-128086000D02*
X250389000Y-128086000D01*
X255589000Y-119136000D02*
X255589000Y-117806000D01*
X252989000Y-117806000D02*
X250389000Y-117806000D01*
X255589000Y-120406000D02*
X252989000Y-120406000D01*
%TO.C,C28*%
X207405000Y-94641000D02*
X210171000Y-94641000D01*
X206252000Y-92920000D02*
X207748000Y-92920000D01*
X209828000Y-93000000D02*
X211308000Y-93000000D01*
X209828000Y-93040000D02*
X211299000Y-93040000D01*
X209828000Y-92840000D02*
X211338000Y-92840000D01*
X208270000Y-95001000D02*
X209306000Y-95001000D01*
X209828000Y-93921000D02*
X210910000Y-93921000D01*
X206287000Y-93080000D02*
X207748000Y-93080000D01*
X206215000Y-92640000D02*
X207748000Y-92640000D01*
X209828000Y-94161000D02*
X210725000Y-94161000D01*
X206666000Y-93921000D02*
X207748000Y-93921000D01*
X206588000Y-93801000D02*
X207748000Y-93801000D01*
X209828000Y-92760000D02*
X211349000Y-92760000D01*
X206238000Y-92840000D02*
X207748000Y-92840000D01*
X209828000Y-94441000D02*
X210441000Y-94441000D01*
X207537000Y-94721000D02*
X210039000Y-94721000D01*
X209828000Y-93361000D02*
X211202000Y-93361000D01*
X209828000Y-92960000D02*
X211316000Y-92960000D01*
X206693000Y-93961000D02*
X207748000Y-93961000D01*
X209828000Y-93601000D02*
X211098000Y-93601000D01*
X206423000Y-93481000D02*
X207748000Y-93481000D01*
X209828000Y-92680000D02*
X211357000Y-92680000D01*
X206320000Y-93201000D02*
X207748000Y-93201000D01*
X206541000Y-93721000D02*
X207748000Y-93721000D01*
X209828000Y-94001000D02*
X210853000Y-94001000D01*
X208504000Y-95041000D02*
X209072000Y-95041000D01*
X206887000Y-94201000D02*
X207748000Y-94201000D01*
X209828000Y-93761000D02*
X211012000Y-93761000D01*
X207610000Y-94761000D02*
X209966000Y-94761000D01*
X209828000Y-92920000D02*
X211324000Y-92920000D01*
X207135000Y-94441000D02*
X207748000Y-94441000D01*
X206478000Y-93601000D02*
X207748000Y-93601000D01*
X209828000Y-93801000D02*
X210988000Y-93801000D01*
X206498000Y-93641000D02*
X207748000Y-93641000D01*
X206209000Y-92520000D02*
X207748000Y-92520000D01*
X206208000Y-92480000D02*
X207748000Y-92480000D01*
X206260000Y-92960000D02*
X207748000Y-92960000D01*
X206212000Y-92600000D02*
X207748000Y-92600000D01*
X207873000Y-94881000D02*
X209703000Y-94881000D01*
X209828000Y-94121000D02*
X210759000Y-94121000D01*
X207983000Y-94921000D02*
X209593000Y-94921000D01*
X206440000Y-93521000D02*
X207748000Y-93521000D01*
X209828000Y-94241000D02*
X210652000Y-94241000D01*
X209828000Y-92600000D02*
X211364000Y-92600000D01*
X209828000Y-93120000D02*
X211279000Y-93120000D01*
X207777000Y-94841000D02*
X209799000Y-94841000D01*
X206232000Y-92800000D02*
X207748000Y-92800000D01*
X207345000Y-94601000D02*
X210231000Y-94601000D01*
X209828000Y-92440000D02*
X211368000Y-92440000D01*
X209828000Y-94081000D02*
X210792000Y-94081000D01*
X206219000Y-92680000D02*
X207748000Y-92680000D01*
X206390000Y-93401000D02*
X207748000Y-93401000D01*
X206346000Y-93281000D02*
X207748000Y-93281000D01*
X209828000Y-92720000D02*
X211353000Y-92720000D01*
X206277000Y-93040000D02*
X207748000Y-93040000D01*
X206308000Y-93161000D02*
X207748000Y-93161000D01*
X209828000Y-94041000D02*
X210823000Y-94041000D01*
X206459000Y-93561000D02*
X207748000Y-93561000D01*
X209828000Y-92800000D02*
X211344000Y-92800000D01*
X209828000Y-93881000D02*
X210937000Y-93881000D01*
X206360000Y-93321000D02*
X207748000Y-93321000D01*
X209828000Y-93201000D02*
X211256000Y-93201000D01*
X209828000Y-93321000D02*
X211216000Y-93321000D01*
X207063000Y-89885225D02*
X207563000Y-89885225D01*
X206520000Y-93681000D02*
X207748000Y-93681000D01*
X206406000Y-93441000D02*
X207748000Y-93441000D01*
X206564000Y-93761000D02*
X207748000Y-93761000D01*
X206962000Y-94281000D02*
X207748000Y-94281000D01*
X206639000Y-93881000D02*
X207748000Y-93881000D01*
X207313000Y-89635225D02*
X207313000Y-90135225D01*
X209828000Y-94281000D02*
X210614000Y-94281000D01*
X206613000Y-93841000D02*
X207748000Y-93841000D01*
X209828000Y-92520000D02*
X211367000Y-92520000D01*
X206227000Y-92760000D02*
X207748000Y-92760000D01*
X209828000Y-93561000D02*
X211117000Y-93561000D01*
X206924000Y-94241000D02*
X207748000Y-94241000D01*
X209828000Y-94201000D02*
X210689000Y-94201000D01*
X206223000Y-92720000D02*
X207748000Y-92720000D01*
X209828000Y-93681000D02*
X211056000Y-93681000D01*
X209828000Y-93441000D02*
X211170000Y-93441000D01*
X207089000Y-94401000D02*
X207748000Y-94401000D01*
X209828000Y-93161000D02*
X211268000Y-93161000D01*
X207234000Y-94521000D02*
X210342000Y-94521000D01*
X207288000Y-94561000D02*
X210288000Y-94561000D01*
X206297000Y-93120000D02*
X207748000Y-93120000D01*
X209828000Y-93961000D02*
X210883000Y-93961000D01*
X209828000Y-93401000D02*
X211186000Y-93401000D01*
X206333000Y-93241000D02*
X207748000Y-93241000D01*
X209828000Y-93481000D02*
X211153000Y-93481000D01*
X207003000Y-94321000D02*
X207748000Y-94321000D01*
X206723000Y-94001000D02*
X207748000Y-94001000D01*
X206268000Y-93000000D02*
X207748000Y-93000000D01*
X206208000Y-92440000D02*
X207748000Y-92440000D01*
X209828000Y-94321000D02*
X210573000Y-94321000D01*
X207045000Y-94361000D02*
X207748000Y-94361000D01*
X209828000Y-92560000D02*
X211366000Y-92560000D01*
X209828000Y-93721000D02*
X211035000Y-93721000D01*
X209828000Y-93521000D02*
X211136000Y-93521000D01*
X209828000Y-94401000D02*
X210487000Y-94401000D01*
X209828000Y-94361000D02*
X210531000Y-94361000D01*
X206851000Y-94161000D02*
X207748000Y-94161000D01*
X206210000Y-92560000D02*
X207748000Y-92560000D01*
X207183000Y-94481000D02*
X210393000Y-94481000D01*
X209828000Y-92480000D02*
X211368000Y-92480000D01*
X207469000Y-94681000D02*
X210107000Y-94681000D01*
X209828000Y-93841000D02*
X210963000Y-93841000D01*
X209828000Y-93641000D02*
X211078000Y-93641000D01*
X206784000Y-94081000D02*
X207748000Y-94081000D01*
X208111000Y-94961000D02*
X209465000Y-94961000D01*
X209828000Y-92640000D02*
X211361000Y-92640000D01*
X206374000Y-93361000D02*
X207748000Y-93361000D01*
X206245000Y-92880000D02*
X207748000Y-92880000D01*
X209828000Y-93241000D02*
X211243000Y-93241000D01*
X209828000Y-93080000D02*
X211289000Y-93080000D01*
X209828000Y-92880000D02*
X211331000Y-92880000D01*
X207690000Y-94801000D02*
X209886000Y-94801000D01*
X209828000Y-93281000D02*
X211230000Y-93281000D01*
X206753000Y-94041000D02*
X207748000Y-94041000D01*
X206817000Y-94121000D02*
X207748000Y-94121000D01*
X211408000Y-92440000D02*
G75*
G03*
X211408000Y-92440000I-2620000J0D01*
G01*
%TO.C,C13*%
X199936113Y-50429000D02*
X199936113Y-51538000D01*
X201257113Y-50000000D02*
X201257113Y-51538000D01*
X200456113Y-50164000D02*
X200456113Y-51538000D01*
X200536113Y-50136000D02*
X200536113Y-51538000D01*
X201217113Y-50002000D02*
X201217113Y-51538000D01*
X200136113Y-50310000D02*
X200136113Y-51538000D01*
X201217113Y-53618000D02*
X201217113Y-55154000D01*
X200456113Y-53618000D02*
X200456113Y-54992000D01*
X200977113Y-53618000D02*
X200977113Y-55128000D01*
X201137113Y-53618000D02*
X201137113Y-55147000D01*
X199816113Y-53618000D02*
X199816113Y-54643000D01*
X200416113Y-53618000D02*
X200416113Y-54976000D01*
X201017113Y-50022000D02*
X201017113Y-51538000D01*
X199336113Y-50973000D02*
X199336113Y-54183000D01*
X199416113Y-53618000D02*
X199416113Y-54277000D01*
X200817113Y-53618000D02*
X200817113Y-55098000D01*
X200136113Y-53618000D02*
X200136113Y-54846000D01*
X198896113Y-51773000D02*
X198896113Y-53383000D01*
X200176113Y-53618000D02*
X200176113Y-54868000D01*
X200256113Y-50249000D02*
X200256113Y-51538000D01*
X201177113Y-53618000D02*
X201177113Y-55151000D01*
X200016113Y-50378000D02*
X200016113Y-51538000D01*
X200777113Y-50067000D02*
X200777113Y-51538000D01*
X200376113Y-53618000D02*
X200376113Y-54960000D01*
X200937113Y-50035000D02*
X200937113Y-51538000D01*
X201377113Y-53618000D02*
X201377113Y-55158000D01*
X199056113Y-51400000D02*
X199056113Y-53756000D01*
X201097113Y-50013000D02*
X201097113Y-51538000D01*
X199816113Y-50513000D02*
X199816113Y-51538000D01*
X201057113Y-53618000D02*
X201057113Y-55139000D01*
X199856113Y-50483000D02*
X199856113Y-51538000D01*
X199536113Y-53618000D02*
X199536113Y-54404000D01*
X201057113Y-50017000D02*
X201057113Y-51538000D01*
X199696113Y-53618000D02*
X199696113Y-54549000D01*
X200376113Y-50196000D02*
X200376113Y-51538000D01*
X200616113Y-50110000D02*
X200616113Y-51538000D01*
X199896113Y-50456000D02*
X199896113Y-51538000D01*
X200096113Y-53618000D02*
X200096113Y-54825000D01*
X199376113Y-50925000D02*
X199376113Y-51538000D01*
X200496113Y-50150000D02*
X200496113Y-51538000D01*
X200296113Y-50230000D02*
X200296113Y-51538000D01*
X198856113Y-51901000D02*
X198856113Y-53255000D01*
X199536113Y-50752000D02*
X199536113Y-51538000D01*
X199456113Y-53618000D02*
X199456113Y-54321000D01*
X201177113Y-50005000D02*
X201177113Y-51538000D01*
X199496113Y-53618000D02*
X199496113Y-54363000D01*
X200256113Y-53618000D02*
X200256113Y-54907000D01*
X199736113Y-53618000D02*
X199736113Y-54582000D01*
X199096113Y-51327000D02*
X199096113Y-53829000D01*
X199776113Y-50543000D02*
X199776113Y-51538000D01*
X198976113Y-51567000D02*
X198976113Y-53589000D01*
X200897113Y-50042000D02*
X200897113Y-51538000D01*
X201297113Y-53618000D02*
X201297113Y-55157000D01*
X199216113Y-51135000D02*
X199216113Y-54021000D01*
X199616113Y-53618000D02*
X199616113Y-54479000D01*
X200857113Y-53618000D02*
X200857113Y-55106000D01*
X199296113Y-51024000D02*
X199296113Y-54132000D01*
X199656113Y-50641000D02*
X199656113Y-51538000D01*
X201097113Y-53618000D02*
X201097113Y-55143000D01*
X203931888Y-50853000D02*
X203931888Y-51353000D01*
X200656113Y-53618000D02*
X200656113Y-55058000D01*
X200216113Y-50268000D02*
X200216113Y-51538000D01*
X199176113Y-51195000D02*
X199176113Y-53961000D01*
X199976113Y-53618000D02*
X199976113Y-54753000D01*
X200056113Y-50354000D02*
X200056113Y-51538000D01*
X198776113Y-52294000D02*
X198776113Y-52862000D01*
X201297113Y-49999000D02*
X201297113Y-51538000D01*
X199976113Y-50403000D02*
X199976113Y-51538000D01*
X200697113Y-50087000D02*
X200697113Y-51538000D01*
X199456113Y-50835000D02*
X199456113Y-51538000D01*
X199576113Y-53618000D02*
X199576113Y-54442000D01*
X200296113Y-53618000D02*
X200296113Y-54926000D01*
X200697113Y-53618000D02*
X200697113Y-55069000D01*
X200737113Y-53618000D02*
X200737113Y-55079000D01*
X199576113Y-50714000D02*
X199576113Y-51538000D01*
X200096113Y-50331000D02*
X200096113Y-51538000D01*
X200937113Y-53618000D02*
X200937113Y-55121000D01*
X199016113Y-51480000D02*
X199016113Y-53676000D01*
X200737113Y-50077000D02*
X200737113Y-51538000D01*
X199496113Y-50793000D02*
X199496113Y-51538000D01*
X200777113Y-53618000D02*
X200777113Y-55089000D01*
X200416113Y-50180000D02*
X200416113Y-51538000D01*
X200656113Y-50098000D02*
X200656113Y-51538000D01*
X200817113Y-50058000D02*
X200817113Y-51538000D01*
X200977113Y-50028000D02*
X200977113Y-51538000D01*
X200496113Y-53618000D02*
X200496113Y-55006000D01*
X199776113Y-53618000D02*
X199776113Y-54613000D01*
X199256113Y-51078000D02*
X199256113Y-54078000D01*
X201337113Y-49998000D02*
X201337113Y-51538000D01*
X199736113Y-50574000D02*
X199736113Y-51538000D01*
X199696113Y-50607000D02*
X199696113Y-51538000D01*
X200536113Y-53618000D02*
X200536113Y-55020000D01*
X200616113Y-53618000D02*
X200616113Y-55046000D01*
X198816113Y-52060000D02*
X198816113Y-53096000D01*
X199936113Y-53618000D02*
X199936113Y-54727000D01*
X199376113Y-53618000D02*
X199376113Y-54231000D01*
X201137113Y-50009000D02*
X201137113Y-51538000D01*
X200336113Y-50213000D02*
X200336113Y-51538000D01*
X200857113Y-50050000D02*
X200857113Y-51538000D01*
X201377113Y-49998000D02*
X201377113Y-51538000D01*
X199416113Y-50879000D02*
X199416113Y-51538000D01*
X199656113Y-53618000D02*
X199656113Y-54515000D01*
X198936113Y-51663000D02*
X198936113Y-53493000D01*
X200176113Y-50288000D02*
X200176113Y-51538000D01*
X201337113Y-53618000D02*
X201337113Y-55158000D01*
X200897113Y-53618000D02*
X200897113Y-55114000D01*
X200336113Y-53618000D02*
X200336113Y-54943000D01*
X204181888Y-51103000D02*
X203681888Y-51103000D01*
X200016113Y-53618000D02*
X200016113Y-54778000D01*
X200056113Y-53618000D02*
X200056113Y-54802000D01*
X200576113Y-53618000D02*
X200576113Y-55033000D01*
X199616113Y-50677000D02*
X199616113Y-51538000D01*
X201017113Y-53618000D02*
X201017113Y-55134000D01*
X199136113Y-51259000D02*
X199136113Y-53897000D01*
X201257113Y-53618000D02*
X201257113Y-55156000D01*
X199896113Y-53618000D02*
X199896113Y-54700000D01*
X200216113Y-53618000D02*
X200216113Y-54888000D01*
X200576113Y-50123000D02*
X200576113Y-51538000D01*
X199856113Y-53618000D02*
X199856113Y-54673000D01*
X203997113Y-52578000D02*
G75*
G03*
X203997113Y-52578000I-2620000J0D01*
G01*
%TO.C,J15*%
X150970000Y-46070000D02*
X153630000Y-46070000D01*
X150970000Y-63910000D02*
X150970000Y-46070000D01*
X150970000Y-63910000D02*
X153630000Y-63910000D01*
X153630000Y-66510000D02*
X153630000Y-65180000D01*
X153630000Y-63910000D02*
X153630000Y-46070000D01*
X152300000Y-66510000D02*
X153630000Y-66510000D01*
%TO.C,C6*%
X208554000Y-38136000D02*
X210034000Y-38136000D01*
X212114000Y-38777000D02*
X213364000Y-38777000D01*
X210397000Y-40097000D02*
X211751000Y-40097000D01*
X212114000Y-38857000D02*
X213321000Y-38857000D01*
X212114000Y-39217000D02*
X213078000Y-39217000D01*
X208546000Y-38096000D02*
X210034000Y-38096000D01*
X208692000Y-38577000D02*
X210034000Y-38577000D01*
X208505000Y-37816000D02*
X210034000Y-37816000D01*
X208594000Y-38297000D02*
X210034000Y-38297000D01*
X212114000Y-39537000D02*
X212773000Y-39537000D01*
X209599000Y-34771225D02*
X209599000Y-35271225D01*
X212114000Y-38136000D02*
X213594000Y-38136000D01*
X208531000Y-38016000D02*
X210034000Y-38016000D01*
X209574000Y-39697000D02*
X212574000Y-39697000D01*
X209976000Y-39937000D02*
X212172000Y-39937000D01*
X212114000Y-37936000D02*
X213630000Y-37936000D01*
X212114000Y-37656000D02*
X213653000Y-37656000D01*
X210159000Y-40017000D02*
X211989000Y-40017000D01*
X209755000Y-39817000D02*
X212393000Y-39817000D01*
X210269000Y-40057000D02*
X211879000Y-40057000D01*
X208496000Y-37696000D02*
X210034000Y-37696000D01*
X212114000Y-39297000D02*
X213011000Y-39297000D01*
X209289000Y-39457000D02*
X210034000Y-39457000D01*
X208573000Y-38216000D02*
X210034000Y-38216000D01*
X208784000Y-38777000D02*
X210034000Y-38777000D01*
X208676000Y-38537000D02*
X210034000Y-38537000D01*
X209349000Y-35021225D02*
X209849000Y-35021225D01*
X212114000Y-38176000D02*
X213585000Y-38176000D01*
X208524000Y-37976000D02*
X210034000Y-37976000D01*
X212114000Y-38537000D02*
X213472000Y-38537000D01*
X208952000Y-39057000D02*
X210034000Y-39057000D01*
X210063000Y-39977000D02*
X212085000Y-39977000D01*
X212114000Y-37776000D02*
X213647000Y-37776000D01*
X212114000Y-37856000D02*
X213639000Y-37856000D01*
X208583000Y-38256000D02*
X210034000Y-38256000D01*
X212114000Y-38897000D02*
X213298000Y-38897000D01*
X212114000Y-38817000D02*
X213342000Y-38817000D01*
X210556000Y-40137000D02*
X211592000Y-40137000D01*
X209009000Y-39137000D02*
X210034000Y-39137000D01*
X208498000Y-37736000D02*
X210034000Y-37736000D01*
X212114000Y-38056000D02*
X213610000Y-38056000D01*
X208538000Y-38056000D02*
X210034000Y-38056000D01*
X208606000Y-38337000D02*
X210034000Y-38337000D01*
X208899000Y-38977000D02*
X210034000Y-38977000D01*
X208494000Y-37616000D02*
X210034000Y-37616000D01*
X208660000Y-38497000D02*
X210034000Y-38497000D01*
X212114000Y-37736000D02*
X213650000Y-37736000D01*
X212114000Y-38657000D02*
X213422000Y-38657000D01*
X212114000Y-39377000D02*
X212938000Y-39377000D01*
X212114000Y-39017000D02*
X213223000Y-39017000D01*
X208501000Y-37776000D02*
X210034000Y-37776000D01*
X209331000Y-39497000D02*
X210034000Y-39497000D01*
X208745000Y-38697000D02*
X210034000Y-38697000D01*
X212114000Y-38737000D02*
X213384000Y-38737000D01*
X212114000Y-39137000D02*
X213139000Y-39137000D01*
X208646000Y-38457000D02*
X210034000Y-38457000D01*
X209691000Y-39777000D02*
X212457000Y-39777000D01*
X212114000Y-39257000D02*
X213045000Y-39257000D01*
X209137000Y-39297000D02*
X210034000Y-39297000D01*
X208726000Y-38657000D02*
X210034000Y-38657000D01*
X208518000Y-37936000D02*
X210034000Y-37936000D01*
X212114000Y-39057000D02*
X213196000Y-39057000D01*
X212114000Y-38457000D02*
X213502000Y-38457000D01*
X209469000Y-39617000D02*
X212679000Y-39617000D01*
X209896000Y-39897000D02*
X212252000Y-39897000D01*
X209520000Y-39657000D02*
X212628000Y-39657000D01*
X212114000Y-39097000D02*
X213169000Y-39097000D01*
X212114000Y-38096000D02*
X213602000Y-38096000D01*
X212114000Y-38016000D02*
X213617000Y-38016000D01*
X212114000Y-39417000D02*
X212900000Y-39417000D01*
X212114000Y-38617000D02*
X213439000Y-38617000D01*
X212114000Y-37576000D02*
X213654000Y-37576000D01*
X208494000Y-37576000D02*
X210034000Y-37576000D01*
X212114000Y-38297000D02*
X213554000Y-38297000D01*
X212114000Y-38497000D02*
X213488000Y-38497000D01*
X208764000Y-38737000D02*
X210034000Y-38737000D01*
X212114000Y-38337000D02*
X213542000Y-38337000D01*
X208632000Y-38417000D02*
X210034000Y-38417000D01*
X212114000Y-38417000D02*
X213516000Y-38417000D01*
X212114000Y-38577000D02*
X213456000Y-38577000D01*
X212114000Y-39337000D02*
X212975000Y-39337000D01*
X208925000Y-39017000D02*
X210034000Y-39017000D01*
X212114000Y-39577000D02*
X212727000Y-39577000D01*
X208979000Y-39097000D02*
X210034000Y-39097000D01*
X209631000Y-39737000D02*
X212517000Y-39737000D01*
X212114000Y-38377000D02*
X213529000Y-38377000D01*
X212114000Y-37816000D02*
X213643000Y-37816000D01*
X210790000Y-40177000D02*
X211358000Y-40177000D01*
X209248000Y-39417000D02*
X210034000Y-39417000D01*
X212114000Y-39457000D02*
X212859000Y-39457000D01*
X208874000Y-38937000D02*
X210034000Y-38937000D01*
X212114000Y-37616000D02*
X213654000Y-37616000D01*
X212114000Y-38697000D02*
X213403000Y-38697000D01*
X208563000Y-38176000D02*
X210034000Y-38176000D01*
X212114000Y-38977000D02*
X213249000Y-38977000D01*
X208619000Y-38377000D02*
X210034000Y-38377000D01*
X209173000Y-39337000D02*
X210034000Y-39337000D01*
X212114000Y-37896000D02*
X213635000Y-37896000D01*
X208495000Y-37656000D02*
X210034000Y-37656000D01*
X208709000Y-38617000D02*
X210034000Y-38617000D01*
X209823000Y-39857000D02*
X212325000Y-39857000D01*
X212114000Y-39177000D02*
X213109000Y-39177000D01*
X212114000Y-39497000D02*
X212817000Y-39497000D01*
X209421000Y-39577000D02*
X210034000Y-39577000D01*
X209210000Y-39377000D02*
X210034000Y-39377000D01*
X208850000Y-38897000D02*
X210034000Y-38897000D01*
X209375000Y-39537000D02*
X210034000Y-39537000D01*
X212114000Y-38937000D02*
X213274000Y-38937000D01*
X209070000Y-39217000D02*
X210034000Y-39217000D01*
X208827000Y-38857000D02*
X210034000Y-38857000D01*
X212114000Y-38216000D02*
X213575000Y-38216000D01*
X209039000Y-39177000D02*
X210034000Y-39177000D01*
X208509000Y-37856000D02*
X210034000Y-37856000D01*
X212114000Y-37976000D02*
X213624000Y-37976000D01*
X212114000Y-37696000D02*
X213652000Y-37696000D01*
X209103000Y-39257000D02*
X210034000Y-39257000D01*
X212114000Y-38256000D02*
X213565000Y-38256000D01*
X208513000Y-37896000D02*
X210034000Y-37896000D01*
X208806000Y-38817000D02*
X210034000Y-38817000D01*
X213694000Y-37576000D02*
G75*
G03*
X213694000Y-37576000I-2620000J0D01*
G01*
%TO.C,J9*%
X72130000Y-52130000D02*
X69530000Y-52130000D01*
X69530000Y-52130000D02*
X69530000Y-49470000D01*
X72130000Y-49470000D02*
X69530000Y-49470000D01*
X74730000Y-49470000D02*
X73400000Y-49470000D01*
X74730000Y-50800000D02*
X74730000Y-49470000D01*
X72130000Y-52130000D02*
X72130000Y-49470000D01*
%TD*%
G36*
X327342121Y-135020002D02*
G01*
X327388614Y-135073658D01*
X327400000Y-135126000D01*
X327400000Y-136874000D01*
X327379998Y-136942121D01*
X327326342Y-136988614D01*
X327274000Y-137000000D01*
X318126000Y-137000000D01*
X318057879Y-136979998D01*
X318011386Y-136926342D01*
X318000000Y-136874000D01*
X318000000Y-135126000D01*
X318020002Y-135057879D01*
X318073658Y-135011386D01*
X318126000Y-135000000D01*
X327274000Y-135000000D01*
X327342121Y-135020002D01*
G37*
M02*
