999
dxfrw 0.5.10
0
SECTION
  2
HEADER
9
$ACADVER
  1
AC1021
  9
$MEASUREMENT
  70
  1
  9
$INSUNITS
  70
  4
9
$HANDSEED
  5
20000
0
ENDSEC
 0
SECTION
2
CLASSES
0
ENDSEC
 0
SECTION
 2
TABLES
0
TABLE
2
VPORT
5
8
330
0
100
AcDbSymbolTable
70
1
0
VPORT
5
31
330
2
100
AcDbSymbolTableRecord
100
AcDbViewportTableRecord
2
*ACTIVE
70
0
10
0
20
0
11
1
21
1
12
209.475294253
22
86.0026335861
13
0
23
0
14
10
24
10
15
10
25
10
16
0
26
0
36
1
17
0
27
0
37
0
40
319.744231092
41
2.12946428571
42
50
43
0
44
0
50
0
51
0
71
0
72
100
73
1
74
3
75
0
76
0
77
0
78
0
281
0
65
1
110
0
120
0
130
0
111
1
121
0
131
0
112
0
122
1
132
0
79
0
146
0
348
10020
60
7
61
5
292
1
282
1
141
0
142
0
63
250
421
3358443
0
ENDTAB
0
TABLE
2
LTYPE
5
5
330
0
100
AcDbSymbolTable
70
4
0
LTYPE
5
14
330
5
100
AcDbSymbolTableRecord
100
AcDbLinetypeTableRecord
2
ByBlock
70
0
3

72
65
73
0
40
0
0
LTYPE
5
15
330
5
100
AcDbSymbolTableRecord
100
AcDbLinetypeTableRecord
2
ByLayer
70
0
3
 
72
65
73
0
40
0
0
LTYPE
5
16
330
5
100
AcDbSymbolTableRecord
100
AcDbLinetypeTableRecord
2
Continuous
70
0
3
Solid line
72
65
73
0
40
0.0
0
LTYPE
5
 0000009d
100
AcDbSymbolTableRecord
100
AcDbLinetypeTableRecord
2
DOT
70
0
3
Dot . . . . . . . . . . . . . . . . . . . . . .
72
65
73
2
40
 3.0
49
 1.0
74
 0
49
 0.0
74
 0
0
LTYPE
5
 0000009e
100
AcDbSymbolTableRecord
100
AcDbLinetypeTableRecord
2
DASHED
70
0
3
Dashed __ __ __ __ __ __ __ __ __ __ __ __ __ _
72
65
73
2
40
1.0
49
 0.55
74
0
49
-0.45
74
0
0
ENDTAB
0
TABLE
2
LAYER
5
10
330
0
100
AcDbSymbolTable
70
1
0
LAYER
5
 0000009f
330
 2
100
AcDbSymbolTableRecord
100
AcDbLayerTableRecord
2
0
70
0
62
7
6
CONTINUOUS
370
 -3.0
390
F
0
LAYER
5
 000000a0
330
 2
100
AcDbSymbolTableRecord
100
AcDbLayerTableRecord
2
contour007
70
0
62
7
6
CONTINUOUS
370
 0.1
390
F
0
LAYER
5
 000000a1
330
 2
100
AcDbSymbolTableRecord
100
AcDbLayerTableRecord
2
reference_cross001
70
0
62
1
6
CONTINUOUS
370
 0.1
390
F
0
ENDTAB
0
TABLE
2
STYLE
5
3
330
0
100
AcDbSymbolTable
70
3
0
STYLE
5
45
330
2
100
AcDbSymbolTableRecord
100
AcDbTextStyleTableRecord
2
Standard
70
0
40
0
41
1
50
0
71
0
42
1
3
txt
4
 
0
ENDTAB
0
TABLE
2
VIEW
5
6
330
0
100
AcDbSymbolTable
70
0
0
ENDTAB
0
TABLE
2
UCS
5
7
330
0
100
AcDbSymbolTable
70
0
0
ENDTAB
0
TABLE
2
APPID
5
9
330
0
100
AcDbSymbolTable
70
1
0
APPID
5
12
330
9
100
AcDbSymbolTableRecord
100
AcDbRegAppTableRecord
2
ACAD
70
0
0
ENDTAB
0
TABLE
2
DIMSTYLE
5
A
330
0
100
AcDbSymbolTable
70
1
100
AcDbDimStyleTable
71
1
0
DIMSTYLE
105
46
330
A
100
AcDbSymbolTableRecord
100
AcDbDimStyleTableRecord
2
Standard
70
0
40
1
41
0.18
42
0.0625
43
0.38
44
0.18
45
0
46
0
47
0
48
0
140
0.18
141
0.09
142
0
143
25.4
144
1
145
0
146
1
147
0.09
148
0
71
0
72
0
73
0
74
1
75
0
76
0
77
0
78
0
79
0
170
0
171
2
172
0
173
0
174
0
175
0
176
0
177
0
178
0
179
0
271
4
272
4
273
2
274
2
275
0
276
0
277
2
278
46
279
0
280
0
281
0
282
0
283
1
284
0
285
0
286
0
288
0
289
3
340
Standard
341
 
371
-2
372
-2
0
ENDTAB
0
TABLE
2
BLOCK_RECORD
5
1
330
0
100
AcDbSymbolTable
70
2
0
BLOCK_RECORD
5
1F
330
1
100
AcDbSymbolTableRecord
100
AcDbBlockTableRecord
2
*Model_Space
70
0
280
1
281
0
0
BLOCK_RECORD
5
1E
330
1
100
AcDbSymbolTableRecord
100
AcDbBlockTableRecord
2
*Paper_Space
70
0
280
1
281
0
0
ENDTAB
0
ENDSEC
0
SECTION
2
BLOCKS
0
BLOCK
5
20
330
1F
100
AcDbEntity
8
0
100
AcDbBlockBegin
2
*Model_Space
70
0
10
0
20
0
30
0
3
*Model_Space
1
 
0
ENDBLK
5
21
330
1F
100
AcDbEntity
8
0
100
AcDbBlockEnd
0
BLOCK
5
1C
330
1B
100
AcDbEntity
8
0
100
AcDbBlockBegin
2
*Paper_Space
70
0
10
0
20
0
30
0
3
*Paper_Space
1
 
0
ENDBLK
5
1D
330
1E
100
AcDbEntity
8
0
100
AcDbBlockEnd
0
ENDSEC
0
SECTION
  2
ENTITIES
0
LWPOLYLINE
  5
000000a2
 39
 0.100 
 100
AcDbEntity
8
contour007
 6
CONTINUOUS
100
AcDbPolyline
 90
5
 70
8
 10
162.000000000000
 20
128.500000000000
 10
162.000000000000
 20
0.000000000000
 10
0.000000000000
 20
0.000000000000
 10
0.000000000000
 20
128.500000000000
 10
162.000000000000
 20
128.500000000000
0
ARC
  5
000000a3
 39
 0.100 
 100
AcDbEntity
8
contour007
 6
CONTINUOUS
100
AcDbCircle
 10
12.500000000000
 20
125.500000000000
 30
 0
 40
2.999960666409
100
AcDbArc
 50
170.405804792728
 51
189.594195207272
0
ARC
  5
000000a4
 39
 0.100 
 100
AcDbEntity
8
contour007
 6
CONTINUOUS
100
AcDbCircle
 10
10.725215959905
 20
125.199999980567
 30
 0
 40
1.200000000000
100
AcDbArc
 50
189.594067285852
 51
269.989688674043
0
LINE
  5
000000a5
 39
 0.100 
 100
AcDbEntity
8
contour007
 6
CONTINUOUS
 100
AcDbLine
 10
14.275000000000
 20
124.000000000000
 30
 0.0
 11
10.725000000000
 21
124.000000000000
 31
0.0
0
ARC
  5
000000a6
 39
 0.100 
 100
AcDbEntity
8
contour007
 6
CONTINUOUS
100
AcDbCircle
 10
14.274784040095
 20
125.199999980567
 30
 0
 40
1.200000000000
100
AcDbArc
 50
270.010311325957
 51
350.405932714148
0
ARC
  5
000000a7
 39
 0.100 
 100
AcDbEntity
8
contour007
 6
CONTINUOUS
100
AcDbCircle
 10
12.500000000000
 20
125.500000000000
 30
 0
 40
2.999960666409
100
AcDbArc
 50
350.405804792728
 51
369.594195207272
0
ARC
  5
000000a8
 39
 0.100 
 100
AcDbEntity
8
contour007
 6
CONTINUOUS
100
AcDbCircle
 10
14.274784040095
 20
125.800000019433
 30
 0
 40
1.200000000000
100
AcDbArc
 50
9.594067285852
 51
89.989688674043
0
LINE
  5
000000a9
 39
 0.100 
 100
AcDbEntity
8
contour007
 6
CONTINUOUS
 100
AcDbLine
 10
10.725000000000
 20
127.000000000000
 30
 0.0
 11
14.275000000000
 21
127.000000000000
 31
0.0
0
ARC
  5
000000aa
 39
 0.100 
 100
AcDbEntity
8
contour007
 6
CONTINUOUS
100
AcDbCircle
 10
10.725215959905
 20
125.800000019433
 30
 0
 40
1.200000000000
100
AcDbArc
 50
90.010311325957
 51
170.405932714148
0
CIRCLE
  5
000000ab
 39
 0.100 
 100
AcDbEntity
8
contour007
 6
CONTINUOUS
100
AcDbCircle
 10
14.000000000000
 20
73.500000000000
 30
 0
 40
3.000000000000
0
ARC
  5
000000ac
 39
 0.100 
 100
AcDbEntity
8
contour007
 6
CONTINUOUS
100
AcDbCircle
 10
149.500000000000
 20
125.500000000000
 30
 0
 40
2.999960666409
100
AcDbArc
 50
170.405804792728
 51
189.594195207272
0
ARC
  5
000000ad
 39
 0.100 
 100
AcDbEntity
8
contour007
 6
CONTINUOUS
100
AcDbCircle
 10
147.725215959905
 20
125.199999980567
 30
 0
 40
1.200000000000
100
AcDbArc
 50
189.594067285852
 51
269.989688674043
0
LINE
  5
000000ae
 39
 0.100 
 100
AcDbEntity
8
contour007
 6
CONTINUOUS
 100
AcDbLine
 10
151.275000000000
 20
124.000000000000
 30
 0.0
 11
147.725000000000
 21
124.000000000000
 31
0.0
0
ARC
  5
000000af
 39
 0.100 
 100
AcDbEntity
8
contour007
 6
CONTINUOUS
100
AcDbCircle
 10
151.274784040095
 20
125.199999980567
 30
 0
 40
1.200000000000
100
AcDbArc
 50
270.010311325957
 51
350.405932714148
0
ARC
  5
000000b0
 39
 0.100 
 100
AcDbEntity
8
contour007
 6
CONTINUOUS
100
AcDbCircle
 10
149.500000000000
 20
125.500000000000
 30
 0
 40
2.999960666409
100
AcDbArc
 50
350.405804792728
 51
369.594195207272
0
ARC
  5
000000b1
 39
 0.100 
 100
AcDbEntity
8
contour007
 6
CONTINUOUS
100
AcDbCircle
 10
151.274784040095
 20
125.800000019433
 30
 0
 40
1.200000000000
100
AcDbArc
 50
9.594067285852
 51
89.989688674043
0
LINE
  5
000000b2
 39
 0.100 
 100
AcDbEntity
8
contour007
 6
CONTINUOUS
 100
AcDbLine
 10
147.725000000000
 20
127.000000000000
 30
 0.0
 11
151.275000000000
 21
127.000000000000
 31
0.0
0
ARC
  5
000000b3
 39
 0.100 
 100
AcDbEntity
8
contour007
 6
CONTINUOUS
100
AcDbCircle
 10
147.725215959905
 20
125.800000019433
 30
 0
 40
1.200000000000
100
AcDbArc
 50
90.010311325957
 51
170.405932714148
0
ARC
  5
000000b4
 39
 0.100 
 100
AcDbEntity
8
contour007
 6
CONTINUOUS
100
AcDbCircle
 10
12.500000000000
 20
3.000000000000
 30
 0
 40
2.999960666409
100
AcDbArc
 50
170.405804792728
 51
189.594195207272
0
ARC
  5
000000b5
 39
 0.100 
 100
AcDbEntity
8
contour007
 6
CONTINUOUS
100
AcDbCircle
 10
10.725215959905
 20
2.699999980567
 30
 0
 40
1.200000000000
100
AcDbArc
 50
189.594067285852
 51
269.989688674043
0
LINE
  5
000000b6
 39
 0.100 
 100
AcDbEntity
8
contour007
 6
CONTINUOUS
 100
AcDbLine
 10
14.275000000000
 20
1.500000000000
 30
 0.0
 11
10.725000000000
 21
1.500000000000
 31
0.0
0
ARC
  5
000000b7
 39
 0.100 
 100
AcDbEntity
8
contour007
 6
CONTINUOUS
100
AcDbCircle
 10
14.274784040095
 20
2.699999980567
 30
 0
 40
1.200000000000
100
AcDbArc
 50
270.010311325957
 51
350.405932714148
0
ARC
  5
000000b8
 39
 0.100 
 100
AcDbEntity
8
contour007
 6
CONTINUOUS
100
AcDbCircle
 10
12.500000000000
 20
3.000000000000
 30
 0
 40
2.999960666409
100
AcDbArc
 50
350.405804792728
 51
369.594195207272
0
ARC
  5
000000b9
 39
 0.100 
 100
AcDbEntity
8
contour007
 6
CONTINUOUS
100
AcDbCircle
 10
14.274784040095
 20
3.300000019433
 30
 0
 40
1.200000000000
100
AcDbArc
 50
9.594067285852
 51
89.989688674043
0
LINE
  5
000000ba
 39
 0.100 
 100
AcDbEntity
8
contour007
 6
CONTINUOUS
 100
AcDbLine
 10
10.725000000000
 20
4.500000000000
 30
 0.0
 11
14.275000000000
 21
4.500000000000
 31
0.0
0
ARC
  5
000000bb
 39
 0.100 
 100
AcDbEntity
8
contour007
 6
CONTINUOUS
100
AcDbCircle
 10
10.725215959905
 20
3.300000019433
 30
 0
 40
1.200000000000
100
AcDbArc
 50
90.010311325957
 51
170.405932714148
0
ARC
  5
000000bc
 39
 0.100 
 100
AcDbEntity
8
contour007
 6
CONTINUOUS
100
AcDbCircle
 10
149.500000000000
 20
3.000000000000
 30
 0
 40
2.999960666409
100
AcDbArc
 50
170.405804792728
 51
189.594195207272
0
ARC
  5
000000bd
 39
 0.100 
 100
AcDbEntity
8
contour007
 6
CONTINUOUS
100
AcDbCircle
 10
147.725215959905
 20
2.699999980567
 30
 0
 40
1.200000000000
100
AcDbArc
 50
189.594067285852
 51
269.989688674043
0
LINE
  5
000000be
 39
 0.100 
 100
AcDbEntity
8
contour007
 6
CONTINUOUS
 100
AcDbLine
 10
151.275000000000
 20
1.500000000000
 30
 0.0
 11
147.725000000000
 21
1.500000000000
 31
0.0
0
ARC
  5
000000bf
 39
 0.100 
 100
AcDbEntity
8
contour007
 6
CONTINUOUS
100
AcDbCircle
 10
151.274784040095
 20
2.699999980567
 30
 0
 40
1.200000000000
100
AcDbArc
 50
270.010311325957
 51
350.405932714148
0
ARC
  5
000000c0
 39
 0.100 
 100
AcDbEntity
8
contour007
 6
CONTINUOUS
100
AcDbCircle
 10
149.500000000000
 20
3.000000000000
 30
 0
 40
2.999960666409
100
AcDbArc
 50
350.405804792728
 51
369.594195207272
0
ARC
  5
000000c1
 39
 0.100 
 100
AcDbEntity
8
contour007
 6
CONTINUOUS
100
AcDbCircle
 10
151.274784040095
 20
3.300000019433
 30
 0
 40
1.200000000000
100
AcDbArc
 50
9.594067285852
 51
89.989688674043
0
LINE
  5
000000c2
 39
 0.100 
 100
AcDbEntity
8
contour007
 6
CONTINUOUS
 100
AcDbLine
 10
147.725000000000
 20
4.500000000000
 30
 0.0
 11
151.275000000000
 21
4.500000000000
 31
0.0
0
ARC
  5
000000c3
 39
 0.100 
 100
AcDbEntity
8
contour007
 6
CONTINUOUS
100
AcDbCircle
 10
147.725215959905
 20
3.300000019433
 30
 0
 40
1.200000000000
100
AcDbArc
 50
90.010311325957
 51
170.405932714148
0
CIRCLE
  5
000000c4
 39
 0.100 
 100
AcDbEntity
8
contour007
 6
CONTINUOUS
100
AcDbCircle
 10
14.000000000000
 20
113.500000000000
 30
 0
 40
3.000000000000
0
CIRCLE
  5
000000c5
 39
 0.100 
 100
AcDbEntity
8
contour007
 6
CONTINUOUS
100
AcDbCircle
 10
14.000000000000
 20
93.500000000000
 30
 0
 40
3.600000000000
0
CIRCLE
  5
000000c6
 39
 0.100 
 100
AcDbEntity
8
contour007
 6
CONTINUOUS
100
AcDbCircle
 10
34.000000000000
 20
93.500000000000
 30
 0
 40
3.600000000000
0
CIRCLE
  5
000000c7
 39
 0.100 
 100
AcDbEntity
8
contour007
 6
CONTINUOUS
100
AcDbCircle
 10
14.000000000000
 20
54.500000000000
 30
 0
 40
3.000000000000
0
CIRCLE
  5
000000c8
 39
 0.100 
 100
AcDbEntity
8
contour007
 6
CONTINUOUS
100
AcDbCircle
 10
14.000000000000
 20
34.500000000000
 30
 0
 40
3.600000000000
0
CIRCLE
  5
000000c9
 39
 0.100 
 100
AcDbEntity
8
contour007
 6
CONTINUOUS
100
AcDbCircle
 10
34.000000000000
 20
34.500000000000
 30
 0
 40
3.600000000000
0
CIRCLE
  5
000000ca
 39
 0.100 
 100
AcDbEntity
8
contour007
 6
CONTINUOUS
100
AcDbCircle
 10
54.000000000000
 20
73.500000000000
 30
 0
 40
3.600000000000
0
CIRCLE
  5
000000cb
 39
 0.100 
 100
AcDbEntity
8
contour007
 6
CONTINUOUS
100
AcDbCircle
 10
54.000000000000
 20
54.500000000000
 30
 0
 40
3.600000000000
0
CIRCLE
  5
000000cc
 39
 0.100 
 100
AcDbEntity
8
contour007
 6
CONTINUOUS
100
AcDbCircle
 10
56.000000000000
 20
113.500000000000
 30
 0
 40
3.600000000000
0
CIRCLE
  5
000000cd
 39
 0.100 
 100
AcDbEntity
8
contour007
 6
CONTINUOUS
100
AcDbCircle
 10
74.000000000000
 20
54.500000000000
 30
 0
 40
3.600000000000
0
CIRCLE
  5
000000ce
 39
 0.100 
 100
AcDbEntity
8
contour007
 6
CONTINUOUS
100
AcDbCircle
 10
66.000000000000
 20
16.500000000000
 30
 0
 40
3.600000000000
0
CIRCLE
  5
000000cf
 39
 0.100 
 100
AcDbEntity
8
contour007
 6
CONTINUOUS
100
AcDbCircle
 10
86.000000000000
 20
16.500000000000
 30
 0
 40
3.600000000000
0
CIRCLE
  5
000000d0
 39
 0.100 
 100
AcDbEntity
8
contour007
 6
CONTINUOUS
100
AcDbCircle
 10
99.000000000000
 20
113.500000000000
 30
 0
 40
3.600000000000
0
CIRCLE
  5
000000d1
 39
 0.100 
 100
AcDbEntity
8
contour007
 6
CONTINUOUS
100
AcDbCircle
 10
99.000000000000
 20
93.500000000000
 30
 0
 40
3.600000000000
0
CIRCLE
  5
000000d2
 39
 0.100 
 100
AcDbEntity
8
contour007
 6
CONTINUOUS
100
AcDbCircle
 10
99.000000000000
 20
73.500000000000
 30
 0
 40
3.600000000000
0
CIRCLE
  5
000000d3
 39
 0.100 
 100
AcDbEntity
8
contour007
 6
CONTINUOUS
100
AcDbCircle
 10
129.000000000000
 20
35.500000000000
 30
 0
 40
3.600000000000
0
CIRCLE
  5
000000d4
 39
 0.100 
 100
AcDbEntity
8
contour007
 6
CONTINUOUS
100
AcDbCircle
 10
149.000000000000
 20
35.500000000000
 30
 0
 40
3.600000000000
0
CIRCLE
  5
000000d5
 39
 0.100 
 100
AcDbEntity
8
contour007
 6
CONTINUOUS
100
AcDbCircle
 10
129.000000000000
 20
16.500000000000
 30
 0
 40
3.600000000000
0
CIRCLE
  5
000000d6
 39
 0.100 
 100
AcDbEntity
8
contour007
 6
CONTINUOUS
100
AcDbCircle
 10
149.000000000000
 20
16.500000000000
 30
 0
 40
3.600000000000
0
CIRCLE
  5
000000d7
 39
 0.100 
 100
AcDbEntity
8
contour007
 6
CONTINUOUS
100
AcDbCircle
 10
34.000000000000
 20
73.500000000000
 30
 0
 40
3.000000000000
0
CIRCLE
  5
000000d8
 39
 0.100 
 100
AcDbEntity
8
contour007
 6
CONTINUOUS
100
AcDbCircle
 10
34.000000000000
 20
54.500000000000
 30
 0
 40
3.000000000000
0
CIRCLE
  5
000000d9
 39
 0.100 
 100
AcDbEntity
8
contour007
 6
CONTINUOUS
100
AcDbCircle
 10
14.000000000000
 20
16.500000000000
 30
 0
 40
3.000000000000
0
CIRCLE
  5
000000da
 39
 0.100 
 100
AcDbEntity
8
contour007
 6
CONTINUOUS
100
AcDbCircle
 10
34.000000000000
 20
16.500000000000
 30
 0
 40
3.600000000000
0
CIRCLE
  5
000000db
 39
 0.100 
 100
AcDbEntity
8
contour007
 6
CONTINUOUS
100
AcDbCircle
 10
34.000000000000
 20
113.500000000000
 30
 0
 40
3.600000000000
0
CIRCLE
  5
000000dc
 39
 0.100 
 100
AcDbEntity
8
contour007
 6
CONTINUOUS
100
AcDbCircle
 10
56.000000000000
 20
33.500000000000
 30
 0
 40
3.000000000000
0
CIRCLE
  5
000000dd
 39
 0.100 
 100
AcDbEntity
8
contour007
 6
CONTINUOUS
100
AcDbCircle
 10
71.000000000000
 20
33.500000000000
 30
 0
 40
3.000000000000
0
CIRCLE
  5
000000de
 39
 0.100 
 100
AcDbEntity
8
contour007
 6
CONTINUOUS
100
AcDbCircle
 10
86.000000000000
 20
33.500000000000
 30
 0
 40
3.000000000000
0
CIRCLE
  5
000000df
 39
 0.100 
 100
AcDbEntity
8
contour007
 6
CONTINUOUS
100
AcDbCircle
 10
74.000000000000
 20
73.500000000000
 30
 0
 40
3.000000000000
0
CIRCLE
  5
000000e0
 39
 0.100 
 100
AcDbEntity
8
contour007
 6
CONTINUOUS
100
AcDbCircle
 10
94.000000000000
 20
54.500000000000
 30
 0
 40
3.000000000000
0
CIRCLE
  5
000000e1
 39
 0.100 
 100
AcDbEntity
8
contour007
 6
CONTINUOUS
100
AcDbCircle
 10
109.000000000000
 20
35.500000000000
 30
 0
 40
3.000000000000
0
CIRCLE
  5
000000e2
 39
 0.100 
 100
AcDbEntity
8
contour007
 6
CONTINUOUS
100
AcDbCircle
 10
109.000000000000
 20
16.500000000000
 30
 0
 40
3.000000000000
0
CIRCLE
  5
000000e3
 39
 0.100 
 100
AcDbEntity
8
contour007
 6
CONTINUOUS
100
AcDbCircle
 10
149.000000000000
 20
51.500000000000
 30
 0
 40
3.000000000000
0
CIRCLE
  5
000000e4
 39
 0.100 
 100
AcDbEntity
8
contour007
 6
CONTINUOUS
100
AcDbCircle
 10
118.000000000000
 20
113.500000000000
 30
 0
 40
3.000000000000
0
CIRCLE
  5
000000e5
 39
 0.100 
 100
AcDbEntity
8
contour007
 6
CONTINUOUS
100
AcDbCircle
 10
118.000000000000
 20
98.500000000000
 30
 0
 40
3.000000000000
0
CIRCLE
  5
000000e6
 39
 0.100 
 100
AcDbEntity
8
contour007
 6
CONTINUOUS
100
AcDbCircle
 10
118.000000000000
 20
83.500000000000
 30
 0
 40
3.000000000000
0
CIRCLE
  5
000000e7
 39
 0.100 
 100
AcDbEntity
8
contour007
 6
CONTINUOUS
100
AcDbCircle
 10
118.000000000000
 20
68.500000000000
 30
 0
 40
3.000000000000
0
CIRCLE
  5
000000e8
 39
 0.100 
 100
AcDbEntity
8
contour007
 6
CONTINUOUS
100
AcDbCircle
 10
134.000000000000
 20
113.500000000000
 30
 0
 40
3.000000000000
0
CIRCLE
  5
000000e9
 39
 0.100 
 100
AcDbEntity
8
contour007
 6
CONTINUOUS
100
AcDbCircle
 10
134.000000000000
 20
98.500000000000
 30
 0
 40
3.000000000000
0
CIRCLE
  5
000000ea
 39
 0.100 
 100
AcDbEntity
8
contour007
 6
CONTINUOUS
100
AcDbCircle
 10
134.000000000000
 20
83.500000000000
 30
 0
 40
3.000000000000
0
CIRCLE
  5
000000eb
 39
 0.100 
 100
AcDbEntity
8
contour007
 6
CONTINUOUS
100
AcDbCircle
 10
149.000000000000
 20
113.500000000000
 30
 0
 40
3.000000000000
0
CIRCLE
  5
000000ec
 39
 0.100 
 100
AcDbEntity
8
contour007
 6
CONTINUOUS
100
AcDbCircle
 10
149.000000000000
 20
98.500000000000
 30
 0
 40
3.000000000000
0
CIRCLE
  5
000000ed
 39
 0.100 
 100
AcDbEntity
8
contour007
 6
CONTINUOUS
100
AcDbCircle
 10
149.000000000000
 20
83.500000000000
 30
 0
 40
3.000000000000
0
CIRCLE
  5
000000ee
 39
 0.100 
 100
AcDbEntity
8
contour007
 6
CONTINUOUS
100
AcDbCircle
 10
149.000000000000
 20
68.500000000000
 30
 0
 40
3.000000000000
0
CIRCLE
  5
000000ef
 39
 0.100 
 100
AcDbEntity
8
contour007
 6
CONTINUOUS
100
AcDbCircle
 10
77.000000000000
 20
113.500000000000
 30
 0
 40
3.600000000000
0
LINE
  5
000000f0
 39
 0.100 
 100
AcDbEntity
8
reference_cross001
 6
CONTINUOUS
 100
AcDbLine
 10
13.250000000000
 20
125.500000000000
 30
 0.0
 11
11.750000000000
 21
125.500000000000
 31
0.0
0
LINE
  5
000000f1
 39
 0.100 
 100
AcDbEntity
8
reference_cross001
 6
CONTINUOUS
 100
AcDbLine
 10
12.500000000000
 20
124.750000000000
 30
 0.0
 11
12.500000000000
 21
126.250000000000
 31
0.0
0
LINE
  5
000000f2
 39
 0.100 
 100
AcDbEntity
8
reference_cross001
 6
CONTINUOUS
 100
AcDbLine
 10
14.750000000000
 20
73.500000000000
 30
 0.0
 11
13.250000000000
 21
73.500000000000
 31
0.0
0
LINE
  5
000000f3
 39
 0.100 
 100
AcDbEntity
8
reference_cross001
 6
CONTINUOUS
 100
AcDbLine
 10
14.000000000000
 20
72.750000000000
 30
 0.0
 11
14.000000000000
 21
74.250000000000
 31
0.0
0
LINE
  5
000000f4
 39
 0.100 
 100
AcDbEntity
8
reference_cross001
 6
CONTINUOUS
 100
AcDbLine
 10
150.250000000000
 20
125.500000000000
 30
 0.0
 11
148.750000000000
 21
125.500000000000
 31
0.0
0
LINE
  5
000000f5
 39
 0.100 
 100
AcDbEntity
8
reference_cross001
 6
CONTINUOUS
 100
AcDbLine
 10
149.500000000000
 20
124.750000000000
 30
 0.0
 11
149.500000000000
 21
126.250000000000
 31
0.0
0
LINE
  5
000000f6
 39
 0.100 
 100
AcDbEntity
8
reference_cross001
 6
CONTINUOUS
 100
AcDbLine
 10
13.250000000000
 20
3.000000000000
 30
 0.0
 11
11.750000000000
 21
3.000000000000
 31
0.0
0
LINE
  5
000000f7
 39
 0.100 
 100
AcDbEntity
8
reference_cross001
 6
CONTINUOUS
 100
AcDbLine
 10
12.500000000000
 20
2.250000000000
 30
 0.0
 11
12.500000000000
 21
3.750000000000
 31
0.0
0
LINE
  5
000000f8
 39
 0.100 
 100
AcDbEntity
8
reference_cross001
 6
CONTINUOUS
 100
AcDbLine
 10
150.250000000000
 20
3.000000000000
 30
 0.0
 11
148.750000000000
 21
3.000000000000
 31
0.0
0
LINE
  5
000000f9
 39
 0.100 
 100
AcDbEntity
8
reference_cross001
 6
CONTINUOUS
 100
AcDbLine
 10
149.500000000000
 20
2.250000000000
 30
 0.0
 11
149.500000000000
 21
3.750000000000
 31
0.0
0
LINE
  5
000000fa
 39
 0.100 
 100
AcDbEntity
8
reference_cross001
 6
CONTINUOUS
 100
AcDbLine
 10
14.750000000000
 20
113.500000000000
 30
 0.0
 11
13.250000000000
 21
113.500000000000
 31
0.0
0
LINE
  5
000000fb
 39
 0.100 
 100
AcDbEntity
8
reference_cross001
 6
CONTINUOUS
 100
AcDbLine
 10
14.000000000000
 20
112.750000000000
 30
 0.0
 11
14.000000000000
 21
114.250000000000
 31
0.0
0
LINE
  5
000000fc
 39
 0.100 
 100
AcDbEntity
8
reference_cross001
 6
CONTINUOUS
 100
AcDbLine
 10
14.750000000000
 20
93.500000000000
 30
 0.0
 11
13.250000000000
 21
93.500000000000
 31
0.0
0
LINE
  5
000000fd
 39
 0.100 
 100
AcDbEntity
8
reference_cross001
 6
CONTINUOUS
 100
AcDbLine
 10
14.000000000000
 20
92.750000000000
 30
 0.0
 11
14.000000000000
 21
94.250000000000
 31
0.0
0
LINE
  5
000000fe
 39
 0.100 
 100
AcDbEntity
8
reference_cross001
 6
CONTINUOUS
 100
AcDbLine
 10
34.750000000000
 20
93.500000000000
 30
 0.0
 11
33.250000000000
 21
93.500000000000
 31
0.0
0
LINE
  5
000000ff
 39
 0.100 
 100
AcDbEntity
8
reference_cross001
 6
CONTINUOUS
 100
AcDbLine
 10
34.000000000000
 20
92.750000000000
 30
 0.0
 11
34.000000000000
 21
94.250000000000
 31
0.0
0
LINE
  5
00000100
 39
 0.100 
 100
AcDbEntity
8
reference_cross001
 6
CONTINUOUS
 100
AcDbLine
 10
14.750000000000
 20
54.500000000000
 30
 0.0
 11
13.250000000000
 21
54.500000000000
 31
0.0
0
LINE
  5
00000101
 39
 0.100 
 100
AcDbEntity
8
reference_cross001
 6
CONTINUOUS
 100
AcDbLine
 10
14.000000000000
 20
53.750000000000
 30
 0.0
 11
14.000000000000
 21
55.250000000000
 31
0.0
0
LINE
  5
00000102
 39
 0.100 
 100
AcDbEntity
8
reference_cross001
 6
CONTINUOUS
 100
AcDbLine
 10
14.750000000000
 20
34.500000000000
 30
 0.0
 11
13.250000000000
 21
34.500000000000
 31
0.0
0
LINE
  5
00000103
 39
 0.100 
 100
AcDbEntity
8
reference_cross001
 6
CONTINUOUS
 100
AcDbLine
 10
14.000000000000
 20
33.750000000000
 30
 0.0
 11
14.000000000000
 21
35.250000000000
 31
0.0
0
LINE
  5
00000104
 39
 0.100 
 100
AcDbEntity
8
reference_cross001
 6
CONTINUOUS
 100
AcDbLine
 10
34.750000000000
 20
34.500000000000
 30
 0.0
 11
33.250000000000
 21
34.500000000000
 31
0.0
0
LINE
  5
00000105
 39
 0.100 
 100
AcDbEntity
8
reference_cross001
 6
CONTINUOUS
 100
AcDbLine
 10
34.000000000000
 20
33.750000000000
 30
 0.0
 11
34.000000000000
 21
35.250000000000
 31
0.0
0
LINE
  5
00000106
 39
 0.100 
 100
AcDbEntity
8
reference_cross001
 6
CONTINUOUS
 100
AcDbLine
 10
54.750000000000
 20
73.500000000000
 30
 0.0
 11
53.250000000000
 21
73.500000000000
 31
0.0
0
LINE
  5
00000107
 39
 0.100 
 100
AcDbEntity
8
reference_cross001
 6
CONTINUOUS
 100
AcDbLine
 10
54.000000000000
 20
72.750000000000
 30
 0.0
 11
54.000000000000
 21
74.250000000000
 31
0.0
0
LINE
  5
00000108
 39
 0.100 
 100
AcDbEntity
8
reference_cross001
 6
CONTINUOUS
 100
AcDbLine
 10
54.750000000000
 20
54.500000000000
 30
 0.0
 11
53.250000000000
 21
54.500000000000
 31
0.0
0
LINE
  5
00000109
 39
 0.100 
 100
AcDbEntity
8
reference_cross001
 6
CONTINUOUS
 100
AcDbLine
 10
54.000000000000
 20
53.750000000000
 30
 0.0
 11
54.000000000000
 21
55.250000000000
 31
0.0
0
LINE
  5
0000010a
 39
 0.100 
 100
AcDbEntity
8
reference_cross001
 6
CONTINUOUS
 100
AcDbLine
 10
56.750000000000
 20
113.500000000000
 30
 0.0
 11
55.250000000000
 21
113.500000000000
 31
0.0
0
LINE
  5
0000010b
 39
 0.100 
 100
AcDbEntity
8
reference_cross001
 6
CONTINUOUS
 100
AcDbLine
 10
56.000000000000
 20
112.750000000000
 30
 0.0
 11
56.000000000000
 21
114.250000000000
 31
0.0
0
LINE
  5
0000010c
 39
 0.100 
 100
AcDbEntity
8
reference_cross001
 6
CONTINUOUS
 100
AcDbLine
 10
74.750000000000
 20
54.500000000000
 30
 0.0
 11
73.250000000000
 21
54.500000000000
 31
0.0
0
LINE
  5
0000010d
 39
 0.100 
 100
AcDbEntity
8
reference_cross001
 6
CONTINUOUS
 100
AcDbLine
 10
74.000000000000
 20
53.750000000000
 30
 0.0
 11
74.000000000000
 21
55.250000000000
 31
0.0
0
LINE
  5
0000010e
 39
 0.100 
 100
AcDbEntity
8
reference_cross001
 6
CONTINUOUS
 100
AcDbLine
 10
66.750000000000
 20
16.500000000000
 30
 0.0
 11
65.250000000000
 21
16.500000000000
 31
0.0
0
LINE
  5
0000010f
 39
 0.100 
 100
AcDbEntity
8
reference_cross001
 6
CONTINUOUS
 100
AcDbLine
 10
66.000000000000
 20
15.750000000000
 30
 0.0
 11
66.000000000000
 21
17.250000000000
 31
0.0
0
LINE
  5
00000110
 39
 0.100 
 100
AcDbEntity
8
reference_cross001
 6
CONTINUOUS
 100
AcDbLine
 10
86.750000000000
 20
16.500000000000
 30
 0.0
 11
85.250000000000
 21
16.500000000000
 31
0.0
0
LINE
  5
00000111
 39
 0.100 
 100
AcDbEntity
8
reference_cross001
 6
CONTINUOUS
 100
AcDbLine
 10
86.000000000000
 20
15.750000000000
 30
 0.0
 11
86.000000000000
 21
17.250000000000
 31
0.0
0
LINE
  5
00000112
 39
 0.100 
 100
AcDbEntity
8
reference_cross001
 6
CONTINUOUS
 100
AcDbLine
 10
99.750000000000
 20
113.500000000000
 30
 0.0
 11
98.250000000000
 21
113.500000000000
 31
0.0
0
LINE
  5
00000113
 39
 0.100 
 100
AcDbEntity
8
reference_cross001
 6
CONTINUOUS
 100
AcDbLine
 10
99.000000000000
 20
112.750000000000
 30
 0.0
 11
99.000000000000
 21
114.250000000000
 31
0.0
0
LINE
  5
00000114
 39
 0.100 
 100
AcDbEntity
8
reference_cross001
 6
CONTINUOUS
 100
AcDbLine
 10
99.750000000000
 20
93.500000000000
 30
 0.0
 11
98.250000000000
 21
93.500000000000
 31
0.0
0
LINE
  5
00000115
 39
 0.100 
 100
AcDbEntity
8
reference_cross001
 6
CONTINUOUS
 100
AcDbLine
 10
99.000000000000
 20
92.750000000000
 30
 0.0
 11
99.000000000000
 21
94.250000000000
 31
0.0
0
LINE
  5
00000116
 39
 0.100 
 100
AcDbEntity
8
reference_cross001
 6
CONTINUOUS
 100
AcDbLine
 10
99.750000000000
 20
73.500000000000
 30
 0.0
 11
98.250000000000
 21
73.500000000000
 31
0.0
0
LINE
  5
00000117
 39
 0.100 
 100
AcDbEntity
8
reference_cross001
 6
CONTINUOUS
 100
AcDbLine
 10
99.000000000000
 20
72.750000000000
 30
 0.0
 11
99.000000000000
 21
74.250000000000
 31
0.0
0
LINE
  5
00000118
 39
 0.100 
 100
AcDbEntity
8
reference_cross001
 6
CONTINUOUS
 100
AcDbLine
 10
129.750000000000
 20
35.500000000000
 30
 0.0
 11
128.250000000000
 21
35.500000000000
 31
0.0
0
LINE
  5
00000119
 39
 0.100 
 100
AcDbEntity
8
reference_cross001
 6
CONTINUOUS
 100
AcDbLine
 10
129.000000000000
 20
34.750000000000
 30
 0.0
 11
129.000000000000
 21
36.250000000000
 31
0.0
0
LINE
  5
0000011a
 39
 0.100 
 100
AcDbEntity
8
reference_cross001
 6
CONTINUOUS
 100
AcDbLine
 10
149.750000000000
 20
35.500000000000
 30
 0.0
 11
148.250000000000
 21
35.500000000000
 31
0.0
0
LINE
  5
0000011b
 39
 0.100 
 100
AcDbEntity
8
reference_cross001
 6
CONTINUOUS
 100
AcDbLine
 10
149.000000000000
 20
34.750000000000
 30
 0.0
 11
149.000000000000
 21
36.250000000000
 31
0.0
0
LINE
  5
0000011c
 39
 0.100 
 100
AcDbEntity
8
reference_cross001
 6
CONTINUOUS
 100
AcDbLine
 10
129.750000000000
 20
16.500000000000
 30
 0.0
 11
128.250000000000
 21
16.500000000000
 31
0.0
0
LINE
  5
0000011d
 39
 0.100 
 100
AcDbEntity
8
reference_cross001
 6
CONTINUOUS
 100
AcDbLine
 10
129.000000000000
 20
15.750000000000
 30
 0.0
 11
129.000000000000
 21
17.250000000000
 31
0.0
0
LINE
  5
0000011e
 39
 0.100 
 100
AcDbEntity
8
reference_cross001
 6
CONTINUOUS
 100
AcDbLine
 10
149.750000000000
 20
16.500000000000
 30
 0.0
 11
148.250000000000
 21
16.500000000000
 31
0.0
0
LINE
  5
0000011f
 39
 0.100 
 100
AcDbEntity
8
reference_cross001
 6
CONTINUOUS
 100
AcDbLine
 10
149.000000000000
 20
15.750000000000
 30
 0.0
 11
149.000000000000
 21
17.250000000000
 31
0.0
0
LINE
  5
00000120
 39
 0.100 
 100
AcDbEntity
8
reference_cross001
 6
CONTINUOUS
 100
AcDbLine
 10
34.750000000000
 20
73.500000000000
 30
 0.0
 11
33.250000000000
 21
73.500000000000
 31
0.0
0
LINE
  5
00000121
 39
 0.100 
 100
AcDbEntity
8
reference_cross001
 6
CONTINUOUS
 100
AcDbLine
 10
34.000000000000
 20
72.750000000000
 30
 0.0
 11
34.000000000000
 21
74.250000000000
 31
0.0
0
LINE
  5
00000122
 39
 0.100 
 100
AcDbEntity
8
reference_cross001
 6
CONTINUOUS
 100
AcDbLine
 10
34.750000000000
 20
54.500000000000
 30
 0.0
 11
33.250000000000
 21
54.500000000000
 31
0.0
0
LINE
  5
00000123
 39
 0.100 
 100
AcDbEntity
8
reference_cross001
 6
CONTINUOUS
 100
AcDbLine
 10
34.000000000000
 20
53.750000000000
 30
 0.0
 11
34.000000000000
 21
55.250000000000
 31
0.0
0
LINE
  5
00000124
 39
 0.100 
 100
AcDbEntity
8
reference_cross001
 6
CONTINUOUS
 100
AcDbLine
 10
14.750000000000
 20
16.500000000000
 30
 0.0
 11
13.250000000000
 21
16.500000000000
 31
0.0
0
LINE
  5
00000125
 39
 0.100 
 100
AcDbEntity
8
reference_cross001
 6
CONTINUOUS
 100
AcDbLine
 10
14.000000000000
 20
15.750000000000
 30
 0.0
 11
14.000000000000
 21
17.250000000000
 31
0.0
0
LINE
  5
00000126
 39
 0.100 
 100
AcDbEntity
8
reference_cross001
 6
CONTINUOUS
 100
AcDbLine
 10
34.750000000000
 20
16.500000000000
 30
 0.0
 11
33.250000000000
 21
16.500000000000
 31
0.0
0
LINE
  5
00000127
 39
 0.100 
 100
AcDbEntity
8
reference_cross001
 6
CONTINUOUS
 100
AcDbLine
 10
34.000000000000
 20
15.750000000000
 30
 0.0
 11
34.000000000000
 21
17.250000000000
 31
0.0
0
LINE
  5
00000128
 39
 0.100 
 100
AcDbEntity
8
reference_cross001
 6
CONTINUOUS
 100
AcDbLine
 10
34.750000000000
 20
113.500000000000
 30
 0.0
 11
33.250000000000
 21
113.500000000000
 31
0.0
0
LINE
  5
00000129
 39
 0.100 
 100
AcDbEntity
8
reference_cross001
 6
CONTINUOUS
 100
AcDbLine
 10
34.000000000000
 20
112.750000000000
 30
 0.0
 11
34.000000000000
 21
114.250000000000
 31
0.0
0
LINE
  5
0000012a
 39
 0.100 
 100
AcDbEntity
8
reference_cross001
 6
CONTINUOUS
 100
AcDbLine
 10
56.750000000000
 20
33.500000000000
 30
 0.0
 11
55.250000000000
 21
33.500000000000
 31
0.0
0
LINE
  5
0000012b
 39
 0.100 
 100
AcDbEntity
8
reference_cross001
 6
CONTINUOUS
 100
AcDbLine
 10
56.000000000000
 20
32.750000000000
 30
 0.0
 11
56.000000000000
 21
34.250000000000
 31
0.0
0
LINE
  5
0000012c
 39
 0.100 
 100
AcDbEntity
8
reference_cross001
 6
CONTINUOUS
 100
AcDbLine
 10
71.750000000000
 20
33.500000000000
 30
 0.0
 11
70.250000000000
 21
33.500000000000
 31
0.0
0
LINE
  5
0000012d
 39
 0.100 
 100
AcDbEntity
8
reference_cross001
 6
CONTINUOUS
 100
AcDbLine
 10
71.000000000000
 20
32.750000000000
 30
 0.0
 11
71.000000000000
 21
34.250000000000
 31
0.0
0
LINE
  5
0000012e
 39
 0.100 
 100
AcDbEntity
8
reference_cross001
 6
CONTINUOUS
 100
AcDbLine
 10
86.750000000000
 20
33.500000000000
 30
 0.0
 11
85.250000000000
 21
33.500000000000
 31
0.0
0
LINE
  5
0000012f
 39
 0.100 
 100
AcDbEntity
8
reference_cross001
 6
CONTINUOUS
 100
AcDbLine
 10
86.000000000000
 20
32.750000000000
 30
 0.0
 11
86.000000000000
 21
34.250000000000
 31
0.0
0
LINE
  5
00000130
 39
 0.100 
 100
AcDbEntity
8
reference_cross001
 6
CONTINUOUS
 100
AcDbLine
 10
74.750000000000
 20
73.500000000000
 30
 0.0
 11
73.250000000000
 21
73.500000000000
 31
0.0
0
LINE
  5
00000131
 39
 0.100 
 100
AcDbEntity
8
reference_cross001
 6
CONTINUOUS
 100
AcDbLine
 10
74.000000000000
 20
72.750000000000
 30
 0.0
 11
74.000000000000
 21
74.250000000000
 31
0.0
0
LINE
  5
00000132
 39
 0.100 
 100
AcDbEntity
8
reference_cross001
 6
CONTINUOUS
 100
AcDbLine
 10
94.750000000000
 20
54.500000000000
 30
 0.0
 11
93.250000000000
 21
54.500000000000
 31
0.0
0
LINE
  5
00000133
 39
 0.100 
 100
AcDbEntity
8
reference_cross001
 6
CONTINUOUS
 100
AcDbLine
 10
94.000000000000
 20
53.750000000000
 30
 0.0
 11
94.000000000000
 21
55.250000000000
 31
0.0
0
LINE
  5
00000134
 39
 0.100 
 100
AcDbEntity
8
reference_cross001
 6
CONTINUOUS
 100
AcDbLine
 10
109.750000000000
 20
35.500000000000
 30
 0.0
 11
108.250000000000
 21
35.500000000000
 31
0.0
0
LINE
  5
00000135
 39
 0.100 
 100
AcDbEntity
8
reference_cross001
 6
CONTINUOUS
 100
AcDbLine
 10
109.000000000000
 20
34.750000000000
 30
 0.0
 11
109.000000000000
 21
36.250000000000
 31
0.0
0
LINE
  5
00000136
 39
 0.100 
 100
AcDbEntity
8
reference_cross001
 6
CONTINUOUS
 100
AcDbLine
 10
109.750000000000
 20
16.500000000000
 30
 0.0
 11
108.250000000000
 21
16.500000000000
 31
0.0
0
LINE
  5
00000137
 39
 0.100 
 100
AcDbEntity
8
reference_cross001
 6
CONTINUOUS
 100
AcDbLine
 10
109.000000000000
 20
15.750000000000
 30
 0.0
 11
109.000000000000
 21
17.250000000000
 31
0.0
0
LINE
  5
00000138
 39
 0.100 
 100
AcDbEntity
8
reference_cross001
 6
CONTINUOUS
 100
AcDbLine
 10
149.750000000000
 20
51.500000000000
 30
 0.0
 11
148.250000000000
 21
51.500000000000
 31
0.0
0
LINE
  5
00000139
 39
 0.100 
 100
AcDbEntity
8
reference_cross001
 6
CONTINUOUS
 100
AcDbLine
 10
149.000000000000
 20
50.750000000000
 30
 0.0
 11
149.000000000000
 21
52.250000000000
 31
0.0
0
LINE
  5
0000013a
 39
 0.100 
 100
AcDbEntity
8
reference_cross001
 6
CONTINUOUS
 100
AcDbLine
 10
118.750000000000
 20
113.500000000000
 30
 0.0
 11
117.250000000000
 21
113.500000000000
 31
0.0
0
LINE
  5
0000013b
 39
 0.100 
 100
AcDbEntity
8
reference_cross001
 6
CONTINUOUS
 100
AcDbLine
 10
118.000000000000
 20
112.750000000000
 30
 0.0
 11
118.000000000000
 21
114.250000000000
 31
0.0
0
LINE
  5
0000013c
 39
 0.100 
 100
AcDbEntity
8
reference_cross001
 6
CONTINUOUS
 100
AcDbLine
 10
118.750000000000
 20
98.500000000000
 30
 0.0
 11
117.250000000000
 21
98.500000000000
 31
0.0
0
LINE
  5
0000013d
 39
 0.100 
 100
AcDbEntity
8
reference_cross001
 6
CONTINUOUS
 100
AcDbLine
 10
118.000000000000
 20
97.750000000000
 30
 0.0
 11
118.000000000000
 21
99.250000000000
 31
0.0
0
LINE
  5
0000013e
 39
 0.100 
 100
AcDbEntity
8
reference_cross001
 6
CONTINUOUS
 100
AcDbLine
 10
118.750000000000
 20
83.500000000000
 30
 0.0
 11
117.250000000000
 21
83.500000000000
 31
0.0
0
LINE
  5
0000013f
 39
 0.100 
 100
AcDbEntity
8
reference_cross001
 6
CONTINUOUS
 100
AcDbLine
 10
118.000000000000
 20
82.750000000000
 30
 0.0
 11
118.000000000000
 21
84.250000000000
 31
0.0
0
LINE
  5
00000140
 39
 0.100 
 100
AcDbEntity
8
reference_cross001
 6
CONTINUOUS
 100
AcDbLine
 10
118.750000000000
 20
68.500000000000
 30
 0.0
 11
117.250000000000
 21
68.500000000000
 31
0.0
0
LINE
  5
00000141
 39
 0.100 
 100
AcDbEntity
8
reference_cross001
 6
CONTINUOUS
 100
AcDbLine
 10
118.000000000000
 20
67.750000000000
 30
 0.0
 11
118.000000000000
 21
69.250000000000
 31
0.0
0
LINE
  5
00000142
 39
 0.100 
 100
AcDbEntity
8
reference_cross001
 6
CONTINUOUS
 100
AcDbLine
 10
134.750000000000
 20
113.500000000000
 30
 0.0
 11
133.250000000000
 21
113.500000000000
 31
0.0
0
LINE
  5
00000143
 39
 0.100 
 100
AcDbEntity
8
reference_cross001
 6
CONTINUOUS
 100
AcDbLine
 10
134.000000000000
 20
112.750000000000
 30
 0.0
 11
134.000000000000
 21
114.250000000000
 31
0.0
0
LINE
  5
00000144
 39
 0.100 
 100
AcDbEntity
8
reference_cross001
 6
CONTINUOUS
 100
AcDbLine
 10
134.750000000000
 20
98.500000000000
 30
 0.0
 11
133.250000000000
 21
98.500000000000
 31
0.0
0
LINE
  5
00000145
 39
 0.100 
 100
AcDbEntity
8
reference_cross001
 6
CONTINUOUS
 100
AcDbLine
 10
134.000000000000
 20
97.750000000000
 30
 0.0
 11
134.000000000000
 21
99.250000000000
 31
0.0
0
LINE
  5
00000146
 39
 0.100 
 100
AcDbEntity
8
reference_cross001
 6
CONTINUOUS
 100
AcDbLine
 10
134.750000000000
 20
83.500000000000
 30
 0.0
 11
133.250000000000
 21
83.500000000000
 31
0.0
0
LINE
  5
00000147
 39
 0.100 
 100
AcDbEntity
8
reference_cross001
 6
CONTINUOUS
 100
AcDbLine
 10
134.000000000000
 20
82.750000000000
 30
 0.0
 11
134.000000000000
 21
84.250000000000
 31
0.0
0
LINE
  5
00000148
 39
 0.100 
 100
AcDbEntity
8
reference_cross001
 6
CONTINUOUS
 100
AcDbLine
 10
149.750000000000
 20
113.500000000000
 30
 0.0
 11
148.250000000000
 21
113.500000000000
 31
0.0
0
LINE
  5
00000149
 39
 0.100 
 100
AcDbEntity
8
reference_cross001
 6
CONTINUOUS
 100
AcDbLine
 10
149.000000000000
 20
112.750000000000
 30
 0.0
 11
149.000000000000
 21
114.250000000000
 31
0.0
0
LINE
  5
0000014a
 39
 0.100 
 100
AcDbEntity
8
reference_cross001
 6
CONTINUOUS
 100
AcDbLine
 10
149.750000000000
 20
98.500000000000
 30
 0.0
 11
148.250000000000
 21
98.500000000000
 31
0.0
0
LINE
  5
0000014b
 39
 0.100 
 100
AcDbEntity
8
reference_cross001
 6
CONTINUOUS
 100
AcDbLine
 10
149.000000000000
 20
97.750000000000
 30
 0.0
 11
149.000000000000
 21
99.250000000000
 31
0.0
0
LINE
  5
0000014c
 39
 0.100 
 100
AcDbEntity
8
reference_cross001
 6
CONTINUOUS
 100
AcDbLine
 10
149.750000000000
 20
83.500000000000
 30
 0.0
 11
148.250000000000
 21
83.500000000000
 31
0.0
0
LINE
  5
0000014d
 39
 0.100 
 100
AcDbEntity
8
reference_cross001
 6
CONTINUOUS
 100
AcDbLine
 10
149.000000000000
 20
82.750000000000
 30
 0.0
 11
149.000000000000
 21
84.250000000000
 31
0.0
0
LINE
  5
0000014e
 39
 0.100 
 100
AcDbEntity
8
reference_cross001
 6
CONTINUOUS
 100
AcDbLine
 10
149.750000000000
 20
68.500000000000
 30
 0.0
 11
148.250000000000
 21
68.500000000000
 31
0.0
0
LINE
  5
0000014f
 39
 0.100 
 100
AcDbEntity
8
reference_cross001
 6
CONTINUOUS
 100
AcDbLine
 10
149.000000000000
 20
67.750000000000
 30
 0.0
 11
149.000000000000
 21
69.250000000000
 31
0.0
0
LINE
  5
00000150
 39
 0.100 
 100
AcDbEntity
8
reference_cross001
 6
CONTINUOUS
 100
AcDbLine
 10
77.750000000000
 20
113.500000000000
 30
 0.0
 11
76.250000000000
 21
113.500000000000
 31
0.0
0
LINE
  5
00000151
 39
 0.100 
 100
AcDbEntity
8
reference_cross001
 6
CONTINUOUS
 100
AcDbLine
 10
77.000000000000
 20
112.750000000000
 30
 0.0
 11
77.000000000000
 21
114.250000000000
 31
0.0
0
ENDSEC
0
SECTION
2
OBJECTS
0
DICTIONARY
5
C
330
0
100
AcDbDictionary
281
1
3
ACAD_GROUP
350
D
0
DICTIONARY
5
D
330
C
100
AcDbDictionary
281
1
0
ENDSEC
0
EOF
