<?xml version="1.0" standalone="no"?>
<!DOCTYPE svg PUBLIC "-//W3C//DTD SVG 1.1//EN"
  "http://www.w3.org/Graphics/SVG/1.1/DTD/svg11.dtd">
<svg width="152.000mm" height="128.500mm" version="1.1"
     viewBox="0 0 152.000 128.500"
     xmlns="http://www.w3.org/2000/svg"  xmlns:xlink="http://www.w3.org/1999/xlink"
     xmlns:fpd="http://www.schaeffer-ag.de">
  <desc>Created with the Front Panel Designer by the export of the file 'ouroboros-panel.fpd'.</desc>
  <defs>
    <pattern id="revside-fill" x="1" y="1" width="1.520" height="1.520" patternUnits="userSpaceOnUse">
      <line x1="0" y1="0" x2="1.520" y2="1.520" style="stroke-width:0.152; stroke:black; stroke-dasharray:none;" />
      <line x1="0" y1="1.520" x2="1.520" y2="0" style="stroke-width:0.152; stroke:black; stroke-dasharray:none;" />
    </pattern>
    <pattern id="revside-fill-silver" x="1" y="1" width="1.520" height="1.520" patternUnits="userSpaceOnUse">
      <line x1="0" y1="0" x2="1.520" y2="1.520" style="stroke-width:0.152; stroke:#e0e0e0; stroke-dasharray:none;" />
      <line x1="0" y1="1.520" x2="1.520" y2="0" style="stroke-width:0.152; stroke:#e0e0e0; stroke-dasharray:none;" />
    </pattern>
  </defs>
<g transform="scale(1,-1) translate( -0.000, -128.500)"
   fill-rule="evenodd"
   style="stroke-linecap:round; stroke-linejoin:round; stroke-opacity:1.0; stroke-opacity:1.0;">
<path d="
M152.000 128.500
L152.000 0.000
L0.000 0.000
L0.000 128.500
L152.000 128.500
"
fill="#c0c0c0" fill-opacity="1.000000" vector-effect="non-scaling-stroke" stroke="#000000" stroke-width="0.100mm" stroke-opacity="1.000000" fpd:visible="front back" />
<path d="
M4.542 126.000
A3.000,3.000 0 0,1 4.542,125.000
A1.200,1.200 0 0,1 5.725,124.000
L9.275 124.000
A1.200,1.200 0 0,1 10.458,125.000
A3.000,3.000 0 0,1 10.458,126.000
A1.200,1.200 0 0,1 9.275,127.000
L5.725 127.000
A1.200,1.200 0 0,1 4.542,126.000
"
fill="#ffffff" fill-opacity="1.000000" vector-effect="non-scaling-stroke" stroke="#000000" stroke-width="0.100mm" stroke-opacity="1.000000" fpd:visible="front back" fpd:print_element="0" />
<path d="
M6.000 73.500
A3.000,3.000 0 1,0 12.000,73.500
A3.000,3.000 0 1,0 6.000,73.500
"
fill="#ffffff" fill-opacity="1.000000" vector-effect="non-scaling-stroke" stroke="#000000" stroke-width="0.100mm" stroke-opacity="1.000000" fpd:visible="front back" fpd:print_element="0" />
<path d="
M141.542 126.000
A3.000,3.000 0 0,1 141.542,125.000
A1.200,1.200 0 0,1 142.725,124.000
L146.275 124.000
A1.200,1.200 0 0,1 147.458,125.000
A3.000,3.000 0 0,1 147.458,126.000
A1.200,1.200 0 0,1 146.275,127.000
L142.725 127.000
A1.200,1.200 0 0,1 141.542,126.000
"
fill="#ffffff" fill-opacity="1.000000" vector-effect="non-scaling-stroke" stroke="#000000" stroke-width="0.100mm" stroke-opacity="1.000000" fpd:visible="front back" fpd:print_element="0" />
<path d="
M4.542 3.500
A3.000,3.000 0 0,1 4.542,2.500
A1.200,1.200 0 0,1 5.725,1.500
L9.275 1.500
A1.200,1.200 0 0,1 10.458,2.500
A3.000,3.000 0 0,1 10.458,3.500
A1.200,1.200 0 0,1 9.275,4.500
L5.725 4.500
A1.200,1.200 0 0,1 4.542,3.500
"
fill="#ffffff" fill-opacity="1.000000" vector-effect="non-scaling-stroke" stroke="#000000" stroke-width="0.100mm" stroke-opacity="1.000000" fpd:visible="front back" fpd:print_element="0" />
<path d="
M141.542 3.500
A3.000,3.000 0 0,1 141.542,2.500
A1.200,1.200 0 0,1 142.725,1.500
L146.275 1.500
A1.200,1.200 0 0,1 147.458,2.500
A3.000,3.000 0 0,1 147.458,3.500
A1.200,1.200 0 0,1 146.275,4.500
L142.725 4.500
A1.200,1.200 0 0,1 141.542,3.500
"
fill="#ffffff" fill-opacity="1.000000" vector-effect="non-scaling-stroke" stroke="#000000" stroke-width="0.100mm" stroke-opacity="1.000000" fpd:visible="front back" fpd:print_element="0" />
<path d="
M5.400 113.500
A3.600,3.600 0 1,0 12.600,113.500
A3.600,3.600 0 1,0 5.400,113.500
"
fill="#ffffff" fill-opacity="1.000000" vector-effect="non-scaling-stroke" stroke="#000000" stroke-width="0.100mm" stroke-opacity="1.000000" fpd:visible="front back" fpd:print_element="0" />
<path d="
M5.400 93.500
A3.600,3.600 0 1,0 12.600,93.500
A3.600,3.600 0 1,0 5.400,93.500
"
fill="#ffffff" fill-opacity="1.000000" vector-effect="non-scaling-stroke" stroke="#000000" stroke-width="0.100mm" stroke-opacity="1.000000" fpd:visible="front back" fpd:print_element="0" />
<path d="
M25.400 93.500
A3.600,3.600 0 1,0 32.600,93.500
A3.600,3.600 0 1,0 25.400,93.500
"
fill="#ffffff" fill-opacity="1.000000" vector-effect="non-scaling-stroke" stroke="#000000" stroke-width="0.100mm" stroke-opacity="1.000000" fpd:visible="front back" fpd:print_element="0" />
<path d="
M5.400 54.500
A3.600,3.600 0 1,0 12.600,54.500
A3.600,3.600 0 1,0 5.400,54.500
"
fill="#ffffff" fill-opacity="1.000000" vector-effect="non-scaling-stroke" stroke="#000000" stroke-width="0.100mm" stroke-opacity="1.000000" fpd:visible="front back" fpd:print_element="0" />
<path d="
M5.400 34.500
A3.600,3.600 0 1,0 12.600,34.500
A3.600,3.600 0 1,0 5.400,34.500
"
fill="#ffffff" fill-opacity="1.000000" vector-effect="non-scaling-stroke" stroke="#000000" stroke-width="0.100mm" stroke-opacity="1.000000" fpd:visible="front back" fpd:print_element="0" />
<path d="
M25.400 34.500
A3.600,3.600 0 1,0 32.600,34.500
A3.600,3.600 0 1,0 25.400,34.500
"
fill="#ffffff" fill-opacity="1.000000" vector-effect="non-scaling-stroke" stroke="#000000" stroke-width="0.100mm" stroke-opacity="1.000000" fpd:visible="front back" fpd:print_element="0" />
<path d="
M45.400 73.500
A3.600,3.600 0 1,0 52.600,73.500
A3.600,3.600 0 1,0 45.400,73.500
"
fill="#ffffff" fill-opacity="1.000000" vector-effect="non-scaling-stroke" stroke="#000000" stroke-width="0.100mm" stroke-opacity="1.000000" fpd:visible="front back" fpd:print_element="0" />
<path d="
M45.400 54.500
A3.600,3.600 0 1,0 52.600,54.500
A3.600,3.600 0 1,0 45.400,54.500
"
fill="#ffffff" fill-opacity="1.000000" vector-effect="non-scaling-stroke" stroke="#000000" stroke-width="0.100mm" stroke-opacity="1.000000" fpd:visible="front back" fpd:print_element="0" />
<path d="
M47.400 113.500
A3.600,3.600 0 1,0 54.600,113.500
A3.600,3.600 0 1,0 47.400,113.500
"
fill="#ffffff" fill-opacity="1.000000" vector-effect="non-scaling-stroke" stroke="#000000" stroke-width="0.100mm" stroke-opacity="1.000000" fpd:visible="front back" fpd:print_element="0" />
<path d="
M68.400 113.500
A3.600,3.600 0 1,0 75.600,113.500
A3.600,3.600 0 1,0 68.400,113.500
"
fill="#ffffff" fill-opacity="1.000000" vector-effect="non-scaling-stroke" stroke="#000000" stroke-width="0.100mm" stroke-opacity="1.000000" fpd:visible="front back" fpd:print_element="0" />
<path d="
M65.400 54.500
A3.600,3.600 0 1,0 72.600,54.500
A3.600,3.600 0 1,0 65.400,54.500
"
fill="#ffffff" fill-opacity="1.000000" vector-effect="non-scaling-stroke" stroke="#000000" stroke-width="0.100mm" stroke-opacity="1.000000" fpd:visible="front back" fpd:print_element="0" />
<path d="
M57.400 16.500
A3.600,3.600 0 1,0 64.600,16.500
A3.600,3.600 0 1,0 57.400,16.500
"
fill="#ffffff" fill-opacity="1.000000" vector-effect="non-scaling-stroke" stroke="#000000" stroke-width="0.100mm" stroke-opacity="1.000000" fpd:visible="front back" fpd:print_element="0" />
<path d="
M77.400 16.500
A3.600,3.600 0 1,0 84.600,16.500
A3.600,3.600 0 1,0 77.400,16.500
"
fill="#ffffff" fill-opacity="1.000000" vector-effect="non-scaling-stroke" stroke="#000000" stroke-width="0.100mm" stroke-opacity="1.000000" fpd:visible="front back" fpd:print_element="0" />
<path d="
M90.400 113.500
A3.600,3.600 0 1,0 97.600,113.500
A3.600,3.600 0 1,0 90.400,113.500
"
fill="#ffffff" fill-opacity="1.000000" vector-effect="non-scaling-stroke" stroke="#000000" stroke-width="0.100mm" stroke-opacity="1.000000" fpd:visible="front back" fpd:print_element="0" />
<path d="
M90.400 93.500
A3.600,3.600 0 1,0 97.600,93.500
A3.600,3.600 0 1,0 90.400,93.500
"
fill="#ffffff" fill-opacity="1.000000" vector-effect="non-scaling-stroke" stroke="#000000" stroke-width="0.100mm" stroke-opacity="1.000000" fpd:visible="front back" fpd:print_element="0" />
<path d="
M90.400 73.500
A3.600,3.600 0 1,0 97.600,73.500
A3.600,3.600 0 1,0 90.400,73.500
"
fill="#ffffff" fill-opacity="1.000000" vector-effect="non-scaling-stroke" stroke="#000000" stroke-width="0.100mm" stroke-opacity="1.000000" fpd:visible="front back" fpd:print_element="0" />
<path d="
M120.400 35.500
A3.600,3.600 0 1,0 127.600,35.500
A3.600,3.600 0 1,0 120.400,35.500
"
fill="#ffffff" fill-opacity="1.000000" vector-effect="non-scaling-stroke" stroke="#000000" stroke-width="0.100mm" stroke-opacity="1.000000" fpd:visible="front back" fpd:print_element="0" />
<path d="
M140.400 35.500
A3.600,3.600 0 1,0 147.600,35.500
A3.600,3.600 0 1,0 140.400,35.500
"
fill="#ffffff" fill-opacity="1.000000" vector-effect="non-scaling-stroke" stroke="#000000" stroke-width="0.100mm" stroke-opacity="1.000000" fpd:visible="front back" fpd:print_element="0" />
<path d="
M120.400 16.500
A3.600,3.600 0 1,0 127.600,16.500
A3.600,3.600 0 1,0 120.400,16.500
"
fill="#ffffff" fill-opacity="1.000000" vector-effect="non-scaling-stroke" stroke="#000000" stroke-width="0.100mm" stroke-opacity="1.000000" fpd:visible="front back" fpd:print_element="0" />
<path d="
M140.400 16.500
A3.600,3.600 0 1,0 147.600,16.500
A3.600,3.600 0 1,0 140.400,16.500
"
fill="#ffffff" fill-opacity="1.000000" vector-effect="non-scaling-stroke" stroke="#000000" stroke-width="0.100mm" stroke-opacity="1.000000" fpd:visible="front back" fpd:print_element="0" />
<path d="
M26.000 73.500
A3.000,3.000 0 1,0 32.000,73.500
A3.000,3.000 0 1,0 26.000,73.500
"
fill="#ffffff" fill-opacity="1.000000" vector-effect="non-scaling-stroke" stroke="#000000" stroke-width="0.100mm" stroke-opacity="1.000000" fpd:visible="front back" fpd:print_element="0" />
<path d="
M26.000 54.500
A3.000,3.000 0 1,0 32.000,54.500
A3.000,3.000 0 1,0 26.000,54.500
"
fill="#ffffff" fill-opacity="1.000000" vector-effect="non-scaling-stroke" stroke="#000000" stroke-width="0.100mm" stroke-opacity="1.000000" fpd:visible="front back" fpd:print_element="0" />
<path d="
M6.000 16.500
A3.000,3.000 0 1,0 12.000,16.500
A3.000,3.000 0 1,0 6.000,16.500
"
fill="#ffffff" fill-opacity="1.000000" vector-effect="non-scaling-stroke" stroke="#000000" stroke-width="0.100mm" stroke-opacity="1.000000" fpd:visible="front back" fpd:print_element="0" />
<path d="
M26.000 16.500
A3.000,3.000 0 1,0 32.000,16.500
A3.000,3.000 0 1,0 26.000,16.500
"
fill="#ffffff" fill-opacity="1.000000" vector-effect="non-scaling-stroke" stroke="#000000" stroke-width="0.100mm" stroke-opacity="1.000000" fpd:visible="front back" fpd:print_element="0" />
<path d="
M26.000 113.500
A3.000,3.000 0 1,0 32.000,113.500
A3.000,3.000 0 1,0 26.000,113.500
"
fill="#ffffff" fill-opacity="1.000000" vector-effect="non-scaling-stroke" stroke="#000000" stroke-width="0.100mm" stroke-opacity="1.000000" fpd:visible="front back" fpd:print_element="0" />
<path d="
M48.000 33.500
A3.000,3.000 0 1,0 54.000,33.500
A3.000,3.000 0 1,0 48.000,33.500
"
fill="#ffffff" fill-opacity="1.000000" vector-effect="non-scaling-stroke" stroke="#000000" stroke-width="0.100mm" stroke-opacity="1.000000" fpd:visible="front back" fpd:print_element="0" />
<path d="
M63.000 33.500
A3.000,3.000 0 1,0 69.000,33.500
A3.000,3.000 0 1,0 63.000,33.500
"
fill="#ffffff" fill-opacity="1.000000" vector-effect="non-scaling-stroke" stroke="#000000" stroke-width="0.100mm" stroke-opacity="1.000000" fpd:visible="front back" fpd:print_element="0" />
<path d="
M78.000 33.500
A3.000,3.000 0 1,0 84.000,33.500
A3.000,3.000 0 1,0 78.000,33.500
"
fill="#ffffff" fill-opacity="1.000000" vector-effect="non-scaling-stroke" stroke="#000000" stroke-width="0.100mm" stroke-opacity="1.000000" fpd:visible="front back" fpd:print_element="0" />
<path d="
M66.000 73.500
A3.000,3.000 0 1,0 72.000,73.500
A3.000,3.000 0 1,0 66.000,73.500
"
fill="#ffffff" fill-opacity="1.000000" vector-effect="non-scaling-stroke" stroke="#000000" stroke-width="0.100mm" stroke-opacity="1.000000" fpd:visible="front back" fpd:print_element="0" />
<path d="
M86.000 54.500
A3.000,3.000 0 1,0 92.000,54.500
A3.000,3.000 0 1,0 86.000,54.500
"
fill="#ffffff" fill-opacity="1.000000" vector-effect="non-scaling-stroke" stroke="#000000" stroke-width="0.100mm" stroke-opacity="1.000000" fpd:visible="front back" fpd:print_element="0" />
<path d="
M101.000 35.500
A3.000,3.000 0 1,0 107.000,35.500
A3.000,3.000 0 1,0 101.000,35.500
"
fill="#ffffff" fill-opacity="1.000000" vector-effect="non-scaling-stroke" stroke="#000000" stroke-width="0.100mm" stroke-opacity="1.000000" fpd:visible="front back" fpd:print_element="0" />
<path d="
M101.000 16.500
A3.000,3.000 0 1,0 107.000,16.500
A3.000,3.000 0 1,0 101.000,16.500
"
fill="#ffffff" fill-opacity="1.000000" vector-effect="non-scaling-stroke" stroke="#000000" stroke-width="0.100mm" stroke-opacity="1.000000" fpd:visible="front back" fpd:print_element="0" />
<path d="
M141.000 51.500
A3.000,3.000 0 1,0 147.000,51.500
A3.000,3.000 0 1,0 141.000,51.500
"
fill="#ffffff" fill-opacity="1.000000" vector-effect="non-scaling-stroke" stroke="#000000" stroke-width="0.100mm" stroke-opacity="1.000000" fpd:visible="front back" fpd:print_element="0" />
<path d="
M110.000 113.500
A3.000,3.000 0 1,0 116.000,113.500
A3.000,3.000 0 1,0 110.000,113.500
"
fill="#ffffff" fill-opacity="1.000000" vector-effect="non-scaling-stroke" stroke="#000000" stroke-width="0.100mm" stroke-opacity="1.000000" fpd:visible="front back" fpd:print_element="0" />
<path d="
M110.000 98.500
A3.000,3.000 0 1,0 116.000,98.500
A3.000,3.000 0 1,0 110.000,98.500
"
fill="#ffffff" fill-opacity="1.000000" vector-effect="non-scaling-stroke" stroke="#000000" stroke-width="0.100mm" stroke-opacity="1.000000" fpd:visible="front back" fpd:print_element="0" />
<path d="
M110.000 83.500
A3.000,3.000 0 1,0 116.000,83.500
A3.000,3.000 0 1,0 110.000,83.500
"
fill="#ffffff" fill-opacity="1.000000" vector-effect="non-scaling-stroke" stroke="#000000" stroke-width="0.100mm" stroke-opacity="1.000000" fpd:visible="front back" fpd:print_element="0" />
<path d="
M110.000 68.500
A3.000,3.000 0 1,0 116.000,68.500
A3.000,3.000 0 1,0 110.000,68.500
"
fill="#ffffff" fill-opacity="1.000000" vector-effect="non-scaling-stroke" stroke="#000000" stroke-width="0.100mm" stroke-opacity="1.000000" fpd:visible="front back" fpd:print_element="0" />
<path d="
M126.000 113.500
A3.000,3.000 0 1,0 132.000,113.500
A3.000,3.000 0 1,0 126.000,113.500
"
fill="#ffffff" fill-opacity="1.000000" vector-effect="non-scaling-stroke" stroke="#000000" stroke-width="0.100mm" stroke-opacity="1.000000" fpd:visible="front back" fpd:print_element="0" />
<path d="
M126.000 98.500
A3.000,3.000 0 1,0 132.000,98.500
A3.000,3.000 0 1,0 126.000,98.500
"
fill="#ffffff" fill-opacity="1.000000" vector-effect="non-scaling-stroke" stroke="#000000" stroke-width="0.100mm" stroke-opacity="1.000000" fpd:visible="front back" fpd:print_element="0" />
<path d="
M126.000 83.500
A3.000,3.000 0 1,0 132.000,83.500
A3.000,3.000 0 1,0 126.000,83.500
"
fill="#ffffff" fill-opacity="1.000000" vector-effect="non-scaling-stroke" stroke="#000000" stroke-width="0.100mm" stroke-opacity="1.000000" fpd:visible="front back" fpd:print_element="0" />
<path d="
M126.000 68.500
A3.000,3.000 0 1,0 132.000,68.500
A3.000,3.000 0 1,0 126.000,68.500
"
fill="#ffffff" fill-opacity="1.000000" vector-effect="non-scaling-stroke" stroke="#000000" stroke-width="0.100mm" stroke-opacity="1.000000" fpd:visible="front back" fpd:print_element="0" />
<path d="
M141.000 113.500
A3.000,3.000 0 1,0 147.000,113.500
A3.000,3.000 0 1,0 141.000,113.500
"
fill="#ffffff" fill-opacity="1.000000" vector-effect="non-scaling-stroke" stroke="#000000" stroke-width="0.100mm" stroke-opacity="1.000000" fpd:visible="front back" fpd:print_element="0" />
<path d="
M141.000 98.500
A3.000,3.000 0 1,0 147.000,98.500
A3.000,3.000 0 1,0 141.000,98.500
"
fill="#ffffff" fill-opacity="1.000000" vector-effect="non-scaling-stroke" stroke="#000000" stroke-width="0.100mm" stroke-opacity="1.000000" fpd:visible="front back" fpd:print_element="0" />
<path d="
M141.000 83.500
A3.000,3.000 0 1,0 147.000,83.500
A3.000,3.000 0 1,0 141.000,83.500
"
fill="#ffffff" fill-opacity="1.000000" vector-effect="non-scaling-stroke" stroke="#000000" stroke-width="0.100mm" stroke-opacity="1.000000" fpd:visible="front back" fpd:print_element="0" />
<path d="
M141.000 68.500
A3.000,3.000 0 1,0 147.000,68.500
A3.000,3.000 0 1,0 141.000,68.500
"
fill="#ffffff" fill-opacity="1.000000" vector-effect="non-scaling-stroke" stroke="#000000" stroke-width="0.100mm" stroke-opacity="1.000000" fpd:visible="front back" fpd:print_element="0" />
<path d="
M152.000 128.500
L152.000 0.000
L0.000 0.000
L0.000 128.500
L152.000 128.500
"
fill="none" vector-effect="non-scaling-stroke" stroke="#000000" stroke-width="0.100mm" stroke-opacity="1.000000" fpd:visible="front back" />
<path d="
M-1.015 0.000
L1.015 0.000
M0.000 -1.015
L0.000 1.015
"
fill="none" vector-effect="non-scaling-stroke" stroke="#ff0000" stroke-width="0.100mm" stroke-opacity="1.000000" />
<path d="
M6.485 125.500
L8.515 125.500
M7.500 124.485
L7.500 126.515
"
fill="none" vector-effect="non-scaling-stroke" stroke="#ff0000" stroke-width="0.100mm" stroke-opacity="1.000000" />
<path d="
M7.985 73.500
L10.015 73.500
M9.000 72.485
L9.000 74.515
"
fill="none" vector-effect="non-scaling-stroke" stroke="#ff0000" stroke-width="0.100mm" stroke-opacity="1.000000" />
<path d="
M143.485 125.500
L145.515 125.500
M144.500 124.485
L144.500 126.515
"
fill="none" vector-effect="non-scaling-stroke" stroke="#ff0000" stroke-width="0.100mm" stroke-opacity="1.000000" />
<path d="
M6.485 3.000
L8.515 3.000
M7.500 1.985
L7.500 4.015
"
fill="none" vector-effect="non-scaling-stroke" stroke="#ff0000" stroke-width="0.100mm" stroke-opacity="1.000000" />
<path d="
M143.485 3.000
L145.515 3.000
M144.500 1.985
L144.500 4.015
"
fill="none" vector-effect="non-scaling-stroke" stroke="#ff0000" stroke-width="0.100mm" stroke-opacity="1.000000" />
<path d="
M7.985 113.500
L10.015 113.500
M9.000 112.485
L9.000 114.515
"
fill="none" vector-effect="non-scaling-stroke" stroke="#ff0000" stroke-width="0.100mm" stroke-opacity="1.000000" />
<path d="
M7.985 93.500
L10.015 93.500
M9.000 92.485
L9.000 94.515
"
fill="none" vector-effect="non-scaling-stroke" stroke="#ff0000" stroke-width="0.100mm" stroke-opacity="1.000000" />
<path d="
M27.985 93.500
L30.015 93.500
M29.000 92.485
L29.000 94.515
"
fill="none" vector-effect="non-scaling-stroke" stroke="#ff0000" stroke-width="0.100mm" stroke-opacity="1.000000" />
<path d="
M7.985 54.500
L10.015 54.500
M9.000 53.485
L9.000 55.515
"
fill="none" vector-effect="non-scaling-stroke" stroke="#ff0000" stroke-width="0.100mm" stroke-opacity="1.000000" />
<path d="
M7.985 34.500
L10.015 34.500
M9.000 33.485
L9.000 35.515
"
fill="none" vector-effect="non-scaling-stroke" stroke="#ff0000" stroke-width="0.100mm" stroke-opacity="1.000000" />
<path d="
M27.985 34.500
L30.015 34.500
M29.000 33.485
L29.000 35.515
"
fill="none" vector-effect="non-scaling-stroke" stroke="#ff0000" stroke-width="0.100mm" stroke-opacity="1.000000" />
<path d="
M47.985 73.500
L50.015 73.500
M49.000 72.485
L49.000 74.515
"
fill="none" vector-effect="non-scaling-stroke" stroke="#ff0000" stroke-width="0.100mm" stroke-opacity="1.000000" />
<path d="
M47.985 54.500
L50.015 54.500
M49.000 53.485
L49.000 55.515
"
fill="none" vector-effect="non-scaling-stroke" stroke="#ff0000" stroke-width="0.100mm" stroke-opacity="1.000000" />
<path d="
M49.985 113.500
L52.015 113.500
M51.000 112.485
L51.000 114.515
"
fill="none" vector-effect="non-scaling-stroke" stroke="#ff0000" stroke-width="0.100mm" stroke-opacity="1.000000" />
<path d="
M70.985 113.500
L73.015 113.500
M72.000 112.485
L72.000 114.515
"
fill="none" vector-effect="non-scaling-stroke" stroke="#ff0000" stroke-width="0.100mm" stroke-opacity="1.000000" />
<path d="
M67.985 54.500
L70.015 54.500
M69.000 53.485
L69.000 55.515
"
fill="none" vector-effect="non-scaling-stroke" stroke="#ff0000" stroke-width="0.100mm" stroke-opacity="1.000000" />
<path d="
M59.985 16.500
L62.015 16.500
M61.000 15.485
L61.000 17.515
"
fill="none" vector-effect="non-scaling-stroke" stroke="#ff0000" stroke-width="0.100mm" stroke-opacity="1.000000" />
<path d="
M79.985 16.500
L82.015 16.500
M81.000 15.485
L81.000 17.515
"
fill="none" vector-effect="non-scaling-stroke" stroke="#ff0000" stroke-width="0.100mm" stroke-opacity="1.000000" />
<path d="
M92.985 113.500
L95.015 113.500
M94.000 112.485
L94.000 114.515
"
fill="none" vector-effect="non-scaling-stroke" stroke="#ff0000" stroke-width="0.100mm" stroke-opacity="1.000000" />
<path d="
M92.985 93.500
L95.015 93.500
M94.000 92.485
L94.000 94.515
"
fill="none" vector-effect="non-scaling-stroke" stroke="#ff0000" stroke-width="0.100mm" stroke-opacity="1.000000" />
<path d="
M92.985 73.500
L95.015 73.500
M94.000 72.485
L94.000 74.515
"
fill="none" vector-effect="non-scaling-stroke" stroke="#ff0000" stroke-width="0.100mm" stroke-opacity="1.000000" />
<path d="
M122.985 35.500
L125.015 35.500
M124.000 34.485
L124.000 36.515
"
fill="none" vector-effect="non-scaling-stroke" stroke="#ff0000" stroke-width="0.100mm" stroke-opacity="1.000000" />
<path d="
M142.985 35.500
L145.015 35.500
M144.000 34.485
L144.000 36.515
"
fill="none" vector-effect="non-scaling-stroke" stroke="#ff0000" stroke-width="0.100mm" stroke-opacity="1.000000" />
<path d="
M122.985 16.500
L125.015 16.500
M124.000 15.485
L124.000 17.515
"
fill="none" vector-effect="non-scaling-stroke" stroke="#ff0000" stroke-width="0.100mm" stroke-opacity="1.000000" />
<path d="
M142.985 16.500
L145.015 16.500
M144.000 15.485
L144.000 17.515
"
fill="none" vector-effect="non-scaling-stroke" stroke="#ff0000" stroke-width="0.100mm" stroke-opacity="1.000000" />
<path d="
M27.985 73.500
L30.015 73.500
M29.000 72.485
L29.000 74.515
"
fill="none" vector-effect="non-scaling-stroke" stroke="#ff0000" stroke-width="0.100mm" stroke-opacity="1.000000" />
<path d="
M27.985 54.500
L30.015 54.500
M29.000 53.485
L29.000 55.515
"
fill="none" vector-effect="non-scaling-stroke" stroke="#ff0000" stroke-width="0.100mm" stroke-opacity="1.000000" />
<path d="
M7.985 16.500
L10.015 16.500
M9.000 15.485
L9.000 17.515
"
fill="none" vector-effect="non-scaling-stroke" stroke="#ff0000" stroke-width="0.100mm" stroke-opacity="1.000000" />
<path d="
M27.985 16.500
L30.015 16.500
M29.000 15.485
L29.000 17.515
"
fill="none" vector-effect="non-scaling-stroke" stroke="#ff0000" stroke-width="0.100mm" stroke-opacity="1.000000" />
<path d="
M27.985 113.500
L30.015 113.500
M29.000 112.485
L29.000 114.515
"
fill="none" vector-effect="non-scaling-stroke" stroke="#ff0000" stroke-width="0.100mm" stroke-opacity="1.000000" />
<path d="
M49.985 33.500
L52.015 33.500
M51.000 32.485
L51.000 34.515
"
fill="none" vector-effect="non-scaling-stroke" stroke="#ff0000" stroke-width="0.100mm" stroke-opacity="1.000000" />
<path d="
M64.985 33.500
L67.015 33.500
M66.000 32.485
L66.000 34.515
"
fill="none" vector-effect="non-scaling-stroke" stroke="#ff0000" stroke-width="0.100mm" stroke-opacity="1.000000" />
<path d="
M79.985 33.500
L82.015 33.500
M81.000 32.485
L81.000 34.515
"
fill="none" vector-effect="non-scaling-stroke" stroke="#ff0000" stroke-width="0.100mm" stroke-opacity="1.000000" />
<path d="
M67.985 73.500
L70.015 73.500
M69.000 72.485
L69.000 74.515
"
fill="none" vector-effect="non-scaling-stroke" stroke="#ff0000" stroke-width="0.100mm" stroke-opacity="1.000000" />
<path d="
M87.985 54.500
L90.015 54.500
M89.000 53.485
L89.000 55.515
"
fill="none" vector-effect="non-scaling-stroke" stroke="#ff0000" stroke-width="0.100mm" stroke-opacity="1.000000" />
<path d="
M102.985 35.500
L105.015 35.500
M104.000 34.485
L104.000 36.515
"
fill="none" vector-effect="non-scaling-stroke" stroke="#ff0000" stroke-width="0.100mm" stroke-opacity="1.000000" />
<path d="
M102.985 16.500
L105.015 16.500
M104.000 15.485
L104.000 17.515
"
fill="none" vector-effect="non-scaling-stroke" stroke="#ff0000" stroke-width="0.100mm" stroke-opacity="1.000000" />
<path d="
M142.985 51.500
L145.015 51.500
M144.000 50.485
L144.000 52.515
"
fill="none" vector-effect="non-scaling-stroke" stroke="#ff0000" stroke-width="0.100mm" stroke-opacity="1.000000" />
<path d="
M111.985 113.500
L114.015 113.500
M113.000 112.485
L113.000 114.515
"
fill="none" vector-effect="non-scaling-stroke" stroke="#ff0000" stroke-width="0.100mm" stroke-opacity="1.000000" />
<path d="
M111.985 98.500
L114.015 98.500
M113.000 97.485
L113.000 99.515
"
fill="none" vector-effect="non-scaling-stroke" stroke="#ff0000" stroke-width="0.100mm" stroke-opacity="1.000000" />
<path d="
M111.985 83.500
L114.015 83.500
M113.000 82.485
L113.000 84.515
"
fill="none" vector-effect="non-scaling-stroke" stroke="#ff0000" stroke-width="0.100mm" stroke-opacity="1.000000" />
<path d="
M111.985 68.500
L114.015 68.500
M113.000 67.485
L113.000 69.515
"
fill="none" vector-effect="non-scaling-stroke" stroke="#ff0000" stroke-width="0.100mm" stroke-opacity="1.000000" />
<path d="
M127.985 113.500
L130.015 113.500
M129.000 112.485
L129.000 114.515
"
fill="none" vector-effect="non-scaling-stroke" stroke="#ff0000" stroke-width="0.100mm" stroke-opacity="1.000000" />
<path d="
M127.985 98.500
L130.015 98.500
M129.000 97.485
L129.000 99.515
"
fill="none" vector-effect="non-scaling-stroke" stroke="#ff0000" stroke-width="0.100mm" stroke-opacity="1.000000" />
<path d="
M127.985 83.500
L130.015 83.500
M129.000 82.485
L129.000 84.515
"
fill="none" vector-effect="non-scaling-stroke" stroke="#ff0000" stroke-width="0.100mm" stroke-opacity="1.000000" />
<path d="
M127.985 68.500
L130.015 68.500
M129.000 67.485
L129.000 69.515
"
fill="none" vector-effect="non-scaling-stroke" stroke="#ff0000" stroke-width="0.100mm" stroke-opacity="1.000000" />
<path d="
M142.985 113.500
L145.015 113.500
M144.000 112.485
L144.000 114.515
"
fill="none" vector-effect="non-scaling-stroke" stroke="#ff0000" stroke-width="0.100mm" stroke-opacity="1.000000" />
<path d="
M142.985 98.500
L145.015 98.500
M144.000 97.485
L144.000 99.515
"
fill="none" vector-effect="non-scaling-stroke" stroke="#ff0000" stroke-width="0.100mm" stroke-opacity="1.000000" />
<path d="
M142.985 83.500
L145.015 83.500
M144.000 82.485
L144.000 84.515
"
fill="none" vector-effect="non-scaling-stroke" stroke="#ff0000" stroke-width="0.100mm" stroke-opacity="1.000000" />
<path d="
M142.985 68.500
L145.015 68.500
M144.000 67.485
L144.000 69.515
"
fill="none" vector-effect="non-scaling-stroke" stroke="#ff0000" stroke-width="0.100mm" stroke-opacity="1.000000" />
</g>
</svg>
