  0
SECTION
  2
HEADER
  9
$MEASUREMENT
  70
  1
  9
$INSUNITS
  70
  4
  0
ENDSEC
  0
SECTION
  2
TABLES
  0
TABLE
  2
LTYPE
 70
     1
  0
LTYPE
  2
CONTINUOUS
 70
    64
  3
Ausgezogene Linie
 72
    65
 73
     0
 40
0.0
  0
ENDTAB
  0
TABLE
  2
LAYER
 70
     3
  0
LAYER
  2
Contour
 70
    64
 62
     7
  6
CONTINUOUS
  0
LAYER
  2
Engraving
 70
    64
 62
     7
  6
CONTINUOUS
  0
LAYER
  2
Reference_points
 70
    64
 62
     1
  6
CONTINUOUS
  0
ENDTAB
  0
TABLE
  2
STYLE
 70
     1
  0
STYLE
  2
TXT
 70
    64
 40
0.0
 41
1.0
 50
0.0
 71
     0
 42
3.500000
  3
TXT
  0
ENDTAB
  0
ENDSEC
  0
SECTION
  2
BLOCKS
  0
ENDSEC
  0
SECTION
  2
ENTITIES
  0
LINE
  8
Contour
 62
   7
 39
0.100
  6
CONTINUOUS
 10
152.00000
 20
128.50000
 30
 0
 11
152.00000
 21
0.00000
  0
LINE
  8
Contour
 62
   7
 39
0.100
  6
CONTINUOUS
 10
152.00000
 20
0.00000
 30
 0
 11
0.00000
 21
0.00000
  0
LINE
  8
Contour
 62
   7
 39
0.100
  6
CONTINUOUS
 10
0.00000
 20
0.00000
 30
 0
 11
0.00000
 21
128.50000
  0
LINE
  8
Contour
 62
   7
 39
0.100
  6
CONTINUOUS
 10
0.00000
 20
128.50000
 30
 0
 11
152.00000
 21
128.50000
  0
ARC
  8
Contour
 62
   7
 39
0.100
  6
CONTINUOUS
 10
7.50000
 20
125.50000
 30
 0
 40
2.99996
 50
170.40580
 51
189.59420
  0
ARC
  8
Contour
 62
   7
 39
0.100
  6
CONTINUOUS
 10
5.72522
 20
125.20000
 30
 0
 40
1.20000
 50
189.59407
 51
269.98969
  0
LINE
  8
Contour
 62
   7
 39
0.100
  6
CONTINUOUS
 10
5.72500
 20
124.00000
 30
 0
 11
9.27500
 21
124.00000
  0
ARC
  8
Contour
 62
   7
 39
0.100
  6
CONTINUOUS
 10
9.27478
 20
125.20000
 30
 0
 40
1.20000
 50
270.01031
 51
350.40593
  0
ARC
  8
Contour
 62
   7
 39
0.100
  6
CONTINUOUS
 10
7.50000
 20
125.50000
 30
 0
 40
2.99996
 50
350.40580
 51
369.59420
  0
ARC
  8
Contour
 62
   7
 39
0.100
  6
CONTINUOUS
 10
9.27478
 20
125.80000
 30
 0
 40
1.20000
 50
9.59407
 51
89.98969
  0
LINE
  8
Contour
 62
   7
 39
0.100
  6
CONTINUOUS
 10
9.27500
 20
127.00000
 30
 0
 11
5.72500
 21
127.00000
  0
ARC
  8
Contour
 62
   7
 39
0.100
  6
CONTINUOUS
 10
5.72522
 20
125.80000
 30
 0
 40
1.20000
 50
90.01031
 51
170.40593
  0
CIRCLE
  8
Contour
 62
   7
 39
0.100
  6
CONTINUOUS
 10
9.00000
 20
73.50000
 30
 0
 40
3.00000
  0
ARC
  8
Contour
 62
   7
 39
0.100
  6
CONTINUOUS
 10
144.50000
 20
125.50000
 30
 0
 40
2.99996
 50
170.40580
 51
189.59420
  0
ARC
  8
Contour
 62
   7
 39
0.100
  6
CONTINUOUS
 10
142.72522
 20
125.20000
 30
 0
 40
1.20000
 50
189.59407
 51
269.98969
  0
LINE
  8
Contour
 62
   7
 39
0.100
  6
CONTINUOUS
 10
142.72500
 20
124.00000
 30
 0
 11
146.27500
 21
124.00000
  0
ARC
  8
Contour
 62
   7
 39
0.100
  6
CONTINUOUS
 10
146.27478
 20
125.20000
 30
 0
 40
1.20000
 50
270.01031
 51
350.40593
  0
ARC
  8
Contour
 62
   7
 39
0.100
  6
CONTINUOUS
 10
144.50000
 20
125.50000
 30
 0
 40
2.99996
 50
350.40580
 51
369.59420
  0
ARC
  8
Contour
 62
   7
 39
0.100
  6
CONTINUOUS
 10
146.27478
 20
125.80000
 30
 0
 40
1.20000
 50
9.59407
 51
89.98969
  0
LINE
  8
Contour
 62
   7
 39
0.100
  6
CONTINUOUS
 10
146.27500
 20
127.00000
 30
 0
 11
142.72500
 21
127.00000
  0
ARC
  8
Contour
 62
   7
 39
0.100
  6
CONTINUOUS
 10
142.72522
 20
125.80000
 30
 0
 40
1.20000
 50
90.01031
 51
170.40593
  0
ARC
  8
Contour
 62
   7
 39
0.100
  6
CONTINUOUS
 10
7.50000
 20
3.00000
 30
 0
 40
2.99996
 50
170.40580
 51
189.59420
  0
ARC
  8
Contour
 62
   7
 39
0.100
  6
CONTINUOUS
 10
5.72522
 20
2.70000
 30
 0
 40
1.20000
 50
189.59407
 51
269.98969
  0
LINE
  8
Contour
 62
   7
 39
0.100
  6
CONTINUOUS
 10
5.72500
 20
1.50000
 30
 0
 11
9.27500
 21
1.50000
  0
ARC
  8
Contour
 62
   7
 39
0.100
  6
CONTINUOUS
 10
9.27478
 20
2.70000
 30
 0
 40
1.20000
 50
270.01031
 51
350.40593
  0
ARC
  8
Contour
 62
   7
 39
0.100
  6
CONTINUOUS
 10
7.50000
 20
3.00000
 30
 0
 40
2.99996
 50
350.40580
 51
369.59420
  0
ARC
  8
Contour
 62
   7
 39
0.100
  6
CONTINUOUS
 10
9.27478
 20
3.30000
 30
 0
 40
1.20000
 50
9.59407
 51
89.98969
  0
LINE
  8
Contour
 62
   7
 39
0.100
  6
CONTINUOUS
 10
9.27500
 20
4.50000
 30
 0
 11
5.72500
 21
4.50000
  0
ARC
  8
Contour
 62
   7
 39
0.100
  6
CONTINUOUS
 10
5.72522
 20
3.30000
 30
 0
 40
1.20000
 50
90.01031
 51
170.40593
  0
ARC
  8
Contour
 62
   7
 39
0.100
  6
CONTINUOUS
 10
144.50000
 20
3.00000
 30
 0
 40
2.99996
 50
170.40580
 51
189.59420
  0
ARC
  8
Contour
 62
   7
 39
0.100
  6
CONTINUOUS
 10
142.72522
 20
2.70000
 30
 0
 40
1.20000
 50
189.59407
 51
269.98969
  0
LINE
  8
Contour
 62
   7
 39
0.100
  6
CONTINUOUS
 10
142.72500
 20
1.50000
 30
 0
 11
146.27500
 21
1.50000
  0
ARC
  8
Contour
 62
   7
 39
0.100
  6
CONTINUOUS
 10
146.27478
 20
2.70000
 30
 0
 40
1.20000
 50
270.01031
 51
350.40593
  0
ARC
  8
Contour
 62
   7
 39
0.100
  6
CONTINUOUS
 10
144.50000
 20
3.00000
 30
 0
 40
2.99996
 50
350.40580
 51
369.59420
  0
ARC
  8
Contour
 62
   7
 39
0.100
  6
CONTINUOUS
 10
146.27478
 20
3.30000
 30
 0
 40
1.20000
 50
9.59407
 51
89.98969
  0
LINE
  8
Contour
 62
   7
 39
0.100
  6
CONTINUOUS
 10
146.27500
 20
4.50000
 30
 0
 11
142.72500
 21
4.50000
  0
ARC
  8
Contour
 62
   7
 39
0.100
  6
CONTINUOUS
 10
142.72522
 20
3.30000
 30
 0
 40
1.20000
 50
90.01031
 51
170.40593
  0
CIRCLE
  8
Contour
 62
   7
 39
0.100
  6
CONTINUOUS
 10
9.00000
 20
113.50000
 30
 0
 40
3.60000
  0
CIRCLE
  8
Contour
 62
   7
 39
0.100
  6
CONTINUOUS
 10
9.00000
 20
93.50000
 30
 0
 40
3.60000
  0
CIRCLE
  8
Contour
 62
   7
 39
0.100
  6
CONTINUOUS
 10
29.00000
 20
93.50000
 30
 0
 40
3.60000
  0
CIRCLE
  8
Contour
 62
   7
 39
0.100
  6
CONTINUOUS
 10
9.00000
 20
54.50000
 30
 0
 40
3.60000
  0
CIRCLE
  8
Contour
 62
   7
 39
0.100
  6
CONTINUOUS
 10
9.00000
 20
34.50000
 30
 0
 40
3.60000
  0
CIRCLE
  8
Contour
 62
   7
 39
0.100
  6
CONTINUOUS
 10
29.00000
 20
34.50000
 30
 0
 40
3.60000
  0
CIRCLE
  8
Contour
 62
   7
 39
0.100
  6
CONTINUOUS
 10
49.00000
 20
73.50000
 30
 0
 40
3.60000
  0
CIRCLE
  8
Contour
 62
   7
 39
0.100
  6
CONTINUOUS
 10
49.00000
 20
54.50000
 30
 0
 40
3.60000
  0
CIRCLE
  8
Contour
 62
   7
 39
0.100
  6
CONTINUOUS
 10
51.00000
 20
113.50000
 30
 0
 40
3.60000
  0
CIRCLE
  8
Contour
 62
   7
 39
0.100
  6
CONTINUOUS
 10
72.00000
 20
113.50000
 30
 0
 40
3.60000
  0
CIRCLE
  8
Contour
 62
   7
 39
0.100
  6
CONTINUOUS
 10
69.00000
 20
54.50000
 30
 0
 40
3.60000
  0
CIRCLE
  8
Contour
 62
   7
 39
0.100
  6
CONTINUOUS
 10
61.00000
 20
16.50000
 30
 0
 40
3.60000
  0
CIRCLE
  8
Contour
 62
   7
 39
0.100
  6
CONTINUOUS
 10
81.00000
 20
16.50000
 30
 0
 40
3.60000
  0
CIRCLE
  8
Contour
 62
   7
 39
0.100
  6
CONTINUOUS
 10
94.00000
 20
113.50000
 30
 0
 40
3.60000
  0
CIRCLE
  8
Contour
 62
   7
 39
0.100
  6
CONTINUOUS
 10
94.00000
 20
93.50000
 30
 0
 40
3.60000
  0
CIRCLE
  8
Contour
 62
   7
 39
0.100
  6
CONTINUOUS
 10
94.00000
 20
73.50000
 30
 0
 40
3.60000
  0
CIRCLE
  8
Contour
 62
   7
 39
0.100
  6
CONTINUOUS
 10
124.00000
 20
35.50000
 30
 0
 40
3.60000
  0
CIRCLE
  8
Contour
 62
   7
 39
0.100
  6
CONTINUOUS
 10
144.00000
 20
35.50000
 30
 0
 40
3.60000
  0
CIRCLE
  8
Contour
 62
   7
 39
0.100
  6
CONTINUOUS
 10
124.00000
 20
16.50000
 30
 0
 40
3.60000
  0
CIRCLE
  8
Contour
 62
   7
 39
0.100
  6
CONTINUOUS
 10
144.00000
 20
16.50000
 30
 0
 40
3.60000
  0
CIRCLE
  8
Contour
 62
   7
 39
0.100
  6
CONTINUOUS
 10
29.00000
 20
73.50000
 30
 0
 40
3.00000
  0
CIRCLE
  8
Contour
 62
   7
 39
0.100
  6
CONTINUOUS
 10
29.00000
 20
54.50000
 30
 0
 40
3.00000
  0
CIRCLE
  8
Contour
 62
   7
 39
0.100
  6
CONTINUOUS
 10
9.00000
 20
16.50000
 30
 0
 40
3.00000
  0
CIRCLE
  8
Contour
 62
   7
 39
0.100
  6
CONTINUOUS
 10
29.00000
 20
16.50000
 30
 0
 40
3.00000
  0
CIRCLE
  8
Contour
 62
   7
 39
0.100
  6
CONTINUOUS
 10
29.00000
 20
113.50000
 30
 0
 40
3.00000
  0
CIRCLE
  8
Contour
 62
   7
 39
0.100
  6
CONTINUOUS
 10
51.00000
 20
33.50000
 30
 0
 40
3.00000
  0
CIRCLE
  8
Contour
 62
   7
 39
0.100
  6
CONTINUOUS
 10
66.00000
 20
33.50000
 30
 0
 40
3.00000
  0
CIRCLE
  8
Contour
 62
   7
 39
0.100
  6
CONTINUOUS
 10
81.00000
 20
33.50000
 30
 0
 40
3.00000
  0
CIRCLE
  8
Contour
 62
   7
 39
0.100
  6
CONTINUOUS
 10
69.00000
 20
73.50000
 30
 0
 40
3.00000
  0
CIRCLE
  8
Contour
 62
   7
 39
0.100
  6
CONTINUOUS
 10
89.00000
 20
54.50000
 30
 0
 40
3.00000
  0
CIRCLE
  8
Contour
 62
   7
 39
0.100
  6
CONTINUOUS
 10
104.00000
 20
35.50000
 30
 0
 40
3.00000
  0
CIRCLE
  8
Contour
 62
   7
 39
0.100
  6
CONTINUOUS
 10
104.00000
 20
16.50000
 30
 0
 40
3.00000
  0
CIRCLE
  8
Contour
 62
   7
 39
0.100
  6
CONTINUOUS
 10
144.00000
 20
51.50000
 30
 0
 40
3.00000
  0
CIRCLE
  8
Contour
 62
   7
 39
0.100
  6
CONTINUOUS
 10
113.00000
 20
113.50000
 30
 0
 40
3.00000
  0
CIRCLE
  8
Contour
 62
   7
 39
0.100
  6
CONTINUOUS
 10
113.00000
 20
98.50000
 30
 0
 40
3.00000
  0
CIRCLE
  8
Contour
 62
   7
 39
0.100
  6
CONTINUOUS
 10
113.00000
 20
83.50000
 30
 0
 40
3.00000
  0
CIRCLE
  8
Contour
 62
   7
 39
0.100
  6
CONTINUOUS
 10
113.00000
 20
68.50000
 30
 0
 40
3.00000
  0
CIRCLE
  8
Contour
 62
   7
 39
0.100
  6
CONTINUOUS
 10
129.00000
 20
113.50000
 30
 0
 40
3.00000
  0
CIRCLE
  8
Contour
 62
   7
 39
0.100
  6
CONTINUOUS
 10
129.00000
 20
98.50000
 30
 0
 40
3.00000
  0
CIRCLE
  8
Contour
 62
   7
 39
0.100
  6
CONTINUOUS
 10
129.00000
 20
83.50000
 30
 0
 40
3.00000
  0
CIRCLE
  8
Contour
 62
   7
 39
0.100
  6
CONTINUOUS
 10
129.00000
 20
68.50000
 30
 0
 40
3.00000
  0
CIRCLE
  8
Contour
 62
   7
 39
0.100
  6
CONTINUOUS
 10
144.00000
 20
113.50000
 30
 0
 40
3.00000
  0
CIRCLE
  8
Contour
 62
   7
 39
0.100
  6
CONTINUOUS
 10
144.00000
 20
98.50000
 30
 0
 40
3.00000
  0
CIRCLE
  8
Contour
 62
   7
 39
0.100
  6
CONTINUOUS
 10
144.00000
 20
83.50000
 30
 0
 40
3.00000
  0
CIRCLE
  8
Contour
 62
   7
 39
0.100
  6
CONTINUOUS
 10
144.00000
 20
68.50000
 30
 0
 40
3.00000
  0
LINE
  8
Reference_points
 62
   1
 39
0.100
  6
CONTINUOUS
 10
-1.01500
 20
0.00000
 30
 0
 11
1.01500
 21
0.00000
  0
LINE
  8
Reference_points
 62
   1
 39
0.100
  6
CONTINUOUS
 10
0.00000
 20
-1.01500
 30
 0
 11
0.00000
 21
1.01500
  0
LINE
  8
Reference_points
 62
   1
 39
0.100
  6
CONTINUOUS
 10
6.48500
 20
125.50000
 30
 0
 11
8.51500
 21
125.50000
  0
LINE
  8
Reference_points
 62
   1
 39
0.100
  6
CONTINUOUS
 10
7.50000
 20
124.48500
 30
 0
 11
7.50000
 21
126.51500
  0
LINE
  8
Reference_points
 62
   1
 39
0.100
  6
CONTINUOUS
 10
7.98500
 20
73.50000
 30
 0
 11
10.01500
 21
73.50000
  0
LINE
  8
Reference_points
 62
   1
 39
0.100
  6
CONTINUOUS
 10
9.00000
 20
72.48500
 30
 0
 11
9.00000
 21
74.51500
  0
LINE
  8
Reference_points
 62
   1
 39
0.100
  6
CONTINUOUS
 10
143.48500
 20
125.50000
 30
 0
 11
145.51500
 21
125.50000
  0
LINE
  8
Reference_points
 62
   1
 39
0.100
  6
CONTINUOUS
 10
144.50000
 20
124.48500
 30
 0
 11
144.50000
 21
126.51500
  0
LINE
  8
Reference_points
 62
   1
 39
0.100
  6
CONTINUOUS
 10
6.48500
 20
3.00000
 30
 0
 11
8.51500
 21
3.00000
  0
LINE
  8
Reference_points
 62
   1
 39
0.100
  6
CONTINUOUS
 10
7.50000
 20
1.98500
 30
 0
 11
7.50000
 21
4.01500
  0
LINE
  8
Reference_points
 62
   1
 39
0.100
  6
CONTINUOUS
 10
143.48500
 20
3.00000
 30
 0
 11
145.51500
 21
3.00000
  0
LINE
  8
Reference_points
 62
   1
 39
0.100
  6
CONTINUOUS
 10
144.50000
 20
1.98500
 30
 0
 11
144.50000
 21
4.01500
  0
LINE
  8
Reference_points
 62
   1
 39
0.100
  6
CONTINUOUS
 10
7.98500
 20
113.50000
 30
 0
 11
10.01500
 21
113.50000
  0
LINE
  8
Reference_points
 62
   1
 39
0.100
  6
CONTINUOUS
 10
9.00000
 20
112.48500
 30
 0
 11
9.00000
 21
114.51500
  0
LINE
  8
Reference_points
 62
   1
 39
0.100
  6
CONTINUOUS
 10
7.98500
 20
93.50000
 30
 0
 11
10.01500
 21
93.50000
  0
LINE
  8
Reference_points
 62
   1
 39
0.100
  6
CONTINUOUS
 10
9.00000
 20
92.48500
 30
 0
 11
9.00000
 21
94.51500
  0
LINE
  8
Reference_points
 62
   1
 39
0.100
  6
CONTINUOUS
 10
27.98500
 20
93.50000
 30
 0
 11
30.01500
 21
93.50000
  0
LINE
  8
Reference_points
 62
   1
 39
0.100
  6
CONTINUOUS
 10
29.00000
 20
92.48500
 30
 0
 11
29.00000
 21
94.51500
  0
LINE
  8
Reference_points
 62
   1
 39
0.100
  6
CONTINUOUS
 10
7.98500
 20
54.50000
 30
 0
 11
10.01500
 21
54.50000
  0
LINE
  8
Reference_points
 62
   1
 39
0.100
  6
CONTINUOUS
 10
9.00000
 20
53.48500
 30
 0
 11
9.00000
 21
55.51500
  0
LINE
  8
Reference_points
 62
   1
 39
0.100
  6
CONTINUOUS
 10
7.98500
 20
34.50000
 30
 0
 11
10.01500
 21
34.50000
  0
LINE
  8
Reference_points
 62
   1
 39
0.100
  6
CONTINUOUS
 10
9.00000
 20
33.48500
 30
 0
 11
9.00000
 21
35.51500
  0
LINE
  8
Reference_points
 62
   1
 39
0.100
  6
CONTINUOUS
 10
27.98500
 20
34.50000
 30
 0
 11
30.01500
 21
34.50000
  0
LINE
  8
Reference_points
 62
   1
 39
0.100
  6
CONTINUOUS
 10
29.00000
 20
33.48500
 30
 0
 11
29.00000
 21
35.51500
  0
LINE
  8
Reference_points
 62
   1
 39
0.100
  6
CONTINUOUS
 10
47.98500
 20
73.50000
 30
 0
 11
50.01500
 21
73.50000
  0
LINE
  8
Reference_points
 62
   1
 39
0.100
  6
CONTINUOUS
 10
49.00000
 20
72.48500
 30
 0
 11
49.00000
 21
74.51500
  0
LINE
  8
Reference_points
 62
   1
 39
0.100
  6
CONTINUOUS
 10
47.98500
 20
54.50000
 30
 0
 11
50.01500
 21
54.50000
  0
LINE
  8
Reference_points
 62
   1
 39
0.100
  6
CONTINUOUS
 10
49.00000
 20
53.48500
 30
 0
 11
49.00000
 21
55.51500
  0
LINE
  8
Reference_points
 62
   1
 39
0.100
  6
CONTINUOUS
 10
49.98500
 20
113.50000
 30
 0
 11
52.01500
 21
113.50000
  0
LINE
  8
Reference_points
 62
   1
 39
0.100
  6
CONTINUOUS
 10
51.00000
 20
112.48500
 30
 0
 11
51.00000
 21
114.51500
  0
LINE
  8
Reference_points
 62
   1
 39
0.100
  6
CONTINUOUS
 10
70.98500
 20
113.50000
 30
 0
 11
73.01500
 21
113.50000
  0
LINE
  8
Reference_points
 62
   1
 39
0.100
  6
CONTINUOUS
 10
72.00000
 20
112.48500
 30
 0
 11
72.00000
 21
114.51500
  0
LINE
  8
Reference_points
 62
   1
 39
0.100
  6
CONTINUOUS
 10
67.98500
 20
54.50000
 30
 0
 11
70.01500
 21
54.50000
  0
LINE
  8
Reference_points
 62
   1
 39
0.100
  6
CONTINUOUS
 10
69.00000
 20
53.48500
 30
 0
 11
69.00000
 21
55.51500
  0
LINE
  8
Reference_points
 62
   1
 39
0.100
  6
CONTINUOUS
 10
59.98500
 20
16.50000
 30
 0
 11
62.01500
 21
16.50000
  0
LINE
  8
Reference_points
 62
   1
 39
0.100
  6
CONTINUOUS
 10
61.00000
 20
15.48500
 30
 0
 11
61.00000
 21
17.51500
  0
LINE
  8
Reference_points
 62
   1
 39
0.100
  6
CONTINUOUS
 10
79.98500
 20
16.50000
 30
 0
 11
82.01500
 21
16.50000
  0
LINE
  8
Reference_points
 62
   1
 39
0.100
  6
CONTINUOUS
 10
81.00000
 20
15.48500
 30
 0
 11
81.00000
 21
17.51500
  0
LINE
  8
Reference_points
 62
   1
 39
0.100
  6
CONTINUOUS
 10
92.98500
 20
113.50000
 30
 0
 11
95.01500
 21
113.50000
  0
LINE
  8
Reference_points
 62
   1
 39
0.100
  6
CONTINUOUS
 10
94.00000
 20
112.48500
 30
 0
 11
94.00000
 21
114.51500
  0
LINE
  8
Reference_points
 62
   1
 39
0.100
  6
CONTINUOUS
 10
92.98500
 20
93.50000
 30
 0
 11
95.01500
 21
93.50000
  0
LINE
  8
Reference_points
 62
   1
 39
0.100
  6
CONTINUOUS
 10
94.00000
 20
92.48500
 30
 0
 11
94.00000
 21
94.51500
  0
LINE
  8
Reference_points
 62
   1
 39
0.100
  6
CONTINUOUS
 10
92.98500
 20
73.50000
 30
 0
 11
95.01500
 21
73.50000
  0
LINE
  8
Reference_points
 62
   1
 39
0.100
  6
CONTINUOUS
 10
94.00000
 20
72.48500
 30
 0
 11
94.00000
 21
74.51500
  0
LINE
  8
Reference_points
 62
   1
 39
0.100
  6
CONTINUOUS
 10
122.98500
 20
35.50000
 30
 0
 11
125.01500
 21
35.50000
  0
LINE
  8
Reference_points
 62
   1
 39
0.100
  6
CONTINUOUS
 10
124.00000
 20
34.48500
 30
 0
 11
124.00000
 21
36.51500
  0
LINE
  8
Reference_points
 62
   1
 39
0.100
  6
CONTINUOUS
 10
142.98500
 20
35.50000
 30
 0
 11
145.01500
 21
35.50000
  0
LINE
  8
Reference_points
 62
   1
 39
0.100
  6
CONTINUOUS
 10
144.00000
 20
34.48500
 30
 0
 11
144.00000
 21
36.51500
  0
LINE
  8
Reference_points
 62
   1
 39
0.100
  6
CONTINUOUS
 10
122.98500
 20
16.50000
 30
 0
 11
125.01500
 21
16.50000
  0
LINE
  8
Reference_points
 62
   1
 39
0.100
  6
CONTINUOUS
 10
124.00000
 20
15.48500
 30
 0
 11
124.00000
 21
17.51500
  0
LINE
  8
Reference_points
 62
   1
 39
0.100
  6
CONTINUOUS
 10
142.98500
 20
16.50000
 30
 0
 11
145.01500
 21
16.50000
  0
LINE
  8
Reference_points
 62
   1
 39
0.100
  6
CONTINUOUS
 10
144.00000
 20
15.48500
 30
 0
 11
144.00000
 21
17.51500
  0
LINE
  8
Reference_points
 62
   1
 39
0.100
  6
CONTINUOUS
 10
27.98500
 20
73.50000
 30
 0
 11
30.01500
 21
73.50000
  0
LINE
  8
Reference_points
 62
   1
 39
0.100
  6
CONTINUOUS
 10
29.00000
 20
72.48500
 30
 0
 11
29.00000
 21
74.51500
  0
LINE
  8
Reference_points
 62
   1
 39
0.100
  6
CONTINUOUS
 10
27.98500
 20
54.50000
 30
 0
 11
30.01500
 21
54.50000
  0
LINE
  8
Reference_points
 62
   1
 39
0.100
  6
CONTINUOUS
 10
29.00000
 20
53.48500
 30
 0
 11
29.00000
 21
55.51500
  0
LINE
  8
Reference_points
 62
   1
 39
0.100
  6
CONTINUOUS
 10
7.98500
 20
16.50000
 30
 0
 11
10.01500
 21
16.50000
  0
LINE
  8
Reference_points
 62
   1
 39
0.100
  6
CONTINUOUS
 10
9.00000
 20
15.48500
 30
 0
 11
9.00000
 21
17.51500
  0
LINE
  8
Reference_points
 62
   1
 39
0.100
  6
CONTINUOUS
 10
27.98500
 20
16.50000
 30
 0
 11
30.01500
 21
16.50000
  0
LINE
  8
Reference_points
 62
   1
 39
0.100
  6
CONTINUOUS
 10
29.00000
 20
15.48500
 30
 0
 11
29.00000
 21
17.51500
  0
LINE
  8
Reference_points
 62
   1
 39
0.100
  6
CONTINUOUS
 10
27.98500
 20
113.50000
 30
 0
 11
30.01500
 21
113.50000
  0
LINE
  8
Reference_points
 62
   1
 39
0.100
  6
CONTINUOUS
 10
29.00000
 20
112.48500
 30
 0
 11
29.00000
 21
114.51500
  0
LINE
  8
Reference_points
 62
   1
 39
0.100
  6
CONTINUOUS
 10
49.98500
 20
33.50000
 30
 0
 11
52.01500
 21
33.50000
  0
LINE
  8
Reference_points
 62
   1
 39
0.100
  6
CONTINUOUS
 10
51.00000
 20
32.48500
 30
 0
 11
51.00000
 21
34.51500
  0
LINE
  8
Reference_points
 62
   1
 39
0.100
  6
CONTINUOUS
 10
64.98500
 20
33.50000
 30
 0
 11
67.01500
 21
33.50000
  0
LINE
  8
Reference_points
 62
   1
 39
0.100
  6
CONTINUOUS
 10
66.00000
 20
32.48500
 30
 0
 11
66.00000
 21
34.51500
  0
LINE
  8
Reference_points
 62
   1
 39
0.100
  6
CONTINUOUS
 10
79.98500
 20
33.50000
 30
 0
 11
82.01500
 21
33.50000
  0
LINE
  8
Reference_points
 62
   1
 39
0.100
  6
CONTINUOUS
 10
81.00000
 20
32.48500
 30
 0
 11
81.00000
 21
34.51500
  0
LINE
  8
Reference_points
 62
   1
 39
0.100
  6
CONTINUOUS
 10
67.98500
 20
73.50000
 30
 0
 11
70.01500
 21
73.50000
  0
LINE
  8
Reference_points
 62
   1
 39
0.100
  6
CONTINUOUS
 10
69.00000
 20
72.48500
 30
 0
 11
69.00000
 21
74.51500
  0
LINE
  8
Reference_points
 62
   1
 39
0.100
  6
CONTINUOUS
 10
87.98500
 20
54.50000
 30
 0
 11
90.01500
 21
54.50000
  0
LINE
  8
Reference_points
 62
   1
 39
0.100
  6
CONTINUOUS
 10
89.00000
 20
53.48500
 30
 0
 11
89.00000
 21
55.51500
  0
LINE
  8
Reference_points
 62
   1
 39
0.100
  6
CONTINUOUS
 10
102.98500
 20
35.50000
 30
 0
 11
105.01500
 21
35.50000
  0
LINE
  8
Reference_points
 62
   1
 39
0.100
  6
CONTINUOUS
 10
104.00000
 20
34.48500
 30
 0
 11
104.00000
 21
36.51500
  0
LINE
  8
Reference_points
 62
   1
 39
0.100
  6
CONTINUOUS
 10
102.98500
 20
16.50000
 30
 0
 11
105.01500
 21
16.50000
  0
LINE
  8
Reference_points
 62
   1
 39
0.100
  6
CONTINUOUS
 10
104.00000
 20
15.48500
 30
 0
 11
104.00000
 21
17.51500
  0
LINE
  8
Reference_points
 62
   1
 39
0.100
  6
CONTINUOUS
 10
142.98500
 20
51.50000
 30
 0
 11
145.01500
 21
51.50000
  0
LINE
  8
Reference_points
 62
   1
 39
0.100
  6
CONTINUOUS
 10
144.00000
 20
50.48500
 30
 0
 11
144.00000
 21
52.51500
  0
LINE
  8
Reference_points
 62
   1
 39
0.100
  6
CONTINUOUS
 10
111.98500
 20
113.50000
 30
 0
 11
114.01500
 21
113.50000
  0
LINE
  8
Reference_points
 62
   1
 39
0.100
  6
CONTINUOUS
 10
113.00000
 20
112.48500
 30
 0
 11
113.00000
 21
114.51500
  0
LINE
  8
Reference_points
 62
   1
 39
0.100
  6
CONTINUOUS
 10
111.98500
 20
98.50000
 30
 0
 11
114.01500
 21
98.50000
  0
LINE
  8
Reference_points
 62
   1
 39
0.100
  6
CONTINUOUS
 10
113.00000
 20
97.48500
 30
 0
 11
113.00000
 21
99.51500
  0
LINE
  8
Reference_points
 62
   1
 39
0.100
  6
CONTINUOUS
 10
111.98500
 20
83.50000
 30
 0
 11
114.01500
 21
83.50000
  0
LINE
  8
Reference_points
 62
   1
 39
0.100
  6
CONTINUOUS
 10
113.00000
 20
82.48500
 30
 0
 11
113.00000
 21
84.51500
  0
LINE
  8
Reference_points
 62
   1
 39
0.100
  6
CONTINUOUS
 10
111.98500
 20
68.50000
 30
 0
 11
114.01500
 21
68.50000
  0
LINE
  8
Reference_points
 62
   1
 39
0.100
  6
CONTINUOUS
 10
113.00000
 20
67.48500
 30
 0
 11
113.00000
 21
69.51500
  0
LINE
  8
Reference_points
 62
   1
 39
0.100
  6
CONTINUOUS
 10
127.98500
 20
113.50000
 30
 0
 11
130.01500
 21
113.50000
  0
LINE
  8
Reference_points
 62
   1
 39
0.100
  6
CONTINUOUS
 10
129.00000
 20
112.48500
 30
 0
 11
129.00000
 21
114.51500
  0
LINE
  8
Reference_points
 62
   1
 39
0.100
  6
CONTINUOUS
 10
127.98500
 20
98.50000
 30
 0
 11
130.01500
 21
98.50000
  0
LINE
  8
Reference_points
 62
   1
 39
0.100
  6
CONTINUOUS
 10
129.00000
 20
97.48500
 30
 0
 11
129.00000
 21
99.51500
  0
LINE
  8
Reference_points
 62
   1
 39
0.100
  6
CONTINUOUS
 10
127.98500
 20
83.50000
 30
 0
 11
130.01500
 21
83.50000
  0
LINE
  8
Reference_points
 62
   1
 39
0.100
  6
CONTINUOUS
 10
129.00000
 20
82.48500
 30
 0
 11
129.00000
 21
84.51500
  0
LINE
  8
Reference_points
 62
   1
 39
0.100
  6
CONTINUOUS
 10
127.98500
 20
68.50000
 30
 0
 11
130.01500
 21
68.50000
  0
LINE
  8
Reference_points
 62
   1
 39
0.100
  6
CONTINUOUS
 10
129.00000
 20
67.48500
 30
 0
 11
129.00000
 21
69.51500
  0
LINE
  8
Reference_points
 62
   1
 39
0.100
  6
CONTINUOUS
 10
142.98500
 20
113.50000
 30
 0
 11
145.01500
 21
113.50000
  0
LINE
  8
Reference_points
 62
   1
 39
0.100
  6
CONTINUOUS
 10
144.00000
 20
112.48500
 30
 0
 11
144.00000
 21
114.51500
  0
LINE
  8
Reference_points
 62
   1
 39
0.100
  6
CONTINUOUS
 10
142.98500
 20
98.50000
 30
 0
 11
145.01500
 21
98.50000
  0
LINE
  8
Reference_points
 62
   1
 39
0.100
  6
CONTINUOUS
 10
144.00000
 20
97.48500
 30
 0
 11
144.00000
 21
99.51500
  0
LINE
  8
Reference_points
 62
   1
 39
0.100
  6
CONTINUOUS
 10
142.98500
 20
83.50000
 30
 0
 11
145.01500
 21
83.50000
  0
LINE
  8
Reference_points
 62
   1
 39
0.100
  6
CONTINUOUS
 10
144.00000
 20
82.48500
 30
 0
 11
144.00000
 21
84.51500
  0
LINE
  8
Reference_points
 62
   1
 39
0.100
  6
CONTINUOUS
 10
142.98500
 20
68.50000
 30
 0
 11
145.01500
 21
68.50000
  0
LINE
  8
Reference_points
 62
   1
 39
0.100
  6
CONTINUOUS
 10
144.00000
 20
67.48500
 30
 0
 11
144.00000
 21
69.51500
  0
ENDSEC
  0
EOF
