  0
SECTION
  2
HEADER
  9
$MEASUREMENT
  70
  1
  9
$INSUNITS
  70
  4
  0
ENDSEC
  0
SECTION
  2
TABLES
  0
TABLE
  2
LTYPE
 70
     1
  0
LTYPE
  2
CONTINUOUS
 70
    64
  3
Ausgezogene Linie
 72
    65
 73
     0
 40
0.0
  0
ENDTAB
  0
TABLE
  2
LAYER
 70
     3
  0
LAYER
  2
Contour
 70
    64
 62
     7
  6
CONTINUOUS
  0
LAYER
  2
Engraving
 70
    64
 62
     7
  6
CONTINUOUS
  0
LAYER
  2
Reference_points
 70
    64
 62
     1
  6
CONTINUOUS
  0
ENDTAB
  0
TABLE
  2
STYLE
 70
     1
  0
STYLE
  2
TXT
 70
    64
 40
0.0
 41
1.0
 50
0.0
 71
     0
 42
3.500000
  3
TXT
  0
ENDTAB
  0
ENDSEC
  0
SECTION
  2
BLOCKS
  0
ENDSEC
  0
SECTION
  2
ENTITIES
  0
LINE
  8
Contour
 62
   7
 39
0.100
  6
CONTINUOUS
 10
152.00000
 20
128.50000
 30
 0
 11
152.00000
 21
0.00000
  0
LINE
  8
Contour
 62
   7
 39
0.100
  6
CONTINUOUS
 10
152.00000
 20
0.00000
 30
 0
 11
0.00000
 21
0.00000
  0
LINE
  8
Contour
 62
   7
 39
0.100
  6
CONTINUOUS
 10
0.00000
 20
0.00000
 30
 0
 11
0.00000
 21
128.50000
  0
LINE
  8
Contour
 62
   7
 39
0.100
  6
CONTINUOUS
 10
0.00000
 20
128.50000
 30
 0
 11
152.00000
 21
128.50000
  0
ARC
  8
Contour
 62
   7
 39
0.100
  6
CONTINUOUS
 10
7.50000
 20
125.50000
 30
 0
 40
2.99996
 50
170.40580
 51
189.59420
  0
ARC
  8
Contour
 62
   7
 39
0.100
  6
CONTINUOUS
 10
5.72522
 20
125.20000
 30
 0
 40
1.20000
 50
189.59407
 51
269.98969
  0
LINE
  8
Contour
 62
   7
 39
0.100
  6
CONTINUOUS
 10
5.72500
 20
124.00000
 30
 0
 11
9.27500
 21
124.00000
  0
ARC
  8
Contour
 62
   7
 39
0.100
  6
CONTINUOUS
 10
9.27478
 20
125.20000
 30
 0
 40
1.20000
 50
270.01031
 51
350.40593
  0
ARC
  8
Contour
 62
   7
 39
0.100
  6
CONTINUOUS
 10
7.50000
 20
125.50000
 30
 0
 40
2.99996
 50
350.40580
 51
369.59420
  0
ARC
  8
Contour
 62
   7
 39
0.100
  6
CONTINUOUS
 10
9.27478
 20
125.80000
 30
 0
 40
1.20000
 50
9.59407
 51
89.98969
  0
LINE
  8
Contour
 62
   7
 39
0.100
  6
CONTINUOUS
 10
9.27500
 20
127.00000
 30
 0
 11
5.72500
 21
127.00000
  0
ARC
  8
Contour
 62
   7
 39
0.100
  6
CONTINUOUS
 10
5.72522
 20
125.80000
 30
 0
 40
1.20000
 50
90.01031
 51
170.40593
  0
CIRCLE
  8
Contour
 62
   7
 39
0.100
  6
CONTINUOUS
 10
9.00000
 20
73.50000
 30
 0
 40
3.00000
  0
ARC
  8
Contour
 62
   7
 39
0.100
  6
CONTINUOUS
 10
144.50000
 20
125.50000
 30
 0
 40
2.99996
 50
170.40580
 51
189.59420
  0
ARC
  8
Contour
 62
   7
 39
0.100
  6
CONTINUOUS
 10
142.72522
 20
125.20000
 30
 0
 40
1.20000
 50
189.59407
 51
269.98969
  0
LINE
  8
Contour
 62
   7
 39
0.100
  6
CONTINUOUS
 10
142.72500
 20
124.00000
 30
 0
 11
146.27500
 21
124.00000
  0
ARC
  8
Contour
 62
   7
 39
0.100
  6
CONTINUOUS
 10
146.27478
 20
125.20000
 30
 0
 40
1.20000
 50
270.01031
 51
350.40593
  0
ARC
  8
Contour
 62
   7
 39
0.100
  6
CONTINUOUS
 10
144.50000
 20
125.50000
 30
 0
 40
2.99996
 50
350.40580
 51
369.59420
  0
ARC
  8
Contour
 62
   7
 39
0.100
  6
CONTINUOUS
 10
146.27478
 20
125.80000
 30
 0
 40
1.20000
 50
9.59407
 51
89.98969
  0
LINE
  8
Contour
 62
   7
 39
0.100
  6
CONTINUOUS
 10
146.27500
 20
127.00000
 30
 0
 11
142.72500
 21
127.00000
  0
ARC
  8
Contour
 62
   7
 39
0.100
  6
CONTINUOUS
 10
142.72522
 20
125.80000
 30
 0
 40
1.20000
 50
90.01031
 51
170.40593
  0
ARC
  8
Contour
 62
   7
 39
0.100
  6
CONTINUOUS
 10
7.50000
 20
3.00000
 30
 0
 40
2.99996
 50
170.40580
 51
189.59420
  0
ARC
  8
Contour
 62
   7
 39
0.100
  6
CONTINUOUS
 10
5.72522
 20
2.70000
 30
 0
 40
1.20000
 50
189.59407
 51
269.98969
  0
LINE
  8
Contour
 62
   7
 39
0.100
  6
CONTINUOUS
 10
5.72500
 20
1.50000
 30
 0
 11
9.27500
 21
1.50000
  0
ARC
  8
Contour
 62
   7
 39
0.100
  6
CONTINUOUS
 10
9.27478
 20
2.70000
 30
 0
 40
1.20000
 50
270.01031
 51
350.40593
  0
ARC
  8
Contour
 62
   7
 39
0.100
  6
CONTINUOUS
 10
7.50000
 20
3.00000
 30
 0
 40
2.99996
 50
350.40580
 51
369.59420
  0
ARC
  8
Contour
 62
   7
 39
0.100
  6
CONTINUOUS
 10
9.27478
 20
3.30000
 30
 0
 40
1.20000
 50
9.59407
 51
89.98969
  0
LINE
  8
Contour
 62
   7
 39
0.100
  6
CONTINUOUS
 10
9.27500
 20
4.50000
 30
 0
 11
5.72500
 21
4.50000
  0
ARC
  8
Contour
 62
   7
 39
0.100
  6
CONTINUOUS
 10
5.72522
 20
3.30000
 30
 0
 40
1.20000
 50
90.01031
 51
170.40593
  0
ARC
  8
Contour
 62
   7
 39
0.100
  6
CONTINUOUS
 10
144.50000
 20
3.00000
 30
 0
 40
2.99996
 50
170.40580
 51
189.59420
  0
ARC
  8
Contour
 62
   7
 39
0.100
  6
CONTINUOUS
 10
142.72522
 20
2.70000
 30
 0
 40
1.20000
 50
189.59407
 51
269.98969
  0
LINE
  8
Contour
 62
   7
 39
0.100
  6
CONTINUOUS
 10
142.72500
 20
1.50000
 30
 0
 11
146.27500
 21
1.50000
  0
ARC
  8
Contour
 62
   7
 39
0.100
  6
CONTINUOUS
 10
146.27478
 20
2.70000
 30
 0
 40
1.20000
 50
270.01031
 51
350.40593
  0
ARC
  8
Contour
 62
   7
 39
0.100
  6
CONTINUOUS
 10
144.50000
 20
3.00000
 30
 0
 40
2.99996
 50
350.40580
 51
369.59420
  0
ARC
  8
Contour
 62
   7
 39
0.100
  6
CONTINUOUS
 10
146.27478
 20
3.30000
 30
 0
 40
1.20000
 50
9.59407
 51
89.98969
  0
LINE
  8
Contour
 62
   7
 39
0.100
  6
CONTINUOUS
 10
146.27500
 20
4.50000
 30
 0
 11
142.72500
 21
4.50000
  0
ARC
  8
Contour
 62
   7
 39
0.100
  6
CONTINUOUS
 10
142.72522
 20
3.30000
 30
 0
 40
1.20000
 50
90.01031
 51
170.40593
  0
CIRCLE
  8
Contour
 62
   7
 39
0.100
  6
CONTINUOUS
 10
9.00000
 20
113.50000
 30
 0
 40
3.00000
  0
CIRCLE
  8
Contour
 62
   7
 39
0.100
  6
CONTINUOUS
 10
9.00000
 20
93.50000
 30
 0
 40
3.60000
  0
CIRCLE
  8
Contour
 62
   7
 39
0.100
  6
CONTINUOUS
 10
29.00000
 20
93.50000
 30
 0
 40
3.60000
  0
CIRCLE
  8
Contour
 62
   7
 39
0.100
  6
CONTINUOUS
 10
9.00000
 20
54.50000
 30
 0
 40
3.00000
  0
CIRCLE
  8
Contour
 62
   7
 39
0.100
  6
CONTINUOUS
 10
9.00000
 20
34.50000
 30
 0
 40
3.60000
  0
CIRCLE
  8
Contour
 62
   7
 39
0.100
  6
CONTINUOUS
 10
29.00000
 20
34.50000
 30
 0
 40
3.60000
  0
CIRCLE
  8
Contour
 62
   7
 39
0.100
  6
CONTINUOUS
 10
49.00000
 20
73.50000
 30
 0
 40
3.60000
  0
CIRCLE
  8
Contour
 62
   7
 39
0.100
  6
CONTINUOUS
 10
49.00000
 20
54.50000
 30
 0
 40
3.60000
  0
CIRCLE
  8
Contour
 62
   7
 39
0.100
  6
CONTINUOUS
 10
51.00000
 20
113.50000
 30
 0
 40
3.60000
  0
CIRCLE
  8
Contour
 62
   7
 39
0.100
  6
CONTINUOUS
 10
72.00000
 20
113.50000
 30
 0
 40
3.60000
  0
CIRCLE
  8
Contour
 62
   7
 39
0.100
  6
CONTINUOUS
 10
69.00000
 20
54.50000
 30
 0
 40
3.60000
  0
CIRCLE
  8
Contour
 62
   7
 39
0.100
  6
CONTINUOUS
 10
61.00000
 20
16.50000
 30
 0
 40
3.60000
  0
CIRCLE
  8
Contour
 62
   7
 39
0.100
  6
CONTINUOUS
 10
81.00000
 20
16.50000
 30
 0
 40
3.60000
  0
CIRCLE
  8
Contour
 62
   7
 39
0.100
  6
CONTINUOUS
 10
94.00000
 20
113.50000
 30
 0
 40
3.60000
  0
CIRCLE
  8
Contour
 62
   7
 39
0.100
  6
CONTINUOUS
 10
94.00000
 20
93.50000
 30
 0
 40
3.60000
  0
CIRCLE
  8
Contour
 62
   7
 39
0.100
  6
CONTINUOUS
 10
94.00000
 20
73.50000
 30
 0
 40
3.60000
  0
CIRCLE
  8
Contour
 62
   7
 39
0.100
  6
CONTINUOUS
 10
124.00000
 20
35.50000
 30
 0
 40
3.60000
  0
CIRCLE
  8
Contour
 62
   7
 39
0.100
  6
CONTINUOUS
 10
144.00000
 20
35.50000
 30
 0
 40
3.60000
  0
CIRCLE
  8
Contour
 62
   7
 39
0.100
  6
CONTINUOUS
 10
124.00000
 20
16.50000
 30
 0
 40
3.60000
  0
CIRCLE
  8
Contour
 62
   7
 39
0.100
  6
CONTINUOUS
 10
144.00000
 20
16.50000
 30
 0
 40
3.60000
  0
CIRCLE
  8
Contour
 62
   7
 39
0.100
  6
CONTINUOUS
 10
29.00000
 20
73.50000
 30
 0
 40
3.00000
  0
CIRCLE
  8
Contour
 62
   7
 39
0.100
  6
CONTINUOUS
 10
29.00000
 20
54.50000
 30
 0
 40
3.00000
  0
CIRCLE
  8
Contour
 62
   7
 39
0.100
  6
CONTINUOUS
 10
9.00000
 20
16.50000
 30
 0
 40
3.00000
  0
CIRCLE
  8
Contour
 62
   7
 39
0.100
  6
CONTINUOUS
 10
29.00000
 20
16.50000
 30
 0
 40
3.60000
  0
CIRCLE
  8
Contour
 62
   7
 39
0.100
  6
CONTINUOUS
 10
29.00000
 20
113.50000
 30
 0
 40
3.60000
  0
CIRCLE
  8
Contour
 62
   7
 39
0.100
  6
CONTINUOUS
 10
51.00000
 20
33.50000
 30
 0
 40
3.00000
  0
CIRCLE
  8
Contour
 62
   7
 39
0.100
  6
CONTINUOUS
 10
66.00000
 20
33.50000
 30
 0
 40
3.00000
  0
CIRCLE
  8
Contour
 62
   7
 39
0.100
  6
CONTINUOUS
 10
81.00000
 20
33.50000
 30
 0
 40
3.00000
  0
CIRCLE
  8
Contour
 62
   7
 39
0.100
  6
CONTINUOUS
 10
69.00000
 20
73.50000
 30
 0
 40
3.00000
  0
CIRCLE
  8
Contour
 62
   7
 39
0.100
  6
CONTINUOUS
 10
89.00000
 20
54.50000
 30
 0
 40
3.00000
  0
CIRCLE
  8
Contour
 62
   7
 39
0.100
  6
CONTINUOUS
 10
104.00000
 20
35.50000
 30
 0
 40
3.00000
  0
CIRCLE
  8
Contour
 62
   7
 39
0.100
  6
CONTINUOUS
 10
104.00000
 20
16.50000
 30
 0
 40
3.00000
  0
CIRCLE
  8
Contour
 62
   7
 39
0.100
  6
CONTINUOUS
 10
144.00000
 20
51.50000
 30
 0
 40
3.00000
  0
CIRCLE
  8
Contour
 62
   7
 39
0.100
  6
CONTINUOUS
 10
113.00000
 20
113.50000
 30
 0
 40
3.00000
  0
CIRCLE
  8
Contour
 62
   7
 39
0.100
  6
CONTINUOUS
 10
113.00000
 20
98.50000
 30
 0
 40
3.00000
  0
CIRCLE
  8
Contour
 62
   7
 39
0.100
  6
CONTINUOUS
 10
113.00000
 20
83.50000
 30
 0
 40
3.00000
  0
CIRCLE
  8
Contour
 62
   7
 39
0.100
  6
CONTINUOUS
 10
113.00000
 20
68.50000
 30
 0
 40
3.00000
  0
CIRCLE
  8
Contour
 62
   7
 39
0.100
  6
CONTINUOUS
 10
129.00000
 20
113.50000
 30
 0
 40
3.00000
  0
CIRCLE
  8
Contour
 62
   7
 39
0.100
  6
CONTINUOUS
 10
129.00000
 20
98.50000
 30
 0
 40
3.00000
  0
CIRCLE
  8
Contour
 62
   7
 39
0.100
  6
CONTINUOUS
 10
129.00000
 20
83.50000
 30
 0
 40
3.00000
  0
CIRCLE
  8
Contour
 62
   7
 39
0.100
  6
CONTINUOUS
 10
129.00000
 20
68.50000
 30
 0
 40
3.00000
  0
CIRCLE
  8
Contour
 62
   7
 39
0.100
  6
CONTINUOUS
 10
144.00000
 20
113.50000
 30
 0
 40
3.00000
  0
CIRCLE
  8
Contour
 62
   7
 39
0.100
  6
CONTINUOUS
 10
144.00000
 20
98.50000
 30
 0
 40
3.00000
  0
CIRCLE
  8
Contour
 62
   7
 39
0.100
  6
CONTINUOUS
 10
144.00000
 20
83.50000
 30
 0
 40
3.00000
  0
CIRCLE
  8
Contour
 62
   7
 39
0.100
  6
CONTINUOUS
 10
144.00000
 20
68.50000
 30
 0
 40
3.00000
  0
LINE
  8
Reference_points
 62
   1
 39
0.100
  6
CONTINUOUS
 10
-0.30100
 20
0.00000
 30
 0
 11
0.30100
 21
0.00000
  0
LINE
  8
Reference_points
 62
   1
 39
0.100
  6
CONTINUOUS
 10
0.00000
 20
-0.30100
 30
 0
 11
0.00000
 21
0.30100
  0
LINE
  8
Reference_points
 62
   1
 39
0.100
  6
CONTINUOUS
 10
7.19900
 20
125.50000
 30
 0
 11
7.80100
 21
125.50000
  0
LINE
  8
Reference_points
 62
   1
 39
0.100
  6
CONTINUOUS
 10
7.50000
 20
125.19900
 30
 0
 11
7.50000
 21
125.80100
  0
LINE
  8
Reference_points
 62
   1
 39
0.100
  6
CONTINUOUS
 10
8.69900
 20
73.50000
 30
 0
 11
9.30100
 21
73.50000
  0
LINE
  8
Reference_points
 62
   1
 39
0.100
  6
CONTINUOUS
 10
9.00000
 20
73.19900
 30
 0
 11
9.00000
 21
73.80100
  0
LINE
  8
Reference_points
 62
   1
 39
0.100
  6
CONTINUOUS
 10
144.19900
 20
125.50000
 30
 0
 11
144.80100
 21
125.50000
  0
LINE
  8
Reference_points
 62
   1
 39
0.100
  6
CONTINUOUS
 10
144.50000
 20
125.19900
 30
 0
 11
144.50000
 21
125.80100
  0
LINE
  8
Reference_points
 62
   1
 39
0.100
  6
CONTINUOUS
 10
7.19900
 20
3.00000
 30
 0
 11
7.80100
 21
3.00000
  0
LINE
  8
Reference_points
 62
   1
 39
0.100
  6
CONTINUOUS
 10
7.50000
 20
2.69900
 30
 0
 11
7.50000
 21
3.30100
  0
LINE
  8
Reference_points
 62
   1
 39
0.100
  6
CONTINUOUS
 10
144.19900
 20
3.00000
 30
 0
 11
144.80100
 21
3.00000
  0
LINE
  8
Reference_points
 62
   1
 39
0.100
  6
CONTINUOUS
 10
144.50000
 20
2.69900
 30
 0
 11
144.50000
 21
3.30100
  0
LINE
  8
Reference_points
 62
   1
 39
0.100
  6
CONTINUOUS
 10
8.69900
 20
113.50000
 30
 0
 11
9.30100
 21
113.50000
  0
LINE
  8
Reference_points
 62
   1
 39
0.100
  6
CONTINUOUS
 10
9.00000
 20
113.19900
 30
 0
 11
9.00000
 21
113.80100
  0
LINE
  8
Reference_points
 62
   1
 39
0.100
  6
CONTINUOUS
 10
8.69900
 20
93.50000
 30
 0
 11
9.30100
 21
93.50000
  0
LINE
  8
Reference_points
 62
   1
 39
0.100
  6
CONTINUOUS
 10
9.00000
 20
93.19900
 30
 0
 11
9.00000
 21
93.80100
  0
LINE
  8
Reference_points
 62
   1
 39
0.100
  6
CONTINUOUS
 10
28.69900
 20
93.50000
 30
 0
 11
29.30100
 21
93.50000
  0
LINE
  8
Reference_points
 62
   1
 39
0.100
  6
CONTINUOUS
 10
29.00000
 20
93.19900
 30
 0
 11
29.00000
 21
93.80100
  0
LINE
  8
Reference_points
 62
   1
 39
0.100
  6
CONTINUOUS
 10
8.69900
 20
54.50000
 30
 0
 11
9.30100
 21
54.50000
  0
LINE
  8
Reference_points
 62
   1
 39
0.100
  6
CONTINUOUS
 10
9.00000
 20
54.19900
 30
 0
 11
9.00000
 21
54.80100
  0
LINE
  8
Reference_points
 62
   1
 39
0.100
  6
CONTINUOUS
 10
8.69900
 20
34.50000
 30
 0
 11
9.30100
 21
34.50000
  0
LINE
  8
Reference_points
 62
   1
 39
0.100
  6
CONTINUOUS
 10
9.00000
 20
34.19900
 30
 0
 11
9.00000
 21
34.80100
  0
LINE
  8
Reference_points
 62
   1
 39
0.100
  6
CONTINUOUS
 10
28.69900
 20
34.50000
 30
 0
 11
29.30100
 21
34.50000
  0
LINE
  8
Reference_points
 62
   1
 39
0.100
  6
CONTINUOUS
 10
29.00000
 20
34.19900
 30
 0
 11
29.00000
 21
34.80100
  0
LINE
  8
Reference_points
 62
   1
 39
0.100
  6
CONTINUOUS
 10
48.69900
 20
73.50000
 30
 0
 11
49.30100
 21
73.50000
  0
LINE
  8
Reference_points
 62
   1
 39
0.100
  6
CONTINUOUS
 10
49.00000
 20
73.19900
 30
 0
 11
49.00000
 21
73.80100
  0
LINE
  8
Reference_points
 62
   1
 39
0.100
  6
CONTINUOUS
 10
48.69900
 20
54.50000
 30
 0
 11
49.30100
 21
54.50000
  0
LINE
  8
Reference_points
 62
   1
 39
0.100
  6
CONTINUOUS
 10
49.00000
 20
54.19900
 30
 0
 11
49.00000
 21
54.80100
  0
LINE
  8
Reference_points
 62
   1
 39
0.100
  6
CONTINUOUS
 10
50.69900
 20
113.50000
 30
 0
 11
51.30100
 21
113.50000
  0
LINE
  8
Reference_points
 62
   1
 39
0.100
  6
CONTINUOUS
 10
51.00000
 20
113.19900
 30
 0
 11
51.00000
 21
113.80100
  0
LINE
  8
Reference_points
 62
   1
 39
0.100
  6
CONTINUOUS
 10
71.69900
 20
113.50000
 30
 0
 11
72.30100
 21
113.50000
  0
LINE
  8
Reference_points
 62
   1
 39
0.100
  6
CONTINUOUS
 10
72.00000
 20
113.19900
 30
 0
 11
72.00000
 21
113.80100
  0
LINE
  8
Reference_points
 62
   1
 39
0.100
  6
CONTINUOUS
 10
68.69900
 20
54.50000
 30
 0
 11
69.30100
 21
54.50000
  0
LINE
  8
Reference_points
 62
   1
 39
0.100
  6
CONTINUOUS
 10
69.00000
 20
54.19900
 30
 0
 11
69.00000
 21
54.80100
  0
LINE
  8
Reference_points
 62
   1
 39
0.100
  6
CONTINUOUS
 10
60.69900
 20
16.50000
 30
 0
 11
61.30100
 21
16.50000
  0
LINE
  8
Reference_points
 62
   1
 39
0.100
  6
CONTINUOUS
 10
61.00000
 20
16.19900
 30
 0
 11
61.00000
 21
16.80100
  0
LINE
  8
Reference_points
 62
   1
 39
0.100
  6
CONTINUOUS
 10
80.69900
 20
16.50000
 30
 0
 11
81.30100
 21
16.50000
  0
LINE
  8
Reference_points
 62
   1
 39
0.100
  6
CONTINUOUS
 10
81.00000
 20
16.19900
 30
 0
 11
81.00000
 21
16.80100
  0
LINE
  8
Reference_points
 62
   1
 39
0.100
  6
CONTINUOUS
 10
93.69900
 20
113.50000
 30
 0
 11
94.30100
 21
113.50000
  0
LINE
  8
Reference_points
 62
   1
 39
0.100
  6
CONTINUOUS
 10
94.00000
 20
113.19900
 30
 0
 11
94.00000
 21
113.80100
  0
LINE
  8
Reference_points
 62
   1
 39
0.100
  6
CONTINUOUS
 10
93.69900
 20
93.50000
 30
 0
 11
94.30100
 21
93.50000
  0
LINE
  8
Reference_points
 62
   1
 39
0.100
  6
CONTINUOUS
 10
94.00000
 20
93.19900
 30
 0
 11
94.00000
 21
93.80100
  0
LINE
  8
Reference_points
 62
   1
 39
0.100
  6
CONTINUOUS
 10
93.69900
 20
73.50000
 30
 0
 11
94.30100
 21
73.50000
  0
LINE
  8
Reference_points
 62
   1
 39
0.100
  6
CONTINUOUS
 10
94.00000
 20
73.19900
 30
 0
 11
94.00000
 21
73.80100
  0
LINE
  8
Reference_points
 62
   1
 39
0.100
  6
CONTINUOUS
 10
123.69900
 20
35.50000
 30
 0
 11
124.30100
 21
35.50000
  0
LINE
  8
Reference_points
 62
   1
 39
0.100
  6
CONTINUOUS
 10
124.00000
 20
35.19900
 30
 0
 11
124.00000
 21
35.80100
  0
LINE
  8
Reference_points
 62
   1
 39
0.100
  6
CONTINUOUS
 10
143.69900
 20
35.50000
 30
 0
 11
144.30100
 21
35.50000
  0
LINE
  8
Reference_points
 62
   1
 39
0.100
  6
CONTINUOUS
 10
144.00000
 20
35.19900
 30
 0
 11
144.00000
 21
35.80100
  0
LINE
  8
Reference_points
 62
   1
 39
0.100
  6
CONTINUOUS
 10
123.69900
 20
16.50000
 30
 0
 11
124.30100
 21
16.50000
  0
LINE
  8
Reference_points
 62
   1
 39
0.100
  6
CONTINUOUS
 10
124.00000
 20
16.19900
 30
 0
 11
124.00000
 21
16.80100
  0
LINE
  8
Reference_points
 62
   1
 39
0.100
  6
CONTINUOUS
 10
143.69900
 20
16.50000
 30
 0
 11
144.30100
 21
16.50000
  0
LINE
  8
Reference_points
 62
   1
 39
0.100
  6
CONTINUOUS
 10
144.00000
 20
16.19900
 30
 0
 11
144.00000
 21
16.80100
  0
LINE
  8
Reference_points
 62
   1
 39
0.100
  6
CONTINUOUS
 10
28.69900
 20
73.50000
 30
 0
 11
29.30100
 21
73.50000
  0
LINE
  8
Reference_points
 62
   1
 39
0.100
  6
CONTINUOUS
 10
29.00000
 20
73.19900
 30
 0
 11
29.00000
 21
73.80100
  0
LINE
  8
Reference_points
 62
   1
 39
0.100
  6
CONTINUOUS
 10
28.69900
 20
54.50000
 30
 0
 11
29.30100
 21
54.50000
  0
LINE
  8
Reference_points
 62
   1
 39
0.100
  6
CONTINUOUS
 10
29.00000
 20
54.19900
 30
 0
 11
29.00000
 21
54.80100
  0
LINE
  8
Reference_points
 62
   1
 39
0.100
  6
CONTINUOUS
 10
8.69900
 20
16.50000
 30
 0
 11
9.30100
 21
16.50000
  0
LINE
  8
Reference_points
 62
   1
 39
0.100
  6
CONTINUOUS
 10
9.00000
 20
16.19900
 30
 0
 11
9.00000
 21
16.80100
  0
LINE
  8
Reference_points
 62
   1
 39
0.100
  6
CONTINUOUS
 10
28.69900
 20
16.50000
 30
 0
 11
29.30100
 21
16.50000
  0
LINE
  8
Reference_points
 62
   1
 39
0.100
  6
CONTINUOUS
 10
29.00000
 20
16.19900
 30
 0
 11
29.00000
 21
16.80100
  0
LINE
  8
Reference_points
 62
   1
 39
0.100
  6
CONTINUOUS
 10
28.69900
 20
113.50000
 30
 0
 11
29.30100
 21
113.50000
  0
LINE
  8
Reference_points
 62
   1
 39
0.100
  6
CONTINUOUS
 10
29.00000
 20
113.19900
 30
 0
 11
29.00000
 21
113.80100
  0
LINE
  8
Reference_points
 62
   1
 39
0.100
  6
CONTINUOUS
 10
50.69900
 20
33.50000
 30
 0
 11
51.30100
 21
33.50000
  0
LINE
  8
Reference_points
 62
   1
 39
0.100
  6
CONTINUOUS
 10
51.00000
 20
33.19900
 30
 0
 11
51.00000
 21
33.80100
  0
LINE
  8
Reference_points
 62
   1
 39
0.100
  6
CONTINUOUS
 10
65.69900
 20
33.50000
 30
 0
 11
66.30100
 21
33.50000
  0
LINE
  8
Reference_points
 62
   1
 39
0.100
  6
CONTINUOUS
 10
66.00000
 20
33.19900
 30
 0
 11
66.00000
 21
33.80100
  0
LINE
  8
Reference_points
 62
   1
 39
0.100
  6
CONTINUOUS
 10
80.69900
 20
33.50000
 30
 0
 11
81.30100
 21
33.50000
  0
LINE
  8
Reference_points
 62
   1
 39
0.100
  6
CONTINUOUS
 10
81.00000
 20
33.19900
 30
 0
 11
81.00000
 21
33.80100
  0
LINE
  8
Reference_points
 62
   1
 39
0.100
  6
CONTINUOUS
 10
68.69900
 20
73.50000
 30
 0
 11
69.30100
 21
73.50000
  0
LINE
  8
Reference_points
 62
   1
 39
0.100
  6
CONTINUOUS
 10
69.00000
 20
73.19900
 30
 0
 11
69.00000
 21
73.80100
  0
LINE
  8
Reference_points
 62
   1
 39
0.100
  6
CONTINUOUS
 10
88.69900
 20
54.50000
 30
 0
 11
89.30100
 21
54.50000
  0
LINE
  8
Reference_points
 62
   1
 39
0.100
  6
CONTINUOUS
 10
89.00000
 20
54.19900
 30
 0
 11
89.00000
 21
54.80100
  0
LINE
  8
Reference_points
 62
   1
 39
0.100
  6
CONTINUOUS
 10
103.69900
 20
35.50000
 30
 0
 11
104.30100
 21
35.50000
  0
LINE
  8
Reference_points
 62
   1
 39
0.100
  6
CONTINUOUS
 10
104.00000
 20
35.19900
 30
 0
 11
104.00000
 21
35.80100
  0
LINE
  8
Reference_points
 62
   1
 39
0.100
  6
CONTINUOUS
 10
103.69900
 20
16.50000
 30
 0
 11
104.30100
 21
16.50000
  0
LINE
  8
Reference_points
 62
   1
 39
0.100
  6
CONTINUOUS
 10
104.00000
 20
16.19900
 30
 0
 11
104.00000
 21
16.80100
  0
LINE
  8
Reference_points
 62
   1
 39
0.100
  6
CONTINUOUS
 10
143.69900
 20
51.50000
 30
 0
 11
144.30100
 21
51.50000
  0
LINE
  8
Reference_points
 62
   1
 39
0.100
  6
CONTINUOUS
 10
144.00000
 20
51.19900
 30
 0
 11
144.00000
 21
51.80100
  0
LINE
  8
Reference_points
 62
   1
 39
0.100
  6
CONTINUOUS
 10
112.69900
 20
113.50000
 30
 0
 11
113.30100
 21
113.50000
  0
LINE
  8
Reference_points
 62
   1
 39
0.100
  6
CONTINUOUS
 10
113.00000
 20
113.19900
 30
 0
 11
113.00000
 21
113.80100
  0
LINE
  8
Reference_points
 62
   1
 39
0.100
  6
CONTINUOUS
 10
112.69900
 20
98.50000
 30
 0
 11
113.30100
 21
98.50000
  0
LINE
  8
Reference_points
 62
   1
 39
0.100
  6
CONTINUOUS
 10
113.00000
 20
98.19900
 30
 0
 11
113.00000
 21
98.80100
  0
LINE
  8
Reference_points
 62
   1
 39
0.100
  6
CONTINUOUS
 10
112.69900
 20
83.50000
 30
 0
 11
113.30100
 21
83.50000
  0
LINE
  8
Reference_points
 62
   1
 39
0.100
  6
CONTINUOUS
 10
113.00000
 20
83.19900
 30
 0
 11
113.00000
 21
83.80100
  0
LINE
  8
Reference_points
 62
   1
 39
0.100
  6
CONTINUOUS
 10
112.69900
 20
68.50000
 30
 0
 11
113.30100
 21
68.50000
  0
LINE
  8
Reference_points
 62
   1
 39
0.100
  6
CONTINUOUS
 10
113.00000
 20
68.19900
 30
 0
 11
113.00000
 21
68.80100
  0
LINE
  8
Reference_points
 62
   1
 39
0.100
  6
CONTINUOUS
 10
128.69900
 20
113.50000
 30
 0
 11
129.30100
 21
113.50000
  0
LINE
  8
Reference_points
 62
   1
 39
0.100
  6
CONTINUOUS
 10
129.00000
 20
113.19900
 30
 0
 11
129.00000
 21
113.80100
  0
LINE
  8
Reference_points
 62
   1
 39
0.100
  6
CONTINUOUS
 10
128.69900
 20
98.50000
 30
 0
 11
129.30100
 21
98.50000
  0
LINE
  8
Reference_points
 62
   1
 39
0.100
  6
CONTINUOUS
 10
129.00000
 20
98.19900
 30
 0
 11
129.00000
 21
98.80100
  0
LINE
  8
Reference_points
 62
   1
 39
0.100
  6
CONTINUOUS
 10
128.69900
 20
83.50000
 30
 0
 11
129.30100
 21
83.50000
  0
LINE
  8
Reference_points
 62
   1
 39
0.100
  6
CONTINUOUS
 10
129.00000
 20
83.19900
 30
 0
 11
129.00000
 21
83.80100
  0
LINE
  8
Reference_points
 62
   1
 39
0.100
  6
CONTINUOUS
 10
128.69900
 20
68.50000
 30
 0
 11
129.30100
 21
68.50000
  0
LINE
  8
Reference_points
 62
   1
 39
0.100
  6
CONTINUOUS
 10
129.00000
 20
68.19900
 30
 0
 11
129.00000
 21
68.80100
  0
LINE
  8
Reference_points
 62
   1
 39
0.100
  6
CONTINUOUS
 10
143.69900
 20
113.50000
 30
 0
 11
144.30100
 21
113.50000
  0
LINE
  8
Reference_points
 62
   1
 39
0.100
  6
CONTINUOUS
 10
144.00000
 20
113.19900
 30
 0
 11
144.00000
 21
113.80100
  0
LINE
  8
Reference_points
 62
   1
 39
0.100
  6
CONTINUOUS
 10
143.69900
 20
98.50000
 30
 0
 11
144.30100
 21
98.50000
  0
LINE
  8
Reference_points
 62
   1
 39
0.100
  6
CONTINUOUS
 10
144.00000
 20
98.19900
 30
 0
 11
144.00000
 21
98.80100
  0
LINE
  8
Reference_points
 62
   1
 39
0.100
  6
CONTINUOUS
 10
143.69900
 20
83.50000
 30
 0
 11
144.30100
 21
83.50000
  0
LINE
  8
Reference_points
 62
   1
 39
0.100
  6
CONTINUOUS
 10
144.00000
 20
83.19900
 30
 0
 11
144.00000
 21
83.80100
  0
LINE
  8
Reference_points
 62
   1
 39
0.100
  6
CONTINUOUS
 10
143.69900
 20
68.50000
 30
 0
 11
144.30100
 21
68.50000
  0
LINE
  8
Reference_points
 62
   1
 39
0.100
  6
CONTINUOUS
 10
144.00000
 20
68.19900
 30
 0
 11
144.00000
 21
68.80100
  0
ENDSEC
  0
EOF
